<svg xmlns="http://www.w3.org/2000/svg" viewBox="0 -0.5 267 150" shape-rendering="crispEdges">
<metadata>Made with Pixels to Svg https://codepen.io/shshaw/pen/XbxvNj</metadata>
<path stroke="#000000" d="M0 0h267M0 1h267M0 2h267M0 3h267M0 4h267M0 5h267M0 6h267M0 7h267M0 8h267M0 9h267M0 10h267M0 11h267M0 12h267M0 13h267M0 14h267M0 15h267M0 16h267M0 17h267M0 18h267M0 19h267M0 20h267M0 21h267M0 22h267M0 23h267M0 24h267M0 25h267M0 26h267M0 27h33M37 27h4M47 27h6M57 27h4M67 27h10M83 27h2M91 27h6M101 27h6M111 27h4M123 27h6M135 27h4M145 27h6M155 27h6M165 27h4M175 27h6M185 27h4M191 27h6M199 27h68M0 28h33M37 28h4M47 28h6M57 28h4M67 28h10M83 28h2M91 28h6M101 28h6M111 28h4M123 28h6M135 28h4M145 28h6M155 28h6M165 28h4M175 28h6M185 28h4M191 28h6M199 28h68M0 29h31M33 29h4M39 29h2M43 29h4M49 29h2M53 29h4M59 29h2M63 29h4M69 29h6M77 29h8M87 29h4M93 29h2M97 29h4M103 29h2M107 29h4M113 29h2M117 29h12M131 29h4M137 29h2M141 29h4M147 29h2M151 29h4M157 29h2M161 29h8M171 29h4M177 29h2M181 29h4M187 29h2M193 29h2M199 29h68M0 30h31M33 30h4M39 30h2M43 30h4M49 30h2M53 30h4M59 30h2M63 30h4M69 30h6M77 30h8M87 30h4M93 30h2M97 30h4M103 30h2M107 30h4M113 30h2M117 30h12M131 30h4M137 30h2M141 30h4M147 30h2M151 30h4M157 30h2M161 30h8M171 30h4M177 30h2M181 30h4M187 30h2M193 30h2M199 30h68M0 31h31M33 31h8M47 31h4M59 31h2M67 31h10M81 31h4M91 31h4M103 31h2M107 31h8M121 31h8M135 31h4M145 31h4M151 31h4M157 31h2M161 31h2M167 31h2M175 31h4M187 31h2M191 31h2M195 31h2M199 31h68M0 32h31M33 32h8M47 32h4M59 32h2M67 32h10M81 32h4M91 32h4M103 32h2M107 32h8M121 32h8M135 32h4M145 32h4M151 32h4M157 32h2M161 32h2M167 32h2M175 32h4M187 32h2M191 32h2M195 32h2M199 32h68M0 33h31M33 33h4M39 33h2M43 33h2M47 33h4M53 33h4M59 33h2M63 33h4M69 33h12M83 33h2M87 33h8M97 33h4M103 33h2M107 33h4M113 33h2M117 33h12M131 33h8M141 33h2M145 33h4M151 33h4M157 33h2M161 33h4M167 33h2M171 33h2M175 33h4M181 33h4M187 33h2M191 33h6M199 33h68M0 34h31M33 34h4M39 34h2M43 34h2M47 34h4M53 34h4M59 34h2M63 34h4M69 34h12M83 34h2M87 34h8M97 34h4M103 34h2M107 34h4M113 34h2M117 34h12M131 34h8M141 34h2M145 34h4M151 34h4M157 34h2M161 34h4M167 34h2M171 34h2M175 34h4M181 34h4M187 34h2M191 34h6M199 34h68M0 35h33M37 35h4M43 35h4M49 35h2M53 35h4M59 35h2M67 35h8M81 35h4M87 35h8M97 35h4M103 35h4M111 35h4M123 35h6M131 35h8M141 35h4M147 35h4M155 35h6M165 35h4M171 35h4M177 35h2M181 35h4M187 35h2M191 35h6M199 35h68M0 36h33M37 36h4M43 36h4M49 36h2M53 36h4M59 36h2M67 36h8M81 36h4M87 36h8M97 36h4M103 36h4M111 36h4M123 36h6M131 36h8M141 36h4M147 36h4M155 36h6M165 36h4M171 36h4M177 36h2M181 36h4M187 36h2M191 36h6M199 36h68M0 37h267M0 38h267M0 39h267M0 40h267M0 41h267M0 42h267M0 43h267M0 44h267M0 45h267M0 46h267M0 47h267M0 48h267M0 49h267M0 50h32M33 50h3M37 50h1M41 50h2M46 50h2M51 50h1M55 50h2M59 50h2M62 50h2M65 50h3M71 50h2M77 50h1M81 50h3M86 50h2M91 50h2M98 50h2M101 50h166M0 51h32M34 51h1M37 51h2M40 51h2M43 51h4M48 51h5M54 51h2M57 51h2M60 51h1M63 51h1M65 51h3M69 51h2M72 51h1M74 51h4M79 51h2M82 51h1M84 51h2M87 51h1M89 51h2M92 51h3M96 51h171M0 52h32M33 52h1M35 52h1M37 52h2M40 52h3M45 52h3M50 52h3M54 52h2M57 52h2M60 52h1M62 52h1M65 52h3M71 52h2M76 52h2M81 52h2M84 52h2M87 52h1M91 52h4M96 52h171M0 53h32M33 53h3M37 53h2M40 53h5M46 53h4M51 53h2M54 53h2M57 53h2M60 53h1M62 53h2M65 53h3M69 53h1M71 53h2M74 53h4M79 53h4M84 53h2M87 53h1M89 53h1M91 53h4M96 53h171M0 54h32M33 54h3M37 54h1M41 54h1M45 54h2M50 54h2M55 54h2M59 54h2M62 54h2M65 54h3M69 54h2M72 54h1M77 54h1M79 54h5M86 54h2M89 54h2M92 54h3M96 54h4M101 54h166M0 55h267M0 56h267M0 57h267M0 58h267M0 59h267M0 60h267M0 61h267M0 62h32M37 62h1M41 62h2M46 62h2M50 62h2M53 62h6M63 62h2M67 62h2M72 62h1M74 62h4M82 62h1M86 62h4M93 62h2M96 62h2M99 62h1M104 62h3M112 62h2M116 62h5M123 62h2M128 62h3M133 62h3M139 62h1M141 62h2M144 62h123M0 63h34M35 63h3M39 63h2M42 63h2M45 63h2M48 63h2M51 63h1M53 63h6M60 63h4M65 63h2M68 63h2M71 63h2M74 63h4M79 63h4M84 63h2M87 63h3M91 63h2M94 63h1M96 63h2M99 63h1M101 63h8M110 63h3M114 63h2M117 63h3M121 63h2M124 63h1M126 63h2M129 63h1M131 63h2M134 63h1M136 63h4M141 63h2M144 63h123M0 64h34M35 64h3M41 64h3M45 64h2M51 64h1M53 64h6M62 64h2M68 64h2M71 64h2M74 64h4M81 64h2M84 64h2M87 64h3M91 64h2M94 64h1M96 64h2M99 64h1M103 64h6M110 64h3M114 64h2M117 64h3M121 64h4M128 64h2M134 64h2M138 64h2M144 64h123M0 65h34M35 65h3M39 65h1M41 65h3M45 65h2M48 65h2M51 65h1M53 65h6M60 65h4M65 65h2M68 65h2M71 65h2M74 65h4M79 65h4M84 65h2M87 65h3M91 65h2M94 65h1M96 65h2M99 65h1M101 65h8M110 65h3M114 65h2M117 65h3M121 65h2M124 65h1M126 65h1M128 65h2M131 65h2M134 65h4M139 65h1M141 65h2M144 65h123M0 66h34M35 66h3M39 66h2M42 66h1M46 66h1M48 66h2M51 66h1M56 66h3M60 66h4M65 66h2M68 66h1M72 66h1M77 66h1M82 66h1M86 66h4M93 66h3M98 66h2M104 66h5M110 66h4M116 66h5M123 66h2M126 66h2M129 66h1M131 66h2M134 66h1M138 66h2M141 66h2M144 66h2M147 66h120M0 67h267M0 68h267M0 69h267M0 70h267M0 71h267M0 72h267M0 73h267M0 74h32M36 74h1M38 74h2M41 74h1M43 74h2M46 74h1M50 74h2M55 74h1M57 74h2M60 74h2M64 74h4M69 74h5M76 74h3M82 74h1M88 74h179M0 75h32M33 75h4M38 75h2M41 75h1M44 75h1M46 75h1M48 75h2M51 75h2M54 75h2M58 75h1M60 75h1M62 75h6M69 75h4M74 75h2M77 75h1M79 75h6M86 75h181M0 76h32M35 76h2M38 76h2M41 76h1M43 76h1M46 76h1M48 76h2M51 76h2M54 76h2M57 76h1M60 76h1M62 76h1M65 76h3M69 76h4M74 76h2M77 76h2M81 76h4M86 76h181M0 77h32M33 77h4M38 77h2M41 77h1M43 77h2M46 77h1M48 77h2M51 77h2M54 77h2M57 77h2M60 77h1M62 77h2M65 77h3M69 77h4M74 77h2M77 77h4M82 77h3M86 77h181M0 78h32M33 78h5M40 78h2M43 78h2M46 78h1M50 78h2M55 78h1M57 78h2M60 78h2M64 78h4M72 78h2M76 78h2M81 78h4M86 78h3M90 78h177M0 79h267M0 80h267M0 81h267M0 82h267M0 83h267M0 84h267M0 85h267M0 86h267M0 87h267M0 88h267M0 89h267M0 90h267M0 91h267M0 92h64M191 92h76M0 93h63M192 93h75M0 94h62M193 94h74M0 95h61M194 95h73M0 96h61M194 96h73M0 97h61M194 97h73M0 98h61M194 98h73M0 99h61M194 99h73M0 100h61M194 100h73M0 101h61M194 101h73M0 102h61M194 102h73M0 103h61M85 103h10M97 103h6M107 103h2M115 103h2M125 103h4M135 103h4M145 103h4M153 103h6M161 103h2M167 103h2M194 103h73M0 104h61M85 104h10M97 104h6M107 104h2M115 104h2M125 104h4M135 104h4M145 104h4M153 104h6M161 104h2M167 104h2M194 104h73M0 105h61M89 105h2M97 105h2M103 105h2M107 105h2M115 105h2M123 105h2M129 105h2M133 105h2M143 105h2M149 105h2M155 105h2M161 105h4M167 105h2M194 105h73M0 106h61M89 106h2M97 106h2M103 106h2M107 106h2M115 106h2M123 106h2M129 106h2M133 106h2M143 106h2M149 106h2M155 106h2M161 106h4M167 106h2M194 106h73M0 107h61M89 107h2M97 107h6M109 107h6M123 107h8M133 107h2M137 107h4M143 107h8M155 107h2M161 107h2M165 107h4M194 107h73M0 108h61M89 108h2M97 108h6M109 108h6M123 108h8M133 108h2M137 108h4M143 108h8M155 108h2M161 108h2M165 108h4M194 108h73M0 109h61M89 109h2M97 109h2M101 109h2M111 109h2M123 109h2M129 109h2M133 109h2M139 109h2M143 109h2M149 109h2M155 109h2M161 109h2M167 109h2M194 109h73M0 110h61M89 110h2M97 110h2M101 110h2M111 110h2M123 110h2M129 110h2M133 110h2M139 110h2M143 110h2M149 110h2M155 110h2M161 110h2M167 110h2M194 110h73M0 111h61M89 111h2M97 111h2M103 111h2M111 111h2M123 111h2M129 111h2M135 111h4M143 111h2M149 111h2M153 111h6M161 111h2M167 111h2M194 111h73M0 112h61M89 112h2M97 112h2M103 112h2M111 112h2M123 112h2M129 112h2M135 112h4M143 112h2M149 112h2M153 112h6M161 112h2M167 112h2M194 112h73M0 113h61M194 113h73M0 114h61M194 114h73M0 115h61M194 115h73M0 116h61M194 116h73M0 117h61M194 117h73M0 118h61M194 118h73M0 119h61M194 119h73M0 120h61M194 120h73M0 121h61M194 121h73M0 122h61M194 122h73M0 123h61M194 123h73M0 124h61M194 124h73M0 125h61M194 125h73M0 126h61M194 126h73M0 127h62M193 127h74M0 128h63M192 128h75M0 129h64M191 129h76M0 130h267M0 131h267M0 132h267M0 133h267M0 134h267M0 135h267M0 136h267M0 137h267M0 138h267M0 139h267M0 140h267M0 141h267M0 142h267M0 143h267M0 144h267M0 145h267M0 146h267M0 147h267M0 148h267M0 149h267" />
<path stroke="#ffffff" d="M33 27h4M41 27h6M53 27h4M61 27h6M77 27h6M85 27h6M97 27h4M107 27h4M115 27h8M129 27h6M139 27h6M151 27h4M161 27h4M169 27h6M181 27h4M189 27h2M197 27h2M33 28h4M41 28h6M53 28h4M61 28h6M77 28h6M85 28h6M97 28h4M107 28h4M115 28h8M129 28h6M139 28h6M151 28h4M161 28h4M169 28h6M181 28h4M189 28h2M197 28h2M31 29h2M37 29h2M41 29h2M47 29h2M51 29h2M57 29h2M61 29h2M67 29h2M75 29h2M85 29h2M91 29h2M95 29h2M101 29h2M105 29h2M111 29h2M115 29h2M129 29h2M135 29h2M139 29h2M145 29h2M149 29h2M155 29h2M159 29h2M169 29h2M175 29h2M179 29h2M185 29h2M189 29h4M195 29h4M31 30h2M37 30h2M41 30h2M47 30h2M51 30h2M57 30h2M61 30h2M67 30h2M75 30h2M85 30h2M91 30h2M95 30h2M101 30h2M105 30h2M111 30h2M115 30h2M129 30h2M135 30h2M139 30h2M145 30h2M149 30h2M155 30h2M159 30h2M169 30h2M175 30h2M179 30h2M185 30h2M189 30h4M195 30h4M31 31h2M41 31h6M51 31h8M61 31h6M77 31h4M85 31h6M95 31h8M105 31h2M115 31h6M129 31h6M139 31h6M149 31h2M155 31h2M159 31h2M163 31h4M169 31h6M179 31h8M189 31h2M193 31h2M197 31h2M31 32h2M41 32h6M51 32h8M61 32h6M77 32h4M85 32h6M95 32h8M105 32h2M115 32h6M129 32h6M139 32h6M149 32h2M155 32h2M159 32h2M163 32h4M169 32h6M179 32h8M189 32h2M193 32h2M197 32h2M31 33h2M37 33h2M41 33h2M45 33h2M51 33h2M57 33h2M61 33h2M67 33h2M81 33h2M85 33h2M95 33h2M101 33h2M105 33h2M111 33h2M115 33h2M129 33h2M139 33h2M143 33h2M149 33h2M155 33h2M159 33h2M165 33h2M169 33h2M173 33h2M179 33h2M185 33h2M189 33h2M197 33h2M31 34h2M37 34h2M41 34h2M45 34h2M51 34h2M57 34h2M61 34h2M67 34h2M81 34h2M85 34h2M95 34h2M101 34h2M105 34h2M111 34h2M115 34h2M129 34h2M139 34h2M143 34h2M149 34h2M155 34h2M159 34h2M165 34h2M169 34h2M173 34h2M179 34h2M185 34h2M189 34h2M197 34h2M33 35h4M41 35h2M47 35h2M51 35h2M57 35h2M61 35h6M75 35h6M85 35h2M95 35h2M101 35h2M107 35h4M115 35h8M129 35h2M139 35h2M145 35h2M151 35h4M161 35h4M169 35h2M175 35h2M179 35h2M185 35h2M189 35h2M197 35h2M33 36h4M41 36h2M47 36h2M51 36h2M57 36h2M61 36h6M75 36h6M85 36h2M95 36h2M101 36h2M107 36h4M115 36h8M129 36h2M139 36h2M145 36h2M151 36h4M161 36h4M169 36h2M175 36h2M179 36h2M185 36h2M189 36h2M197 36h2M32 50h1M36 50h1M38 50h3M43 50h3M48 50h3M52 50h3M57 50h2M61 50h1M64 50h1M68 50h3M73 50h4M78 50h3M84 50h2M88 50h3M93 50h5M100 50h1M32 51h2M35 51h2M39 51h1M42 51h1M47 51h1M53 51h1M56 51h1M59 51h1M61 51h2M64 51h1M68 51h1M71 51h1M73 51h1M78 51h1M81 51h1M83 51h1M86 51h1M88 51h1M91 51h1M95 51h1M32 52h1M34 52h1M36 52h1M39 52h1M43 52h2M48 52h2M53 52h1M56 52h1M59 52h1M61 52h1M63 52h2M68 52h3M73 52h3M78 52h3M83 52h1M86 52h1M88 52h3M95 52h1M32 53h1M36 53h1M39 53h1M45 53h1M50 53h1M53 53h1M56 53h1M59 53h1M61 53h1M64 53h1M68 53h1M70 53h1M73 53h1M78 53h1M83 53h1M86 53h1M88 53h1M90 53h1M95 53h1M32 54h1M36 54h1M38 54h3M42 54h3M47 54h3M52 54h3M57 54h2M61 54h1M64 54h1M68 54h1M71 54h1M73 54h4M78 54h1M84 54h2M88 54h1M91 54h1M95 54h1M100 54h1M32 62h5M38 62h3M43 62h3M48 62h2M52 62h1M59 62h4M65 62h2M69 62h3M73 62h1M78 62h4M83 62h3M90 62h3M95 62h1M98 62h1M100 62h4M107 62h5M114 62h2M121 62h2M125 62h3M131 62h2M136 62h3M140 62h1M143 62h1M34 63h1M38 63h1M41 63h1M44 63h1M47 63h1M50 63h1M52 63h1M59 63h1M64 63h1M67 63h1M70 63h1M73 63h1M78 63h1M83 63h1M86 63h1M90 63h1M93 63h1M95 63h1M98 63h1M100 63h1M109 63h1M113 63h1M116 63h1M120 63h1M123 63h1M125 63h1M128 63h1M130 63h1M133 63h1M135 63h1M140 63h1M143 63h1M34 64h1M38 64h3M44 64h1M47 64h4M52 64h1M59 64h3M64 64h4M70 64h1M73 64h1M78 64h3M83 64h1M86 64h1M90 64h1M93 64h1M95 64h1M98 64h1M100 64h3M109 64h1M113 64h1M116 64h1M120 64h1M125 64h3M130 64h4M136 64h2M140 64h4M34 65h1M38 65h1M40 65h1M44 65h1M47 65h1M50 65h1M52 65h1M59 65h1M64 65h1M67 65h1M70 65h1M73 65h1M78 65h1M83 65h1M86 65h1M90 65h1M93 65h1M95 65h1M98 65h1M100 65h1M109 65h1M113 65h1M116 65h1M120 65h1M123 65h1M125 65h1M127 65h1M130 65h1M133 65h1M138 65h1M140 65h1M143 65h1M34 66h1M38 66h1M41 66h1M43 66h3M47 66h1M50 66h1M52 66h4M59 66h1M64 66h1M67 66h1M69 66h3M73 66h4M78 66h4M83 66h3M90 66h3M96 66h2M100 66h4M109 66h1M114 66h2M121 66h2M125 66h1M128 66h1M130 66h1M133 66h1M135 66h3M140 66h1M143 66h1M146 66h1M32 74h4M37 74h1M40 74h1M42 74h1M45 74h1M47 74h3M52 74h3M56 74h1M59 74h1M62 74h2M68 74h1M74 74h2M79 74h3M83 74h5M32 75h1M37 75h1M40 75h1M42 75h2M45 75h1M47 75h1M50 75h1M53 75h1M56 75h2M59 75h1M61 75h1M68 75h1M73 75h1M76 75h1M78 75h1M85 75h1M32 76h3M37 76h1M40 76h1M42 76h1M44 76h2M47 76h1M50 76h1M53 76h1M56 76h1M58 76h2M61 76h1M63 76h2M68 76h1M73 76h1M76 76h1M79 76h2M85 76h1M32 77h1M37 77h1M40 77h1M42 77h1M45 77h1M47 77h1M50 77h1M53 77h1M56 77h1M59 77h1M61 77h1M64 77h1M68 77h1M73 77h1M76 77h1M81 77h1M85 77h1M32 78h1M38 78h2M42 78h1M45 78h1M47 78h3M52 78h3M56 78h1M59 78h1M62 78h2M68 78h4M74 78h2M78 78h3M85 78h1M89 78h1M64 92h127M63 93h1M191 93h1M62 94h1M192 94h1M61 95h1M193 95h1M61 96h1M193 96h1M61 97h1M193 97h1M61 98h1M193 98h1M61 99h1M193 99h1M61 100h1M193 100h1M61 101h1M193 101h1M61 102h1M193 102h1M61 103h1M193 103h1M61 104h1M193 104h1M61 105h1M193 105h1M61 106h1M193 106h1M61 107h1M193 107h1M61 108h1M193 108h1M61 109h1M193 109h1M61 110h1M193 110h1M61 111h1M193 111h1M61 112h1M193 112h1M61 113h1M193 113h1M61 114h1M193 114h1M61 115h1M193 115h1M61 116h1M193 116h1M61 117h1M193 117h1M61 118h1M193 118h1M61 119h1M193 119h1M61 120h1M193 120h1M61 121h1M193 121h1M61 122h133M61 123h1M193 123h1M61 124h1M193 124h1M61 125h1M193 125h1M61 126h1M193 126h1M62 127h1M192 127h1M63 128h1M191 128h1M64 129h127" />
<path stroke="#efebe9" d="M64 93h127M63 94h129M62 95h131M62 96h131M62 97h131M62 98h131M62 99h131M62 100h131M62 101h131M62 102h131M62 103h23M95 103h2M103 103h4M109 103h6M117 103h8M129 103h6M139 103h6M149 103h4M159 103h2M163 103h4M169 103h24M62 104h23M95 104h2M103 104h4M109 104h6M117 104h8M129 104h6M139 104h6M149 104h4M159 104h2M163 104h4M169 104h24M62 105h27M91 105h6M99 105h4M105 105h2M109 105h6M117 105h6M125 105h4M131 105h2M135 105h8M145 105h4M151 105h4M157 105h4M165 105h2M169 105h24M62 106h27M91 106h6M99 106h4M105 106h2M109 106h6M117 106h6M125 106h4M131 106h2M135 106h8M145 106h4M151 106h4M157 106h4M165 106h2M169 106h24M62 107h27M91 107h6M103 107h6M115 107h8M131 107h2M135 107h2M141 107h2M151 107h4M157 107h4M163 107h2M169 107h24M62 108h27M91 108h6M103 108h6M115 108h8M131 108h2M135 108h2M141 108h2M151 108h4M157 108h4M163 108h2M169 108h24M62 109h27M91 109h6M99 109h2M103 109h8M113 109h10M125 109h4M131 109h2M135 109h4M141 109h2M145 109h4M151 109h4M157 109h4M163 109h4M169 109h24M62 110h27M91 110h6M99 110h2M103 110h8M113 110h10M125 110h4M131 110h2M135 110h4M141 110h2M145 110h4M151 110h4M157 110h4M163 110h4M169 110h24M62 111h27M91 111h6M99 111h4M105 111h6M113 111h10M125 111h4M131 111h4M139 111h4M145 111h4M151 111h2M159 111h2M163 111h4M169 111h24M62 112h27M91 112h6M99 112h4M105 112h6M113 112h10M125 112h4M131 112h4M139 112h4M145 112h4M151 112h2M159 112h2M163 112h4M169 112h24M62 113h131M62 114h131M62 115h131M62 116h131M62 117h131M62 118h131M62 119h131M62 120h131M62 121h131" />
<path stroke="#bdbdbd" d="M62 123h131M62 124h131M62 125h131M62 126h131M63 127h129M64 128h127" />
</svg>