<svg xmlns="http://www.w3.org/2000/svg" viewBox="0 -0.5 128 128" shape-rendering="crispEdges">
<metadata>Made with Pixels to Svg https://codepen.io/shshaw/pen/XbxvNj</metadata>
<path stroke="#000000" d="M63 3h2M63 4h2M62 5h1M65 5h1M61 6h1M66 6h1M61 7h1M66 7h1M60 8h1M67 8h1M60 9h1M67 9h1M59 10h1M68 10h1M59 11h1M68 11h1M59 12h1M68 12h1M58 13h1M69 13h1M58 14h1M69 14h1M57 15h1M70 15h1M57 16h1M70 16h1M56 17h1M71 17h1M56 18h1M71 18h1M56 19h1M71 19h1M55 20h1M72 20h1M55 21h1M72 21h1M54 22h1M73 22h1M54 23h1M73 23h1M53 24h1M74 24h1M53 25h1M74 25h1M52 26h1M75 26h1M52 27h1M75 27h1M52 28h1M75 28h1M51 29h1M76 29h1M51 30h1M76 30h1M50 31h1M77 31h1M50 32h1M77 32h1M49 33h1M78 33h1M49 34h1M78 34h1M49 35h1M78 35h1M48 36h1M79 36h1M48 37h1M79 37h1M47 38h1M80 38h1M47 39h1M80 39h1M46 40h1M81 40h1M46 41h1M81 41h1M45 42h1M82 42h1M45 43h1M82 43h1M45 44h1M82 44h1M44 45h1M83 45h1M44 46h1M83 46h1M43 47h1M84 47h1M43 48h1M84 48h1M42 49h1M85 49h1M42 50h1M85 50h1M42 51h1M85 51h1M41 52h1M86 52h1M41 53h1M86 53h1M40 54h1M87 54h1M40 55h1M87 55h1M39 56h1M88 56h1M39 57h1M88 57h1M38 58h1M89 58h1M38 59h1M89 59h1M38 60h1M89 60h1M37 61h1M90 61h1M37 62h1M90 62h1M36 63h1M91 63h1M36 64h1M62 64h4M91 64h1M35 65h1M61 65h1M66 65h1M92 65h1M35 66h1M60 66h1M67 66h1M92 66h1M34 67h1M59 67h1M68 67h1M93 67h1M34 68h1M58 68h1M69 68h1M93 68h1M34 69h1M57 69h1M70 69h1M93 69h1M33 70h1M56 70h1M71 70h1M94 70h1M33 71h1M55 71h1M72 71h1M94 71h1M32 72h1M55 72h1M72 72h1M95 72h1M32 73h1M54 73h1M73 73h1M95 73h1M31 74h1M53 74h1M74 74h1M96 74h1M31 75h1M52 75h1M75 75h1M96 75h1M31 76h1M51 76h1M76 76h1M96 76h1M30 77h1M50 77h1M63 77h2M77 77h1M97 77h1M30 78h1M49 78h1M61 78h2M65 78h2M78 78h1M97 78h1M29 79h1M48 79h1M60 79h1M67 79h1M79 79h1M98 79h1M29 80h1M47 80h1M59 80h1M68 80h1M80 80h1M98 80h1M28 81h1M46 81h1M57 81h2M69 81h2M81 81h1M99 81h1M28 82h1M45 82h1M56 82h1M71 82h1M82 82h1M99 82h1M27 83h1M44 83h1M55 83h1M72 83h1M83 83h1M100 83h1M27 84h1M43 84h1M54 84h1M73 84h1M84 84h1M100 84h1M27 85h1M42 85h1M52 85h2M74 85h2M85 85h1M100 85h1M26 86h1M41 86h1M51 86h1M76 86h1M86 86h1M101 86h1M26 87h1M40 87h1M50 87h1M77 87h1M87 87h1M101 87h1M25 88h1M39 88h1M49 88h1M78 88h1M88 88h1M102 88h1M25 89h1M38 89h1M47 89h2M79 89h2M89 89h1M102 89h1M24 90h1M38 90h1M46 90h1M81 90h1M89 90h1M103 90h1M24 91h1M37 91h1M45 91h1M82 91h1M90 91h1M103 91h1M24 92h1M36 92h1M43 92h2M83 92h2M91 92h1M103 92h1M23 93h1M35 93h1M42 93h1M85 93h1M92 93h1M104 93h1M23 94h1M34 94h1M41 94h1M86 94h1M93 94h1M104 94h1M22 95h1M33 95h1M40 95h1M87 95h1M94 95h1M105 95h1M22 96h1M32 96h1M38 96h2M88 96h2M95 96h1M105 96h1M21 97h1M31 97h1M37 97h1M90 97h1M96 97h1M106 97h1M21 98h1M30 98h1M36 98h1M91 98h1M97 98h1M106 98h1M20 99h1M29 99h1M35 99h1M92 99h1M98 99h1M107 99h1M20 100h1M28 100h1M33 100h2M93 100h2M99 100h1M107 100h1M20 101h1M27 101h1M32 101h1M95 101h1M100 101h1M107 101h1M19 102h1M26 102h1M31 102h1M96 102h1M101 102h1M108 102h1M19 103h1M25 103h1M29 103h2M97 103h2M102 103h1M108 103h1M18 104h1M24 104h1M28 104h1M99 104h1M103 104h1M109 104h1M18 105h1M23 105h1M27 105h1M100 105h1M104 105h1M109 105h1M17 106h1M22 106h1M26 106h1M101 106h1M105 106h1M110 106h1M17 107h1M21 107h1M24 107h2M102 107h2M106 107h1M110 107h1M17 108h1M21 108h1M23 108h1M104 108h1M106 108h1M110 108h1M16 109h1M20 109h1M22 109h1M105 109h1M107 109h1M111 109h1M16 110h1M19 110h1M21 110h1M106 110h1M108 110h1M111 110h1M15 111h1M18 111h3M107 111h3M112 111h1M15 112h1M17 112h2M109 112h2M112 112h1M14 113h1M16 113h2M110 113h2M113 113h1M14 114h3M111 114h3M13 115h2M113 115h2M13 116h1M114 116h1" />
<path stroke="#ffffff" d="M63 5h1M62 6h2M62 7h2M61 8h3M61 9h3M60 10h4M60 11h4M60 12h4M59 13h5M59 14h5M58 15h6M58 16h6M57 17h7M57 18h7M57 19h7M56 20h8M56 21h8M55 22h9M55 23h9M54 24h10M54 25h10M53 26h11M53 27h11M53 28h11M52 29h12M52 30h12M51 31h13M51 32h13M50 33h14M50 34h14M50 35h14M49 36h15M49 37h15M48 38h16M48 39h16M47 40h17M47 41h17M46 42h18M46 43h18M46 44h18M45 45h19M45 46h19M44 47h20M44 48h20M43 49h21M43 50h21M43 51h21M42 52h22M42 53h22M41 54h23M41 55h23M40 56h24M40 57h24M39 58h25M39 59h25M39 60h25M38 61h26M38 62h26M37 63h27M37 64h25M36 65h25M36 66h24M35 67h24M35 68h23M35 69h22M34 70h22M34 71h21M33 72h22M33 73h21M32 74h21M32 75h20M32 76h19M31 77h19M31 78h18M30 79h18M30 80h17M29 81h17M29 82h16M28 83h16M28 84h15M28 85h14M27 86h14M27 87h13M26 88h13M26 89h12M25 90h13M25 91h12M25 92h11M24 93h11M24 94h10M23 95h10M23 96h9M22 97h9M22 98h8M21 99h8M21 100h7M21 101h6M20 102h6M20 103h5M19 104h5M19 105h4M18 106h4M18 107h3M18 108h3M17 109h3M17 110h2M16 111h2M16 112h1M15 113h1" />
<path stroke="#eeeeee" d="M64 5h1M64 6h2M64 7h2M64 8h3M64 9h3M64 10h4M64 11h4M64 12h4M64 13h5M64 14h5M64 15h6M64 16h6M64 17h7M64 18h7M64 19h7M64 20h8M64 21h8M64 22h9M64 23h9M64 24h10M64 25h10M64 26h11M64 27h11M64 28h11M64 29h12M64 30h12M64 31h13M64 32h13M64 33h14M64 34h14M64 35h14M64 36h15M64 37h15M64 38h16M64 39h16M64 40h17M64 41h17M64 42h18M64 43h18M64 44h18M64 45h19M64 46h19M64 47h20M64 48h20M64 49h21M64 50h21M64 51h21M64 52h22M64 53h22M64 54h23M64 55h23M64 56h24M64 57h24M64 58h25M64 59h25M64 60h25M64 61h26M64 62h26M64 63h27M66 64h25M67 65h25M68 66h24M69 67h24M70 68h23M71 69h22M72 70h22M73 71h21M73 72h22M74 73h21M75 74h21M76 75h20M77 76h19M78 77h19M79 78h18M80 79h18M81 80h17M82 81h17M83 82h16M84 83h16M85 84h15M86 85h14M87 86h14M88 87h13M89 88h13M90 89h12M90 90h13M91 91h12M92 92h11M93 93h11M94 94h10M95 95h10M96 96h9M97 97h9M98 98h8M99 99h8M100 100h7M101 101h6M102 102h6M103 103h5M104 104h5M105 105h4M106 106h4M107 107h3M107 108h3M108 109h3M109 110h2M110 111h2M111 112h1M112 113h1" />
<path stroke="#9e9e9e" d="M62 65h2M61 66h3M60 67h4M59 68h5M58 69h6M57 70h7M56 71h8M56 72h8M55 73h9M54 74h10M53 75h11M52 76h12M51 77h12M50 78h11M49 79h11M48 80h11M47 81h10M46 82h10M45 83h10M44 84h10M43 85h9M42 86h9M41 87h9M40 88h9M39 89h8M39 90h7M38 91h7M37 92h6M36 93h6M35 94h6M34 95h6M33 96h5M32 97h5M31 98h5M30 99h5M29 100h4M28 101h4M27 102h4M26 103h3M25 104h3M24 105h3M23 106h3M22 107h2M22 108h1M21 109h1M20 110h1" />
<path stroke="#bdbdbd" d="M64 65h2M64 66h3M64 67h4M64 68h5M64 69h6M64 70h7M64 71h8M64 72h8M64 73h9M64 74h10M64 75h11M64 76h12M65 77h12M67 78h11M68 79h11M69 80h11M71 81h10M72 82h10M73 83h10M74 84h10M76 85h9M77 86h9M78 87h9M79 88h9M81 89h8M82 90h7M83 91h7M85 92h6M86 93h6M87 94h6M88 95h6M90 96h5M91 97h5M92 98h5M93 99h5M95 100h4M96 101h4M97 102h4M99 103h3M100 104h3M101 105h3M102 106h3M104 107h2M105 108h1M106 109h1M107 110h1" />
</svg>