<svg xmlns="http://www.w3.org/2000/svg" viewBox="0 -0.5 64 64" shape-rendering="crispEdges">
<metadata>Made with Pixels to Svg https://codepen.io/shshaw/pen/XbxvNj</metadata>
<path stroke="#000000" d="M4 14h56M3 15h1M60 15h1M2 16h1M61 16h1M2 17h1M61 17h1M2 18h1M61 18h1M2 19h1M61 19h1M2 20h1M61 20h1M2 21h1M61 21h1M2 22h1M61 22h1M2 23h1M61 23h1M2 24h1M61 24h1M2 25h1M61 25h1M2 26h1M61 26h1M2 27h1M61 27h1M2 28h1M61 28h1M2 29h1M61 29h1M2 30h1M61 30h1M2 31h1M61 31h1M2 32h1M61 32h1M2 33h1M61 33h1M3 34h1M60 34h1M4 35h56" />
<path stroke="#81c784" d="M4 15h56M3 16h1M60 16h1M3 29h1M60 29h1M4 30h56" />
<path stroke="#66bb6a" d="M4 16h56M3 17h10M19 17h6M29 17h6M39 17h4M45 17h4M51 17h10M3 18h10M19 18h6M29 18h6M39 18h4M45 18h4M51 18h10M3 19h10M15 19h4M21 19h2M25 19h4M31 19h2M35 19h4M41 19h2M45 19h2M49 19h12M3 20h10M15 20h4M21 20h2M25 20h4M31 20h2M35 20h4M41 20h2M45 20h2M49 20h12M3 21h10M19 21h4M31 21h2M35 21h8M47 21h14M3 22h10M19 22h4M31 22h2M35 22h8M47 22h14M3 23h10M15 23h4M21 23h2M25 23h4M31 23h2M35 23h4M41 23h2M45 23h2M49 23h12M3 24h10M15 24h4M21 24h2M25 24h4M31 24h2M35 24h4M41 24h2M45 24h2M49 24h12M3 25h10M19 25h4M25 25h4M31 25h4M39 25h4M45 25h4M51 25h10M3 26h10M19 26h4M25 26h4M31 26h4M39 26h4M45 26h4M51 26h10M3 27h58M3 28h58M4 29h56" />
<path stroke="#ffffff" d="M13 17h6M25 17h4M35 17h4M43 17h2M49 17h2M13 18h6M25 18h4M35 18h4M43 18h2M49 18h2M13 19h2M19 19h2M23 19h2M29 19h2M33 19h2M39 19h2M43 19h2M47 19h2M13 20h2M19 20h2M23 20h2M29 20h2M33 20h2M39 20h2M43 20h2M47 20h2M13 21h6M23 21h8M33 21h2M43 21h4M13 22h6M23 22h8M33 22h2M43 22h4M13 23h2M19 23h2M23 23h2M29 23h2M33 23h2M39 23h2M43 23h2M47 23h2M13 24h2M19 24h2M23 24h2M29 24h2M33 24h2M39 24h2M43 24h2M47 24h2M13 25h6M23 25h2M29 25h2M35 25h4M43 25h2M49 25h2M13 26h6M23 26h2M29 26h2M35 26h4M43 26h2M49 26h2" />
<path stroke="#1b5e20" d="M3 30h1M60 30h1M3 31h58M3 32h58M3 33h58M4 34h56" />
</svg>