<svg xmlns="http://www.w3.org/2000/svg" viewBox="0 -0.5 250 200" shape-rendering="crispEdges">
<metadata>Made with Pixels to Svg https://codepen.io/shshaw/pen/XbxvNj</metadata>
<path stroke="#ffeced" d="M0 0h1M231 0h1M15 1h1M136 2h1M170 2h1M173 2h1M8 3h1M134 3h3M166 3h3M6 4h1M36 4h1M38 4h1M43 4h1M59 4h1M157 4h1M159 4h2M170 4h1M226 4h1M234 4h1M236 4h1M239 4h1M0 5h1M13 5h1M31 5h1M33 5h1M39 5h1M42 5h3M46 5h2M55 5h1M58 5h2M138 5h1M157 5h4M225 5h1M231 5h2M240 5h1M12 6h1M25 6h3M30 6h1M34 6h1M52 6h1M54 6h1M56 6h3M137 6h1M139 6h1M143 6h3M147 6h1M149 6h1M151 6h3M159 6h1M242 6h1M244 6h1M10 7h1M22 7h2M26 7h1M30 7h1M244 7h1M7 8h2M21 8h1M25 8h1M27 8h1M18 9h1M27 9h1M13 10h1M16 10h3M12 11h1M16 11h1M1 110h1" />
<path stroke="#ffecee" d="M1 0h1M3 0h4M13 0h1M18 0h1M21 0h1M23 0h1M37 0h1M43 0h1M49 0h5M120 0h13M138 0h1M156 0h2M161 0h4M177 0h2M230 0h1M241 0h7M0 1h2M5 1h1M10 1h1M19 1h3M24 1h1M28 1h1M31 1h2M34 1h3M55 1h2M121 1h9M132 1h3M141 1h5M156 1h5M163 1h1M166 1h1M170 1h1M172 1h6M216 1h2M229 1h1M231 1h10M244 1h4M8 2h1M16 2h3M22 2h1M30 2h3M38 2h1M56 2h2M119 2h7M130 2h5M139 2h1M144 2h2M147 2h1M149 2h1M152 2h2M155 2h2M159 2h1M161 2h1M167 2h1M169 2h1M171 2h1M174 2h1M218 2h2M227 2h1M241 2h7M249 2h1M0 3h2M3 3h3M13 3h4M18 3h1M23 3h4M34 3h2M41 3h5M47 3h6M118 3h3M125 3h1M127 3h7M138 3h3M160 3h1M172 3h3M176 3h3M216 3h1M219 3h4M226 3h1M244 3h4M249 3h1M0 4h3M4 4h1M11 4h3M19 4h4M35 4h1M39 4h2M44 4h1M49 4h1M52 4h1M55 4h4M120 4h4M130 4h10M141 4h3M145 4h12M158 4h1M167 4h1M175 4h2M179 4h1M217 4h3M221 4h2M232 4h1M235 4h1M245 4h2M249 4h1M4 5h1M16 5h4M22 5h1M24 5h1M32 5h1M36 5h1M40 5h1M45 5h1M49 5h1M52 5h3M57 5h1M60 5h1M126 5h2M129 5h6M141 5h2M154 5h2M168 5h4M173 5h3M178 5h3M216 5h9M241 5h1M0 6h6M14 6h4M20 6h2M32 6h1M39 6h13M53 6h1M125 6h1M132 6h5M157 6h2M160 6h1M166 6h1M173 6h2M177 6h2M218 6h3M228 6h3M232 6h1M236 6h6M245 6h3M1 7h5M12 7h2M17 7h2M21 7h1M34 7h1M42 7h14M57 7h6M133 7h3M137 7h1M139 7h1M143 7h2M146 7h1M151 7h2M155 7h10M167 7h3M171 7h3M175 7h1M221 7h2M224 7h4M245 7h1M247 7h1M0 8h6M11 8h1M19 8h1M26 8h1M32 8h2M35 8h2M52 8h2M55 8h3M135 8h5M142 8h2M146 8h2M152 8h5M168 8h1M228 8h16M247 8h1M0 9h5M9 9h4M17 9h1M28 9h2M35 9h1M39 9h13M59 9h5M141 9h2M145 9h2M156 9h9M166 9h1M169 9h1M171 9h2M243 9h3M1 10h2M6 10h3M11 10h2M14 10h1M38 10h1M140 10h2M168 10h2M171 10h1M242 10h3M3 11h2M20 11h1M22 11h4M40 11h3M44 11h4M49 11h1M166 11h1M168 11h2M7 12h9M25 12h1M27 12h1M47 12h1M20 13h1M33 28h2M35 29h1M183 43h3M189 43h2M184 44h2M186 47h4M137 51h3M134 52h2M137 52h3M136 55h4M134 56h3M139 56h1M136 58h1M240 68h1M242 71h1M246 71h1M244 72h1M246 72h2M244 73h1M246 73h2M94 74h2M244 74h1M246 74h2M249 74h1M95 75h1M244 75h1M246 75h2M249 75h1M246 76h2M249 76h1M78 77h1M81 77h1M246 77h2M249 77h1M91 78h4M246 78h2M249 78h1M79 79h2M82 79h2M91 79h2M247 79h1M249 79h1M79 80h4M85 80h1M89 80h2M249 80h1M80 81h4M85 81h3M89 81h1M249 81h1M83 82h4M88 82h2M249 82h1M88 83h2M84 84h2M84 85h5M1 92h1M21 92h2M1 93h1M3 93h2M6 93h1M20 93h1M1 94h3M5 94h2M8 94h1M10 94h4M17 94h1M1 95h6M8 95h2M19 95h2M18 96h2M1 97h4M6 97h4M11 97h2M14 97h2M18 97h1M0 98h14M0 99h2M6 99h8M0 100h1M0 101h1M2 101h10M0 102h1M0 103h2M0 104h1M5 104h1M5 105h1M2 106h2M1 107h1M2 109h1M1 111h2M1 112h6M1 113h6M0 114h7M1 115h6M0 116h1M1 118h2" />
<path stroke="#ffebed" d="M2 0h1M10 0h1M31 0h1M34 0h1M26 1h1M140 1h1M13 2h1M19 3h1M137 3h1M164 3h1M228 3h1M3 4h1M41 4h1M45 4h1M163 4h1M166 4h1M14 5h1M35 5h1M139 5h1M148 5h1M150 5h1M153 5h1M156 5h1M229 5h1M233 5h1M29 6h1M31 6h1M25 7h1M20 8h1M246 8h1M16 9h1M246 9h1M13 11h1M136 54h1" />
<path stroke="#ffecef" d="M7 0h1M19 0h2M24 0h1M26 0h2M39 0h1M42 0h1M44 0h1M46 0h1M54 0h1M56 0h1M148 0h1M150 0h1M152 0h2M155 0h1M4 1h1M9 1h1M18 1h1M30 1h1M39 1h1M57 1h3M146 1h1M148 1h8M1 2h1M6 2h2M14 2h2M19 2h2M25 2h2M28 2h1M34 2h2M40 2h10M52 2h1M61 2h1M163 2h1M166 2h1M168 2h1M17 3h1M28 3h1M36 3h4M55 3h6M146 3h1M150 3h1M153 3h3M157 3h1M229 3h9M23 4h2M29 4h1M32 4h3M48 4h1M53 4h1M1 5h1M10 5h2M20 5h1M25 5h4M22 6h3M20 7h1M17 8h2M14 9h1M136 51h1M133 52h1M240 69h1M242 70h1M93 74h1M76 77h1M91 77h1M16 93h1" />
<path stroke="#feebef" d="M8 0h1M159 0h2M239 0h2M117 1h1M216 2h1M162 3h1M181 3h1M181 4h1M6 5h1M249 5h1M120 6h5M231 6h1M234 6h2M223 8h1M22 9h1M37 9h1M133 9h1M170 9h1M173 9h1M224 9h1M229 9h1M231 9h1M55 10h1M57 10h1M137 10h3M154 10h1M234 10h1M236 10h1M238 10h4M27 11h1M50 11h1M62 11h1M159 11h3M163 11h1M170 11h1M26 12h1M39 12h1M6 13h2M9 13h1M18 13h2M12 14h1M14 14h1M188 44h1M135 57h1M239 67h1M249 71h1M3 102h1M5 102h1" />
<path stroke="#feecee" d="M9 0h1M11 0h1M140 0h2M229 0h1M232 0h1M120 1h1M215 1h1M9 2h1M127 2h2M238 2h3M121 3h4M10 4h1M119 4h1M129 4h1M171 4h1M178 4h1M215 4h1M220 4h1M9 5h1M135 5h1M226 5h1M61 6h2M131 6h1M161 6h2M164 6h2M216 6h1M222 6h2M225 6h1M32 7h1M35 7h2M136 7h1M153 7h1M223 7h1M228 7h4M233 7h2M241 7h3M54 8h1M58 8h6M133 8h2M149 8h1M151 8h1M157 8h7M166 8h1M174 8h1M226 8h2M6 9h1M8 9h1M24 9h1M30 9h1M36 9h1M55 9h2M152 9h1M155 9h1M242 9h1M0 10h1M3 10h1M23 10h2M27 10h2M32 10h1M34 10h1M39 10h1M62 10h1M144 10h1M5 11h3M15 11h1M19 11h1M139 11h1M141 11h1M6 12h1M43 12h2M49 12h1M167 12h1M16 13h1M24 13h2M45 13h1M18 14h1M21 14h1M186 42h2M189 44h1M185 46h5M141 53h1M140 54h1M138 56h1M137 58h1M92 77h1M248 77h1M79 78h1M81 78h1M90 78h1M84 79h1M248 79h1M87 84h2M86 86h2M0 90h1M23 91h1M4 92h1M20 92h1M13 93h3M5 97h1M10 97h1M0 106h1" />
<path stroke="#fdedf0" d="M12 0h1" />
<path stroke="#ffebec" d="M14 0h1M41 5h1M161 5h1M239 5h1M155 6h1M27 7h1M22 8h1" />
<path stroke="#ffeded" d="M15 0h2M14 1h1M6 3h1M169 3h1M224 3h2M7 4h1M161 4h1M169 4h1M224 4h1M230 4h2M233 4h1M237 4h1M29 5h1M34 5h1M48 5h1M137 5h1M166 5h1M230 5h1M242 5h2M36 6h1M55 6h1M60 6h1M141 6h2M167 6h2M9 7h1M19 9h1M10 10h1" />
<path stroke="#ffedee" d="M17 0h1M22 0h1M29 0h1M55 0h1M139 0h1M143 0h1M154 0h1M29 1h1M171 1h1M230 1h1M241 1h2M23 2h2M60 2h1M135 2h1M224 2h1M2 3h1M10 3h3M21 3h1M30 3h1M40 3h1M46 3h1M227 3h1M243 3h1M8 4h1M14 4h1M37 4h1M46 4h1M50 4h2M54 4h1M60 4h2M124 4h4M144 4h1M162 4h1M164 4h2M168 4h1M238 4h1M240 4h1M242 4h2M12 5h1M30 5h1M50 5h2M56 5h1M128 5h1M136 5h1M140 5h1M143 5h2M146 5h1M151 5h1M164 5h1M172 5h1M177 5h1M246 5h1M28 6h1M59 6h1M126 6h2M138 6h1M169 6h2M175 6h2M24 7h1M37 7h1M40 7h2M145 7h1M147 7h3M165 7h2M174 7h1M9 8h2M23 8h2M37 8h1M43 8h9M140 8h2M145 8h1M148 8h1M169 8h4M244 8h2M13 9h1M52 9h1M143 9h2M165 9h1M167 9h2M9 10h1M45 10h6M142 10h2M162 10h1M167 10h1M21 11h1M43 11h1M167 11h1M16 12h3M23 13h1M136 52h1M133 53h1M138 54h1M133 55h2M241 69h1M247 71h1M248 72h1M248 73h1M248 74h1M93 75h2M82 77h1M24 91h1M5 93h1M7 93h1M10 95h4" />
<path stroke="#ffedef" d="M25 0h1M38 0h1M40 0h2M45 0h1M47 0h2M57 0h1M144 0h4M149 0h1M151 0h1M6 1h3M17 1h1M22 1h2M33 1h1M40 1h11M147 1h1M243 1h1M27 2h1M29 2h1M36 2h2M39 2h1M58 2h2M137 2h2M146 2h1M148 2h1M150 2h2M154 2h1M157 2h2M160 2h1M162 2h1M228 2h2M22 3h1M29 3h1M31 3h3M238 3h2M241 3h1M25 4h4M42 4h1M241 4h1M244 4h1M2 5h2M23 5h1M149 5h1M11 7h1M19 7h1M29 7h1M20 9h1M241 70h1M243 71h2M249 72h1M249 73h1M77 77h1M0 92h1M17 93h1" />
<path stroke="#ffebee" d="M28 0h1M30 0h1M36 0h1M137 0h1M2 1h2M16 1h1M25 1h1M27 1h1M37 1h2M161 1h2M248 1h2M0 2h1M2 2h4M21 2h1M33 2h1M50 2h2M53 2h3M126 2h1M140 2h4M164 2h2M172 2h1M175 2h1M20 3h1M27 3h1M53 3h2M141 3h5M147 3h3M151 3h2M156 3h1M158 3h2M161 3h1M170 3h2M248 3h1M5 4h1M15 4h4M30 4h2M47 4h1M140 4h1M180 4h1M247 4h2M15 5h1M21 5h1M152 5h1M245 5h1M247 5h1M13 6h1M18 6h2M140 6h1M150 6h1M154 6h1M233 6h1M248 6h1M14 7h3M246 7h1M12 8h5M15 9h1M247 9h1M15 10h1M170 10h1M245 10h1M48 11h1M21 13h2M204 22h1M204 23h1M203 24h3M202 25h4M166 26h2M202 26h4M165 27h3M201 27h6M164 28h4M201 28h6M163 29h6M200 29h8M162 30h7M199 30h9M162 31h7M199 31h9M161 32h8M198 32h11M160 33h9M198 33h11M159 34h11M197 34h12M158 35h12M196 35h14M157 36h13M196 36h14M156 37h14M195 37h15M155 38h15M195 38h16M155 39h8M164 39h7M194 39h17M154 40h9M164 40h7M193 40h19M156 41h6M165 41h6M193 41h19M156 42h4M166 42h1M183 42h1M192 42h20M155 43h5M186 43h3M191 43h22M155 44h4M186 44h2M191 44h22M123 45h1M156 45h1M192 45h21M122 46h2M193 46h21M121 47h4M193 47h1M196 47h18M120 48h5M196 48h18M120 49h5M196 49h1M198 49h1M201 49h2M204 49h11M119 50h7M204 50h9M214 50h1M118 51h8M140 51h1M143 51h1M117 52h9M140 52h1M116 53h11M115 54h12M134 54h2M114 55h13M114 56h14M56 57h2M113 57h15M55 58h4M114 58h14M54 59h5M116 59h13M53 60h7M115 60h5M121 60h1M123 60h1M128 60h1M52 61h8M115 61h3M128 61h1M51 62h10M116 62h1M129 62h1M50 63h11M129 63h1M49 64h13M48 65h14M48 66h15M47 67h16M46 68h18M45 69h19M44 70h21M243 70h1M43 71h23M42 72h24M243 72h1M41 73h26M243 73h1M245 73h1M40 74h6M48 74h2M51 74h16M96 74h1M245 74h1M41 75h5M52 75h16M96 75h1M245 75h1M52 76h16M245 76h1M52 77h16M51 78h6M58 78h11M50 79h6M58 79h6M66 79h2M69 79h1M78 79h1M50 80h4M58 80h7M67 80h3M58 81h7M70 81h1M84 81h1M88 81h1M91 81h1M82 82h1M87 82h1M86 83h2M2 91h1M3 92h1M0 93h1M18 93h2M0 94h1M4 94h1M7 94h1M9 94h1M14 94h3M18 94h1M21 94h1M7 95h1M14 95h1M18 95h1M15 96h1M0 97h1M1 101h1M1 102h1M6 102h3M2 103h2M1 104h4M6 104h1M0 105h4M6 105h1M1 106h1M4 106h5M4 107h5M2 110h1M0 111h1M0 115h1" />
<path stroke="#feebed" d="M32 0h1M136 1h2M62 2h1M176 2h1M165 3h1M222 8h1M21 10h1M26 10h1M29 10h1M61 10h1M140 11h1M165 12h1M47 13h1M23 14h1M184 41h1M137 54h1M80 76h2M86 80h1" />
<path stroke="#fdeaed" d="M33 0h1M59 0h1M140 50h1M244 68h2M248 70h1M79 76h1M25 90h1M5 92h1M12 93h1" />
<path stroke="#ffeeee" d="M35 0h1M7 3h1M242 3h1M229 4h1M61 5h1M145 5h1M147 5h1M165 5h1M167 5h1M244 5h1" />
<path stroke="#feebee" d="M58 0h1M136 0h1M158 0h1M233 0h4M238 0h1M13 1h1M116 1h1M139 1h1M167 1h1M118 2h1M225 2h1M61 3h1M163 3h1M179 3h1M236 5h1M63 6h1M221 6h1M224 6h1M31 7h1M176 7h1M215 7h1M232 7h1M235 7h1M237 7h4M64 8h1M218 8h1M220 8h2M225 8h1M248 8h1M7 9h1M23 9h1M31 9h1M64 9h1M150 9h1M174 9h1M25 10h1M59 10h1M63 10h2M135 10h2M146 10h1M233 10h1M235 10h1M237 10h1M8 11h2M14 11h1M28 11h1M157 11h2M24 12h1M37 12h1M40 12h1M42 12h1M48 12h1M3 13h1M17 13h1M44 13h1M11 14h1M13 14h1M16 14h1M20 14h1M189 42h1M132 53h1M136 59h1M240 67h3M241 68h1M247 70h1M248 71h1M96 73h1M248 76h1M248 78h1M85 79h1M89 79h1M88 80h1M248 80h1M9 93h1M0 110h1" />
<path stroke="#fce9ed" d="M60 0h1M243 67h1" />
<path stroke="#f4e6ee" d="M61 0h1M230 11h1M49 13h1M41 14h1M8 15h1" />
<path stroke="#eae1ef" d="M62 0h1M212 0h1M183 1h1" />
<path stroke="#c3ccf3" d="M63 0h1M211 0h1" />
<path stroke="#9ab6f6" d="M64 0h1M111 3h1M208 4h1" />
<path stroke="#2979ff" d="M65 0h46M186 0h22M210 0h1M68 1h44M186 1h2M189 1h19M70 2h41M189 2h20M70 3h41M188 3h20M70 4h42M186 4h22M70 5h43M185 5h24M72 6h42M184 6h26M71 7h44M183 7h28M74 8h42M117 8h2M181 8h31M74 9h43M121 9h7M180 9h33M214 9h1M71 10h50M128 10h3M177 10h37M71 11h61M176 11h41M70 12h63M148 12h3M175 12h44M221 12h6M32 13h1M56 13h1M69 13h65M136 13h8M146 13h6M153 13h2M174 13h47M229 13h21M31 14h1M52 14h4M59 14h77M144 14h9M157 14h12M170 14h59M246 14h4M30 15h5M37 15h1M51 15h8M65 15h92M170 15h80M0 16h1M3 16h2M24 16h1M26 16h11M40 16h7M48 16h202M0 17h3M7 17h13M26 17h14M47 17h203M0 18h7M20 18h230M0 19h250M0 20h250M0 21h205M207 21h43M0 22h204M208 22h42M0 23h204M208 23h42M0 24h203M209 24h41M0 25h202M210 25h40M0 26h166M168 26h34M210 26h40M0 27h19M29 27h136M169 27h32M211 27h39M0 28h21M30 28h3M35 28h129M170 28h31M212 28h38M0 29h23M36 29h127M171 29h29M213 29h37M0 30h28M38 30h124M171 30h28M213 30h37M0 31h29M39 31h123M172 31h4M190 31h9M214 31h36M0 32h22M34 32h2M40 32h121M215 32h35M0 33h23M33 33h5M41 33h119M215 33h35M0 34h28M32 34h7M41 34h118M216 34h34M0 35h158M217 35h33M0 36h157M217 36h33M0 37h156M218 37h32M0 38h155M219 38h31M0 39h145M219 39h31M0 40h142M220 40h30M0 41h132M221 41h29M0 42h129M222 42h28M0 43h128M222 43h28M0 44h124M125 44h3M224 44h26M0 45h123M126 45h1M225 45h25M0 46h122M226 46h24M0 47h121M228 47h22M0 48h120M230 48h20M0 49h119M232 49h18M0 50h116M233 50h17M0 51h113M235 51h15M0 52h112M236 52h14M0 53h111M237 53h13M0 54h110M238 54h12M0 55h109M239 55h11M0 56h107M240 56h10M0 57h56M58 57h47M241 57h9M0 58h55M59 58h44M241 58h9M0 59h54M60 59h42M242 59h8M0 60h53M61 60h39M0 61h52M62 61h36M0 62h51M63 62h34M0 63h50M64 63h29M0 64h49M64 64h26M0 65h48M65 65h24M0 66h48M66 66h9M0 67h47M0 68h46M0 69h45M0 70h44M0 71h43M0 72h42M0 73h41M0 74h38M0 75h35M0 76h33M0 77h29M0 78h20M0 79h17M0 80h16M9 81h6M13 82h1" />
<path stroke="#5792fb" d="M111 0h2M208 0h2M65 1h3M112 1h1M208 1h2M111 2h1M209 2h1M65 3h1M67 3h1M187 3h1M208 3h1M69 6h1M115 7h1M182 7h1M70 8h2M116 8h1M119 8h1M212 8h1M72 9h1M117 9h4M128 9h2M179 9h1M213 9h1M215 9h1M121 10h5M127 10h1M176 10h1M214 10h2M217 10h1M132 11h1M149 11h1M217 11h1M249 11h1M53 12h1M133 12h1M147 12h1M151 12h1M174 12h1M219 12h1M54 13h1M67 13h1M134 13h2M144 13h2M152 13h1M155 13h1M173 13h1M222 13h1M226 13h1M29 14h2M33 14h1M35 14h1M57 14h1M136 14h8M153 14h2M156 14h1M169 14h1M230 14h1M234 14h1M238 14h1M240 14h5M29 15h1M60 15h1M62 15h1M157 15h1M159 15h2M162 15h1M164 15h6M1 16h1M37 16h1M47 16h1M4 17h1M20 17h1M23 17h1M25 17h1M41 17h1M45 17h1M8 18h1M12 18h1M18 18h1" />
<path stroke="#dbd9f0" d="M113 0h1M210 1h1" />
<path stroke="#e3dff1" d="M114 0h1" />
<path stroke="#f6e8ef" d="M115 0h1M53 11h1M45 14h1M87 79h1" />
<path stroke="#eae1ee" d="M116 0h1" />
<path stroke="#faeaee" d="M117 0h1M215 2h1M213 5h1M237 11h1M159 12h1M27 13h1" />
<path stroke="#feecef" d="M118 0h2M176 0h1M249 0h1M51 1h4M60 1h1M118 1h2M130 1h1M164 1h2M168 1h2M129 2h1M217 2h1M220 2h1M223 2h1M126 3h1M217 3h2M223 3h1M128 4h1M172 4h1M177 4h1M216 4h1M223 4h1M5 5h1M63 5h1M117 5h1M124 5h2M176 5h1M6 6h1M35 6h1M130 6h1M172 6h1M226 6h2M0 7h1M33 7h1M56 7h1M138 7h1M140 7h1M154 7h1M170 7h1M6 8h1M34 8h1M164 8h1M167 8h1M5 9h1M21 9h1M38 9h1M140 9h1M147 9h3M225 9h1M227 9h1M230 9h1M233 9h1M4 10h2M37 10h1M56 10h1M58 10h1M153 10h1M166 10h1M162 11h1M164 11h2M22 12h2M41 12h1M46 12h1M4 13h1M8 13h1M11 13h1M187 48h2M93 79h1M87 80h1M86 84h1M85 86h1M0 91h1M13 97h1M2 99h4M4 102h1M9 102h1M4 103h6M0 108h3M0 109h2" />
<path stroke="#fcecee" d="M133 0h1M173 0h2M213 0h1M116 4h1M118 6h1M121 7h1M178 7h1M131 8h2M175 9h1M20 10h1M173 10h1M230 10h1M36 11h1M52 11h1M58 11h1M137 11h1M143 11h1M155 11h1M172 11h1M239 11h2M168 12h2M41 13h1M8 14h1M86 79h1" />
<path stroke="#fbe9ed" d="M134 0h1M180 0h1" />
<path stroke="#fdecee" d="M135 0h1M179 0h1M228 0h1M131 1h1M227 1h1M221 2h1M215 3h1M8 5h1M11 6h1M213 6h2M6 7h1M124 7h1M217 7h3M29 8h1M34 9h1M153 9h1M22 10h1M53 10h2M246 10h1M18 11h1M30 11h1M241 11h1M243 11h1M0 12h1M2 12h1M5 13h1M46 13h1M82 78h1" />
<path stroke="#ffeaed" d="M142 0h1M248 5h1" />
<path stroke="#fdecef" d="M165 0h2M215 0h1M63 2h1M226 2h1M9 3h1M64 5h1M129 7h1M248 7h1M132 9h1M60 10h1M152 10h1M232 10h1M51 11h1M60 11h1M43 13h1M10 14h1M19 14h1" />
<path stroke="#fdeced" d="M167 0h1M7 6h1M215 6h1M125 7h1M130 7h2M19 10h1M0 11h1M242 11h1M4 12h1M160 12h1M166 12h1M82 76h1M89 78h1M6 91h3" />
<path stroke="#f7e7ed" d="M168 0h1" />
<path stroke="#f5e7ed" d="M169 0h1" />
<path stroke="#e6dff0" d="M170 0h1" />
<path stroke="#f0e5ef" d="M171 0h1" />
<path stroke="#f4e6ed" d="M172 0h1M137 50h1" />
<path stroke="#fdedee" d="M175 0h1M214 0h1M61 1h1M178 1h1M228 1h1M117 3h1M118 4h1M7 5h1M217 6h1M132 7h1M220 7h1M57 9h1M154 9h1M36 10h1M1 11h2M39 11h1M171 11h1M5 12h1" />
<path stroke="#e9e0f0" d="M181 0h1M63 3h1" />
<path stroke="#7fa7f8" d="M182 0h2" />
<path stroke="#7da7f8" d="M184 0h1M112 2h1M209 3h1" />
<path stroke="#8caef7" d="M185 0h1" />
<path stroke="#fcebef" d="M216 0h1M218 1h1M181 2h1M214 2h1M214 4h1M65 5h1M180 6h1M33 9h1M222 9h1M248 9h1M147 10h1M32 11h1M34 11h1M1 12h1M48 13h1M182 41h1" />
<path stroke="#fcebee" d="M217 0h1M179 1h1M10 2h1M214 3h1M215 5h1M119 6h1M126 7h1M216 7h1M32 9h1M33 10h1M35 10h1M134 10h1M228 10h2M231 10h1M35 11h1M37 11h1M59 11h1M142 11h1M238 11h1M3 12h1M163 12h1M40 13h1M42 13h1M6 14h1M9 14h1M22 14h1" />
<path stroke="#fceaee" d="M218 0h2M214 1h1M180 2h1M176 8h1M249 8h1M66 9h1M151 9h1M221 9h1M38 12h1M50 12h1M2 13h1M239 66h1M6 92h1" />
<path stroke="#f2e4ef" d="M220 0h1" />
<path stroke="#c2ccf3" d="M221 0h1M249 10h1" />
<path stroke="#cad0f1" d="M222 0h1" />
<path stroke="#d0d4f1" d="M223 0h1" />
<path stroke="#f0e6f0" d="M224 0h1" />
<path stroke="#f3e8ef" d="M225 0h1" />
<path stroke="#fbeaee" d="M226 0h1M219 1h1M9 6h1M117 6h1M244 11h1M157 12h1M132 52h1M246 68h1" />
<path stroke="#fdebee" d="M227 0h1M11 1h2M178 2h1M213 2h1M181 5h1M63 7h1M65 8h1M217 8h1M33 11h1M61 11h1M63 11h2M156 11h1M15 14h1M190 44h1" />
<path stroke="#feeaee" d="M237 0h1M248 0h1M135 1h1M248 2h1M180 3h1M249 6h1M177 7h1M236 7h1M175 8h1M65 9h1M65 10h1M145 10h1M172 10h1M10 11h1M26 11h1M245 70h1M86 87h1M0 117h1M0 118h1" />
<path stroke="#f7e7ee" d="M62 1h1M65 7h2" />
<path stroke="#c8cff3" d="M63 1h1M158 13h1" />
<path stroke="#6a9cf9" d="M64 1h1M187 2h1M185 4h1M183 6h1M220 11h1M55 12h1M228 12h1M248 12h1M31 13h1M58 13h1M156 13h1M36 14h1M51 14h1M2 15h1M28 15h1M39 15h1M49 15h1M6 16h1M22 16h1" />
<path stroke="#7ba5f8" d="M113 1h1M210 2h1M186 3h1M113 5h1M114 6h1M210 6h1M116 7h1M211 7h1M120 8h1M179 8h2M213 8h1M131 10h1M218 10h1M150 11h1M175 11h1M221 11h1M134 12h2M173 12h1M229 12h1M34 13h1M52 13h1M59 13h1M66 13h1M172 13h1M0 14h1M50 14h1M3 15h1M40 15h1M48 15h1M7 16h1M21 16h1" />
<path stroke="#efe3ee" d="M114 1h1M181 1h1M37 13h1" />
<path stroke="#fae9ee" d="M115 1h1M212 2h1M62 3h1M214 7h1M249 7h1M39 13h1" />
<path stroke="#fdebed" d="M138 1h1M123 7h1M30 8h1M138 11h1M162 12h1M97 73h1M78 76h1M4 90h1M11 93h1" />
<path stroke="#f7e7ef" d="M180 1h1M67 10h1M245 11h1" />
<path stroke="#eae2f0" d="M182 1h1M65 6h1" />
<path stroke="#bac7f3" d="M184 1h1" />
<path stroke="#4186fd" d="M185 1h1M188 1h1M69 2h1M188 2h1M66 3h1M68 3h2M68 6h1M70 6h2M72 8h2M73 9h1M126 10h1M216 10h1M70 11h1M218 11h2M54 12h1M68 12h2M220 12h1M227 12h1M249 12h1M33 13h1M53 13h1M55 13h1M57 13h1M68 13h1M221 13h1M223 13h3M227 13h2M32 14h1M34 14h1M56 14h1M58 14h1M155 14h1M229 14h1M231 14h3M235 14h3M239 14h1M245 14h1M0 15h2M35 15h2M38 15h1M50 15h1M59 15h1M61 15h1M63 15h2M158 15h1M161 15h1M163 15h1M2 16h1M5 16h1M23 16h1M25 16h1M38 16h2M3 17h1M5 17h2M21 17h2M24 17h1M40 17h1M42 17h3M46 17h1M7 18h1M9 18h3M13 18h5M19 18h1" />
<path stroke="#e0ddf1" d="M211 1h1" />
<path stroke="#f2e5ef" d="M212 1h1M131 9h1M66 11h1M38 13h1M26 14h1M46 14h1" />
<path stroke="#e4deef" d="M213 1h1" />
<path stroke="#f9e8ee" d="M220 1h1M117 2h1M182 4h1M64 7h1M224 10h2M227 10h1M247 10h1M232 11h1M235 11h2M43 14h1M10 15h1M84 78h1" />
<path stroke="#fbe9ee" d="M221 1h1M182 5h1M66 8h1M220 9h1M90 77h1" />
<path stroke="#f9e8ec" d="M222 1h1M10 6h1M188 40h1M141 48h2M97 71h2M79 74h1M17 91h1" />
<path stroke="#ebe2f0" d="M223 1h1M58 12h1" />
<path stroke="#e8e2f0" d="M224 1h1M133 10h1M221 10h1" />
<path stroke="#f7ebf0" d="M225 1h1" />
<path stroke="#fbebee" d="M226 1h1M31 11h1" />
<path stroke="#feebec" d="M11 2h1M62 4h1M228 5h1" />
<path stroke="#ffecec" d="M12 2h1M227 4h2M37 5h2M162 5h1M146 6h1M148 6h1M156 6h1M243 6h1M28 7h1" />
<path stroke="#f9eaf0" d="M64 2h1" />
<path stroke="#f2e5ee" d="M65 2h1M50 13h1M19 15h1M85 78h1" />
<path stroke="#d6d6f0" d="M66 2h1M211 4h1" />
<path stroke="#b0c3f4" d="M67 2h1" />
<path stroke="#6c9efa" d="M68 2h1" />
<path stroke="#7fa8f8" d="M113 2h1M210 3h1" />
<path stroke="#9ab7f6" d="M114 2h1M211 3h1" />
<path stroke="#f2e5f0" d="M115 2h1M145 11h1" />
<path stroke="#f9e8ef" d="M116 2h1M182 3h1M64 6h1" />
<path stroke="#f7e9ee" d="M177 2h1M153 11h1M16 15h1M87 78h1" />
<path stroke="#fceaef" d="M179 2h1M182 2h1M116 5h1M66 10h1M36 12h1" />
<path stroke="#d0d3f1" d="M183 2h1" />
<path stroke="#a7bdf5" d="M184 2h1" />
<path stroke="#5a93fb" d="M185 2h1" />
<path stroke="#8badf7" d="M186 2h1" />
<path stroke="#ede2ef" d="M211 2h1" />
<path stroke="#feedef" d="M222 2h1M232 2h5M173 4h1M118 5h5M227 5h1M37 6h2M128 6h1M38 7h2M141 7h1M150 7h1M38 8h5M144 8h1M150 8h1M26 9h1M53 9h1M134 9h6M226 9h1M228 9h1M232 9h1M234 9h7M41 10h4M155 10h7M163 10h3M19 12h2M45 12h1M10 13h1M12 13h3M188 42h1M137 56h1M78 78h1M90 79h1M3 91h1" />
<path stroke="#ffeeef" d="M230 2h2M240 3h1M225 4h1M163 5h1" />
<path stroke="#feedee" d="M237 2h1M175 3h1M174 4h1M123 5h1M129 6h1M171 6h1M8 7h1M142 7h1M28 8h1M31 8h1M165 8h1M173 8h1M224 8h1M54 9h1M241 9h1M40 10h1M51 10h2M11 11h1M21 12h1M15 13h1M183 41h1M184 42h2M139 54h1M135 55h1M246 70h1M92 75h1M248 75h1M83 77h1M93 77h2M77 78h1M22 91h1M2 93h1M8 93h1M10 93h1M0 95h1" />
<path stroke="#a5bbf5" d="M64 3h1" />
<path stroke="#c2cdf3" d="M112 3h1M209 4h1M114 5h1M211 6h1" />
<path stroke="#99b5f5" d="M113 3h1M210 4h1" />
<path stroke="#dbd8ef" d="M114 3h1" />
<path stroke="#f2e7ef" d="M115 3h1M213 4h1M55 11h1" />
<path stroke="#f9eaee" d="M116 3h1M214 5h1" />
<path stroke="#eae0f0" d="M183 3h1" />
<path stroke="#dfdbf1" d="M184 3h1M68 10h1" />
<path stroke="#d3d5f3" d="M185 3h1" />
<path stroke="#f5e8ef" d="M212 3h1" />
<path stroke="#f7e8ef" d="M213 3h1M144 11h1" />
<path stroke="#feeced" d="M9 4h1M234 5h2M237 5h2M163 6h1M7 7h1M25 9h1M17 11h1M4 91h2" />
<path stroke="#faeaed" d="M63 4h1M154 11h1" />
<path stroke="#f3e7ee" d="M64 4h1" />
<path stroke="#ece1ef" d="M65 4h1M181 6h1" />
<path stroke="#c9cff2" d="M66 4h1" />
<path stroke="#b0c2f4" d="M67 4h1M112 4h1M209 5h1M70 9h1" />
<path stroke="#6b9df9" d="M68 4h1M69 11h1" />
<path stroke="#5892fb" d="M69 4h1" />
<path stroke="#dad9f2" d="M113 4h1M210 5h1" />
<path stroke="#f5e7ef" d="M114 4h1M63 12h1" />
<path stroke="#f7e9ef" d="M115 4h1" />
<path stroke="#fbeaed" d="M117 4h1M136 11h1M158 12h1M161 12h1M77 76h1M19 92h1" />
<path stroke="#f8e8ee" d="M183 4h1" />
<path stroke="#cdd2f3" d="M184 4h1" />
<path stroke="#eae2ef" d="M212 4h1" />
<path stroke="#fdedef" d="M62 5h1M58 9h1" />
<path stroke="#f1e4ef" d="M66 5h1M211 5h1M212 6h1" />
<path stroke="#e3def1" d="M67 5h1" />
<path stroke="#a8bcf5" d="M68 5h1" />
<path stroke="#6c9dfa" d="M69 5h1M70 7h1" />
<path stroke="#e3def0" d="M115 5h1" />
<path stroke="#b9c6f2" d="M183 5h1M180 7h1M219 10h1M1 14h1M18 16h1" />
<path stroke="#8aaef7" d="M184 5h1M182 6h1M216 9h1M32 12h1M56 12h1M153 12h1M247 12h1M157 13h1M37 14h1M27 15h1" />
<path stroke="#e9e1ef" d="M212 5h1" />
<path stroke="#f7e8ee" d="M8 6h1M234 11h1M35 12h1M61 12h1M44 14h1M12 15h1" />
<path stroke="#ffedf0" d="M33 6h1" />
<path stroke="#bcc7f3" d="M66 6h1" />
<path stroke="#9bb5f5" d="M67 6h1M248 11h1M67 12h1" />
<path stroke="#ced4f2" d="M115 6h1M212 7h1M151 11h1M57 12h1" />
<path stroke="#e2def0" d="M116 6h1" />
<path stroke="#feeaed" d="M179 6h1M17 14h1" />
<path stroke="#e3ddf0" d="M67 7h1M30 12h1M65 12h1" />
<path stroke="#d1d3f1" d="M68 7h1M68 8h1M247 11h1" />
<path stroke="#8eaff7" d="M69 7h1" />
<path stroke="#98b5f6" d="M117 7h1M121 8h1M130 9h1M148 11h1M136 12h1M146 12h1M152 12h1M171 13h1" />
<path stroke="#d9d8f0" d="M118 7h1M123 8h1M134 11h1M138 12h1M24 15h1" />
<path stroke="#f1e6ef" d="M119 7h1M135 11h1" />
<path stroke="#f6e9ef" d="M120 7h1" />
<path stroke="#fcebed" d="M122 7h1M38 11h1M164 12h1M190 42h2M139 50h1M95 73h1M21 91h1" />
<path stroke="#fbe9ef" d="M127 7h1M67 9h1M170 12h1" />
<path stroke="#fbeaef" d="M128 7h1M246 69h1" />
<path stroke="#f8e9ee" d="M179 7h1M226 10h1M65 11h1M233 11h1M60 12h1M62 12h1M24 14h1M11 15h1M13 15h1M15 15h1" />
<path stroke="#aec2f5" d="M181 7h1M133 11h1M147 11h1M145 12h1" />
<path stroke="#e6e0f0" d="M213 7h1M152 11h1M39 14h1M20 15h1" />
<path stroke="#eee4f0" d="M67 8h1" />
<path stroke="#99b4f5" d="M69 8h1" />
<path stroke="#ced3f2" d="M122 8h1M137 12h1" />
<path stroke="#dddaf0" d="M124 8h1M126 8h1M244 12h1" />
<path stroke="#e5deef" d="M125 8h1" />
<path stroke="#c8cef2" d="M127 8h1" />
<path stroke="#c8cff2" d="M128 8h1" />
<path stroke="#d4d5f1" d="M129 8h1M154 12h1" />
<path stroke="#f3e6ef" d="M130 8h1M29 12h1" />
<path stroke="#ede3f0" d="M177 8h1" />
<path stroke="#e2ddf1" d="M178 8h1" />
<path stroke="#a4bcf5" d="M214 8h1M178 9h1M51 13h1" />
<path stroke="#ede4ef" d="M215 8h1M155 12h1M86 78h1" />
<path stroke="#efe4f0" d="M216 8h1" />
<path stroke="#fcecef" d="M219 8h1M223 9h1M7 14h1" />
<path stroke="#ece2ef" d="M68 9h1M40 14h1" />
<path stroke="#e2dcf1" d="M69 9h1" />
<path stroke="#99b5f6" d="M71 9h1" />
<path stroke="#efe4ef" d="M176 9h1" />
<path stroke="#c7cff2" d="M177 9h1" />
<path stroke="#d4d6f1" d="M217 9h1M33 12h1" />
<path stroke="#e6dfef" d="M218 9h1M0 13h1" />
<path stroke="#f0e5f0" d="M219 9h1M1 13h1" />
<path stroke="#f0e4ef" d="M249 9h1" />
<path stroke="#fdeaef" d="M30 10h1M142 52h1M242 68h1" />
<path stroke="#fdebef" d="M31 10h1M28 12h1" />
<path stroke="#b2c2f4" d="M69 10h1" />
<path stroke="#6b9dfa" d="M70 10h1" />
<path stroke="#e8e0ee" d="M132 10h1" />
<path stroke="#e8e1f0" d="M148 10h1M173 11h1" />
<path stroke="#d8d8f0" d="M149 10h1" />
<path stroke="#e5dfef" d="M150 10h1M242 12h1M166 13h2" />
<path stroke="#ece2f0" d="M151 10h1" />
<path stroke="#f4e7ef" d="M174 10h1" />
<path stroke="#afc1f4" d="M175 10h1" />
<path stroke="#e8e1ef" d="M220 10h1M2 14h1M6 15h1" />
<path stroke="#f2e6ef" d="M222 10h1" />
<path stroke="#f6e8ee" d="M223 10h1M88 78h1" />
<path stroke="#e9e0ef" d="M248 10h1" />
<path stroke="#fceaed" d="M29 11h1M135 51h1M243 68h1" />
<path stroke="#ebe1ee" d="M54 11h1" />
<path stroke="#f0e5ee" d="M56 11h1" />
<path stroke="#f5e7ee" d="M57 11h1M25 14h1" />
<path stroke="#d6d5f1" d="M67 11h1" />
<path stroke="#b1c2f4" d="M68 11h1" />
<path stroke="#eee3ef" d="M146 11h1M51 12h1" />
<path stroke="#b8c6f3" d="M174 11h1M25 15h1M47 15h1" />
<path stroke="#a5bcf4" d="M222 11h1M230 12h1M30 13h1M41 15h1M8 16h1" />
<path stroke="#c1cbf4" d="M223 11h1M231 12h1M42 15h1M9 16h1" />
<path stroke="#c1caf1" d="M224 11h1M232 12h1M62 13h1M159 13h1M43 15h1M10 16h1M17 16h1" />
<path stroke="#c8cef1" d="M225 11h1M233 12h2M236 12h2M44 15h1M11 16h2M16 16h1" />
<path stroke="#ced2f0" d="M226 11h1M238 12h1" />
<path stroke="#e5dff0" d="M227 11h1" />
<path stroke="#ebe2ef" d="M228 11h1M156 12h1" />
<path stroke="#eee3ee" d="M229 11h1M59 12h1M7 15h1" />
<path stroke="#f5e8ee" d="M231 11h1M42 14h1M9 15h1M14 15h1" />
<path stroke="#ede1ef" d="M246 11h1" />
<path stroke="#c1c9f2" d="M31 12h1" />
<path stroke="#dedcf1" d="M34 12h1" />
<path stroke="#b9c6f3" d="M52 12h1M246 12h1M64 13h1" />
<path stroke="#e7dff0" d="M64 12h1" />
<path stroke="#a8bdf5" d="M66 12h1" />
<path stroke="#e2dcef" d="M139 12h1M142 12h1M241 12h1M165 13h1M168 13h2" />
<path stroke="#e8dfee" d="M140 12h2" />
<path stroke="#d9d7f0" d="M143 12h1M239 12h1M160 13h1M164 13h1" />
<path stroke="#ced2f2" d="M144 12h1M235 12h1M63 13h1M170 13h1M13 16h1" />
<path stroke="#e3deef" d="M171 12h1" />
<path stroke="#d0d4f2" d="M172 12h1" />
<path stroke="#d4d4ef" d="M240 12h1" />
<path stroke="#e2ddef" d="M243 12h1M163 13h1" />
<path stroke="#d4d4f1" d="M245 12h1" />
<path stroke="#fce9ee" d="M26 13h1M83 78h1" />
<path stroke="#f1e3ee" d="M28 13h1" />
<path stroke="#dbd7f0" d="M29 13h1" />
<path stroke="#c8d0f2" d="M35 13h1" />
<path stroke="#dad9f0" d="M36 13h1" />
<path stroke="#afc1f3" d="M60 13h1M4 15h1" />
<path stroke="#c8cff4" d="M61 13h1" />
<path stroke="#a4bbf5" d="M65 13h1M20 16h1" />
<path stroke="#dddbf0" d="M161 13h1" />
<path stroke="#d4d4f0" d="M162 13h1M23 15h1" />
<path stroke="#ebe3f0" d="M3 14h1" />
<path stroke="#f3e7ef" d="M4 14h1" />
<path stroke="#f6e7ef" d="M5 14h1M88 79h1" />
<path stroke="#c3cdf2" d="M27 14h1" />
<path stroke="#cad0f2" d="M28 14h1" />
<path stroke="#d9d8f1" d="M38 14h1M22 15h1" />
<path stroke="#dfdcf0" d="M47 14h1" />
<path stroke="#e6dff2" d="M48 14h1" />
<path stroke="#a6bcf5" d="M49 14h1" />
<path stroke="#dedbf0" d="M5 15h1" />
<path stroke="#f6e7ed" d="M17 15h1M26 89h1M11 91h1" />
<path stroke="#f4e6ef" d="M18 15h1" />
<path stroke="#efe5f1" d="M21 15h1" />
<path stroke="#c1caf3" d="M26 15h1M19 16h1" />
<path stroke="#c0cbf2" d="M45 15h1M14 16h2" />
<path stroke="#c8cef3" d="M46 15h1" />
<path stroke="#a39194" d="M205 21h2M205 22h3M205 23h3M206 24h3M206 25h4M206 26h4M168 27h1M207 27h4M168 28h2M207 28h5M169 29h2M208 29h5M169 30h2M208 30h5M169 31h3M208 31h6M169 32h4M209 32h6M169 33h5M209 33h6M170 34h5M209 34h7M170 35h6M210 35h7M170 36h7M210 36h7M170 37h7M210 37h8M170 38h7M211 38h8M171 39h4M211 39h8M171 40h5M212 40h8M171 41h1M173 41h3M212 41h9M173 42h2M212 42h10M213 43h9M124 44h1M213 44h10M124 45h2M213 45h11M124 46h3M214 46h10M125 47h2M214 47h8M125 48h3M214 48h6M125 49h4M215 49h1M217 49h2M126 50h4M126 51h4M126 52h5M127 53h5M127 54h6M127 55h6M128 56h6M128 57h7M128 58h8M59 59h1M129 59h7M60 60h1M129 60h7M60 61h2M129 61h6M61 62h2M130 62h2M61 63h3M130 63h1M62 64h2M62 65h3M63 66h3M63 67h4M64 68h4M64 69h5M65 70h5M66 71h5M66 72h6M67 73h6M67 74h6M68 75h5M68 76h5M68 77h5M71 78h2" />
<path stroke="#000000" d="M19 27h2M21 28h1M23 29h3M34 29h1M22 32h2M36 32h2M23 33h2M38 33h1M39 34h1" />
<path stroke="#ffffff" d="M21 27h8M22 28h8M26 29h8M28 30h7M29 31h10M24 32h10M38 32h2M25 33h8M39 33h2M28 34h4M40 34h1" />
<path stroke="#ff6f00" d="M35 30h3" />
<path stroke="#5f91f4" d="M176 31h1M132 41h1M119 49h1M93 63h1M75 66h1M38 74h1M29 77h1M20 78h1M0 81h1" />
<path stroke="#7f9fed" d="M177 31h1M147 39h1M133 41h1M94 63h1M76 66h1M67 67h1M39 74h1M30 77h1M21 78h1M1 81h1M1 82h1" />
<path stroke="#93a8ea" d="M178 31h1M148 39h1M134 41h1M95 63h1M77 66h1M68 67h1M22 78h1M2 81h1M2 82h2" />
<path stroke="#9fade8" d="M179 31h1M185 31h1M193 32h1M195 32h1M149 39h1M135 41h1M78 66h1M69 67h1M23 78h1M3 81h2M4 82h1" />
<path stroke="#a6b0e7" d="M180 31h1M136 41h1M79 66h1M70 67h1M24 78h1" />
<path stroke="#a8b0e6" d="M181 31h3M153 39h2M137 41h2M232 55h1M242 60h3M246 60h1M80 66h8M71 67h1M33 77h1M25 78h1M11 83h1" />
<path stroke="#a6afe6" d="M184 31h1M190 32h1M151 39h1M245 60h1M6 82h2" />
<path stroke="#93a8eb" d="M186 31h1M8 83h1" />
<path stroke="#7f9eef" d="M187 31h1M226 48h1M228 49h1" />
<path stroke="#5e90f5" d="M188 31h1M226 47h1M228 48h1M231 50h1M233 51h1M235 53h1M238 56h1M92 64h3" />
<path stroke="#387ffc" d="M189 31h1M224 45h1M225 46h1M227 47h1M229 48h1M232 50h1M114 51h1M234 51h1M236 53h1M237 54h1M239 56h1" />
<path stroke="#4685f9" d="M173 32h2M182 32h3M194 33h1M197 33h1M129 42h3M128 43h1M128 44h1M223 44h1M127 45h1M231 49h1M113 51h1M112 52h1M235 52h1M111 53h1M110 54h1M109 55h1M238 55h1M107 56h1M105 57h1M240 57h1M103 58h1M241 59h1M100 60h1M98 61h1M244 61h2M90 64h2M35 75h1M33 76h1M17 79h2M8 81h1M0 82h1M12 82h1M14 82h1" />
<path stroke="#7198f2" d="M175 32h1M132 42h1M116 50h1M36 75h1M19 79h1" />
<path stroke="#89a3eb" d="M176 32h4M145 40h2M133 42h4M20 79h4" />
<path stroke="#7d9def" d="M180 32h1" />
<path stroke="#6692f2" d="M181 32h1M139 42h1M141 42h1M113 52h1M243 61h1" />
<path stroke="#7098f2" d="M185 32h1M233 52h1M246 61h4M7 81h1M11 82h1" />
<path stroke="#8ba3ed" d="M186 32h1M249 60h1M6 81h1M10 82h1" />
<path stroke="#9aaae9" d="M187 32h1M197 32h1M248 60h1M5 81h1M9 82h1M9 83h1" />
<path stroke="#a3aee7" d="M188 32h1M191 32h2M247 60h1M8 82h1M10 83h1" />
<path stroke="#a5afe7" d="M189 32h1M150 39h1" />
<path stroke="#9cace9" d="M194 32h1M196 32h1" />
<path stroke="#aab0e6" d="M174 33h1" />
<path stroke="#abb1e6" d="M175 33h2M97 63h1M34 77h1M2 83h1" />
<path stroke="#adafe6" d="M177 33h1M134 43h1M22 80h1M14 83h1" />
<path stroke="#adb0e5" d="M178 33h1M190 34h1M150 41h1M145 45h1M108 58h1M106 59h1M103 61h1M101 62h1M99 64h1M92 67h1M77 68h2M69 69h1M35 78h1M23 80h1" />
<path stroke="#adb2e5" d="M179 33h1M151 41h1M239 60h1" />
<path stroke="#aeb2e5" d="M180 33h1M182 33h2M192 36h1M195 36h1M136 43h1M138 43h1M236 59h1M242 62h1M244 62h1M246 62h1M80 68h8M89 68h1" />
<path stroke="#afb3e5" d="M181 33h1M191 36h1M142 43h1M145 43h1M231 55h1M71 69h1M25 80h1" />
<path stroke="#adb1e5" d="M184 33h1M189 34h1M152 41h1M135 43h1M131 45h1M79 68h1M70 69h1M24 80h1M3 83h1" />
<path stroke="#acb1e5" d="M185 33h1M144 45h1M228 51h1" />
<path stroke="#a1aae7" d="M186 33h1" />
<path stroke="#8ea2ec" d="M187 33h1" />
<path stroke="#6f95f0" d="M188 33h1M138 42h1M140 42h1M129 43h1M131 43h1M128 46h1M98 62h1M87 67h2M72 68h1M26 79h1M17 80h1" />
<path stroke="#5e8ff4" d="M189 33h1" />
<path stroke="#528af6" d="M190 33h2M193 33h1M195 33h2M149 40h2M152 40h1M112 53h1M89 65h1M85 67h1" />
<path stroke="#5d8ef4" d="M192 33h1M151 40h1M153 40h1M128 45h1M127 46h1M115 51h1M104 58h1M240 58h1M102 59h1M99 61h1M97 62h1M90 65h1M79 67h6M86 67h1M16 80h1M15 81h2" />
<path stroke="#aeb0e4" d="M175 34h1" />
<path stroke="#b1b3e4" d="M176 34h1M182 35h2M147 42h1M140 47h1M93 66h1M74 69h1M87 72h1M28 80h1M20 81h1M31 83h1M20 84h1M11 85h3" />
<path stroke="#b1b3e3" d="M177 34h5M184 35h12M148 42h4M133 44h6M107 62h1M105 63h1M236 63h8M103 64h1M94 66h3M100 66h1M98 67h1M75 69h13M70 70h2M94 70h1M86 73h1M29 80h3M21 81h5M21 84h1M23 84h1M25 84h4M1 85h4M10 85h1M14 85h1M17 85h8M4 86h8M25 86h1M7 87h2M10 87h2M15 88h2M9 89h1M12 89h2M15 89h1M19 89h1M10 90h1M15 90h1M17 90h1" />
<path stroke="#b0b3e3" d="M182 34h1M176 35h6M185 36h4M178 38h2M181 39h1M189 39h5M139 44h3M133 45h6M145 46h3M131 47h2M135 47h4M131 48h6M110 58h1M108 59h1M235 60h1M236 61h1M237 62h1M101 63h1M244 63h1M246 63h2M246 64h1M105 65h1M103 66h1M101 67h2M99 68h2M88 69h1M98 69h1M72 70h8M90 70h1M93 70h1M97 70h1M101 70h1M71 71h1M74 73h12M88 73h1M87 74h1M34 79h1M32 80h1M26 81h5M18 82h8M4 84h1M19 84h1M24 84h1M5 85h1M7 85h3M2 86h1M12 86h3M26 86h1M9 87h1M17 87h1M10 89h2" />
<path stroke="#b0b2e3" d="M183 34h2M177 36h6M183 37h12M180 39h1M140 43h1M132 44h1M143 44h3M148 44h2M140 45h3M131 46h9M130 50h1M231 56h1M112 57h1M232 57h1M233 58h1M107 59h1M109 59h2M233 59h2M107 60h2M234 60h1M105 61h4M235 61h1M103 62h4M235 62h2M102 63h3M245 63h1M101 64h2M245 64h1M99 65h2M237 65h3M97 66h3M104 66h1M96 67h2M91 68h5M101 68h1M72 69h1M89 69h3M99 69h2M89 70h1M98 70h1M73 71h15M72 72h2M78 75h2M87 75h1M32 79h1M35 79h1M26 80h1M33 80h2M31 81h3M26 82h7M18 83h10M2 84h2M17 84h2M6 85h1M0 86h2M27 86h1M18 87h1M25 87h1M8 88h1" />
<path stroke="#afb3e4" d="M185 34h1M184 36h1M189 36h2M178 37h4M188 38h1M190 38h5M143 43h1M146 43h5M132 45h1M148 45h1M133 47h2M106 60h1M238 62h3M248 63h2M248 65h1M94 67h2M92 69h3M80 70h8M74 72h13M89 72h1M33 79h1M28 83h2M7 84h1M0 85h1M3 86h1" />
<path stroke="#afb4e5" d="M186 34h1M143 46h1M235 59h1M241 62h1" />
<path stroke="#aeb3e5" d="M187 34h1M193 36h1M137 43h1M144 43h1M235 58h1M100 63h1M93 67h1M36 78h1" />
<path stroke="#aeb2e4" d="M188 34h1M194 36h1M144 42h1M146 45h1M230 54h1M232 54h1M233 57h1M238 60h1M248 64h1" />
<path stroke="#adaee4" d="M191 34h1" />
<path stroke="#adafe5" d="M192 34h2M149 41h1M128 48h1" />
<path stroke="#a9afe5" d="M194 34h1M196 34h1M234 56h1M104 60h1M239 61h1M248 62h1" />
<path stroke="#acb0e5" d="M195 34h1M12 83h1" />
<path stroke="#b0b3e4" d="M183 36h1M187 38h1M189 38h1M141 46h2M139 47h1M247 64h1M73 73h1M30 83h1M1 84h1M5 84h2M22 84h1" />
<path stroke="#4c849e" d="M177 37h1M177 38h1M175 39h4M176 40h4M172 41h1M176 41h5M171 42h2M175 42h7M172 43h11M172 44h12M172 45h13M172 46h13M173 47h13M173 48h14M173 49h14M173 50h15M174 51h13M174 52h13M174 53h12M175 54h10M175 55h10M175 56h9M175 57h9M176 58h7M176 59h6M176 60h6M135 61h2M176 61h5M132 62h6M177 62h4M131 63h7M177 63h3M130 64h9M177 64h2M131 65h9M177 65h2M131 66h10M177 66h1M131 67h10M132 68h10M132 69h11M132 70h12M133 71h11M133 72h12M133 73h13M134 74h13M134 75h13M134 76h14M135 77h14M135 78h15M135 79h15M136 80h15M136 81h16M137 82h16M137 83h16M137 84h17M138 85h17M138 86h18M138 87h18M139 88h18M139 89h19M139 90h20M140 91h19M140 92h20M140 93h21M141 94h21M141 95h20M141 96h19M142 97h18M142 98h17M142 99h17M143 100h15M143 101h14M143 102h14M144 103h12M144 104h12M144 105h11M145 106h10M145 107h9M145 108h8M146 109h7M146 110h6M146 111h6M147 112h4M147 113h3M147 114h2M148 115h1" />
<path stroke="#b0b2e4" d="M182 37h1M146 42h1M142 44h1M147 44h1M139 45h1M140 46h1M130 47h1M113 56h1M111 57h1M100 64h1M98 65h1M103 67h1M90 68h1M102 68h1M88 70h1M72 71h1M88 72h1M16 84h1" />
<path stroke="#d0cbe7" d="M180 38h1M182 39h1M0 87h1M0 88h2" />
<path stroke="#e3d8e9" d="M181 38h4M183 39h2M138 48h1M237 64h1M2 88h2M0 89h1" />
<path stroke="#dad2e9" d="M185 38h1M187 39h1M180 40h1M140 49h1M132 50h1M246 66h1M247 67h2M92 72h3M84 74h1M81 75h5M4 88h2M25 88h1" />
<path stroke="#c1bfe6" d="M186 38h1M145 49h1" />
<path stroke="#4886f9" d="M145 39h1" />
<path stroke="#7299f0" d="M146 39h1" />
<path stroke="#a7b0e6" d="M152 39h1M236 57h1M237 58h1" />
<path stroke="#82a8ca" d="M163 39h1M163 40h1M153 41h3M162 41h3M152 42h4M160 42h6M167 42h4M151 43h4M160 43h12M150 44h5M159 44h13M149 45h7M157 45h15M148 46h24M147 47h26M147 48h26M146 49h27M145 50h28M144 51h30M143 52h31M142 53h32M141 54h34M140 55h35M140 56h35M139 57h36M112 58h2M138 58h38M111 59h5M137 59h39M110 60h5M120 60h1M122 60h1M124 60h4M136 60h40M109 61h6M118 61h10M137 61h39M108 62h8M117 62h12M138 62h39M108 63h21M138 63h39M107 64h23M139 64h38M106 65h25M140 65h37M105 66h26M141 66h36M178 66h1M104 67h27M141 67h37M103 68h29M142 68h36M102 69h30M143 69h34M102 70h30M144 70h33M101 71h32M144 71h32M100 72h33M145 72h31M99 73h34M146 73h29M98 74h36M147 74h27M97 75h37M147 75h27M96 76h38M148 76h25M95 77h40M149 77h24M95 78h40M150 78h22M94 79h41M150 79h22M93 80h43M151 80h20M92 81h44M152 81h18M91 82h46M153 82h17M90 83h47M153 83h16M89 84h48M154 84h15M89 85h49M155 85h13M88 86h50M156 86h12M85 87h1M87 87h51M156 87h11M85 88h54M157 88h9M86 89h53M158 89h8M87 90h52M159 90h6M88 91h52M159 91h6M89 92h51M160 92h4M90 93h11M103 93h37M161 93h3M91 94h10M103 94h38M162 94h1M92 95h7M103 95h38M93 96h6M103 96h38M94 97h3M107 97h35M95 98h2M108 98h34M108 99h34M108 100h35M109 101h34M110 102h33M110 103h34M112 104h32M112 105h32M109 106h36M111 107h34M111 108h34M111 109h35M116 110h30M116 111h30M116 112h31M116 113h31M116 114h31M116 115h32M112 116h36M117 117h31M117 118h22" />
<path stroke="#b1b1e3" d="M179 39h1M142 47h1M130 49h4M105 64h1M102 65h1M101 66h1M99 67h1M97 68h1M95 70h1M89 71h1M74 74h1M30 84h1M25 85h3M16 86h7M24 86h1M15 87h2M14 88h1M18 88h5M14 89h1M17 89h2M11 90h4M16 90h1" />
<path stroke="#e9deeb" d="M185 39h2" />
<path stroke="#c1bfe5" d="M188 39h1M141 49h2M131 50h1M90 72h2M99 72h1M88 74h1M75 75h3M80 75h1M86 75h1M9 90h1" />
<path stroke="#538bf7" d="M142 40h1M224 46h1M230 50h1M236 54h1" />
<path stroke="#7f9eee" d="M143 40h1M117 50h1M37 75h2" />
<path stroke="#85a1ec" d="M144 40h1" />
<path stroke="#83a0ed" d="M147 40h1" />
<path stroke="#6f96f1" d="M148 40h1M95 64h1" />
<path stroke="#eedfeb" d="M181 40h1M18 92h1" />
<path stroke="#f5e4eb" d="M182 40h1M2 89h1" />
<path stroke="#f2e2ec" d="M183 40h1M23 90h1" />
<path stroke="#eee0eb" d="M184 40h1M139 48h1M95 71h1M77 74h1" />
<path stroke="#f2e3eb" d="M185 40h1M239 64h2M84 76h1M1 89h1" />
<path stroke="#f5e6ed" d="M186 40h1M143 48h1" />
<path stroke="#f7e7ec" d="M187 40h1M189 40h1M81 74h1M10 91h1M13 91h1" />
<path stroke="#f5e6ec" d="M190 40h3M99 71h1" />
<path stroke="#a9b0e6" d="M139 41h1" />
<path stroke="#a7afe6" d="M140 41h1M89 66h1M73 67h2M27 78h2" />
<path stroke="#a6aee6" d="M141 41h1M230 52h1" />
<path stroke="#a1ace7" d="M142 41h1M229 51h1" />
<path stroke="#99a8ea" d="M143 41h1" />
<path stroke="#8da2ec" d="M144 41h1" />
<path stroke="#88a0ed" d="M145 41h1" />
<path stroke="#9ba9e9" d="M146 41h1" />
<path stroke="#a7aee6" d="M147 41h1" />
<path stroke="#abb0e6" d="M148 41h1" />
<path stroke="#fdeaee" d="M181 41h1M185 41h1M92 74h1" />
<path stroke="#f3e4ee" d="M186 41h1" />
<path stroke="#ded4e9" d="M187 41h1" />
<path stroke="#dad0e8" d="M188 41h1" />
<path stroke="#cec9e7" d="M189 41h1M191 41h1M89 73h2M89 74h1M88 75h1M28 86h1M10 92h1M12 92h1" />
<path stroke="#c8c4e6" d="M190 41h1M192 41h1M11 92h1" />
<path stroke="#839eee" d="M137 42h1M114 52h1" />
<path stroke="#7f9dee" d="M142 42h1" />
<path stroke="#a4ade6" d="M143 42h1M116 52h1" />
<path stroke="#b0b1e3" d="M145 42h1M107 63h1M106 64h1M97 65h1M104 65h1M102 66h1M100 67h1M98 68h1M101 69h1M96 70h1M99 70h2M87 73h1M86 74h1M37 77h1" />
<path stroke="#ffebef" d="M182 42h1M134 53h1M243 69h1M244 70h1M91 76h1M23 92h1" />
<path stroke="#7e9cee" d="M130 43h1M71 68h1M73 68h2M25 79h1M27 79h2" />
<path stroke="#89a0ed" d="M132 43h1M117 51h1M112 54h1M105 58h1M103 59h1M91 65h2M18 80h2" />
<path stroke="#a7ade6" d="M133 43h1M94 65h1M21 80h1" />
<path stroke="#afb2e4" d="M139 43h1M147 45h1M234 58h1M105 60h1M236 60h1M237 61h1M99 63h1M17 82h1" />
<path stroke="#afb1e3" d="M141 43h1M96 65h1" />
<path stroke="#8ba2eb" d="M129 44h1M17 81h1" />
<path stroke="#9eaae6" d="M130 44h1" />
<path stroke="#abb1e4" d="M131 44h1" />
<path stroke="#b0b1e4" d="M146 44h1M97 69h1" />
<path stroke="#91a4eb" d="M129 45h1" />
<path stroke="#a8aee5" d="M130 45h1M9 84h1" />
<path stroke="#adb0e4" d="M143 45h1M110 57h1M16 82h1" />
<path stroke="#ffeaee" d="M185 45h6M141 51h2M141 52h1M135 53h6M133 54h1M136 57h3M242 69h1M245 71h1M242 72h1M245 72h1M97 74h1M92 76h4M79 77h2M80 78h1M81 79h1M83 80h2M91 80h2M90 81h1M81 82h1M90 82h1M82 83h4M83 84h1M1 91h1M2 92h1M21 93h2M19 94h2M15 95h3M0 96h15M1 100h11M2 102h1M4 105h1M0 107h1M2 107h2M0 113h1" />
<path stroke="#6884ac" d="M191 45h1M190 46h3M190 47h3M194 47h2M189 48h7M187 49h9M197 49h1M199 49h2M203 49h1M188 50h16M213 50h1M187 51h28M187 52h29M186 53h30M185 54h32M185 55h32M184 56h33M184 57h34M183 58h35M182 59h36M182 60h37M181 61h38M181 62h38M180 63h40M179 64h41M179 65h42M179 66h42M178 67h43M178 68h44M177 69h45M177 70h45M176 71h47M176 72h47M175 73h48M46 74h2M50 74h1M174 74h50M39 75h2M46 75h6M174 75h50M39 76h13M173 76h52M38 77h14M173 77h52M37 78h14M57 78h1M172 78h53M36 79h14M56 79h2M64 79h2M172 79h54M35 80h15M54 80h4M65 80h2M171 80h55M34 81h24M65 81h5M170 81h56M33 82h38M170 82h57M32 83h40M169 83h58M31 84h41M169 84h58M30 85h43M168 85h60M29 86h45M168 86h60M28 87h46M167 87h62M28 88h47M166 88h63M27 89h48M166 89h63M26 90h50M165 90h65M25 91h36M63 91h14M165 91h65M24 92h37M63 92h14M164 92h66M23 93h36M63 93h15M164 93h67M22 94h37M63 94h15M163 94h19M184 94h42M228 94h3M21 95h36M67 95h12M161 95h21M184 95h42M228 95h3M20 96h37M68 96h11M160 96h20M184 96h40M228 96h4M19 97h36M68 97h12M160 97h20M184 97h40M228 97h4M18 98h37M68 98h13M159 98h19M188 98h34M18 99h34M69 99h12M159 99h19M189 99h33M22 100h30M70 100h12M158 100h18M189 100h31M23 101h31M70 101h12M157 101h19M189 101h31M233 101h1M23 102h31M72 102h11M157 102h16M190 102h27M23 103h25M72 103h11M156 103h17M191 103h26M24 104h24M69 104h15M156 104h19M191 104h28M25 105h23M71 105h14M155 105h20M193 105h26M25 106h23M71 106h14M155 106h14M193 106h20M27 107h25M71 107h15M154 107h15M190 107h23M234 107h2M27 108h25M76 108h10M153 108h16M192 108h21M24 109h28M76 109h11M153 109h16M192 109h21M26 110h26M76 110h11M152 110h21M192 110h25M236 110h1M26 111h20M76 111h12M152 111h21M197 111h20M26 112h20M76 112h13M151 112h22M197 112h20M31 113h17M76 113h10M150 113h23M197 113h20M31 114h17M72 114h14M149 114h18M197 114h14M31 115h15M48 115h4M77 115h11M149 115h18M209 115h2M31 116h15M48 116h4M77 116h11M148 116h21M31 117h13M48 117h1M77 117h15M148 117h3M31 118h13M48 118h1M77 118h15" />
<path stroke="#a2abe7" d="M129 46h1M98 64h1" />
<path stroke="#afb1e4" d="M130 46h1M238 61h1M249 64h1M17 83h1" />
<path stroke="#b0b4e5" d="M144 46h1M130 48h1M91 70h2" />
<path stroke="#92a6ea" d="M127 47h1M102 60h1M35 76h1" />
<path stroke="#a4ade7" d="M128 47h1" />
<path stroke="#aeafe5" d="M129 47h1M15 83h1" />
<path stroke="#b1b2e3" d="M141 47h1M143 47h1M111 58h1M109 60h1M101 65h1M249 66h1M96 68h1M88 71h1M15 85h2M15 86h1M23 86h1M12 87h3M19 87h6M9 88h5M17 88h1M16 89h1M20 89h1" />
<path stroke="#b1b1e4" d="M144 47h3M129 49h1M106 63h1M104 64h1M103 65h1M96 69h1M90 71h3" />
<path stroke="#506991" d="M222 47h3M220 48h6M216 49h1M219 49h7M215 50h12M215 51h13M216 52h12M216 53h13M217 54h13M217 55h14M217 56h14M218 57h14M218 58h15M218 59h15M219 60h15M219 61h16M219 62h16M220 63h16M220 64h17M221 65h16M221 66h17M221 67h18M222 68h18M222 69h18M222 70h19M223 71h19M223 72h19M223 73h20M73 74h1M224 74h20M73 75h2M224 75h20M73 76h2M225 76h20M73 77h3M225 77h21M69 78h2M73 78h4M225 78h21M70 79h8M226 79h21M70 80h9M226 80h22M71 81h9M226 81h23M71 82h10M227 82h22M72 83h10M227 83h23M72 84h11M227 84h23M73 85h11M228 85h22M74 86h11M228 86h22M74 87h11M229 87h21M75 88h10M229 88h21M75 89h11M229 89h21M76 90h11M230 90h20M77 91h11M230 91h20M77 92h12M230 92h20M78 93h12M231 93h19M78 94h13M231 94h19M79 95h13M231 95h19M79 96h14M232 96h18M80 97h14M232 97h18M81 98h14M232 98h18M81 99h14M233 99h17M82 100h13M233 100h17M82 101h10M234 101h16M83 102h9M234 102h16M83 103h11M235 103h15M84 104h10M235 104h15M85 105h3M237 105h13M85 106h3M237 106h13M86 107h2M236 107h14M86 108h2M236 108h14M87 109h5M236 109h14M87 110h5M237 110h13M88 111h4M241 111h9M89 112h3M241 112h9M241 113h9M241 114h9M241 115h9M241 116h9M241 117h9" />
<path stroke="#789bef" d="M225 47h1M227 48h1M229 49h1M232 51h1M236 55h1" />
<path stroke="#aeb1e5" d="M129 48h1M8 84h1" />
<path stroke="#d1cbe7" d="M137 48h1" />
<path stroke="#f5e5eb" d="M140 48h1M96 71h1M78 74h1" />
<path stroke="#eee1ec" d="M144 48h1M133 50h2M241 64h1M100 71h1M85 76h1M24 89h1" />
<path stroke="#e2d8ea" d="M145 48h1M242 64h1M241 65h1M249 69h1" />
<path stroke="#cfc9e7" d="M146 48h1" />
<path stroke="#dad1e9" d="M134 49h1" />
<path stroke="#e9dcea" d="M135 49h1" />
<path stroke="#f2e4ec" d="M136 49h3M82 74h1" />
<path stroke="#ebe0ec" d="M139 49h1" />
<path stroke="#c1bee5" d="M143 49h2M97 72h2" />
<path stroke="#93a7ea" d="M226 49h1M118 50h1" />
<path stroke="#809fee" d="M227 49h1" />
<path stroke="#6894f3" d="M230 49h1M234 52h1M237 55h1M239 57h1" />
<path stroke="#f1e4ec" d="M135 50h2M93 73h1" />
<path stroke="#f8e8ec" d="M138 50h1" />
<path stroke="#fdeaec" d="M141 50h2" />
<path stroke="#fbe8ee" d="M143 50h1" />
<path stroke="#f4e3ec" d="M144 50h1" />
<path stroke="#95a6e8" d="M227 50h1" />
<path stroke="#789aef" d="M228 50h1M236 56h1" />
<path stroke="#5f90f5" d="M229 50h1M234 53h1" />
<path stroke="#7e9def" d="M116 51h1M110 55h1M108 56h1M106 57h1M101 60h1M100 61h1M99 62h1M0 83h1" />
<path stroke="#cec8e7" d="M130 51h1" />
<path stroke="#e2d7ea" d="M131 51h1M133 51h1M90 74h1" />
<path stroke="#e8dceb" d="M132 51h1M92 73h1M75 76h1" />
<path stroke="#f4e5ed" d="M134 51h1M131 52h1" />
<path stroke="#8ba3ec" d="M230 51h2M238 57h1" />
<path stroke="#84a0ed" d="M115 52h1" />
<path stroke="#a8afe5" d="M228 52h1M230 53h1" />
<path stroke="#a8aee6" d="M229 52h1" />
<path stroke="#93a7e9" d="M231 52h1M238 58h1" />
<path stroke="#7198f1" d="M232 52h1" />
<path stroke="#7f9ded" d="M113 53h1M234 54h1" />
<path stroke="#9caae8" d="M114 53h1" />
<path stroke="#adafe4" d="M115 53h1M4 83h1" />
<path stroke="#aeb1e4" d="M229 53h1M231 54h1M233 56h1M234 57h1M36 77h1M19 81h1" />
<path stroke="#a2ace6" d="M231 53h1" />
<path stroke="#8fa4ea" d="M232 53h1" />
<path stroke="#849fec" d="M233 53h1" />
<path stroke="#7799ef" d="M111 54h1M242 61h1" />
<path stroke="#a2ace7" d="M113 54h1" />
<path stroke="#a9b1e6" d="M114 54h1M235 57h1" />
<path stroke="#a5aee6" d="M233 54h1M111 55h1M102 61h1M96 63h1M32 77h1" />
<path stroke="#7097f1" d="M235 54h1M237 56h1" />
<path stroke="#a5ade5" d="M112 55h1M238 59h1M91 67h1M76 68h1M30 79h1" />
<path stroke="#afb0e5" d="M113 55h1" />
<path stroke="#aab1e6" d="M233 55h1M72 67h1M26 78h1" />
<path stroke="#9fabe7" d="M234 55h1" />
<path stroke="#9cabe8" d="M235 55h1" />
<path stroke="#98a8e9" d="M109 56h1M107 57h1M106 58h1M104 59h1M101 61h1M93 65h1M36 76h2M20 80h1M15 82h1" />
<path stroke="#a3ace8" d="M110 56h1" />
<path stroke="#a8aee7" d="M111 56h1" />
<path stroke="#aab2e7" d="M112 56h1" />
<path stroke="#aeb3e4" d="M232 56h1M109 58h1M237 60h1M102 62h1" />
<path stroke="#9aa8e8" d="M235 56h1" />
<path stroke="#9dabe9" d="M108 57h1" />
<path stroke="#a9aee6" d="M109 57h1" />
<path stroke="#8ea4ea" d="M237 57h1M239 59h1" />
<path stroke="#a6ade5" d="M107 58h1M105 59h1M103 60h1" />
<path stroke="#adb2e4" d="M236 58h1" />
<path stroke="#85a0ed" d="M239 58h1" />
<path stroke="#abb2e5" d="M237 59h1" />
<path stroke="#94a6ea" d="M240 59h1" />
<path stroke="#acb2e5" d="M240 60h1" />
<path stroke="#aab2e6" d="M241 60h1" />
<path stroke="#aeb4e5" d="M104 61h1" />
<path stroke="#99a7e9" d="M240 61h1" />
<path stroke="#7799ee" d="M241 61h1" />
<path stroke="#a2ade7" d="M100 62h1M75 67h1M29 78h1" />
<path stroke="#afb2e5" d="M243 62h1" />
<path stroke="#adb1e4" d="M245 62h1M247 62h1M90 66h1" />
<path stroke="#a0ace7" d="M249 62h1" />
<path stroke="#b0b1e5" d="M98 63h1M31 79h1" />
<path stroke="#889fec" d="M96 64h1" />
<path stroke="#9ba8e7" d="M97 64h1" />
<path stroke="#eee1eb" d="M238 64h1" />
<path stroke="#d0cae8" d="M243 64h1" />
<path stroke="#b9bae4" d="M244 64h1M247 65h1" />
<path stroke="#adaee5" d="M95 65h1" />
<path stroke="#c2c0e5" d="M240 65h1" />
<path stroke="#e9ddeb" d="M242 65h2M248 68h1M83 74h1" />
<path stroke="#e6dbea" d="M244 65h1M246 67h1M22 89h1M6 90h1" />
<path stroke="#dfd6ea" d="M245 65h1M249 68h1" />
<path stroke="#cfcae7" d="M246 65h1M7 89h1" />
<path stroke="#b1b2e4" d="M249 65h1M95 69h1" />
<path stroke="#a8afe6" d="M88 66h1" />
<path stroke="#acb1e4" d="M91 66h1M35 77h1" />
<path stroke="#afb2e3" d="M92 66h1M88 68h1M0 84h1" />
<path stroke="#faeaec" d="M238 66h1" />
<path stroke="#f9e7ed" d="M240 66h1" />
<path stroke="#f4e4ec" d="M241 66h1" />
<path stroke="#e5d9ea" d="M242 66h1M4 89h1" />
<path stroke="#e6daea" d="M243 66h1" />
<path stroke="#dad3e9" d="M244 66h1" />
<path stroke="#d5cee8" d="M245 66h1M247 66h1M95 72h1M26 87h1" />
<path stroke="#c0bfe6" d="M248 66h1" />
<path stroke="#99aaea" d="M76 67h1" />
<path stroke="#89a2ec" d="M77 67h1" />
<path stroke="#7799f0" d="M78 67h1" />
<path stroke="#8ea2eb" d="M89 67h1" />
<path stroke="#7d9bee" d="M90 67h1" />
<path stroke="#f4e5ec" d="M244 67h1M248 69h1" />
<path stroke="#ebdfeb" d="M245 67h1" />
<path stroke="#c9c5e7" d="M249 67h1M18 90h1" />
<path stroke="#9eace8" d="M68 68h1" />
<path stroke="#93a6eb" d="M69 68h1" />
<path stroke="#779af0" d="M70 68h1M24 79h1" />
<path stroke="#90a4eb" d="M75 68h1M29 79h1" />
<path stroke="#ebdeea" d="M247 68h1" />
<path stroke="#b0b1e2" d="M73 69h1M27 80h1" />
<path stroke="#feeaef" d="M244 69h1M0 112h1" />
<path stroke="#fae8ed" d="M245 69h1" />
<path stroke="#f9e7ec" d="M247 69h1" />
<path stroke="#f9e8ed" d="M249 70h1M83 76h1M5 90h1" />
<path stroke="#d1cae8" d="M93 71h1" />
<path stroke="#e3d7e9" d="M94 71h1M76 74h1M19 90h1" />
<path stroke="#d0cae7" d="M96 72h1M5 87h1M6 89h1" />
<path stroke="#d9d0e9" d="M91 73h1" />
<path stroke="#fae8eb" d="M94 73h1" />
<path stroke="#fdebec" d="M98 73h1M84 77h1" />
<path stroke="#d1cae7" d="M75 74h1" />
<path stroke="#fae9ec" d="M80 74h1M9 91h1M15 91h2M18 91h2" />
<path stroke="#c2bee5" d="M85 74h1" />
<path stroke="#e9dceb" d="M91 74h1" />
<path stroke="#f1e1eb" d="M89 75h1" />
<path stroke="#e8ddeb" d="M90 75h1M27 88h1" />
<path stroke="#fae9ed" d="M91 75h1" />
<path stroke="#789af0" d="M34 76h1" />
<path stroke="#a1ace8" d="M38 76h1" />
<path stroke="#f7e8ed" d="M76 76h1" />
<path stroke="#e2d7e9" d="M86 76h1M17 92h1" />
<path stroke="#cec7e7" d="M87 76h1" />
<path stroke="#ddd4e9" d="M88 76h1M15 92h2" />
<path stroke="#e7dbeb" d="M89 76h1" />
<path stroke="#fae8ee" d="M90 76h1" />
<path stroke="#99a9ea" d="M31 77h1" />
<path stroke="#f6e6eb" d="M85 77h1" />
<path stroke="#f3e4ec" d="M86 77h1" />
<path stroke="#f0e4ed" d="M87 77h1" />
<path stroke="#e0d6ea" d="M88 77h1" />
<path stroke="#f4e3ee" d="M89 77h1" />
<path stroke="#9eace9" d="M30 78h1" />
<path stroke="#98a7e9" d="M31 78h1" />
<path stroke="#829dee" d="M32 78h1" />
<path stroke="#93a6ea" d="M33 78h1" />
<path stroke="#a1abe7" d="M34 78h1" />
<path stroke="#757575" d="M68 79h1" />
<path stroke="#9face7" d="M18 81h1" />
<path stroke="#a7b0e7" d="M5 82h1" />
<path stroke="#a5ade6" d="M1 83h1" />
<path stroke="#aab0e5" d="M5 83h1" />
<path stroke="#a2abe5" d="M6 83h1" />
<path stroke="#92a5ea" d="M7 83h1" />
<path stroke="#acb1e6" d="M13 83h1" />
<path stroke="#abb1e5" d="M16 83h1" />
<path stroke="#99a7e8" d="M10 84h1" />
<path stroke="#90a3ea" d="M11 84h1" />
<path stroke="#98a6e8" d="M12 84h1" />
<path stroke="#9da8e7" d="M13 84h1" />
<path stroke="#a2aae7" d="M14 84h1" />
<path stroke="#afb1e5" d="M15 84h1" />
<path stroke="#babae4" d="M29 84h1M6 87h1M8 89h1" />
<path stroke="#bab8e4" d="M28 85h1" />
<path stroke="#c9c3e6" d="M29 85h1" />
<path stroke="#dbd2e8" d="M1 87h4" />
<path stroke="#ebdfec" d="M27 87h1" />
<path stroke="#d6cee8" d="M6 88h1" />
<path stroke="#c2bfe5" d="M7 88h1" />
<path stroke="#c2bee6" d="M23 88h1" />
<path stroke="#c9c4e7" d="M24 88h1" />
<path stroke="#dfd5e9" d="M26 88h1" />
<path stroke="#f2e2eb" d="M3 89h1M24 90h1" />
<path stroke="#ded4e8" d="M5 89h1" />
<path stroke="#c9c6e7" d="M21 89h1" />
<path stroke="#ecdfeb" d="M23 89h1" />
<path stroke="#e9ddea" d="M25 89h1M20 90h3" />
<path stroke="#fde9ee" d="M1 90h1" />
<path stroke="#fde9ed" d="M2 90h2" />
<path stroke="#e3d8ea" d="M7 90h1" />
<path stroke="#d6cfe8" d="M8 90h1" />
<path stroke="#f7e8ec" d="M12 91h1" />
<path stroke="#f8e8ed" d="M14 91h1" />
<path stroke="#f8e7ec" d="M20 91h1" />
<path stroke="#1b5e20" d="M61 91h2M61 92h2M59 93h4M101 93h2M59 94h4M101 94h2M182 94h2M226 94h2M57 95h2M64 95h3M99 95h4M182 95h2M226 95h2M16 96h2M57 96h2M64 96h4M99 96h4M180 96h4M224 96h4M16 97h2M65 97h3M97 97h2M104 97h3M180 97h4M224 97h4M14 98h4M66 98h2M97 98h2M104 98h4M178 98h2M185 98h3M222 98h2M229 98h3M14 99h4M52 99h2M105 99h3M178 99h2M185 99h4M222 99h2M229 99h4M12 100h2M19 100h3M52 100h2M65 100h1M106 100h2M186 100h3M230 100h3M12 101h2M19 101h4M54 101h4M65 101h1M92 101h2M187 101h2M231 101h2M20 102h3M54 102h4M65 102h7M92 102h2M105 102h1M173 102h2M217 102h2M21 103h2M65 103h7M94 103h4M105 103h1M173 103h2M186 103h1M217 103h2M230 103h1M7 104h2M94 104h4M105 104h7M175 104h4M186 104h1M219 104h4M230 104h1M7 105h2M20 105h1M48 105h4M69 105h2M105 105h7M175 105h4M186 105h7M219 105h4M230 105h7M9 106h4M20 106h1M48 106h4M69 106h2M186 106h7M230 106h7M9 107h4M20 107h7M54 107h2M69 107h2M88 107h4M109 107h2M20 108h7M54 108h2M69 108h7M88 108h4M109 108h2M169 108h4M190 108h2M213 108h4M234 108h2M52 109h10M69 109h7M94 109h2M109 109h2M169 109h4M190 109h2M213 109h4M234 109h2M3 110h4M24 110h2M52 110h10M94 110h2M109 110h7M175 110h2M190 110h2M219 110h2M234 110h2M3 111h4M24 111h2M46 111h2M92 111h10M109 111h7M175 111h2M190 111h7M219 111h2M234 111h7M9 112h2M24 112h2M46 112h2M70 112h6M92 112h10M173 112h10M190 112h7M217 112h10M234 112h7M9 113h2M24 113h7M48 113h6M70 113h6M86 113h2M173 113h10M217 113h10M7 114h10M24 114h7M48 114h6M70 114h2M86 114h2M110 114h6M167 114h2M211 114h2M7 115h10M46 115h2M52 115h7M70 115h2M88 115h6M110 115h6M167 115h2M191 115h6M211 115h2M235 115h6M1 116h2M46 116h2M52 116h7M60 116h6M88 116h6M110 116h2M169 116h6M191 116h6M213 116h6M235 116h6M1 117h2M25 117h6M44 117h4M49 117h17M75 117h2M92 117h7M110 117h2M169 117h6M191 117h2M213 117h6M235 117h2M3 118h6M25 118h6M44 118h4M49 118h17M75 118h2M92 118h7M173 118h7M191 118h2M223 118h1M235 118h2M3 119h6M25 119h2M42 119h2M49 119h3M73 119h2M89 119h15M115 119h2M173 119h7M217 119h7M7 120h7M25 120h2M42 120h2M49 120h4M73 120h2M89 120h15M115 120h2M170 120h15M196 120h2M214 120h15M240 120h2M7 121h7M50 121h23M85 121h2M113 121h2M170 121h15M196 121h2M214 121h15M240 121h2M4 122h15M30 122h2M51 122h22M85 122h2M113 122h2M166 122h2M194 122h2M210 122h2M238 122h2M4 123h15M30 123h2M37 123h2M54 123h13M87 123h26M166 123h2M194 123h2M210 123h2M221 123h2M238 123h2M0 124h2M28 124h2M37 124h2M50 124h1M55 124h12M87 124h26M168 124h26M212 124h23M0 125h2M28 125h2M39 125h4M50 125h1M93 125h14M168 125h26M212 125h23M2 126h26M39 126h4M50 126h7M93 126h14M174 126h14M218 126h14M2 127h26M50 127h7M174 127h14M217 127h2M224 127h8M8 128h14M217 128h2M224 128h4M8 129h14M33 129h4M54 129h2M225 129h3M33 130h4M54 130h2M226 130h2M39 131h2M54 131h2M212 131h2M39 132h2M54 132h7M212 132h2M225 132h1M37 133h10M54 133h7M214 133h4M225 133h1M37 134h10M214 134h4M225 134h7M31 135h2M225 135h7M31 136h2M55 136h6M33 137h6M55 137h6M208 137h4M229 137h2M33 138h6M55 138h2M208 138h4M229 138h2M37 139h7M55 139h2M214 139h2M229 139h2M37 140h7M214 140h2M229 140h7M34 141h15M60 141h2M212 141h10M229 141h7M34 142h15M60 142h2M212 142h10M30 143h2M58 143h2M206 143h2M30 144h2M58 144h2M206 144h2M230 144h6M32 145h26M208 145h6M230 145h6M32 146h26M208 146h6M230 146h2M23 147h2M38 147h14M212 147h7M230 147h2M23 148h2M38 148h14M200 148h2M212 148h7M21 149h4M200 149h2M209 149h15M235 149h2M21 150h4M198 150h4M209 150h15M235 150h2M19 151h2M26 151h3M198 151h4M205 151h2M233 151h2M19 152h2M26 152h4M196 152h2M203 152h4M233 152h2M27 153h3M196 153h2M203 153h25M28 154h2M204 154h29M14 155h2M205 155h2M213 155h14M14 156h2M27 156h1M191 156h2M213 156h14M16 157h4M27 157h1M191 157h2M204 157h1M16 158h4M27 158h7M193 158h4M204 158h1M232 158h2M27 159h7M193 159h4M204 159h7M232 159h2M204 160h7M230 160h4M10 161h4M31 161h2M230 161h4M10 162h4M31 162h2M187 162h4M208 162h2M228 162h2M235 162h3M16 163h2M31 163h2M187 163h4M208 163h2M228 163h2M235 163h4M16 164h2M31 164h7M193 164h2M208 164h2M236 164h3M14 165h10M31 165h7M193 165h2M208 165h7M237 165h2M14 166h10M191 166h10M208 166h7M223 166h2M8 167h2M191 167h10M223 167h2M236 167h1M8 168h2M32 168h6M185 168h2M225 168h4M236 168h1M10 169h6M32 169h6M185 169h2M209 169h6M225 169h4M236 169h7M10 170h6M32 170h2M187 170h6M209 170h6M236 170h7M14 171h7M32 171h2M187 171h6M209 171h2M14 172h7M191 172h7M209 172h2M219 172h4M240 172h2M11 173h15M37 173h2M191 173h7M219 173h4M240 173h2M11 174h15M37 174h2M188 174h15M214 174h2M225 174h2M240 174h2M7 175h2M35 175h2M188 175h15M214 175h2M225 175h2M240 175h7M7 176h2M35 176h2M184 176h2M212 176h2M223 176h10M240 176h7M9 177h26M184 177h2M212 177h2M223 177h10M9 178h25M186 178h26M217 178h2M15 179h14M186 179h26M217 179h2M241 179h6M15 180h14M192 180h14M219 180h6M241 180h6M192 181h14M219 181h6M241 181h2M223 182h7M241 182h2M223 183h7M220 184h15M246 184h2M220 185h15M246 185h2M216 186h2M244 186h2M216 187h2M244 187h2M218 188h26M218 189h26M224 190h14M224 191h14" />
<path stroke="#f3e3ec" d="M7 92h1" />
<path stroke="#e2d6e9" d="M8 92h1" />
<path stroke="#eddeea" d="M9 92h1" />
<path stroke="#c8c3e6" d="M13 92h2" />
<path stroke="#2e7d32" d="M59 95h5M59 96h5M55 97h10M99 97h5M55 98h11M99 98h5M180 98h5M224 98h5M58 99h11M95 99h10M180 99h5M224 99h5M14 100h5M58 100h7M68 100h2M95 100h11M176 100h10M220 100h10M14 101h5M60 101h5M68 101h2M98 101h11M176 101h11M220 101h11M10 102h10M60 102h5M98 102h7M108 102h2M179 102h11M223 102h11M10 103h11M48 103h17M100 103h5M108 103h2M179 103h7M189 103h2M223 103h7M233 103h2M13 104h11M48 104h21M100 104h5M181 104h5M189 104h2M225 104h5M233 104h2M13 105h7M23 105h2M52 105h17M88 105h17M181 105h5M225 105h5M15 106h5M23 106h2M52 106h17M88 106h21M169 106h17M213 106h17M15 107h5M52 107h2M66 107h3M92 107h17M169 107h21M213 107h21M3 108h17M52 108h2M66 108h3M92 108h17M173 108h17M217 108h17M3 109h21M64 109h5M92 109h2M106 109h3M173 109h17M217 109h17M7 110h17M64 110h12M92 110h2M106 110h3M173 110h2M187 110h3M217 110h2M231 110h3M7 111h17M54 111h22M104 111h5M173 111h2M187 111h3M217 111h2M231 111h3M7 112h2M21 112h3M54 112h16M104 112h12M185 112h5M229 112h5M7 113h2M21 113h3M54 113h10M94 113h22M185 113h12M229 113h12M19 114h5M54 114h10M94 114h16M175 114h22M219 114h22M19 115h12M66 115h4M72 115h3M94 115h10M175 115h16M219 115h16M9 116h22M66 116h9M94 116h10M175 116h10M219 116h10M9 117h16M66 117h7M106 117h4M112 117h3M175 117h10M219 117h10M9 118h10M66 118h7M106 118h9M187 118h4M193 118h3M231 118h4M237 118h3M9 119h10M44 119h5M52 119h14M104 119h9M187 119h9M231 119h9M21 120h4M27 120h3M44 120h5M53 120h13M104 120h9M185 120h9M229 120h9M21 121h9M40 121h10M91 121h14M185 121h9M229 121h9M19 122h9M40 122h11M91 122h14M172 122h14M216 122h14M19 123h9M43 123h11M172 123h14M216 123h5M223 123h7M6 124h14M43 124h7M53 124h2M6 125h14M45 125h5M53 125h2M45 126h5M33 127h17M219 127h5M33 128h21M219 128h5M37 129h17M215 129h10M37 130h17M215 130h11M37 131h2M51 131h3M218 131h11M37 132h2M51 132h3M218 132h7M228 132h2M49 133h5M220 133h5M228 133h2M49 134h12M220 134h5M39 135h22M208 135h17M39 136h16M208 136h21M39 137h10M212 137h17M39 138h10M212 138h17M51 139h4M57 139h3M212 139h2M226 139h3M51 140h9M212 140h2M226 140h3M49 141h9M224 141h5M49 142h9M224 142h12M36 143h14M214 143h22M36 144h14M214 144h16M214 145h10M214 146h10M226 147h4M232 147h3M226 148h9M224 149h9M224 150h9M21 151h5M211 151h14M21 152h5M198 152h5M211 152h14M17 153h10M198 153h5M17 154h11M194 154h10M20 155h11M194 155h11M20 156h7M30 156h2M197 156h11M22 157h5M30 157h2M197 157h7M207 157h2M22 158h5M199 158h5M207 158h2M10 159h17M199 159h5M10 160h21M187 160h17M14 161h17M187 161h21M14 162h17M191 162h17M230 162h5M14 163h2M28 163h3M191 163h17M230 163h5M14 164h2M28 164h3M191 164h2M205 164h3M226 164h10M26 165h5M191 165h2M205 165h3M226 165h11M26 166h12M203 166h5M229 166h11M16 167h22M203 167h12M229 167h7M239 167h2M16 168h16M193 168h22M231 168h5M239 168h2M16 169h10M193 169h16M231 169h5M16 170h10M193 170h10M219 170h17M28 171h4M34 171h3M193 171h10M219 171h21M28 172h9M205 172h4M211 172h3M223 172h17M26 173h9M205 173h9M223 173h17M26 174h9M203 174h9M223 174h2M237 174h3M13 175h14M203 175h9M223 175h2M237 175h3M13 176h14M190 176h14M235 176h5M190 177h14M235 177h12M225 178h22M225 179h16M225 180h10M225 181h10M237 182h4M243 182h3M237 183h9M235 184h9M235 185h9M222 186h14M222 187h14" />
<path stroke="#43a047" d="M54 99h4M54 100h4M66 100h2M58 101h2M66 101h2M94 101h4M58 102h2M94 102h4M106 102h2M175 102h4M219 102h4M98 103h2M106 103h2M175 103h4M187 103h2M219 103h4M231 103h2M9 104h4M98 104h2M179 104h2M187 104h2M223 104h2M231 104h2M9 105h4M21 105h2M179 105h2M223 105h2M13 106h2M21 106h2M13 107h2M56 107h10M56 108h10M62 109h2M96 109h10M62 110h2M96 110h10M177 110h10M221 110h10M48 111h6M102 111h2M177 111h10M221 111h10M11 112h10M48 112h6M102 112h2M183 112h2M227 112h2M11 113h10M64 113h6M88 113h6M183 113h2M227 113h2M17 114h2M64 114h6M88 114h6M169 114h6M213 114h6M17 115h2M59 115h7M75 115h2M104 115h6M169 115h6M213 115h6M3 116h6M59 116h1M75 116h2M104 116h6M185 116h6M229 116h6M3 117h6M73 117h2M99 117h7M115 117h2M185 117h6M229 117h6M19 118h6M73 118h2M99 118h7M115 118h2M180 118h7M196 118h2M224 118h7M240 118h2M19 119h6M66 119h7M113 119h2M180 119h7M196 119h2M224 119h7M240 119h2M14 120h7M30 120h2M66 120h7M113 120h2M194 120h2M238 120h2M14 121h7M30 121h2M87 121h4M105 121h8M194 121h2M238 121h2M28 122h2M87 122h4M105 122h8M168 122h4M186 122h8M212 122h4M230 122h8M28 123h2M39 123h4M168 123h4M186 123h8M212 123h4M230 123h8M2 124h4M20 124h8M39 124h4M51 124h2M2 125h4M20 125h8M43 125h2M51 125h2M43 126h2M41 131h10M214 131h4M41 132h10M214 132h4M226 132h2M47 133h2M218 133h2M226 133h2M47 134h2M218 134h2M33 135h6M33 136h6M49 137h6M49 138h6M44 139h7M60 139h2M216 139h10M44 140h7M60 140h2M216 140h10M58 141h2M222 141h2M58 142h2M222 142h2M32 143h4M50 143h8M208 143h6M32 144h4M50 144h8M208 144h6M224 145h6M224 146h6M219 147h7M235 147h2M219 148h7M235 148h2M233 149h2M233 150h2M207 151h4M225 151h8M207 152h4M225 152h8M16 155h4M16 156h4M28 156h2M193 156h4M20 157h2M28 157h2M193 157h4M205 157h2M20 158h2M197 158h2M205 158h2M197 159h2M18 163h10M18 164h10M195 164h10M24 165h2M195 165h10M24 166h2M201 166h2M225 166h4M10 167h6M201 167h2M225 167h4M237 167h2M10 168h6M187 168h6M229 168h2M237 168h2M26 169h6M187 169h6M229 169h2M26 170h6M203 170h6M21 171h7M37 171h2M203 171h6M21 172h7M37 172h2M198 172h7M214 172h2M35 173h2M198 173h7M214 173h2M35 174h2M212 174h2M227 174h10M9 175h4M27 175h8M212 175h2M227 175h10M9 176h4M27 176h8M186 176h4M204 176h8M233 176h2M186 177h4M204 177h8M233 177h2M219 178h6M219 179h6M235 180h6M235 181h6M230 182h7M246 182h2M230 183h7M246 183h2M244 184h2M244 185h2M218 186h4M236 186h8M218 187h4M236 187h8" />
<path stroke="#6d4c41" d="M197 115h12M197 116h16M151 117h18M193 117h20M237 117h4M139 118h34M198 118h19M242 118h8M0 119h3M40 119h2M75 119h13M117 119h56M198 119h19M242 119h8M39 120h2M39 121h1M38 122h2M36 124h1M36 125h1M36 126h1M36 131h1M36 132h1M36 133h1M36 134h1M22 139h1M36 139h1M21 140h1M36 140h1M21 141h1M20 142h2M20 143h2M19 144h3M19 145h1M19 146h1M18 147h2M37 147h1M17 148h2M37 148h1M16 149h2M37 149h1M15 150h2M37 150h1M15 151h1M37 151h1M14 152h2M37 152h1M12 153h3M37 153h1M11 154h2M36 154h1M10 155h2M36 155h1M9 156h2M35 156h2M8 157h2M35 157h1M7 158h2M34 158h2M6 159h2M34 159h2M5 160h2M33 160h2M5 161h1M33 161h1M4 162h2M33 162h1M4 163h1M2 164h2M1 165h2M0 166h2M0 167h1M0 168h1M13 179h2M12 180h2M11 181h2M10 182h2M8 183h3M6 184h3M3 185h4M2 186h3M1 187h2M0 188h2" />
<path stroke="#558b2f" d="M217 118h6M0 120h7M41 120h1M75 120h14M117 120h53M198 120h16M242 120h8M0 121h7M73 121h12M115 121h55M198 121h16M242 121h8M0 122h4M73 122h12M115 122h51M196 122h14M242 122h8M0 123h4M73 123h14M116 123h50M196 123h14M243 123h7M74 124h13M117 124h51M194 124h18M235 124h6M243 124h7M37 125h2M55 125h2M58 125h1M75 125h18M117 125h51M194 125h18M235 125h6M242 125h8M0 126h2M37 126h2M74 126h19M117 126h57M194 126h24M235 126h15M0 127h2M73 127h26M116 127h58M194 127h23M235 127h15M0 128h8M72 128h27M116 128h64M193 128h24M235 128h15M0 129h8M72 129h27M115 129h65M192 129h23M235 129h15M0 130h14M71 130h28M114 130h64M191 130h24M235 130h15M0 131h13M70 131h29M113 131h64M190 131h22M235 131h15M0 132h12M69 132h30M111 132h65M190 132h22M235 132h15M0 133h11M67 133h31M109 133h67M189 133h25M234 133h16M0 134h10M62 134h37M107 134h69M188 134h26M233 134h17M0 135h9M61 135h39M101 135h1M104 135h73M186 135h22M232 135h18M0 136h9M61 136h117M185 136h23M230 136h20M0 137h10M61 137h120M184 137h24M231 137h19M0 138h11M57 138h151M231 138h19M0 139h12M62 139h150M231 139h19M0 140h13M62 140h150M236 140h14M0 141h21M62 141h150M236 141h14M0 142h20M62 142h150M236 142h14M0 143h20M60 143h146M236 143h14M0 144h19M60 144h146M236 144h14M0 145h19M58 145h150M236 145h14M0 146h19M60 146h148M232 146h18M0 147h18M61 147h151M237 147h13M0 148h17M62 148h138M202 148h10M237 148h13M0 149h16M38 149h5M62 149h138M202 149h7M237 149h13M0 150h15M38 150h2M61 150h137M202 150h7M237 150h13M0 151h15M38 151h1M61 151h137M202 151h3M235 151h15M0 152h14M61 152h135M235 152h15M0 153h12M60 153h136M228 153h22M0 154h11M37 154h1M59 154h135M234 154h16M0 155h10M37 155h1M58 155h136M207 155h6M234 155h16M0 156h9M37 156h3M57 156h134M208 156h5M233 156h17M0 157h8M36 157h4M56 157h135M209 157h8M232 157h18M0 158h7M36 158h6M55 158h138M209 158h7M231 158h1M234 158h16M0 159h6M36 159h9M52 159h141M211 159h4M230 159h2M234 159h16M0 160h5M35 160h152M211 160h3M234 160h16M0 161h5M34 161h153M208 161h6M229 161h1M234 161h16M0 162h4M34 162h153M210 162h4M238 162h12M0 163h4M33 163h154M210 163h5M227 163h1M239 163h11M0 164h2M38 164h153M210 164h6M239 164h11M0 165h1M38 165h153M215 165h2M225 165h1M239 165h11M38 166h153M215 166h8M240 166h10M38 167h153M215 167h8M241 167h9M38 168h147M215 168h10M241 168h9M38 169h147M215 169h10M243 169h7M34 170h153M215 170h4M243 170h7M39 171h148M211 171h8M240 171h10M39 172h152M216 172h3M242 172h8M39 173h152M216 173h3M242 173h8M39 174h149M216 174h7M242 174h8M37 175h151M216 175h7M247 175h3M39 176h145M214 176h9M247 176h3M35 177h1M40 177h144M214 177h9M247 177h3M41 178h145M212 178h5M247 178h3M29 179h1M40 179h146M212 179h5M247 179h3M14 180h1M39 180h153M211 180h8M247 180h3M13 181h8M27 181h1M38 181h154M211 181h8M243 181h7M12 182h9M36 182h162M211 182h12M248 182h2M11 183h10M36 183h160M211 183h12M248 183h2M9 184h12M36 184h159M210 184h10M248 184h2M7 185h14M35 185h159M210 185h10M248 185h2M5 186h13M19 186h2M35 186h158M209 186h7M246 186h4M3 187h14M34 187h159M208 187h8M246 187h4M2 188h14M33 188h159M208 188h10M244 188h6M0 189h16M31 189h163M207 189h11M244 189h6M0 190h17M29 190h165M206 190h18M241 190h9M0 191h18M27 191h167M202 191h22M242 191h8M0 192h20M25 192h205M236 192h1M242 192h8M0 193h229M242 193h8M0 194h228M241 194h9M0 195h227M242 195h8M0 196h227M243 196h7M0 197h227M243 197h7M0 198h227M242 198h8M0 199h228M241 199h9" />
<path stroke="#0091ea" d="M27 119h3M31 119h9M32 120h7M32 121h7M33 122h5M33 123h4M30 124h2M34 124h2M31 125h1M34 125h2M31 126h1M34 126h2M34 131h2M34 132h2M34 133h2M34 134h2M26 135h2M25 136h3M24 137h4M23 138h5M23 139h4M32 139h4M22 140h5M32 140h4M22 141h4M31 141h3M22 142h4M31 142h3M22 143h3M22 144h3M20 145h4M29 145h3M20 146h4M29 146h3M20 147h3M29 147h8M19 148h4M29 148h8M18 149h3M29 149h8M17 150h4M29 150h8M16 151h3M29 151h8M16 152h3M30 152h7M15 153h2M30 153h7M13 154h4M30 154h6M12 155h2M31 155h5M11 156h3M32 156h3M10 157h6M32 157h3M9 158h7M8 159h2M7 160h3M31 160h2M6 161h4M6 162h4M5 163h8M4 164h7M3 165h6M2 166h5M1 167h6M1 168h5M0 169h5M0 170h5M0 171h4M13 171h1M0 172h4M13 172h1M0 173h3M0 174h2M0 175h1M8 177h1M7 178h2M5 179h8M4 180h8M2 181h9M1 182h9M0 183h8M0 184h6M0 185h3M0 186h2M0 187h1" />
<path stroke="#1979b0" d="M30 119h1" />
<path stroke="#8f7241" d="M88 119h1" />
<path stroke="#1565c0" d="M32 122h1M32 123h1M32 124h2M33 125h1M33 126h1M33 131h1M33 132h1M33 133h1M33 134h1M32 137h1M31 138h2M31 139h1M30 140h2M30 141h1M29 142h2M29 143h1M28 144h2M28 145h1M28 146h1M28 147h1M28 148h1M28 149h1M28 150h1M12 171h1M11 172h2M10 173h1M10 174h1M6 177h2M4 178h3M4 179h1M2 180h2M0 181h2M0 182h1" />
<path stroke="#507c3e" d="M240 122h1M69 123h1M113 123h2M241 123h1M115 124h1M241 124h1M115 125h1M192 126h1M192 127h1M230 129h1M68 131h1M178 131h1M65 132h1M106 133h1M230 133h1M56 147h1M40 151h1M57 153h1M56 154h1M53 157h1M219 157h1M48 158h1M218 164h1M209 180h1M209 181h1M209 182h1M209 183h1M34 184h1M205 189h1M26 190h1M201 190h1M239 190h1M20 191h5M240 191h1M229 199h1M238 199h2" />
<path stroke="#538436" d="M241 122h1M70 123h2M115 123h1M242 123h1M116 124h1M242 124h1M57 125h1M116 125h1M58 126h1M116 126h1M193 126h1M234 126h1M193 127h1M115 128h1M71 129h1M58 130h1M178 130h2M230 130h1M112 131h1M177 131h1M68 132h1M176 132h1M189 132h1M64 133h3M98 133h1M108 133h1M176 133h1M188 133h1M61 134h1M105 134h2M176 134h1M187 134h1M232 134h1M100 135h1M102 135h2M177 135h1M178 136h1M229 136h1M183 137h1M13 140h5M59 146h1M60 147h1M61 148h1M43 149h1M61 149h1M40 150h2M39 151h1M60 151h1M38 152h1M60 152h1M38 153h1M38 154h1M233 154h1M38 155h1M233 155h1M40 157h1M42 158h2M53 158h1M45 159h1M47 159h5M214 160h1M229 160h1M214 161h1M228 161h1M214 162h1M217 165h8M37 176h1M30 179h2M210 180h1M37 181h1M210 181h1M27 182h1M210 182h1M27 183h1M35 183h1M210 183h1M27 184h1M35 184h1M209 185h1M18 186h1M34 186h1M17 187h1M20 187h1M33 187h1M16 188h1M32 188h1M192 188h1M207 188h1M16 189h1M30 189h1M206 189h1M17 190h1M203 190h3M238 190h1M240 190h1M18 191h1M26 191h1M194 191h1M200 191h2M241 191h1M20 192h5M229 193h1M241 193h1M228 194h1M227 195h1M227 196h1M227 197h1M242 197h1M227 198h1M228 199h1" />
<path stroke="#51803a" d="M67 123h1M72 124h1M73 125h1M241 125h1M115 127h1M233 127h1M54 128h1M71 128h1M192 128h1M114 129h1M231 129h1M20 130h1M70 130h1M113 130h1M69 131h1M67 132h1M110 132h1M63 133h1M233 133h1M20 134h1M9 135h1M9 136h1M179 136h1M181 137h2M18 140h2M52 147h1M42 150h1M59 153h1M232 156h1M41 157h1M54 157h1M217 157h2M44 158h1M227 162h1M215 163h1M226 163h1M216 164h1M225 164h1M36 177h1M38 177h1M39 178h1M32 179h1M29 180h1M28 181h1M36 181h1M35 182h1M195 184h1M209 184h1M34 185h1M194 185h1M193 186h1M208 186h1M19 187h1M31 188h1M27 190h1M19 191h1M25 191h1M195 191h5M241 192h1M241 196h1M241 198h1M240 199h1" />
<path stroke="#507d3d" d="M68 123h1M57 126h1M115 126h1M70 129h1M21 130h1M66 132h1M61 133h1M58 147h1M60 149h1M59 152h1M232 155h1M42 157h1M46 158h1M217 164h1M18 187h1M229 194h1" />
<path stroke="#548833" d="M72 123h1M73 124h1M74 125h1M58 146h1M54 158h1M46 159h1M38 176h1M39 177h1M40 178h1M196 183h1M28 190h1M241 195h1M242 196h1" />
<path stroke="#4f7b41" d="M240 123h1M113 124h2M69 125h2M107 125h1M113 125h1M67 126h1M69 126h2M107 126h1M188 126h4M232 126h1M65 127h3M69 127h1M111 127h1M189 127h3M55 128h2M67 128h1M69 128h1M109 128h4M188 128h3M56 129h1M65 129h1M109 129h5M187 129h3M56 130h1M65 130h2M105 130h2M108 130h1M110 130h2M186 130h3M232 130h1M56 131h1M105 131h2M108 131h2M186 131h3M232 131h2M22 132h1M106 132h2M178 132h2M186 132h2M12 133h2M178 133h2M186 133h1M11 134h3M178 134h1M10 135h3M21 135h1M179 135h1M10 136h4M11 137h3M20 137h1M12 138h1M14 138h5M20 138h2M54 148h1M56 148h3M54 149h1M56 149h1M58 149h1M53 150h4M43 151h1M51 151h4M57 151h1M40 152h2M51 152h5M40 153h2M50 153h1M53 153h1M40 154h1M50 155h1M52 155h1M227 155h5M51 156h2M227 156h2M230 156h1M47 157h6M225 157h3M229 157h1M218 158h1M225 158h2M228 158h1M217 159h2M225 159h1M227 159h1M217 160h2M225 160h2M216 161h3M225 161h2M217 162h2M225 162h1M218 163h1M32 180h2M208 180h1M29 181h3M33 181h2M207 181h2M29 182h1M31 182h3M207 182h2M29 183h3M33 183h1M207 183h2M29 184h5M206 184h2M29 185h2M32 185h1M195 185h1M197 185h1M205 185h3M29 186h3M194 186h2M197 186h1M204 186h3M28 187h3M194 187h1M196 187h2M204 187h3M195 188h3M204 188h2M18 189h3M23 189h2M194 189h4M19 190h6M195 190h5M239 192h1M238 193h2M236 194h4M236 195h3M229 196h1M236 196h2M239 196h1M229 197h1M236 197h4M229 198h1M236 198h4" />
<path stroke="#4f7b40" d="M67 124h4M65 125h2M71 125h1M108 125h1M110 125h1M114 125h1M71 126h1M108 126h1M112 126h1M114 126h1M71 127h1M106 127h1M109 127h2M114 127h1M232 127h1M57 128h1M70 128h1M105 128h1M113 128h1M231 128h1M234 128h1M66 129h2M105 129h2M186 129h1M57 130h1M69 130h1M233 130h2M21 131h2M66 131h2M12 132h2M20 132h1M108 132h1M188 132h1M230 132h1M232 132h1M11 133h1M177 134h1M186 134h1M20 136h1M181 136h1M183 136h1M21 137h1M11 138h1M15 139h1M18 139h2M57 149h1M43 150h1M57 150h1M55 151h1M57 152h2M42 153h1M54 153h2M42 154h1M53 154h1M40 155h3M53 156h2M45 157h1M217 158h1M227 160h1M215 161h1M31 180h1M36 180h1M206 180h2M28 182h1M34 182h1M204 182h1M206 183h1M32 186h1M19 188h1M22 189h1M25 189h3M204 189h1M239 191h1M237 192h1M240 193h1M229 195h1M236 199h1" />
<path stroke="#4f7c3f" d="M71 124h1M22 130h1M58 131h1M177 132h1M177 133h1M14 139h1M53 147h1M59 151h1M39 152h1M39 153h1M39 154h1M57 154h1M39 155h1M56 155h1M230 157h1M50 158h1M229 158h1M215 160h1M35 181h1M30 188h1M193 188h1M17 189h1M228 196h1M228 197h1M228 198h1" />
<path stroke="#0277bd" d="M30 125h1M32 125h1M28 126h3M32 126h1M28 127h5M29 128h3M29 129h1M29 130h2M29 131h1M29 132h1M27 133h1M29 133h1M26 134h2" />
<path stroke="#4e342e" d="M59 125h6M59 126h6M59 127h4M99 127h6M59 128h4M99 128h6M180 128h6M228 128h2M59 129h2M99 129h4M180 129h6M228 129h2M14 130h6M59 130h2M99 130h4M180 130h4M14 131h6M59 131h2M99 131h2M180 131h4M14 132h4M99 132h2M180 132h2M14 133h4M99 133h2M180 133h2M14 134h2M99 134h2M180 134h2M14 135h2M180 135h2M14 136h2M14 137h2M44 149h6M44 150h6M44 151h4M44 152h4M44 153h2M44 154h2M44 155h2M44 156h2M220 157h5M219 158h6M219 159h4M219 160h4M219 161h2M219 162h2M219 163h2M219 164h2M21 181h6M21 182h6M198 182h6M21 183h4M198 183h6M21 184h4M198 184h4M21 185h2M198 185h4M21 186h2M198 186h2M21 187h2M198 187h2M198 188h2M198 189h2M230 192h6M230 193h6M230 194h4M230 195h4M230 196h2M230 197h2M230 198h2M230 199h2" />
<path stroke="#507b40" d="M67 125h1M109 125h1M65 126h1M113 127h1M66 128h1M108 128h1M191 128h1M57 129h1M190 129h1M67 130h1M189 130h1M57 131h1M110 131h1M21 132h1M233 132h1M182 136h1M41 154h1M43 156h1M44 157h1M225 163h1M36 178h2M37 179h1M206 181h1M208 184h1M33 185h1M207 186h1M31 187h1M21 189h1M25 190h1M240 198h1" />
<path stroke="#4f7c41" d="M68 125h1M70 127h1M21 136h1" />
<path stroke="#507d3f" d="M72 125h1M55 156h1M38 178h1" />
<path stroke="#4f7b3f" d="M111 125h2M109 126h3M57 127h1M58 128h1M114 128h1M233 129h1M68 130h1M179 131h1M105 133h1M231 133h2M178 135h1M16 139h1M59 149h1M41 151h1M58 151h1M58 153h1M50 154h1M40 156h1M231 156h1M43 157h1M49 158h1M51 158h1M228 160h1M227 161h1M226 162h1M30 180h1M35 180h1M37 180h1M34 183h1M204 183h1M208 185h1M33 186h1M27 187h1M32 187h1M18 188h1M20 188h1M206 188h1M18 190h1M194 190h1M237 199h1" />
<path stroke="#4e7a41" d="M66 126h1M107 129h2M22 133h1M52 154h1M28 184h1M200 190h1M238 196h1" />
<path stroke="#4f7a41" d="M68 126h1M113 126h1M68 128h1M230 128h1M68 129h2M107 130h1M13 135h1M13 138h1M52 148h1M55 148h1M50 149h2M53 149h1M55 149h1M50 150h2M50 151h1M56 151h1M42 152h2M50 152h1M52 153h1M51 154h1M43 155h1M51 155h1M50 156h1M216 159h1M216 160h1M216 162h1M217 163h1M32 183h1M197 184h1M196 185h1M194 188h1" />
<path stroke="#507c3f" d="M72 126h1M22 128h1M107 128h1M186 128h2M111 131h1M10 134h1M21 134h1M10 137h1M20 139h1M59 150h1M43 154h1M54 154h1M228 159h1M38 179h1M206 182h1M28 183h1M197 183h1M204 185h1M27 188h1M29 188h1M236 193h1M240 196h1" />
<path stroke="#528139" d="M73 126h1M72 127h1M234 127h1M20 140h1M60 150h1M55 157h1M52 158h1M39 179h1M38 180h1M204 184h1M29 189h1" />
<path stroke="#507d3e" d="M233 126h1M20 133h1M180 136h1M54 147h2M57 147h1M59 147h1M60 148h1M55 155h1M47 158h1M37 177h1M196 184h1M27 186h1M17 188h1M228 195h1M241 197h1" />
<path stroke="#4f7c3e" d="M58 127h1M13 139h1M34 179h1M205 182h1" />
<path stroke="#5d4037" d="M63 127h2M63 128h2M61 129h4M103 129h2M61 130h4M103 130h2M184 130h2M228 130h2M61 131h4M101 131h4M184 131h2M229 131h1M18 132h2M61 132h4M101 132h4M182 132h4M18 133h2M101 133h4M182 133h4M16 134h4M101 134h4M182 134h4M16 135h4M182 135h4M16 136h4M16 137h4M48 151h2M48 152h2M46 153h4M46 154h4M46 155h4M46 156h4M223 159h2M223 160h2M221 161h4M221 162h4M221 163h4M221 164h4M25 183h2M25 184h2M202 184h2M23 185h4M202 185h2M23 186h3M200 186h4M23 187h1M200 187h4M200 188h4M200 189h4M234 194h2M234 195h2M232 196h4M232 197h4M232 198h4M232 199h4" />
<path stroke="#507b41" d="M68 127h1M112 127h1M65 128h1M109 130h1M65 131h1M107 131h1M105 132h1M179 134h1M19 138h1M53 148h1M52 149h1M52 150h1M51 153h1M229 156h1M46 157h1M228 157h1M227 158h1M226 159h1M32 181h1M30 182h1M31 185h1M196 186h1M195 187h1M238 192h1" />
<path stroke="#4f7a40" d="M105 127h1M107 127h1M188 127h1M106 128h1M112 130h1M187 133h1M17 139h1M59 148h1M58 150h1M56 152h1M43 153h1M53 155h1M28 186h1M238 191h1M239 195h1" />
<path stroke="#4e7b41" d="M108 127h1M42 151h1" />
<path stroke="#60514c" d="M23 128h1" />
<path stroke="#176da0" d="M24 128h1M26 128h1M25 130h2M25 131h1M25 132h1" />
<path stroke="#176ea0" d="M25 128h1M25 129h1M24 131h1M26 131h1M25 133h1M24 134h1" />
<path stroke="#266db1" d="M27 128h1" />
<path stroke="#0b73b1" d="M28 128h1M27 132h1" />
<path stroke="#039be5" d="M32 128h1M30 129h3M31 130h2M30 131h3M30 132h3M30 133h3M29 134h4M29 135h2M29 136h2M29 137h3M29 138h2M29 139h2M28 140h2M28 141h2M27 142h2M27 143h2M26 144h2M26 145h2M25 146h3M25 147h3M25 148h3M25 149h3M25 150h3M12 165h2M10 166h4M7 169h3M6 170h4M6 171h6M5 172h6M5 173h5M4 174h6M3 175h4M2 176h5M0 177h6M0 178h4M0 179h4M0 180h2" />
<path stroke="#507e3c" d="M232 128h1M22 129h1M28 189h1M240 195h1" />
<path stroke="#517f3c" d="M233 128h1M232 129h1M56 156h1M33 179h1M240 194h1" />
<path stroke="#60504b" d="M23 129h1" />
<path stroke="#166da1" d="M24 129h1" />
<path stroke="#167fbf" d="M26 129h1M23 136h1" />
<path stroke="#156ea2" d="M27 129h1M27 130h1" />
<path stroke="#1f72c3" d="M28 129h1M28 130h1" />
<path stroke="#507e3d" d="M58 129h1M191 129h1M190 130h1M231 130h1M13 131h1M189 131h1M230 131h1M109 132h1M234 132h1M21 133h1M62 133h1M107 133h1M20 135h1M184 136h1M12 139h1M58 154h1M57 155h1M231 157h1M216 158h1M230 158h1M215 159h1M229 159h1M35 178h1M205 183h1M205 184h1M27 185h1M193 187h1M207 187h1M202 190h1" />
<path stroke="#507a40" d="M234 129h1M231 131h1M231 132h1M41 156h2M216 163h1M35 179h2" />
<path stroke="#5f504c" d="M23 130h1" />
<path stroke="#166ca0" d="M24 130h1" />
<path stroke="#4f7c40" d="M20 131h1M28 185h1M237 193h1" />
<path stroke="#60504d" d="M23 131h1M22 137h1" />
<path stroke="#0e84cd" d="M27 131h1" />
<path stroke="#1976d2" d="M28 131h1M28 132h1M28 133h1M28 134h1M28 135h1M28 136h1M28 137h1M28 138h1M27 139h2M27 140h1M26 141h2M26 142h1M25 143h2M25 144h1M24 145h2M24 146h1M13 163h1M11 164h3M9 165h3M7 166h3M7 167h1M6 168h2M5 169h2M5 170h1M4 171h2M4 172h1M3 173h2M2 174h2M1 175h2M0 176h2" />
<path stroke="#507c40" d="M234 131h1M56 153h1M55 154h1M34 180h1M240 192h1M240 197h1" />
<path stroke="#5f514d" d="M23 132h1M23 133h1M23 134h1M22 135h1" />
<path stroke="#167fbe" d="M24 132h1" />
<path stroke="#156da1" d="M26 132h1" />
<path stroke="#1680bf" d="M24 133h1" />
<path stroke="#1070aa" d="M26 133h1M25 135h1" />
<path stroke="#60514d" d="M22 134h1M22 136h1" />
<path stroke="#146ea4" d="M25 134h1" />
<path stroke="#167fbd" d="M23 135h1" />
<path stroke="#166da0" d="M24 135h1" />
<path stroke="#126fa6" d="M24 136h1" />
<path stroke="#1480c1" d="M23 137h1" />
<path stroke="#604f4c" d="M22 138h1" />
<path stroke="#614f4b" d="M21 139h1" />
<path stroke="#507b3f" d="M54 155h1M28 188h1" />
<path stroke="#507f3c" d="M45 158h1" />
<path stroke="#507e3e" d="M215 162h1" />
<path stroke="#205d29" d="M34 178h1" />
<path stroke="#5a433d" d="M26 186h1M24 187h2" />
<path stroke="#574440" d="M26 187h1M23 188h1" />
<path stroke="#4b3b39" d="M21 188h1" />
<path stroke="#4d3935" d="M22 188h1" />
<path stroke="#564744" d="M24 188h1" />
<path stroke="#544745" d="M25 188h1" />
<path stroke="#554846" d="M26 188h1" />
</svg>