<svg xmlns="http://www.w3.org/2000/svg" viewBox="0 -0.5 250 200" shape-rendering="crispEdges"><path stroke="#ffeced" d="M0 0h1m230 0h1M15 1h1m120 1h1m33 0h1m2 0h1M8 3h1m125 0h3m29 0h3M6 4h1m29 0h1m1 0h1m4 0h1m15 0h1m97 0h1m1 0h2m9 0h1m55 0h1m7 0h1m1 0h1m2 0h1M0 5h1m12 0h1m17 0h1m1 0h1m5 0h1m2 0h3m1 0h2m7 0h1m2 0h2m78 0h1m18 0h4m64 0h1m5 0h2m7 0h1M12 6h1m12 0h3m2 0h1m3 0h1m17 0h1m1 0h1m1 0h3m78 0h1m1 0h1m3 0h3m1 0h1m1 0h1m1 0h3m5 0h1m82 0h1m1 0h1M10 7h1m11 0h2m2 0h1m3 0h1m213 0h1M7 8h2m12 0h1m3 0h1m1 0h1M18 9h1m8 0h1m-15 1h1m2 0h3m-7 1h1m3 0h1M1 110h1"/><path stroke="#ffecee" d="M1 0h1m1 0h4m6 0h1m4 0h1m2 0h1m1 0h1m13 0h1m5 0h1m5 0h5m66 0h13m5 0h1m17 0h2m3 0h4m12 0h2m51 0h1m10 0h7M0 1h2m3 0h1m4 0h1m8 0h3m2 0h1m3 0h1m2 0h2m1 0h3m18 0h2m64 0h9m2 0h3m6 0h5m10 0h5m2 0h1m2 0h1m3 0h1m1 0h6m38 0h2m11 0h1m1 0h10m3 0h4M8 2h1m7 0h3m3 0h1m7 0h3m5 0h1m17 0h2m61 0h7m4 0h5m4 0h1m4 0h2m1 0h1m1 0h1m2 0h2m1 0h2m2 0h1m1 0h1m5 0h1m1 0h1m1 0h1m2 0h1m43 0h2m7 0h1m13 0h7m1 0h1M0 3h2m1 0h3m7 0h4m1 0h1m4 0h4m7 0h2m5 0h5m1 0h6m65 0h3m4 0h1m1 0h7m4 0h3m19 0h1m11 0h3m1 0h3m37 0h1m2 0h4m3 0h1m17 0h4m1 0h1M0 4h3m1 0h1m6 0h3m5 0h4m12 0h1m3 0h2m3 0h1m4 0h1m2 0h1m2 0h4m61 0h4m6 0h10m1 0h3m1 0h12m1 0h1m8 0h1m7 0h2m2 0h1m37 0h3m1 0h2m9 0h1m2 0h1m9 0h2m2 0h1M4 5h1m11 0h4m2 0h1m1 0h1m7 0h1m3 0h1m3 0h1m4 0h1m3 0h1m2 0h3m2 0h1m2 0h1m65 0h2m1 0h6m6 0h2m11 0h2m12 0h4m1 0h3m2 0h3m35 0h9m16 0h1M0 6h6m8 0h4m2 0h2m10 0h1m6 0h13m1 0h1m71 0h1m6 0h5m20 0h2m1 0h1m5 0h1m6 0h2m2 0h2m39 0h3m7 0h3m1 0h1m3 0h6m3 0h3M1 7h5m6 0h2m3 0h2m2 0h1m12 0h1m7 0h14m1 0h6m70 0h3m1 0h1m1 0h1m3 0h2m1 0h1m4 0h2m2 0h10m2 0h3m1 0h3m1 0h1m45 0h2m1 0h4m17 0h1m1 0h1M0 8h6m5 0h1m7 0h1m6 0h1m5 0h2m1 0h2m15 0h2m1 0h3m77 0h5m2 0h2m2 0h2m4 0h5m11 0h1m59 0h16m3 0h1M0 9h5m4 0h4m4 0h1m10 0h2m5 0h1m3 0h13m7 0h5m77 0h2m2 0h2m9 0h9m1 0h1m2 0h1m1 0h2m70 0h3M1 10h2m3 0h3m2 0h2m1 0h1m23 0h1m101 0h2m26 0h2m1 0h1m70 0h3M3 11h2m15 0h1m1 0h4m14 0h3m1 0h4m1 0h1m116 0h1m1 0h2M7 12h9m9 0h1m1 0h1m19 0h1m-28 1h1m12 15h2m0 1h1m147 14h3m3 0h2m-7 1h2m0 3h4m-53 4h3m-6 1h2m1 0h3m-4 3h4m-6 1h3m2 0h1m-4 2h1m103 10h1m1 3h1m3 0h1m-3 1h1m1 0h2m-4 1h1m1 0h2M94 74h2m148 0h1m1 0h2m1 0h1M95 75h1m148 0h1m1 0h2m1 0h1m-4 1h2m1 0h1M78 77h1m2 0h1m164 0h2m1 0h1M91 78h4m151 0h2m1 0h1M79 79h2m1 0h2m7 0h2m154 0h1m1 0h1M79 80h4m2 0h1m3 0h2m158 0h1M80 81h4m1 0h3m1 0h1m159 0h1M83 82h4m1 0h2m159 0h1M88 83h2m-6 1h2m-2 1h5M1 92h1m19 0h2M1 93h1m1 0h2m1 0h1m13 0h1M1 94h3m1 0h2m1 0h1m1 0h4m3 0h1M1 95h6m1 0h2m9 0h2m-3 1h2M1 97h4m1 0h4m1 0h2m1 0h2m2 0h1M0 98h14M0 99h2m4 0h8m-14 1h1m-1 1h1m1 0h10m-12 1h1m-1 1h2m-2 1h1m4 0h1m-1 1h1m-4 1h2m-3 1h1m0 2h1m-2 2h2m-2 1h6m-6 1h6m-7 1h7m-6 1h6m-7 1h1m0 2h2"/><path stroke="#ffebed" d="M2 0h1m7 0h1m20 0h1m2 0h1m-9 1h1m113 0h1M13 2h1m5 1h1m117 0h1m26 0h1m63 0h1M3 4h1m37 0h1m3 0h1m117 0h1m2 0h1M14 5h1m20 0h1m103 0h1m8 0h1m1 0h1m2 0h1m2 0h1m72 0h1m3 0h1M29 6h1m1 0h1m-7 1h1m-6 1h1m225 0h1M16 9h1m229 0h1M13 11h1m122 43h1"/><path stroke="#ffecef" d="M7 0h1m11 0h2m3 0h1m1 0h2m11 0h1m2 0h1m1 0h1m1 0h1m7 0h1m1 0h1m91 0h1m1 0h1m1 0h2m1 0h1M4 1h1m4 0h1m8 0h1m11 0h1m8 0h1m17 0h3m86 0h1m1 0h8M1 2h1m4 0h2m6 0h2m3 0h2m4 0h2m1 0h1m5 0h2m4 0h10m2 0h1m8 0h1m101 0h1m2 0h1m1 0h1M17 3h1m10 0h1m7 0h4m15 0h6m85 0h1m3 0h1m2 0h3m1 0h1m71 0h9M23 4h2m4 0h1m2 0h3m13 0h1m4 0h1M1 5h1m8 0h2m8 0h1m4 0h4m-7 1h3m-5 1h1m-4 1h2m-5 1h1m121 42h1m-4 1h1m106 17h1m1 1h1M93 74h1m-18 3h1m14 0h1M16 93h1"/><path stroke="#feebef" d="M8 0h1m150 0h2m78 0h2M117 1h1m98 1h1m-55 1h1m18 0h1m-1 1h1M6 5h1m242 0h1M120 6h5m106 0h1m2 0h2m-13 2h1M22 9h1m14 0h1m95 0h1m36 0h1m2 0h1m50 0h1m4 0h1m1 0h1M55 10h1m1 0h1m79 0h3m14 0h1m79 0h1m1 0h1m1 0h4M27 11h1m22 0h1m11 0h1m96 0h3m1 0h1m6 0h1M26 12h1m12 0h1M6 13h2m1 0h1m8 0h2m-8 1h1m1 0h1m173 30h1m-54 13h1m103 10h1m9 4h1M3 102h1m1 0h1"/><path stroke="#feecee" d="M9 0h1m1 0h1m128 0h2m87 0h1m2 0h1M120 1h1m94 0h1M9 2h1m117 0h2m109 0h3M121 3h4M10 4h1m108 0h1m9 0h1m41 0h1m6 0h1m36 0h1m4 0h1M9 5h1m125 0h1m90 0h1M61 6h2m68 0h1m29 0h2m1 0h2m50 0h1m5 0h2m1 0h1M32 7h1m2 0h2m99 0h1m16 0h1m69 0h1m4 0h4m1 0h2m6 0h3M54 8h1m3 0h6m69 0h2m14 0h1m1 0h1m5 0h7m2 0h1m7 0h1m51 0h2M6 9h1m1 0h1m15 0h1m5 0h1m5 0h1m18 0h2m95 0h1m2 0h1m86 0h1M0 10h1m2 0h1m19 0h2m2 0h2m3 0h1m1 0h1m4 0h1m22 0h1m81 0h1M5 11h3m7 0h1m3 0h1m119 0h1m1 0h1M6 12h1m36 0h2m4 0h1m117 0h1M16 13h1m7 0h2m19 0h1m-28 1h1m2 0h1m164 28h2m1 2h1m-5 2h5m-49 7h1m-2 1h1m-3 2h1m-2 2h1M92 77h1m155 0h1M79 78h1m1 0h1m8 0h1m-7 1h1m163 0h1M87 84h2m-3 2h2M0 90h1m22 1h1M4 92h1m15 0h1m-8 1h3M5 97h1m4 0h1m-11 9h1"/><path stroke="#fdedf0" d="M12 0h1"/><path stroke="#ffebec" d="M14 0h1m26 5h1m119 0h1m77 0h1m-85 1h1M27 7h1m-6 1h1"/><path stroke="#ffeded" d="M15 0h2m-3 1h1M6 3h1m162 0h1m54 0h2M7 4h1m153 0h1m7 0h1m54 0h1m5 0h2m1 0h1m3 0h1M29 5h1m4 0h1m13 0h1m88 0h1m28 0h1m63 0h1m11 0h2M36 6h1m18 0h1m4 0h1m80 0h2m24 0h2M9 7h1m9 2h1m-10 1h1"/><path stroke="#ffedee" d="M17 0h1m4 0h1m6 0h1m25 0h1m83 0h1m3 0h1m10 0h1M29 1h1m141 0h1m58 0h1m10 0h2M23 2h2m35 0h1m74 0h1m88 0h1M2 3h1m7 0h3m8 0h1m8 0h1m9 0h1m5 0h1m180 0h1m15 0h1M8 4h1m5 0h1m22 0h1m8 0h1m3 0h2m2 0h1m5 0h2m62 0h4m16 0h1m17 0h1m1 0h2m2 0h1m69 0h1m1 0h1m1 0h2M12 5h1m17 0h1m19 0h2m4 0h1m71 0h1m7 0h1m3 0h1m2 0h2m1 0h1m4 0h1m12 0h1m7 0h1m4 0h1m68 0h1M28 6h1m30 0h1m66 0h2m10 0h1m30 0h2m4 0h2M24 7h1m12 0h1m2 0h2m103 0h1m1 0h3m15 0h2m7 0h1M9 8h2m12 0h2m12 0h1m5 0h9m88 0h2m3 0h1m2 0h1m20 0h4m71 0h2M13 9h1m38 0h1m90 0h2m20 0h1m1 0h2M9 10h1m35 0h6m91 0h2m18 0h1m4 0h1M21 11h1m21 0h1m123 0h1M16 12h3m4 1h1m112 39h1m-4 1h1m4 1h1m-6 1h2m106 14h1m5 2h1m0 1h1m-1 1h1m-1 1h1M93 75h2m-13 2h1M24 91h1M5 93h1m1 0h1m2 2h4"/><path stroke="#ffedef" d="M25 0h1m12 0h1m1 0h2m3 0h1m1 0h2m8 0h1m86 0h4m1 0h1m1 0h1M6 1h3m8 0h1m4 0h2m9 0h1m6 0h11m96 0h1m95 0h1M27 2h1m1 0h1m6 0h2m1 0h1m18 0h2m77 0h2m7 0h1m1 0h1m1 0h2m2 0h1m2 0h2m1 0h1m1 0h1m65 0h2M22 3h1m6 0h1m1 0h3m204 0h2m1 0h1M25 4h4m13 0h1m198 0h1m2 0h1M2 5h2m19 0h1m125 0h1M11 7h1m7 0h1m9 0h1M20 9h1m220 61h1m1 1h2m4 1h1m-1 1h1M77 77h1M0 92h1m16 1h1"/><path stroke="#ffebee" d="M28 0h1m1 0h1m5 0h1m100 0h1M2 1h2m12 0h1m8 0h1m1 0h1m9 0h2m122 0h2m85 0h2M0 2h1m1 0h4m15 0h1m11 0h1m16 0h2m1 0h3m70 0h1m13 0h4m20 0h2m6 0h1m2 0h1M20 3h1m6 0h1m25 0h2m86 0h5m1 0h3m1 0h2m3 0h1m1 0h2m1 0h1m8 0h2m76 0h1M5 4h1m9 0h4m11 0h2m15 0h1m92 0h1m39 0h1m66 0h2M15 5h1m5 0h1m130 0h1m92 0h1m1 0h1M13 6h1m4 0h2m120 0h1m9 0h1m3 0h1m78 0h1m14 0h1M14 7h3m229 0h1M12 8h5m-2 1h1m231 0h1M15 10h1m154 0h1m74 0h1M48 11h1m-28 2h2m181 9h1m-1 1h1m-2 1h3m-4 1h4m-40 1h2m34 0h4m-41 1h3m33 0h6m-43 1h4m33 0h6m-44 1h6m31 0h8m-46 1h7m30 0h9m-46 1h7m30 0h9m-47 1h8m29 0h11m-49 1h9m29 0h11m-50 1h11m27 0h12m-51 1h12m26 0h14m-53 1h13m26 0h14m-54 1h14m25 0h15m-55 1h15m25 0h16m-56 1h8m1 0h7m23 0h17m-57 1h9m1 0h7m22 0h19m-56 1h6m3 0h6m22 0h19m-56 1h4m6 0h1m16 0h1m8 0h20m-57 1h5m26 0h3m2 0h22m-58 1h4m27 0h2m3 0h22m-90 1h1m32 0h1m35 0h21m-91 1h2m69 0h21m-93 1h4m68 0h1m2 0h18m-94 1h5m71 0h18m-94 1h5m71 0h1m1 0h1m2 0h2m1 0h11m-96 1h7m78 0h9m1 0h1m-97 1h8m14 0h1m2 0h1m-27 1h9m14 0h1m-25 1h11m-12 1h12m7 0h2m-22 1h13m-13 1h14m-72 1h2m55 0h15m-73 1h4m55 0h14m-74 1h5m57 0h13m-76 1h7m55 0h5m1 0h1m1 0h1m4 0h1m-77 1h8m55 0h3m10 0h1m-78 1h10m55 0h1m12 0h1m-80 1h11m68 0h1m-81 1h13m-14 1h14m-14 1h15m-16 1h16m-17 1h18m-19 1h19m-20 1h21m178 0h1M43 71h23m-24 1h24m177 0h1M41 73h26m176 0h1m1 0h1M40 74h6m2 0h2m1 0h16m29 0h1m148 0h1M41 75h5m6 0h16m28 0h1m148 0h1M52 76h16m177 0h1M52 77h16m-17 1h6m1 0h11m-19 1h6m2 0h6m2 0h2m1 0h1m8 0h1m-29 1h4m4 0h7m2 0h3m-12 1h7m5 0h1m13 0h1m3 0h1m2 0h1m-10 1h1m4 0h1m-2 1h2M2 91h1m0 1h1m-4 1h1m17 0h2M0 94h1m3 0h1m2 0h1m1 0h1m4 0h3m1 0h1m2 0h1M7 95h1m6 0h1m3 0h1m-4 1h1M0 97h1m0 4h1m-1 1h1m4 0h3m-7 1h2m-3 1h4m1 0h1m-7 1h4m2 0h1m-6 1h1m2 0h5m-5 1h5m-7 3h1m-3 1h1m-1 4h1"/><path stroke="#feebed" d="M32 0h1m103 1h2M62 2h1m113 0h1m-12 1h1m56 5h1M21 10h1m4 0h1m2 0h1m31 0h1m78 1h1m24 1h1M47 13h1m-25 1h1m160 27h1m-48 13h1M80 76h2m4 4h1"/><path stroke="#fdeaed" d="M33 0h1m25 0h1m80 50h1m103 18h2m2 2h1M79 76h1M25 90h1M5 92h1m6 1h1"/><path stroke="#fee" d="M35 0h1M7 3h1m234 0h1m-14 1h1M61 5h1m83 0h1m1 0h1m17 0h1m1 0h1m76 0h1"/><path stroke="#feebee" d="M58 0h1m77 0h1m21 0h1m74 0h4m1 0h1M13 1h1m102 0h1m22 0h1m27 0h1m-50 1h1m106 0h1M61 3h1m101 0h1m15 0h1m56 2h1M63 6h1m157 0h1m2 0h1M31 7h1m144 0h1m38 0h1m16 0h1m2 0h1m1 0h4M64 8h1m153 0h1m1 0h2m3 0h1m22 0h1M7 9h1m15 0h1m7 0h1m32 0h1m85 0h1m23 0h1M25 10h1m33 0h1m3 0h2m70 0h2m9 0h1m86 0h1m1 0h1m1 0h1M8 11h2m4 0h1m13 0h1m128 0h2M24 12h1m12 0h1m2 0h1m1 0h1m5 0h1M3 13h1m13 0h1m26 0h1m-34 1h1m1 0h1m2 0h1m3 0h1m168 28h1m-58 11h1m3 6h1m103 8h3m-2 1h1m5 2h1m0 1h1M96 73h1m151 3h1m-1 2h1M85 79h1m3 0h1m-2 1h1m159 0h1M9 93h1M0 110h1"/><path stroke="#fce9ed" d="M60 0h1m182 67h1"/><path stroke="#f4e6ee" d="M61 0h1m168 11h1M49 13h1m-9 1h1M8 15h1"/><path stroke="#eae1ef" d="M62 0h1m149 0h1m-30 1h1"/><path stroke="#c3ccf3" d="M63 0h1m147 0h1"/><path stroke="#9ab6f6" d="M64 0h1m46 3h1m96 1h1"/><path stroke="#2979ff" d="M65 0h46m75 0h22m2 0h1M68 1h44m74 0h2m1 0h19M70 2h41m78 0h20M70 3h41m77 0h20M70 4h42m74 0h22M70 5h43m72 0h24M72 6h42m70 0h26M71 7h44m68 0h28M74 8h42m1 0h2m62 0h31M74 9h43m4 0h7m52 0h33m1 0h1M71 10h50m7 0h3m46 0h37M71 11h61m44 0h41M70 12h63m15 0h3m24 0h44m2 0h6M32 13h1m23 0h1m12 0h65m2 0h8m2 0h6m1 0h2m19 0h47m8 0h21M31 14h1m20 0h4m3 0h77m8 0h9m4 0h12m1 0h59m17 0h4M30 15h5m2 0h1m13 0h8m6 0h92m13 0h80M0 16h1m2 0h2m19 0h1m1 0h11m3 0h7m1 0h202M0 17h3m4 0h13m6 0h14m7 0h203M0 18h7m13 0h230M0 19h250M0 20h250M0 21h205m2 0h43M0 22h204m4 0h42M0 23h204m4 0h42M0 24h203m6 0h41M0 25h202m8 0h40M0 26h166m2 0h34m8 0h40M0 27h19m10 0h136m4 0h32m10 0h39M0 28h21m9 0h3m2 0h129m6 0h31m11 0h38M0 29h23m13 0h127m8 0h29m13 0h37M0 30h28m10 0h124m9 0h28m14 0h37M0 31h29m10 0h123m10 0h4m14 0h9m15 0h36M0 32h22m12 0h2m4 0h121m54 0h35M0 33h23m10 0h5m3 0h119m55 0h35M0 34h28m4 0h7m2 0h118m57 0h34M0 35h158m59 0h33M0 36h157m60 0h33M0 37h156m62 0h32M0 38h155m64 0h31M0 39h145m74 0h31M0 40h142m78 0h30M0 41h132m89 0h29M0 42h129m93 0h28M0 43h128m94 0h28M0 44h124m1 0h3m96 0h26M0 45h123m3 0h1m98 0h25M0 46h122m104 0h24M0 47h121m107 0h22M0 48h120m110 0h20M0 49h119m113 0h18M0 50h116m117 0h17M0 51h113m122 0h15M0 52h112m124 0h14M0 53h111m126 0h13M0 54h110m128 0h12M0 55h109m130 0h11M0 56h107m133 0h10M0 57h56m2 0h47m136 0h9M0 58h55m4 0h44m138 0h9M0 59h54m6 0h42m140 0h8M0 60h53m8 0h39M0 61h52m10 0h36M0 62h51m12 0h34M0 63h50m14 0h29M0 64h49m15 0h26M0 65h48m17 0h24M0 66h48m18 0h9M0 67h47M0 68h46M0 69h45M0 70h44M0 71h43M0 72h42M0 73h41M0 74h38M0 75h35M0 76h33M0 77h29M0 78h20M0 79h17M0 80h16m-7 1h6m-2 1h1"/><path stroke="#5792fb" d="M111 0h2m95 0h2M65 1h3m44 0h1m95 0h2m-99 1h1m97 0h1M65 3h1m1 0h1m119 0h1m20 0h1M69 6h1m45 1h1m66 0h1M70 8h2m44 0h1m2 0h1m92 0h1M72 9h1m44 0h4m7 0h2m49 0h1m33 0h1m1 0h1m-95 1h5m1 0h1m48 0h1m37 0h2m1 0h1m-86 1h1m16 0h1m67 0h1m31 0h1M53 12h1m79 0h1m13 0h1m3 0h1m22 0h1m44 0h1M54 13h1m12 0h1m66 0h2m8 0h2m6 0h1m2 0h1m17 0h1m48 0h1m3 0h1M29 14h2m2 0h1m1 0h1m21 0h1m78 0h8m9 0h2m1 0h1m12 0h1m60 0h1m3 0h1m3 0h1m1 0h5M29 15h1m30 0h1m1 0h1m94 0h1m1 0h2m1 0h1m1 0h6M1 16h1m35 0h1m9 0h1M4 17h1m15 0h1m2 0h1m1 0h1m15 0h1m3 0h1M8 18h1m3 0h1m5 0h1"/><path stroke="#dbd9f0" d="M113 0h1m96 1h1"/><path stroke="#e3dff1" d="M114 0h1"/><path stroke="#f6e8ef" d="M115 0h1M53 11h1m-9 3h1m41 65h1"/><path stroke="#eae1ee" d="M116 0h1"/><path stroke="#faeaee" d="M117 0h1m97 2h1m-3 3h1m23 6h1m-79 1h1M27 13h1"/><path stroke="#feecef" d="M118 0h2m56 0h1m72 0h1M51 1h4m5 0h1m57 0h2m10 0h1m33 0h2m2 0h2m-41 1h1m87 0h1m2 0h1m2 0h1m-98 1h1m90 0h2m4 0h1m-96 1h1m43 0h1m4 0h1m38 0h1m6 0h1M5 5h1m57 0h1m53 0h1m6 0h2m50 0h1M6 6h1m28 0h1m94 0h1m41 0h1m53 0h2M0 7h1m32 0h1m22 0h1m81 0h1m1 0h1m13 0h1m15 0h1M6 8h1m27 0h1m129 0h1m2 0h1M5 9h1m15 0h1m16 0h1m101 0h1m6 0h3m75 0h1m1 0h1m2 0h1m2 0h1M4 10h2m31 0h1m18 0h1m1 0h1m94 0h1m12 0h1m-5 1h1m1 0h2M22 12h2m17 0h1m4 0h1M4 13h1m3 0h1m2 0h1m175 35h2M93 79h1m-7 1h1m-2 4h1m-2 2h1M0 91h1m12 6h1M2 99h4m-2 3h1m4 0h1m-6 1h6m-10 5h3m-3 1h2"/><path stroke="#fcecee" d="M133 0h1m39 0h2m38 0h1m-98 4h1m1 2h1m2 1h1m56 0h1m-48 1h2m42 1h1M20 10h1m152 0h1m56 0h1M36 11h1m15 0h1m5 0h1m78 0h1m5 0h1m11 0h1m16 0h1m66 0h2m-73 1h2M41 13h1M8 14h1m77 65h1"/><path stroke="#fbe9ed" d="M134 0h1m45 0h1"/><path stroke="#fdecee" d="M135 0h1m43 0h1m48 0h1m-98 1h1m95 0h1m-7 1h1m-7 1h1M8 5h1m2 1h1m201 0h2M6 7h1m117 0h1m92 0h3M29 8h1m4 1h1m118 0h1M22 10h1m30 0h2m191 0h1M18 11h1m11 0h1m210 0h1m1 0h1M0 12h1m1 0h1m2 1h1m40 0h1m35 65h1"/><path stroke="#ffeaed" d="M142 0h1m105 5h1"/><path stroke="#fdecef" d="M165 0h2m48 0h1M63 2h1m162 0h1M9 3h1m54 2h1m64 2h1m118 0h1M132 9h1m-73 1h1m91 0h1m79 0h1M51 11h1m8 0h1m-18 2h1m-34 1h1m8 0h1"/><path stroke="#fdeced" d="M167 0h1M7 6h1m207 0h1m-91 1h1m4 0h2M19 10h1M0 11h1m241 0h1M4 12h1m155 0h1m5 0h1M82 76h1m6 2h1M6 91h3"/><path stroke="#f7e7ed" d="M168 0h1"/><path stroke="#f5e7ed" d="M169 0h1"/><path stroke="#e6dff0" d="M170 0h1"/><path stroke="#f0e5ef" d="M171 0h1"/><path stroke="#f4e6ed" d="M172 0h1m-36 50h1"/><path stroke="#fdedee" d="M175 0h1m38 0h1M61 1h1m116 0h1m49 0h1M117 3h1m0 1h1M7 5h1m209 1h1m-86 1h1m87 0h1M57 9h1m96 0h1M36 10h1M1 11h2m36 0h1m131 0h1M5 12h1"/><path stroke="#e9e0f0" d="M181 0h1M63 3h1"/><path stroke="#7fa7f8" d="M182 0h2"/><path stroke="#7da7f8" d="M184 0h1m-73 2h1m96 1h1"/><path stroke="#8caef7" d="M185 0h1"/><path stroke="#fcebef" d="M216 0h1m1 1h1m-38 1h1m32 0h1m-1 2h1M65 5h1m114 1h1M33 9h1m188 0h1m25 0h1m-102 1h1M32 11h1m1 0h1M1 12h1m46 1h1m133 28h1"/><path stroke="#fcebee" d="M217 0h1m-39 1h1M10 2h1m203 1h1m0 2h1m-97 1h1m6 1h1m89 0h1M32 9h1m0 1h1m1 0h1m98 0h1m93 0h2m1 0h1M35 11h1m1 0h1m21 0h1m82 0h1m95 0h1M3 12h1m159 0h1M40 13h1m1 0h1M6 14h1m2 0h1m12 0h1"/><path stroke="#fceaee" d="M218 0h2m-6 1h1m-35 1h1m-5 6h1m72 0h1M66 9h1m84 0h1m69 0h1M38 12h1m11 0h1M2 13h1m236 53h1M6 92h1"/><path stroke="#f2e4ef" d="M220 0h1"/><path stroke="#c2ccf3" d="M221 0h1m27 10h1"/><path stroke="#cad0f1" d="M222 0h1"/><path stroke="#d0d4f1" d="M223 0h1"/><path stroke="#f0e6f0" d="M224 0h1"/><path stroke="#f3e8ef" d="M225 0h1"/><path stroke="#fbeaee" d="M226 0h1m-8 1h1M9 6h1m107 0h1m126 5h1m-88 1h1m-26 40h1m113 16h1"/><path stroke="#fdebee" d="M227 0h1M11 1h2m165 1h1m34 0h1m-33 3h1M63 7h1m1 1h1m151 0h1M33 11h1m27 0h1m1 0h2m91 0h1M15 14h1m174 30h1"/><path stroke="#feeaee" d="M237 0h1m10 0h1M135 1h1m112 1h1m-69 1h1m68 3h1m-73 1h1m58 0h1m-62 1h1M65 9h1m-1 1h1m79 0h1m26 0h1M10 11h1m15 0h1m218 59h1M86 87h1M0 117h1m-1 1h1"/><path stroke="#f7e7ee" d="M62 1h1m2 6h2"/><path stroke="#c8cff3" d="M63 1h1m94 12h1"/><path stroke="#6a9cf9" d="M64 1h1m122 1h1m-3 2h1m-3 2h1m36 5h1M55 12h1m172 0h1m19 0h1M31 13h1m26 0h1m97 0h1M36 14h1m14 0h1M2 15h1m25 0h1m10 0h1m9 0h1M6 16h1m15 0h1"/><path stroke="#7ba5f8" d="M113 1h1m96 1h1m-25 1h1m-74 2h1m0 1h1m95 0h1m-95 1h1m94 0h1m-92 1h1m58 0h2m32 0h1m-83 2h1m86 0h1m-69 1h1m24 0h1m45 0h1m-88 1h2m37 0h1m55 0h1M34 13h1m17 0h1m6 0h1m6 0h1m105 0h1M0 14h1m49 0h1M3 15h1m36 0h1m7 0h1M7 16h1m13 0h1"/><path stroke="#efe3ee" d="M114 1h1m66 0h1M37 13h1"/><path stroke="#fae9ee" d="M115 1h1m96 1h1M62 3h1m151 4h1m34 0h1M39 13h1"/><path stroke="#fdebed" d="M138 1h1m-16 6h1M30 8h1m107 3h1m23 1h1M97 73h1m-20 3h1M4 90h1m6 3h1"/><path stroke="#f7e7ef" d="M180 1h1M67 10h1m177 1h1"/><path stroke="#eae2f0" d="M182 1h1M65 6h1"/><path stroke="#bac7f3" d="M184 1h1"/><path stroke="#4186fd" d="M185 1h1m2 0h1M69 2h1m118 0h1M66 3h1m1 0h2m-2 3h1m1 0h2m0 2h2m-1 1h1m52 1h1m89 0h1M70 11h1m147 0h2M54 12h1m13 0h2m150 0h1m6 0h1m21 0h1M33 13h1m19 0h1m1 0h1m1 0h1m10 0h1m152 0h1m1 0h3m1 0h2M32 14h1m1 0h1m21 0h1m1 0h1m96 0h1m73 0h1m1 0h3m1 0h3m1 0h1m5 0h1M0 15h2m33 0h2m1 0h1m11 0h1m8 0h1m1 0h1m1 0h2m93 0h1m2 0h1m1 0h1M2 16h1m2 0h1m17 0h1m1 0h1m12 0h2M3 17h1m1 0h2m14 0h2m1 0h1m15 0h1m1 0h3m1 0h1M7 18h1m1 0h3m1 0h5m1 0h1"/><path stroke="#e0ddf1" d="M211 1h1"/><path stroke="#f2e5ef" d="M212 1h1m-82 8h1m-66 2h1m-29 2h1m-13 1h1m19 0h1"/><path stroke="#e4deef" d="M213 1h1"/><path stroke="#f9e8ee" d="M220 1h1M117 2h1m64 2h1M64 7h1m159 3h2m1 0h1m19 0h1m-16 1h1m2 0h2M43 14h1m-34 1h1m73 63h1"/><path stroke="#fbe9ee" d="M221 1h1m-40 4h1M66 8h1m153 1h1M90 77h1"/><path stroke="#f9e8ec" d="M222 1h1M10 6h1m177 34h1m-48 8h2M97 71h2m-20 3h1M17 91h1"/><path stroke="#ebe2f0" d="M223 1h1M58 12h1"/><path stroke="#e8e2f0" d="M224 1h1m-92 9h1m87 0h1"/><path stroke="#f7ebf0" d="M225 1h1"/><path stroke="#fbebee" d="M226 1h1M31 11h1"/><path stroke="#feebec" d="M11 2h1m50 2h1m165 1h1"/><path stroke="#ffecec" d="M12 2h1m214 2h2M37 5h2m123 0h1m-17 1h1m1 0h1m7 0h1m86 0h1M28 7h1"/><path stroke="#f9eaf0" d="M64 2h1"/><path stroke="#f2e5ee" d="M65 2h1M50 13h1m-32 2h1m65 63h1"/><path stroke="#d6d6f0" d="M66 2h1m144 2h1"/><path stroke="#b0c3f4" d="M67 2h1"/><path stroke="#6c9efa" d="M68 2h1"/><path stroke="#7fa8f8" d="M113 2h1m96 1h1"/><path stroke="#9ab7f6" d="M114 2h1m96 1h1"/><path stroke="#f2e5f0" d="M115 2h1m29 9h1"/><path stroke="#f9e8ef" d="M116 2h1m65 1h1M64 6h1"/><path stroke="#f7e9ee" d="M177 2h1m-25 9h1M16 15h1m70 63h1"/><path stroke="#fceaef" d="M179 2h1m2 0h1m-67 3h1m-51 5h1m-31 2h1"/><path stroke="#d0d3f1" d="M183 2h1"/><path stroke="#a7bdf5" d="M184 2h1"/><path stroke="#5a93fb" d="M185 2h1"/><path stroke="#8badf7" d="M186 2h1"/><path stroke="#ede2ef" d="M211 2h1"/><path stroke="#feedef" d="M222 2h1m9 0h5m-64 2h1m-56 1h5m104 0h1M37 6h2m89 0h1M38 7h2m101 0h1m8 0h1M38 8h5m101 0h1m5 0h1M26 9h1m26 0h1m80 0h6m86 0h1m1 0h1m3 0h1m1 0h7M41 10h4m110 0h7m1 0h3M19 12h2m24 0h1m-36 1h1m1 0h3m173 29h1m-52 14h1M78 78h1m11 1h1M3 91h1"/><path stroke="#ffeeef" d="M230 2h2m8 1h1m-16 1h1m-63 1h1"/><path stroke="#feedee" d="M237 2h1m-63 1h1m-2 1h1m-52 1h1m5 1h1m41 0h1M8 7h1m133 0h1M28 8h1m2 0h1m133 0h1m7 0h1m50 0h1M54 9h1m186 0h1M40 10h1m10 0h2m-42 1h1m9 1h1m-7 1h1m167 28h1m0 1h2m-47 12h1m-5 1h1m110 15h1M92 75h1m155 0h1M83 77h1m9 0h2m-18 1h1M22 91h1M2 93h1m5 0h1m1 0h1M0 95h1"/><path stroke="#a5bbf5" d="M64 3h1"/><path stroke="#c2cdf3" d="M112 3h1m96 1h1m-96 1h1m96 1h1"/><path stroke="#99b5f5" d="M113 3h1m96 1h1"/><path stroke="#dbd8ef" d="M114 3h1"/><path stroke="#f2e7ef" d="M115 3h1m97 1h1M55 11h1"/><path stroke="#f9eaee" d="M116 3h1m97 2h1"/><path stroke="#eae0f0" d="M183 3h1"/><path stroke="#dfdbf1" d="M184 3h1M68 10h1"/><path stroke="#d3d5f3" d="M185 3h1"/><path stroke="#f5e8ef" d="M212 3h1"/><path stroke="#f7e8ef" d="M213 3h1m-70 8h1"/><path stroke="#feeced" d="M9 4h1m224 1h2m1 0h2m-76 1h1M7 7h1m17 2h1m-9 2h1M4 91h2"/><path stroke="#faeaed" d="M63 4h1m90 7h1"/><path stroke="#f3e7ee" d="M64 4h1"/><path stroke="#ece1ef" d="M65 4h1m115 2h1"/><path stroke="#c9cff2" d="M66 4h1"/><path stroke="#b0c2f4" d="M67 4h1m44 0h1m96 1h1M70 9h1"/><path stroke="#6b9df9" d="M68 4h1m0 7h1"/><path stroke="#5892fb" d="M69 4h1"/><path stroke="#dad9f2" d="M113 4h1m96 1h1"/><path stroke="#f5e7ef" d="M114 4h1m-52 8h1"/><path stroke="#f7e9ef" d="M115 4h1"/><path stroke="#fbeaed" d="M117 4h1m18 7h1m21 1h1m2 0h1M77 76h1M19 92h1"/><path stroke="#f8e8ee" d="M183 4h1"/><path stroke="#cdd2f3" d="M184 4h1"/><path stroke="#eae2ef" d="M212 4h1"/><path stroke="#fdedef" d="M62 5h1m-5 4h1"/><path stroke="#f1e4ef" d="M66 5h1m144 0h1m0 1h1"/><path stroke="#e3def1" d="M67 5h1"/><path stroke="#a8bcf5" d="M68 5h1"/><path stroke="#6c9dfa" d="M69 5h1m0 2h1"/><path stroke="#e3def0" d="M115 5h1"/><path stroke="#b9c6f2" d="M183 5h1m-4 2h1m38 3h1M1 14h1m16 2h1"/><path stroke="#8aaef7" d="M184 5h1m-3 1h1m33 3h1M32 12h1m23 0h1m96 0h1m93 0h1m-91 1h1M37 14h1m-11 1h1"/><path stroke="#e9e1ef" d="M212 5h1"/><path stroke="#f7e8ee" d="M8 6h1m225 5h1M35 12h1m25 0h1m-18 2h1m-33 1h1"/><path stroke="#ffedf0" d="M33 6h1"/><path stroke="#bcc7f3" d="M66 6h1"/><path stroke="#9bb5f5" d="M67 6h1m180 5h1M67 12h1"/><path stroke="#ced4f2" d="M115 6h1m96 1h1m-62 4h1m-95 1h1"/><path stroke="#e2def0" d="M116 6h1"/><path stroke="#feeaed" d="M179 6h1M17 14h1"/><path stroke="#e3ddf0" d="M67 7h1m-38 5h1m34 0h1"/><path stroke="#d1d3f1" d="M68 7h1m-1 1h1m178 3h1"/><path stroke="#8eaff7" d="M69 7h1"/><path stroke="#98b5f6" d="M117 7h1m3 1h1m8 1h1m17 2h1m-13 1h1m9 0h1m5 0h1m18 1h1"/><path stroke="#d9d8f0" d="M118 7h1m4 1h1m10 3h1m3 1h1M24 15h1"/><path stroke="#f1e6ef" d="M119 7h1m15 4h1"/><path stroke="#f6e9ef" d="M120 7h1"/><path stroke="#fcebed" d="M122 7h1m-85 4h1m125 1h1m25 30h2m-53 8h1M95 73h1M21 91h1"/><path stroke="#fbe9ef" d="M127 7h1M67 9h1m102 3h1"/><path stroke="#fbeaef" d="M128 7h1m117 62h1"/><path stroke="#f8e9ee" d="M179 7h1m46 3h1M65 11h1m167 0h1M60 12h1m1 0h1m-39 2h1m-14 1h1m1 0h1m1 0h1"/><path stroke="#aec2f5" d="M181 7h1m-49 4h1m13 0h1m-3 1h1"/><path stroke="#e6e0f0" d="M213 7h1m-62 4h1M39 14h1m-20 1h1"/><path stroke="#eee4f0" d="M67 8h1"/><path stroke="#99b4f5" d="M69 8h1"/><path stroke="#ced3f2" d="M122 8h1m14 4h1"/><path stroke="#dddaf0" d="M124 8h1m1 0h1m117 4h1"/><path stroke="#e5deef" d="M125 8h1"/><path stroke="#c8cef2" d="M127 8h1"/><path stroke="#c8cff2" d="M128 8h1"/><path stroke="#d4d5f1" d="M129 8h1m24 4h1"/><path stroke="#f3e6ef" d="M130 8h1M29 12h1"/><path stroke="#ede3f0" d="M177 8h1"/><path stroke="#e2ddf1" d="M178 8h1"/><path stroke="#a4bcf5" d="M214 8h1m-37 1h1M51 13h1"/><path stroke="#ede4ef" d="M215 8h1m-61 4h1M86 78h1"/><path stroke="#efe4f0" d="M216 8h1"/><path stroke="#fcecef" d="M219 8h1m3 1h1M7 14h1"/><path stroke="#ece2ef" d="M68 9h1m-29 5h1"/><path stroke="#e2dcf1" d="M69 9h1"/><path stroke="#99b5f6" d="M71 9h1"/><path stroke="#efe4ef" d="M176 9h1"/><path stroke="#c7cff2" d="M177 9h1"/><path stroke="#d4d6f1" d="M217 9h1M33 12h1"/><path stroke="#e6dfef" d="M218 9h1M0 13h1"/><path stroke="#f0e5f0" d="M219 9h1M1 13h1"/><path stroke="#f0e4ef" d="M249 9h1"/><path stroke="#fdeaef" d="M30 10h1m111 42h1m99 16h1"/><path stroke="#fdebef" d="M31 10h1m-4 2h1"/><path stroke="#b2c2f4" d="M69 10h1"/><path stroke="#6b9dfa" d="M70 10h1"/><path stroke="#e8e0ee" d="M132 10h1"/><path stroke="#e8e1f0" d="M148 10h1m24 1h1"/><path stroke="#d8d8f0" d="M149 10h1"/><path stroke="#e5dfef" d="M150 10h1m91 2h1m-77 1h2"/><path stroke="#ece2f0" d="M151 10h1"/><path stroke="#f4e7ef" d="M174 10h1"/><path stroke="#afc1f4" d="M175 10h1"/><path stroke="#e8e1ef" d="M220 10h1M2 14h1m3 1h1"/><path stroke="#f2e6ef" d="M222 10h1"/><path stroke="#f6e8ee" d="M223 10h1M88 78h1"/><path stroke="#e9e0ef" d="M248 10h1"/><path stroke="#fceaed" d="M29 11h1m105 40h1m107 17h1"/><path stroke="#ebe1ee" d="M54 11h1"/><path stroke="#f0e5ee" d="M56 11h1"/><path stroke="#f5e7ee" d="M57 11h1m-33 3h1"/><path stroke="#d6d5f1" d="M67 11h1"/><path stroke="#b1c2f4" d="M68 11h1"/><path stroke="#eee3ef" d="M146 11h1m-96 1h1"/><path stroke="#b8c6f3" d="M174 11h1M25 15h1m21 0h1"/><path stroke="#a5bcf4" d="M222 11h1m7 1h1M30 13h1m10 2h1M8 16h1"/><path stroke="#c1cbf4" d="M223 11h1m7 1h1M42 15h1M9 16h1"/><path stroke="#c1caf1" d="M224 11h1m7 1h1M62 13h1m96 0h1M43 15h1m-34 1h1m6 0h1"/><path stroke="#c8cef1" d="M225 11h1m7 1h2m1 0h2M44 15h1m-34 1h2m3 0h1"/><path stroke="#ced2f0" d="M226 11h1m11 1h1"/><path stroke="#e5dff0" d="M227 11h1"/><path stroke="#ebe2ef" d="M228 11h1m-73 1h1"/><path stroke="#eee3ee" d="M229 11h1M59 12h1M7 15h1"/><path stroke="#f5e8ee" d="M231 11h1M42 14h1M9 15h1m4 0h1"/><path stroke="#ede1ef" d="M246 11h1"/><path stroke="#c1c9f2" d="M31 12h1"/><path stroke="#dedcf1" d="M34 12h1"/><path stroke="#b9c6f3" d="M52 12h1m193 0h1M64 13h1"/><path stroke="#e7dff0" d="M64 12h1"/><path stroke="#a8bdf5" d="M66 12h1"/><path stroke="#e2dcef" d="M139 12h1m2 0h1m98 0h1m-77 1h1m2 0h2"/><path stroke="#e8dfee" d="M140 12h2"/><path stroke="#d9d7f0" d="M143 12h1m95 0h1m-80 1h1m3 0h1"/><path stroke="#ced2f2" d="M144 12h1m90 0h1M63 13h1m106 0h1M13 16h1"/><path stroke="#e3deef" d="M171 12h1"/><path stroke="#d0d4f2" d="M172 12h1"/><path stroke="#d4d4ef" d="M240 12h1"/><path stroke="#e2ddef" d="M243 12h1m-81 1h1"/><path stroke="#d4d4f1" d="M245 12h1"/><path stroke="#fce9ee" d="M26 13h1m56 65h1"/><path stroke="#f1e3ee" d="M28 13h1"/><path stroke="#dbd7f0" d="M29 13h1"/><path stroke="#c8d0f2" d="M35 13h1"/><path stroke="#dad9f0" d="M36 13h1"/><path stroke="#afc1f3" d="M60 13h1M4 15h1"/><path stroke="#c8cff4" d="M61 13h1"/><path stroke="#a4bbf5" d="M65 13h1m-46 3h1"/><path stroke="#dddbf0" d="M161 13h1"/><path stroke="#d4d4f0" d="M162 13h1M23 15h1"/><path stroke="#ebe3f0" d="M3 14h1"/><path stroke="#f3e7ef" d="M4 14h1"/><path stroke="#f6e7ef" d="M5 14h1m82 65h1"/><path stroke="#c3cdf2" d="M27 14h1"/><path stroke="#cad0f2" d="M28 14h1"/><path stroke="#d9d8f1" d="M38 14h1m-17 1h1"/><path stroke="#dfdcf0" d="M47 14h1"/><path stroke="#e6dff2" d="M48 14h1"/><path stroke="#a6bcf5" d="M49 14h1"/><path stroke="#dedbf0" d="M5 15h1"/><path stroke="#f6e7ed" d="M17 15h1m8 74h1m-16 2h1"/><path stroke="#f4e6ef" d="M18 15h1"/><path stroke="#efe5f1" d="M21 15h1"/><path stroke="#c1caf3" d="M26 15h1m-8 1h1"/><path stroke="#c0cbf2" d="M45 15h1m-32 1h2"/><path stroke="#c8cef3" d="M46 15h1"/><path stroke="#a39194" d="M205 21h2m-2 1h3m-3 1h3m-2 1h3m-3 1h4m-4 1h4m-42 1h1m38 0h4m-43 1h2m37 0h5m-43 1h2m37 0h5m-44 1h2m37 0h5m-44 1h3m36 0h6m-45 1h4m36 0h6m-46 1h5m35 0h6m-45 1h5m34 0h7m-46 1h6m34 0h7m-47 1h7m33 0h7m-47 1h7m33 0h8m-48 1h7m34 0h8m-48 1h4m36 0h8m-48 1h5m36 0h8m-49 1h1m1 0h3m36 0h9m-48 1h2m37 0h10m-9 1h9m-98 1h1m88 0h10m-99 1h2m87 0h11m-100 1h3m87 0h10m-99 1h2m87 0h8m-97 1h3m86 0h6m-95 1h4m86 0h1m1 0h2m-93 1h4m-4 1h4m-4 1h5m-4 1h5m-5 1h6m-6 1h6m-5 1h6m-6 1h7m-7 1h8m-77 1h1m69 0h7m-76 1h1m68 0h7m-76 1h2m67 0h6m-74 1h2m67 0h2m-71 1h3m66 0h1m-69 1h2m-2 1h3m-2 1h3m-3 1h4m-3 1h4m-4 1h5m-4 1h5m-4 1h5m-5 1h6m-5 1h6m-6 1h6m-5 1h5m-5 1h5m-5 1h5m-2 1h2"/><path stroke="#000" d="M19 27h2m0 1h1m1 1h3m8 0h1m-13 3h2m12 0h2m-15 1h2m13 0h1m0 1h1"/><path stroke="#fff" d="M21 27h8m-7 1h8m-4 1h8m-6 1h7m-6 1h10m-15 1h10m4 0h2m-15 1h8m6 0h2m-13 1h4m8 0h1"/><path stroke="#ff6f00" d="M35 30h3"/><path stroke="#5f91f4" d="M176 31h1m-45 10h1m-14 8h1M93 63h1m-19 3h1m-38 8h1m-10 3h1m-10 1h1M0 81h1"/><path stroke="#7f9fed" d="M177 31h1m-31 8h1m-15 2h1M94 63h1m-19 3h1m-10 1h1m-29 7h1m-10 3h1m-10 1h1M1 81h1m-1 1h1"/><path stroke="#93a8ea" d="M178 31h1m-31 8h1m-15 2h1M95 63h1m-19 3h1m-10 1h1M22 78h1M2 81h1m-1 1h2"/><path stroke="#9fade8" d="M179 31h1m5 0h1m7 1h1m1 0h1m-47 7h1m-15 2h1M78 66h1m-10 1h1M23 78h1M3 81h2m-1 1h1"/><path stroke="#a6b0e7" d="M180 31h1m-45 10h1M79 66h1m-10 1h1M24 78h1"/><path stroke="#a8b0e6" d="M181 31h3m-31 8h2m-18 2h2m93 14h1m9 5h3m1 0h1M80 66h8m-17 1h1M33 77h1m-9 1h1m-15 5h1"/><path stroke="#a6afe6" d="M184 31h1m5 1h1m-40 7h1m93 21h1M6 82h2"/><path stroke="#93a8eb" d="M186 31h1M8 83h1"/><path stroke="#7f9eef" d="M187 31h1m38 17h1m1 1h1"/><path stroke="#5e90f5" d="M188 31h1m37 16h1m1 1h1m2 2h1m1 1h1m1 2h1m2 3h1M92 64h3"/><path stroke="#387ffc" d="M189 31h1m34 14h1m0 1h1m1 1h1m1 1h1m2 2h1m-119 1h1m119 0h1m1 2h1m0 1h1m1 2h1"/><path stroke="#4685f9" d="M173 32h2m7 0h3m9 1h1m2 0h1m-69 9h3m-4 1h1m-1 1h1m94 0h1m-97 1h1m103 4h1m-119 2h1m-2 1h1m122 0h1m-125 1h1m-2 1h1m-2 1h1m128 0h1m-132 1h1m-3 1h1m134 0h1m-138 1h1m137 1h1m-142 1h1m-3 1h1m145 0h2M90 64h2M35 75h1m-3 1h1m-17 3h2M8 81h1m-9 1h1m11 0h1m1 0h1"/><path stroke="#7198f2" d="M175 32h1m-44 10h1m-17 8h1M36 75h1m-18 4h1"/><path stroke="#89a3eb" d="M176 32h4m-35 8h2m-14 2h4M20 79h4"/><path stroke="#7d9def" d="M180 32h1"/><path stroke="#6692f2" d="M181 32h1m-43 10h1m1 0h1m-29 10h1m129 9h1"/><path stroke="#7098f2" d="M185 32h1m47 20h1m12 9h4M7 81h1m3 1h1"/><path stroke="#8ba3ed" d="M186 32h1m62 28h1M6 81h1m3 1h1"/><path stroke="#9aaae9" d="M187 32h1m9 0h1m50 28h1M5 81h1m3 1h1m-1 1h1"/><path stroke="#a3aee7" d="M188 32h1m2 0h2m54 28h1M8 82h1m1 1h1"/><path stroke="#a5afe7" d="M189 32h1m-40 7h1"/><path stroke="#9cace9" d="M194 32h1m1 0h1"/><path stroke="#aab0e6" d="M174 33h1"/><path stroke="#abb1e6" d="M175 33h2M97 63h1M34 77h1M2 83h1"/><path stroke="#adafe6" d="M177 33h1m-44 10h1M22 80h1m-9 3h1"/><path stroke="#adb0e5" d="M178 33h1m11 1h1m-41 7h1m-6 4h1m-38 13h1m-3 1h1m-4 2h1m-3 1h1m-3 2h1m-8 3h1m-16 1h2m-10 1h1m-35 9h1m-13 2h1"/><path stroke="#adb2e5" d="M179 33h1m-29 8h1m87 19h1"/><path stroke="#aeb2e5" d="M180 33h1m1 0h2m8 3h1m2 0h1m-60 7h1m1 0h1m97 16h1m5 3h1m1 0h1m1 0h1M80 68h8m1 0h1"/><path stroke="#afb3e5" d="M181 33h1m9 3h1m-50 7h1m2 0h1m85 12h1M71 69h1M25 80h1"/><path stroke="#adb1e5" d="M184 33h1m4 1h1m-38 7h1m-18 2h1m-5 2h1M79 68h1m-10 1h1M24 80h1M3 83h1"/><path stroke="#acb1e5" d="M185 33h1m-42 12h1m83 6h1"/><path stroke="#a1aae7" d="M186 33h1"/><path stroke="#8ea2ec" d="M187 33h1"/><path stroke="#6f95f0" d="M188 33h1m-51 9h1m1 0h1m-12 1h1m1 0h1m-4 3h1M98 62h1m-12 5h2m-17 1h1M26 79h1m-10 1h1"/><path stroke="#5e8ff4" d="M189 33h1"/><path stroke="#528af6" d="M190 33h2m1 0h1m1 0h2m-48 7h2m1 0h1m-41 13h1M89 65h1m-5 2h1"/><path stroke="#5d8ef4" d="M192 33h1m-42 7h1m1 0h1m-26 5h1m-2 1h1m-13 5h1m-12 7h1m135 0h1m-139 1h1m-4 2h1m-3 1h1m-8 3h1m-12 2h6m1 0h1M16 80h1m-2 1h2"/><path stroke="#aeb0e4" d="M175 34h1"/><path stroke="#b1b3e4" d="M176 34h1m5 1h2m-37 7h1m-8 5h1M93 66h1m-20 3h1m12 3h1m-60 8h1m-9 1h1m10 2h1m-12 1h1m-10 1h3"/><path stroke="#b1b3e3" d="M177 34h5m2 1h12m-48 7h4m-19 2h6m-32 18h1m-3 1h1m130 0h8m-141 1h1m-10 2h3m3 0h1m-3 1h1m-24 2h13m-18 1h2m22 0h1m-9 3h1m-58 7h3m-11 1h5m-5 3h1m1 0h1m1 0h4M1 85h4m5 0h1m3 0h1m2 0h8M4 86h8m13 0h1M7 87h2m1 0h2m3 1h2m-8 1h1m2 0h2m1 0h1m3 0h1m-10 1h1m4 0h1m1 0h1"/><path stroke="#b0b3e3" d="M182 34h1m-7 1h6m3 1h4m-11 2h2m1 1h1m7 0h5m-55 5h3m-9 1h6m6 1h3m-17 1h2m2 0h4m-8 1h6m-27 10h1m-3 1h1m126 1h1m0 1h1m0 1h1m-137 1h1m142 0h1m1 0h2m-2 1h1m-142 1h1m-3 1h1m-3 1h2m-4 1h2m-13 1h1m9 0h1m-27 1h8m10 0h1m2 0h1m3 0h1m3 0h1m-31 1h1m2 2h12m2 0h1m-2 1h1m-54 5h1m-3 1h1m-7 1h5m-13 1h8M4 84h1m14 0h1m4 0h1M5 85h1m1 0h3m-8 1h1m9 0h3m11 0h1M9 87h1m7 0h1m-8 2h2"/><path stroke="#b0b2e3" d="M183 34h2m-8 2h6m0 1h12m-15 2h1m-41 4h1m-9 1h1m10 0h3m2 0h2m-10 1h3m-12 1h9m-10 4h1m100 6h1m-120 1h1m119 0h1m0 1h1m-127 1h1m1 0h2m122 0h2m-128 1h2m125 0h1m-130 1h4m126 0h1m-133 1h4m128 0h2m-135 1h3m140 0h1m-145 1h2m142 0h1M99 65h2m136 0h3M97 66h3m4 0h1m-9 1h2m-7 1h5m5 0h1m-30 1h1m16 0h3m7 0h2m-12 1h1m8 0h1m-26 1h15m-16 1h2m4 3h2m7 0h1m-56 4h1m2 0h1m-10 1h1m6 0h2m-4 1h3m-8 1h7m-15 1h10M2 84h2m13 0h2M6 85h1m-7 1h2m25 0h1m-10 1h1m6 0h1M8 88h1"/><path stroke="#afb3e4" d="M185 34h1m-2 2h1m4 0h2m-13 1h4m6 1h1m1 0h5m-52 5h1m2 0h5m-19 2h1m15 0h1m-16 2h2m-29 13h1m131 2h3m7 1h2m-2 2h1M94 67h2m-4 2h3m-15 1h8m-14 2h13m2 0h1m-57 7h1m-6 4h2M7 84h1m-8 1h1m2 1h1"/><path stroke="#afb4e5" d="M186 34h1m-44 12h1m91 13h1m5 3h1"/><path stroke="#aeb3e5" d="M187 34h1m5 2h1m-57 7h1m6 0h1m90 15h1m-136 5h1m-8 4h1M36 78h1"/><path stroke="#aeb2e4" d="M188 34h1m5 2h1m-51 6h1m1 3h1m83 9h1m1 0h1m0 3h1m4 3h1m9 4h1"/><path stroke="#adaee4" d="M191 34h1"/><path stroke="#adafe5" d="M192 34h2m-45 7h1m-22 7h1"/><path stroke="#a9afe5" d="M194 34h1m1 0h1m37 22h1m-131 4h1m134 1h1m8 1h1"/><path stroke="#acb0e5" d="M195 34h1M12 83h1"/><path stroke="#b0b3e4" d="M183 36h1m3 2h1m1 0h1m-49 8h2m-4 1h1m107 17h1M73 73h1M30 83h1M1 84h1m3 0h2m15 0h1"/><path stroke="#4c849e" d="M177 37h1m-1 1h1m-3 1h4m-3 1h4m-8 1h1m3 0h5m-10 1h2m2 0h7m-10 1h11m-11 1h12m-12 1h13m-13 1h13m-12 1h13m-13 1h14m-14 1h14m-14 1h15m-14 1h13m-13 1h13m-13 1h12m-11 1h10m-10 1h10m-10 1h9m-9 1h9m-8 1h7m-7 1h6m-6 1h6m-47 1h2m39 0h5m-49 1h6m39 0h4m-50 1h7m39 0h3m-50 1h9m38 0h2m-48 1h9m37 0h2m-48 1h10m36 0h1m-47 1h10m-9 1h10m-10 1h11m-11 1h12m-11 1h11m-11 1h12m-12 1h13m-12 1h13m-13 1h13m-13 1h14m-13 1h14m-14 1h15m-15 1h15m-14 1h15m-15 1h16m-15 1h16m-16 1h16m-16 1h17m-16 1h17m-17 1h18m-18 1h18m-17 1h18m-18 1h19m-19 1h20m-19 1h19m-19 1h20m-20 1h21m-20 1h21m-21 1h20m-20 1h19m-18 1h18m-18 1h17m-17 1h17m-16 1h15m-15 1h14m-14 1h14m-13 1h12m-12 1h12m-12 1h11m-10 1h10m-10 1h9m-9 1h8m-7 1h7m-7 1h6m-6 1h6m-5 1h4m-4 1h3m-3 1h2m-1 1h1"/><path stroke="#b0b2e4" d="M182 37h1m-37 5h1m-5 2h1m4 0h1m-9 1h1m0 1h1m-11 1h1m-18 9h1m-3 1h1m-12 7h1m-3 1h1m4 2h1m-14 1h1m11 0h1m-15 2h1m-17 1h1m15 1h1M16 84h1"/><path stroke="#d0cbe7" d="M180 38h1m1 1h1M0 87h1m-1 1h2"/><path stroke="#e3d8e9" d="M181 38h4m-2 1h2m-47 9h1m98 16h1M2 88h2m-4 1h1"/><path stroke="#dad2e9" d="M185 38h1m1 1h1m-8 1h1m-41 9h1m-9 1h1m113 16h1m0 1h2M92 72h3m-11 2h1m-4 1h5M4 88h2m19 0h1"/><path stroke="#c1bfe6" d="M186 38h1m-42 11h1"/><path stroke="#4886f9" d="M145 39h1"/><path stroke="#7299f0" d="M146 39h1"/><path stroke="#a7b0e6" d="M152 39h1m83 18h1m0 1h1"/><path stroke="#82a8ca" d="M163 39h1m-1 1h1m-11 1h3m6 0h3m-13 1h4m4 0h6m1 0h4m-20 1h4m5 0h12m-22 1h5m4 0h13m-23 1h7m1 0h15m-24 1h24m-25 1h26m-26 1h26m-27 1h27m-28 1h28m-29 1h30m-31 1h31m-32 1h32m-33 1h34m-35 1h35m-35 1h35m-36 1h36m-63 1h2m24 0h38m-65 1h5m21 0h39m-66 1h5m5 0h1m1 0h1m1 0h4m8 0h40m-67 1h6m3 0h10m9 0h39m-68 1h8m1 0h12m9 0h39m-69 1h21m9 0h39m-70 1h23m9 0h38m-71 1h25m9 0h37m-72 1h26m10 0h36m1 0h1m-75 1h27m10 0h37m-75 1h29m10 0h36m-76 1h30m11 0h34m-75 1h30m12 0h33m-76 1h32m11 0h32m-76 1h33m12 0h31m-77 1h34m13 0h29m-77 1h36m13 0h27m-77 1h37m13 0h27m-78 1h38m14 0h25m-78 1h40m14 0h24m-78 1h40m15 0h22m-78 1h41m15 0h22m-79 1h43m15 0h20m-79 1h44m16 0h18m-79 1h46m16 0h17m-80 1h47m16 0h16m-80 1h48m17 0h15m-80 1h49m17 0h13m-80 1h50m18 0h12m-83 1h1m1 0h51m18 0h11m-82 1h54m18 0h9m-80 1h53m19 0h8m-79 1h52m20 0h6m-77 1h52m19 0h6m-76 1h51m20 0h4m-74 1h11m2 0h37m21 0h3m-73 1h10m2 0h38m21 0h1m-71 1h7m4 0h38m-48 1h6m4 0h38m-47 1h3m10 0h35m-47 1h2m11 0h34m-34 1h34m-34 1h35m-34 1h34m-33 1h33m-33 1h34m-32 1h32m-32 1h32m-35 1h36m-34 1h34m-34 1h34m-34 1h35m-30 1h30m-30 1h30m-30 1h31m-31 1h31m-31 1h31m-31 1h32m-36 1h36m-31 1h31m-31 1h22"/><path stroke="#b1b1e3" d="M179 39h1m-38 8h1m-13 2h4m-29 15h1m-4 1h1m-2 1h1m-3 1h1m-3 1h1m-3 2h1m-7 1h1m-16 3h1M30 84h1m-6 1h3m-12 1h7m1 0h1m-10 1h2m-3 1h1m3 0h5m-9 1h1m2 0h2m-8 1h4m1 0h1"/><path stroke="#e9deeb" d="M185 39h2"/><path stroke="#c1bfe5" d="M188 39h1m-48 10h2m-12 1h1M90 72h2m7 0h1m-12 2h1m-14 1h3m2 0h1m5 0h1M9 90h1"/><path stroke="#538bf7" d="M142 40h1m81 6h1m5 4h1m5 4h1"/><path stroke="#7f9eee" d="M143 40h1m-27 10h1M37 75h2"/><path stroke="#85a1ec" d="M144 40h1"/><path stroke="#83a0ed" d="M147 40h1"/><path stroke="#6f96f1" d="M148 40h1M95 64h1"/><path stroke="#eedfeb" d="M181 40h1M18 92h1"/><path stroke="#f5e4eb" d="M182 40h1M2 89h1"/><path stroke="#f2e2ec" d="M183 40h1M23 90h1"/><path stroke="#eee0eb" d="M184 40h1m-46 8h1M95 71h1m-19 3h1"/><path stroke="#f2e3eb" d="M185 40h1m53 24h2M84 76h1M1 89h1"/><path stroke="#f5e6ed" d="M186 40h1m-44 8h1"/><path stroke="#f7e7ec" d="M187 40h1m1 0h1M81 74h1M10 91h1m2 0h1"/><path stroke="#f5e6ec" d="M190 40h3M99 71h1"/><path stroke="#a9b0e6" d="M139 41h1"/><path stroke="#a7afe6" d="M140 41h1M89 66h1m-17 1h2M27 78h2"/><path stroke="#a6aee6" d="M141 41h1m88 11h1"/><path stroke="#a1ace7" d="M142 41h1m86 10h1"/><path stroke="#99a8ea" d="M143 41h1"/><path stroke="#8da2ec" d="M144 41h1"/><path stroke="#88a0ed" d="M145 41h1"/><path stroke="#9ba9e9" d="M146 41h1"/><path stroke="#a7aee6" d="M147 41h1"/><path stroke="#abb0e6" d="M148 41h1"/><path stroke="#fdeaee" d="M181 41h1m3 0h1M92 74h1"/><path stroke="#f3e4ee" d="M186 41h1"/><path stroke="#ded4e9" d="M187 41h1"/><path stroke="#dad0e8" d="M188 41h1"/><path stroke="#cec9e7" d="M189 41h1m1 0h1M89 73h2m-2 1h1m-2 1h1M28 86h1m-19 6h1m1 0h1"/><path stroke="#c8c4e6" d="M190 41h1m1 0h1M11 92h1"/><path stroke="#839eee" d="M137 42h1m-24 10h1"/><path stroke="#7f9dee" d="M142 42h1"/><path stroke="#a4ade6" d="M143 42h1m-28 10h1"/><path stroke="#b0b1e3" d="M145 42h1m-39 21h1m-2 1h1m-10 1h1m6 0h1m-3 1h1m-3 1h1m-3 1h1m2 1h1m-6 1h1m2 0h2m-14 3h1m-2 1h1m-50 3h1"/><path stroke="#ffebef" d="M182 42h1m-49 11h1m108 16h1m0 1h1M91 76h1M23 92h1"/><path stroke="#7e9cee" d="M130 43h1M71 68h1m1 0h2M25 79h1m1 0h2"/><path stroke="#89a0ed" d="M132 43h1m-16 8h1m-6 3h1m-8 4h1m-3 1h1m-13 6h2M18 80h2"/><path stroke="#a7ade6" d="M133 43h1M94 65h1M21 80h1"/><path stroke="#afb2e4" d="M139 43h1m7 2h1m86 13h1m-130 2h1m130 0h1m0 1h1M99 63h1M17 82h1"/><path stroke="#afb1e3" d="M141 43h1M96 65h1"/><path stroke="#8ba2eb" d="M129 44h1M17 81h1"/><path stroke="#9eaae6" d="M130 44h1"/><path stroke="#abb1e4" d="M131 44h1"/><path stroke="#b0b1e4" d="M146 44h1M97 69h1"/><path stroke="#91a4eb" d="M129 45h1"/><path stroke="#a8aee5" d="M130 45h1M9 84h1"/><path stroke="#adb0e4" d="M143 45h1m-34 12h1M16 82h1"/><path stroke="#ffeaee" d="M185 45h6m-50 6h2m-2 1h1m-7 1h6m-8 1h1m2 3h3m103 12h1m2 2h1m-4 1h1m2 0h1M97 74h1m-6 2h4m-17 1h2m-1 1h1m0 1h1m1 1h2m6 0h2m-3 1h1m-10 1h1m8 0h1m-9 1h4m-3 1h1M1 91h1m0 1h1m18 1h2m-4 1h2m-6 1h3M0 96h15m-14 4h11m-10 2h1m1 3h1m-5 2h1m1 0h2m-4 6h1"/><path stroke="#6884ac" d="M191 45h1m-2 1h3m-3 1h3m1 0h2m-7 1h7m-9 1h9m1 0h1m1 0h2m2 0h1m-16 1h16m9 0h1m-27 1h28m-28 1h29m-30 1h30m-31 1h32m-32 1h32m-33 1h33m-33 1h34m-35 1h35m-36 1h36m-36 1h37m-38 1h38m-38 1h38m-39 1h40m-41 1h41m-41 1h42m-42 1h42m-43 1h43m-43 1h44m-45 1h45m-45 1h45m-46 1h47m-47 1h47m-48 1h48M46 74h2m2 0h1m123 0h50M39 75h2m5 0h6m122 0h50M39 76h13m121 0h52M38 77h14m121 0h52M37 78h14m6 0h1m114 0h53M36 79h14m6 0h2m6 0h2m106 0h54M35 80h15m4 0h4m7 0h2m104 0h55M34 81h24m7 0h5m100 0h56M33 82h38m99 0h57M32 83h40m97 0h58M31 84h41m97 0h58M30 85h43m95 0h60M29 86h45m94 0h60M28 87h46m93 0h62M28 88h47m91 0h63M27 89h48m91 0h63M26 90h50m89 0h65M25 91h36m2 0h14m88 0h65M24 92h37m2 0h14m87 0h66M23 93h36m4 0h15m86 0h67M22 94h37m4 0h15m85 0h19m2 0h42m2 0h3M21 95h36m10 0h12m82 0h21m2 0h42m2 0h3M20 96h37m11 0h11m81 0h20m4 0h40m4 0h4M19 97h36m13 0h12m80 0h20m4 0h40m4 0h4M18 98h37m13 0h13m78 0h19m10 0h34M18 99h34m17 0h12m78 0h19m11 0h33m-200 1h30m18 0h12m76 0h18m13 0h31m-197 1h31m16 0h12m75 0h19m13 0h31m13 0h1m-211 1h31m18 0h11m74 0h16m17 0h27m-194 1h25m24 0h11m73 0h17m18 0h26m-193 1h24m21 0h15m72 0h19m16 0h28m-194 1h23m23 0h14m70 0h20m18 0h26m-194 1h23m23 0h14m70 0h14m24 0h20m-186 1h25m19 0h15m68 0h15m21 0h23m21 0h2m-209 1h25m24 0h10m67 0h16m23 0h21m-189 1h28m24 0h11m66 0h16m23 0h21m-187 1h26m24 0h11m65 0h21m19 0h25m19 0h1m-211 1h20m30 0h12m64 0h21m24 0h20m-191 1h20m30 0h13m62 0h22m24 0h20m-186 1h17m28 0h10m64 0h23m24 0h20m-186 1h17m24 0h14m63 0h18m30 0h14m-180 1h15m2 0h4m25 0h11m61 0h18m42 0h2m-180 1h15m2 0h4m25 0h11m60 0h21m-138 1h13m4 0h1m28 0h15m56 0h3m-120 1h13m4 0h1m28 0h15"/><path stroke="#a2abe7" d="M129 46h1M98 64h1"/><path stroke="#afb1e4" d="M130 46h1m107 15h1m10 3h1M17 83h1"/><path stroke="#b0b4e5" d="M144 46h1m-15 2h1M91 70h2"/><path stroke="#92a6ea" d="M127 47h1m-26 13h1M35 76h1"/><path stroke="#a4ade7" d="M128 47h1"/><path stroke="#aeafe5" d="M129 47h1M15 83h1"/><path stroke="#b1b2e3" d="M141 47h1m1 0h1m-33 11h1m-3 2h1m-9 5h1m147 1h1M96 68h1m-9 3h1M15 85h2m-2 1h1m7 0h1m-12 1h3m4 0h6M9 88h5m3 0h1m-2 1h1m3 0h1"/><path stroke="#b1b1e4" d="M144 47h3m-18 2h1m-24 14h1m-3 1h1m-2 1h1m-8 4h1m-7 2h3"/><path stroke="#506991" d="M222 47h3m-5 1h6m-10 1h1m2 0h7m-11 1h12m-12 1h13m-12 1h12m-12 1h13m-12 1h13m-13 1h14m-14 1h14m-13 1h14m-14 1h15m-15 1h15m-14 1h15m-15 1h16m-16 1h16m-15 1h16m-16 1h17m-16 1h16m-16 1h17m-17 1h18m-17 1h18m-18 1h18m-18 1h19m-18 1h19m-19 1h19m-19 1h20M73 74h1m150 0h20M73 75h2m149 0h20M73 76h2m150 0h20M73 77h3m149 0h21M69 78h2m2 0h4m148 0h21M70 79h8m148 0h21M70 80h9m147 0h22M71 81h9m146 0h23M71 82h10m146 0h22M72 83h10m145 0h23M72 84h11m144 0h23M73 85h11m144 0h22M74 86h11m143 0h22M74 87h11m144 0h21M75 88h10m144 0h21M75 89h11m143 0h21M76 90h11m143 0h20M77 91h11m142 0h20M77 92h12m141 0h20M78 93h12m141 0h19M78 94h13m140 0h19M79 95h13m139 0h19M79 96h14m139 0h18M80 97h14m138 0h18M81 98h14m137 0h18M81 99h14m138 0h17m-168 1h13m138 0h17m-168 1h10m142 0h16m-167 1h9m142 0h16m-167 1h11m141 0h15m-166 1h10m141 0h15m-165 1h3m149 0h13m-165 1h3m149 0h13m-164 1h2m148 0h14m-164 1h2m148 0h14m-163 1h5m144 0h14m-163 1h5m145 0h13m-162 1h4m149 0h9m-161 1h3m149 0h9m-9 1h9m-9 1h9m-9 1h9m-9 1h9m-9 1h9"/><path stroke="#789bef" d="M225 47h1m1 1h1m1 1h1m2 2h1m3 4h1"/><path stroke="#aeb1e5" d="M129 48h1M8 84h1"/><path stroke="#d1cbe7" d="M137 48h1"/><path stroke="#f5e5eb" d="M140 48h1M96 71h1m-19 3h1"/><path stroke="#eee1ec" d="M144 48h1m-12 2h2m106 14h1m-142 7h1m-16 5h1M24 89h1"/><path stroke="#e2d8ea" d="M145 48h1m96 16h1m-2 1h1m7 4h1"/><path stroke="#cfc9e7" d="M146 48h1"/><path stroke="#dad1e9" d="M134 49h1"/><path stroke="#e9dcea" d="M135 49h1"/><path stroke="#f2e4ec" d="M136 49h3M82 74h1"/><path stroke="#ebe0ec" d="M139 49h1"/><path stroke="#c1bee5" d="M143 49h2M97 72h2"/><path stroke="#93a7ea" d="M226 49h1m-109 1h1"/><path stroke="#809fee" d="M227 49h1"/><path stroke="#6894f3" d="M230 49h1m3 3h1m2 3h1m1 2h1"/><path stroke="#f1e4ec" d="M135 50h2M93 73h1"/><path stroke="#f8e8ec" d="M138 50h1"/><path stroke="#fdeaec" d="M141 50h2"/><path stroke="#fbe8ee" d="M143 50h1"/><path stroke="#f4e3ec" d="M144 50h1"/><path stroke="#95a6e8" d="M227 50h1"/><path stroke="#789aef" d="M228 50h1m7 6h1"/><path stroke="#5f90f5" d="M229 50h1m4 3h1"/><path stroke="#7e9def" d="M116 51h1m-7 4h1m-3 1h1m-3 1h1m-6 3h1m-2 1h1m-2 1h1M0 83h1"/><path stroke="#cec8e7" d="M130 51h1"/><path stroke="#e2d7ea" d="M131 51h1m1 0h1M90 74h1"/><path stroke="#e8dceb" d="M132 51h1M92 73h1m-18 3h1"/><path stroke="#f4e5ed" d="M134 51h1m-4 1h1"/><path stroke="#8ba3ec" d="M230 51h2m6 6h1"/><path stroke="#84a0ed" d="M115 52h1"/><path stroke="#a8afe5" d="M228 52h1m1 1h1"/><path stroke="#a8aee6" d="M229 52h1"/><path stroke="#93a7e9" d="M231 52h1m6 6h1"/><path stroke="#7198f1" d="M232 52h1"/><path stroke="#7f9ded" d="M113 53h1m120 1h1"/><path stroke="#9caae8" d="M114 53h1"/><path stroke="#adafe4" d="M115 53h1M4 83h1"/><path stroke="#aeb1e4" d="M229 53h1m1 1h1m1 2h1m0 1h1M36 77h1m-18 4h1"/><path stroke="#a2ace6" d="M231 53h1"/><path stroke="#8fa4ea" d="M232 53h1"/><path stroke="#849fec" d="M233 53h1"/><path stroke="#7799ef" d="M111 54h1m130 7h1"/><path stroke="#a2ace7" d="M113 54h1"/><path stroke="#a9b1e6" d="M114 54h1m120 3h1"/><path stroke="#a5aee6" d="M233 54h1m-123 1h1m-10 6h1m-7 2h1M32 77h1"/><path stroke="#7097f1" d="M235 54h1m1 2h1"/><path stroke="#a5ade5" d="M112 55h1m125 4h1M91 67h1m-16 1h1M30 79h1"/><path stroke="#afb0e5" d="M113 55h1"/><path stroke="#aab1e6" d="M233 55h1M72 67h1M26 78h1"/><path stroke="#9fabe7" d="M234 55h1"/><path stroke="#9cabe8" d="M235 55h1"/><path stroke="#98a8e9" d="M109 56h1m-3 1h1m-2 1h1m-3 1h1m-4 2h1m-9 4h1M36 76h2m-18 4h1m-6 2h1"/><path stroke="#a3ace8" d="M110 56h1"/><path stroke="#a8aee7" d="M111 56h1"/><path stroke="#aab2e7" d="M112 56h1"/><path stroke="#aeb3e4" d="M232 56h1m-124 2h1m127 2h1m-136 2h1"/><path stroke="#9aa8e8" d="M235 56h1"/><path stroke="#9dabe9" d="M108 57h1"/><path stroke="#a9aee6" d="M109 57h1"/><path stroke="#8ea4ea" d="M237 57h1m1 2h1"/><path stroke="#a6ade5" d="M107 58h1m-3 1h1m-3 1h1"/><path stroke="#adb2e4" d="M236 58h1"/><path stroke="#85a0ed" d="M239 58h1"/><path stroke="#abb2e5" d="M237 59h1"/><path stroke="#94a6ea" d="M240 59h1"/><path stroke="#acb2e5" d="M240 60h1"/><path stroke="#aab2e6" d="M241 60h1"/><path stroke="#aeb4e5" d="M104 61h1"/><path stroke="#99a7e9" d="M240 61h1"/><path stroke="#79e" d="M241 61h1"/><path stroke="#a2ade7" d="M100 62h1m-26 5h1M29 78h1"/><path stroke="#afb2e5" d="M243 62h1"/><path stroke="#adb1e4" d="M245 62h1m1 0h1M90 66h1"/><path stroke="#a0ace7" d="M249 62h1"/><path stroke="#b0b1e5" d="M98 63h1M31 79h1"/><path stroke="#889fec" d="M96 64h1"/><path stroke="#9ba8e7" d="M97 64h1"/><path stroke="#eee1eb" d="M238 64h1"/><path stroke="#d0cae8" d="M243 64h1"/><path stroke="#b9bae4" d="M244 64h1m2 1h1"/><path stroke="#adaee5" d="M95 65h1"/><path stroke="#c2c0e5" d="M240 65h1"/><path stroke="#e9ddeb" d="M242 65h2m4 3h1M83 74h1"/><path stroke="#e6dbea" d="M244 65h1m1 2h1M22 89h1M6 90h1"/><path stroke="#dfd6ea" d="M245 65h1m3 3h1"/><path stroke="#cfcae7" d="M246 65h1M7 89h1"/><path stroke="#b1b2e4" d="M249 65h1M95 69h1"/><path stroke="#a8afe6" d="M88 66h1"/><path stroke="#acb1e4" d="M91 66h1M35 77h1"/><path stroke="#afb2e3" d="M92 66h1m-5 2h1M0 84h1"/><path stroke="#faeaec" d="M238 66h1"/><path stroke="#f9e7ed" d="M240 66h1"/><path stroke="#f4e4ec" d="M241 66h1"/><path stroke="#e5d9ea" d="M242 66h1M4 89h1"/><path stroke="#e6daea" d="M243 66h1"/><path stroke="#dad3e9" d="M244 66h1"/><path stroke="#d5cee8" d="M245 66h1m1 0h1M95 72h1M26 87h1"/><path stroke="#c0bfe6" d="M248 66h1"/><path stroke="#99aaea" d="M76 67h1"/><path stroke="#89a2ec" d="M77 67h1"/><path stroke="#7799f0" d="M78 67h1"/><path stroke="#8ea2eb" d="M89 67h1"/><path stroke="#7d9bee" d="M90 67h1"/><path stroke="#f4e5ec" d="M244 67h1m3 2h1"/><path stroke="#ebdfeb" d="M245 67h1"/><path stroke="#c9c5e7" d="M249 67h1M18 90h1"/><path stroke="#9eace8" d="M68 68h1"/><path stroke="#93a6eb" d="M69 68h1"/><path stroke="#779af0" d="M70 68h1M24 79h1"/><path stroke="#90a4eb" d="M75 68h1M29 79h1"/><path stroke="#ebdeea" d="M247 68h1"/><path stroke="#b0b1e2" d="M73 69h1M27 80h1"/><path stroke="#feeaef" d="M244 69h1M0 112h1"/><path stroke="#fae8ed" d="M245 69h1"/><path stroke="#f9e7ec" d="M247 69h1"/><path stroke="#f9e8ed" d="M249 70h1M83 76h1M5 90h1"/><path stroke="#d1cae8" d="M93 71h1"/><path stroke="#e3d7e9" d="M94 71h1m-19 3h1M19 90h1"/><path stroke="#d0cae7" d="M96 72h1M5 87h1m0 2h1"/><path stroke="#d9d0e9" d="M91 73h1"/><path stroke="#fae8eb" d="M94 73h1"/><path stroke="#fdebec" d="M98 73h1m-15 4h1"/><path stroke="#d1cae7" d="M75 74h1"/><path stroke="#fae9ec" d="M80 74h1M9 91h1m5 0h2m1 0h2"/><path stroke="#c2bee5" d="M85 74h1"/><path stroke="#e9dceb" d="M91 74h1"/><path stroke="#f1e1eb" d="M89 75h1"/><path stroke="#e8ddeb" d="M90 75h1M27 88h1"/><path stroke="#fae9ed" d="M91 75h1"/><path stroke="#789af0" d="M34 76h1"/><path stroke="#a1ace8" d="M38 76h1"/><path stroke="#f7e8ed" d="M76 76h1"/><path stroke="#e2d7e9" d="M86 76h1M17 92h1"/><path stroke="#cec7e7" d="M87 76h1"/><path stroke="#ddd4e9" d="M88 76h1M15 92h2"/><path stroke="#e7dbeb" d="M89 76h1"/><path stroke="#fae8ee" d="M90 76h1"/><path stroke="#99a9ea" d="M31 77h1"/><path stroke="#f6e6eb" d="M85 77h1"/><path stroke="#f3e4ec" d="M86 77h1"/><path stroke="#f0e4ed" d="M87 77h1"/><path stroke="#e0d6ea" d="M88 77h1"/><path stroke="#f4e3ee" d="M89 77h1"/><path stroke="#9eace9" d="M30 78h1"/><path stroke="#98a7e9" d="M31 78h1"/><path stroke="#829dee" d="M32 78h1"/><path stroke="#93a6ea" d="M33 78h1"/><path stroke="#a1abe7" d="M34 78h1"/><path stroke="#757575" d="M68 79h1"/><path stroke="#9face7" d="M18 81h1"/><path stroke="#a7b0e7" d="M5 82h1"/><path stroke="#a5ade6" d="M1 83h1"/><path stroke="#aab0e5" d="M5 83h1"/><path stroke="#a2abe5" d="M6 83h1"/><path stroke="#92a5ea" d="M7 83h1"/><path stroke="#acb1e6" d="M13 83h1"/><path stroke="#abb1e5" d="M16 83h1"/><path stroke="#99a7e8" d="M10 84h1"/><path stroke="#90a3ea" d="M11 84h1"/><path stroke="#98a6e8" d="M12 84h1"/><path stroke="#9da8e7" d="M13 84h1"/><path stroke="#a2aae7" d="M14 84h1"/><path stroke="#afb1e5" d="M15 84h1"/><path stroke="#babae4" d="M29 84h1M6 87h1m1 2h1"/><path stroke="#bab8e4" d="M28 85h1"/><path stroke="#c9c3e6" d="M29 85h1"/><path stroke="#dbd2e8" d="M1 87h4"/><path stroke="#ebdfec" d="M27 87h1"/><path stroke="#d6cee8" d="M6 88h1"/><path stroke="#c2bfe5" d="M7 88h1"/><path stroke="#c2bee6" d="M23 88h1"/><path stroke="#c9c4e7" d="M24 88h1"/><path stroke="#dfd5e9" d="M26 88h1"/><path stroke="#f2e2eb" d="M3 89h1m20 1h1"/><path stroke="#ded4e8" d="M5 89h1"/><path stroke="#c9c6e7" d="M21 89h1"/><path stroke="#ecdfeb" d="M23 89h1"/><path stroke="#e9ddea" d="M25 89h1m-6 1h3"/><path stroke="#fde9ee" d="M1 90h1"/><path stroke="#fde9ed" d="M2 90h2"/><path stroke="#e3d8ea" d="M7 90h1"/><path stroke="#d6cfe8" d="M8 90h1"/><path stroke="#f7e8ec" d="M12 91h1"/><path stroke="#f8e8ed" d="M14 91h1"/><path stroke="#f8e7ec" d="M20 91h1"/><path stroke="#1b5e20" d="M61 91h2m-2 1h2m-4 1h4m38 0h2m-44 1h4m38 0h2m79 0h2m42 0h2M57 95h2m5 0h3m32 0h4m79 0h2m42 0h2M16 96h2m39 0h2m5 0h4m31 0h4m77 0h4m40 0h4M16 97h2m47 0h3m29 0h2m5 0h3m73 0h4m40 0h4M14 98h4m48 0h2m29 0h2m5 0h4m70 0h2m5 0h3m34 0h2m5 0h3M14 99h4m34 0h2m51 0h3m70 0h2m5 0h4m33 0h2m5 0h4m-221 1h2m5 0h3m30 0h2m11 0h1m40 0h2m78 0h3m41 0h3m-221 1h2m5 0h4m31 0h4m7 0h1m26 0h2m93 0h2m42 0h2m-213 1h3m31 0h4m7 0h7m20 0h2m11 0h1m67 0h2m42 0h2m-198 1h2m42 0h7m22 0h4m7 0h1m67 0h2m11 0h1m30 0h2m11 0h1M7 104h2m85 0h4m7 0h7m63 0h4m7 0h1m32 0h4m7 0h1M7 105h2m11 0h1m27 0h4m17 0h2m34 0h7m63 0h4m7 0h7m26 0h4m7 0h7M9 106h4m7 0h1m27 0h4m17 0h2m115 0h7m37 0h7M9 107h4m7 0h7m27 0h2m13 0h2m17 0h4m17 0h2m-91 1h7m27 0h2m13 0h7m12 0h4m17 0h2m58 0h4m17 0h2m21 0h4m17 0h2m-184 1h10m7 0h7m18 0h2m13 0h2m58 0h4m17 0h2m21 0h4m17 0h2M3 110h4m17 0h2m26 0h10m32 0h2m13 0h7m59 0h2m13 0h2m27 0h2m13 0h2M3 111h4m17 0h2m20 0h2m44 0h10m7 0h7m59 0h2m13 0h7m22 0h2m13 0h7M9 112h2m13 0h2m20 0h2m22 0h6m16 0h10m71 0h10m7 0h7m20 0h10m7 0h7M9 113h2m13 0h7m17 0h6m16 0h6m10 0h2m85 0h10m34 0h10M7 114h10m7 0h7m17 0h6m16 0h2m14 0h2m22 0h6m51 0h2m42 0h2M7 115h10m29 0h2m4 0h7m11 0h2m16 0h6m16 0h6m51 0h2m22 0h6m14 0h2m22 0h6M1 116h2m43 0h2m4 0h7m1 0h6m22 0h6m16 0h2m57 0h6m16 0h6m16 0h6m16 0h6M1 117h2m22 0h6m13 0h4m1 0h17m9 0h2m15 0h7m11 0h2m57 0h6m16 0h2m20 0h6m16 0h2M3 118h6m16 0h6m13 0h4m1 0h17m9 0h2m15 0h7m74 0h7m11 0h2m30 0h1m11 0h2M3 119h6m16 0h2m15 0h2m5 0h3m21 0h2m14 0h15m11 0h2m56 0h7m37 0h7M7 120h7m11 0h2m15 0h2m5 0h4m20 0h2m14 0h15m11 0h2m53 0h15m11 0h2m16 0h15m11 0h2M7 121h7m36 0h23m12 0h2m26 0h2m55 0h15m11 0h2m16 0h15m11 0h2M4 122h15m11 0h2m19 0h22m12 0h2m26 0h2m51 0h2m26 0h2m14 0h2m26 0h2M4 123h15m11 0h2m5 0h2m15 0h13m20 0h26m53 0h2m26 0h2m14 0h2m9 0h2m15 0h2M0 124h2m26 0h2m7 0h2m11 0h1m4 0h12m20 0h26m55 0h26m18 0h23M0 125h2m26 0h2m9 0h4m7 0h1m42 0h14m61 0h26m18 0h23M2 126h26m11 0h4m7 0h7m36 0h14m67 0h14m30 0h14M2 127h26m22 0h7m117 0h14m29 0h2m5 0h8M8 128h14m195 0h2m5 0h4M8 129h14m11 0h4m17 0h2m169 0h3m-195 1h4m17 0h2m170 0h2m-189 1h2m13 0h2m156 0h2m-175 1h2m13 0h7m151 0h2m11 0h1m-189 1h10m7 0h7m153 0h4m7 0h1m-189 1h10m167 0h4m7 0h7m-201 1h2m192 0h7m-201 1h2m22 0h6m-28 1h6m16 0h6m147 0h4m17 0h2m-198 1h6m16 0h2m151 0h4m17 0h2m-194 1h7m11 0h2m157 0h2m13 0h2m-194 1h7m170 0h2m13 0h7m-202 1h15m11 0h2m150 0h10m7 0h7m-202 1h15m11 0h2m150 0h10m-192 1h2m26 0h2m146 0h2m-178 1h2m26 0h2m146 0h2m22 0h6m-204 1h26m150 0h6m16 0h6m-204 1h26m150 0h6m16 0h2m-209 1h2m13 0h14m160 0h7m11 0h2m-209 1h2m13 0h14m148 0h2m10 0h7m-198 1h4m175 0h2m7 0h15m11 0h2m-216 1h4m173 0h4m7 0h15m11 0h2m-218 1h2m5 0h3m169 0h4m3 0h2m26 0h2m-216 1h2m5 0h4m166 0h2m5 0h4m26 0h2m-208 1h3m166 0h2m5 0h25m-200 1h2m174 0h29m-219 1h2m189 0h2m6 0h14m-213 1h2m11 0h1m163 0h2m20 0h14m-211 1h4m7 0h1m163 0h2m11 0h1m-189 1h4m7 0h7m159 0h4m7 0h1m27 0h2m-207 1h7m159 0h4m7 0h7m21 0h2m-30 1h7m19 0h4m-224 1h4m17 0h2m197 0h4m-224 1h4m17 0h2m154 0h4m17 0h2m18 0h2m5 0h3m-222 1h2m13 0h2m154 0h4m17 0h2m18 0h2m5 0h4m-223 1h2m13 0h7m155 0h2m13 0h2m26 0h3m-225 1h10m7 0h7m155 0h2m13 0h7m22 0h2m-225 1h10m167 0h10m7 0h7m8 0h2M8 167h2m181 0h10m22 0h2m11 0h1M8 168h2m22 0h6m147 0h2m38 0h4m7 0h1m-227 1h6m16 0h6m147 0h2m22 0h6m10 0h4m7 0h7m-233 1h6m16 0h2m153 0h6m16 0h6m21 0h7m-229 1h7m11 0h2m153 0h6m16 0h2m-197 1h7m170 0h7m11 0h2m8 0h4m17 0h2m-231 1h15m11 0h2m152 0h7m21 0h4m17 0h2m-231 1h15m11 0h2m149 0h15m11 0h2m9 0h2m13 0h2M7 175h2m26 0h2m151 0h15m11 0h2m9 0h2m13 0h7M7 176h2m26 0h2m147 0h2m26 0h2m9 0h10m7 0h7M9 177h26m149 0h2m26 0h2m9 0h10M9 178h25m152 0h26m5 0h2m-204 1h14m157 0h26m5 0h2m22 0h6m-232 1h14m163 0h14m13 0h6m16 0h6m-55 1h14m13 0h6m16 0h2m-20 1h7m11 0h2m-20 1h7m-10 1h15m11 0h2m-28 1h15m11 0h2m-32 1h2m26 0h2m-30 1h2m26 0h2m-28 1h26m-26 1h26m-20 1h14m-14 1h14"/><path stroke="#f3e3ec" d="M7 92h1"/><path stroke="#e2d6e9" d="M8 92h1"/><path stroke="#eddeea" d="M9 92h1"/><path stroke="#c8c3e6" d="M13 92h2"/><path stroke="#2e7d32" d="M59 95h5m-5 1h5m-9 1h10m34 0h5m-49 1h11m33 0h5m76 0h5m39 0h5M58 99h11m26 0h10m75 0h5m39 0h5m-215 1h5m39 0h7m3 0h2m25 0h11m70 0h10m34 0h10m-216 1h5m41 0h5m3 0h2m28 0h11m67 0h11m33 0h11m-221 1h10m40 0h5m33 0h7m3 0h2m69 0h11m33 0h11m-224 1h11m27 0h17m35 0h5m3 0h2m69 0h7m3 0h2m32 0h7m3 0h2m-222 1h11m24 0h21m31 0h5m76 0h5m3 0h2m34 0h5m3 0h2m-222 1h7m3 0h2m27 0h17m19 0h17m76 0h5m39 0h5m-215 1h5m3 0h2m27 0h17m19 0h21m60 0h17m27 0h17m-215 1h5m32 0h2m12 0h3m23 0h17m60 0h21m23 0h21M3 108h17m32 0h2m12 0h3m23 0h17m64 0h17m27 0h17M3 109h21m40 0h5m23 0h2m12 0h3m64 0h17m27 0h17M7 110h17m40 0h12m16 0h2m12 0h3m64 0h2m12 0h3m27 0h2m12 0h3M7 111h17m30 0h22m28 0h5m64 0h2m12 0h3m27 0h2m12 0h3M7 112h2m12 0h3m30 0h16m34 0h12m69 0h5m39 0h5M7 113h2m12 0h3m30 0h10m30 0h22m69 0h12m32 0h12m-222 1h5m30 0h10m30 0h16m65 0h22m22 0h22m-222 1h12m35 0h4m2 0h3m19 0h10m71 0h16m28 0h16M9 116h22m35 0h9m19 0h10m71 0h10m34 0h10M9 117h16m41 0h7m33 0h4m2 0h3m60 0h10m34 0h10M9 118h10m47 0h7m33 0h9m72 0h4m2 0h3m35 0h4m2 0h3M9 119h10m25 0h5m3 0h14m38 0h9m74 0h9m35 0h9m-219 1h4m2 0h3m14 0h5m4 0h13m38 0h9m72 0h9m35 0h9m-217 1h9m10 0h10m41 0h14m80 0h9m35 0h9m-219 1h9m12 0h11m40 0h14m67 0h14m30 0h14m-211 1h9m15 0h11m118 0h14m30 0h5m2 0h7M6 124h14m23 0h7m3 0h2m-49 1h14m25 0h5m3 0h2m-10 1h5m-17 1h17m169 0h5m-191 1h21m165 0h5m-187 1h17m161 0h10m-188 1h17m161 0h11m-189 1h2m12 0h3m164 0h11m-192 1h2m12 0h3m164 0h7m3 0h2m-181 1h5m166 0h5m3 0h2m-181 1h12m159 0h5m-186 1h22m147 0h17m-186 1h16m153 0h21m-190 1h10m163 0h17m-190 1h10m163 0h17m-178 1h4m2 0h3m152 0h2m12 0h3m-178 1h9m152 0h2m12 0h3m-180 1h9m166 0h5m-180 1h9m166 0h12m-200 1h14m164 0h22m-200 1h14m164 0h16m-16 1h10m-10 1h10m2 1h4m2 0h3m-9 1h9m-11 1h9m-9 1h9m-212 1h5m185 0h14m-204 1h5m172 0h5m8 0h14m-208 1h10m171 0h5m-186 1h11m166 0h10m-184 1h11m163 0h11m-185 1h7m3 0h2m165 0h11m-186 1h5m3 0h2m165 0h7m3 0h2m-187 1h5m172 0h5m3 0h2m-199 1h17m172 0h5m-194 1h21m156 0h17m-190 1h17m156 0h21m-194 1h17m160 0h17m22 0h5m-221 1h2m12 0h3m160 0h17m22 0h5m-221 1h2m12 0h3m160 0h2m12 0h3m18 0h10m-210 1h5m160 0h2m12 0h3m18 0h11m-211 1h12m165 0h5m21 0h11m-224 1h22m165 0h12m14 0h7m3 0h2m-225 1h16m161 0h22m16 0h5m3 0h2m-225 1h10m167 0h16m22 0h5m-220 1h10m167 0h10m16 0h17m-208 1h4m2 0h3m156 0h10m16 0h21m-212 1h9m168 0h4m2 0h3m9 0h17m-214 1h9m170 0h9m9 0h17m-214 1h9m168 0h9m11 0h2m12 0h3m-227 1h14m176 0h9m11 0h2m12 0h3m-227 1h14m163 0h14m31 0h5m-50 1h14m31 0h12m-22 1h22m-22 1h16m-16 1h10m-10 1h10m2 1h4m2 0h3m-9 1h9m-11 1h9m-9 1h9m-22 1h14m-14 1h14"/><path stroke="#43a047" d="M54 99h4m-4 1h4m8 0h2m-10 1h2m6 0h2m26 0h4m-40 1h2m34 0h4m8 0h2m67 0h4m40 0h4m-125 1h2m6 0h2m67 0h4m8 0h2m30 0h4m8 0h2M9 104h4m85 0h2m79 0h2m6 0h2m34 0h2m6 0h2M9 105h4m8 0h2m156 0h2m42 0h2m-212 1h2m6 0h2m-10 1h2m41 0h10m-10 1h10m-4 1h2m32 0h10m-44 1h2m32 0h10m71 0h10m34 0h10m-183 1h6m48 0h2m73 0h10m34 0h10m-220 1h10m27 0h6m48 0h2m79 0h2m42 0h2m-218 1h10m43 0h6m18 0h6m89 0h2m42 0h2m-212 1h2m45 0h6m18 0h6m75 0h6m38 0h6m-202 1h2m40 0h7m9 0h2m27 0h6m59 0h6m38 0h6M3 116h6m50 0h1m15 0h2m27 0h6m75 0h6m38 0h6M3 117h6m64 0h2m24 0h7m9 0h2m68 0h6m38 0h6m-216 1h6m48 0h2m24 0h7m9 0h2m63 0h7m9 0h2m26 0h7m9 0h2m-223 1h6m41 0h7m40 0h2m65 0h7m9 0h2m26 0h7m9 0h2m-228 1h7m9 0h2m34 0h7m40 0h2m79 0h2m42 0h2m-226 1h7m9 0h2m55 0h4m14 0h8m81 0h2m42 0h2m-212 1h2m57 0h4m14 0h8m55 0h4m14 0h8m18 0h4m14 0h8m-210 1h2m9 0h4m125 0h4m14 0h8m18 0h4m14 0h8M2 124h4m14 0h8m11 0h4m8 0h2m-51 1h4m14 0h8m15 0h2m6 0h2m-10 1h2m-4 5h10m163 0h4m-177 1h10m163 0h4m8 0h2m-181 1h2m169 0h2m6 0h2m-181 1h2m169 0h2m-187 1h6m-6 1h6m10 1h6m-6 1h6m-11 1h7m9 0h2m154 0h10m-182 1h7m9 0h2m154 0h10m-168 1h2m162 0h2m-166 1h2m162 0h2m-192 1h4m14 0h8m150 0h6m-182 1h4m14 0h8m150 0h6m10 1h6m-6 1h6m-11 1h7m9 0h2m-18 1h7m9 0h2m-4 1h2m-2 1h2m-28 1h4m14 0h8m-26 1h4m14 0h8m-217 3h4m-4 1h4m8 0h2m163 0h4m-177 1h2m6 0h2m163 0h4m8 0h2m-187 1h2m175 0h2m6 0h2m-10 1h2m-181 4h10m-10 1h10m167 0h10m-181 1h2m169 0h10m-181 1h2m175 0h2m22 0h4m-219 1h6m185 0h2m22 0h4m8 0h2m-229 1h6m171 0h6m36 0h2m6 0h2m-213 1h6m155 0h6m36 0h2m-205 1h6m171 0h6m-188 1h7m9 0h2m164 0h6m-188 1h7m9 0h2m159 0h7m9 0h2m-181 1h2m161 0h7m9 0h2m-181 1h2m175 0h2m13 0h10M9 175h4m14 0h8m177 0h2m13 0h10M9 176h4m14 0h8m151 0h4m14 0h8m21 0h2m-49 1h4m14 0h8m21 0h2m-16 1h6m-6 1h6m10 1h6m-6 1h6m-11 1h7m9 0h2m-18 1h7m9 0h2m-4 1h2m-2 1h2m-28 1h4m14 0h8m-26 1h4m14 0h8"/><path stroke="#6d4c41" d="M197 115h12m-12 1h16m-62 1h18m24 0h20m24 0h4m-102 1h34m25 0h19m25 0h8M0 119h3m37 0h2m33 0h13m29 0h56m25 0h19m25 0h8m-211 1h2m-2 1h1m-2 1h2m-4 2h1m-1 1h1m-1 1h1m-1 5h1m-1 1h1m-1 1h1m-1 1h1m-15 5h1m13 0h1m-16 1h1m14 0h1m-16 1h1m-2 1h2m-2 1h2m-3 1h3m-3 1h1m-1 1h1m-2 1h2m17 0h1m-21 1h2m18 0h1m-22 1h2m19 0h1m-23 1h2m20 0h1m-23 1h1m21 0h1m-24 1h2m21 0h1m-26 1h3m22 0h1m-27 1h2m23 0h1m-27 1h2m24 0h1m-28 1h2m24 0h2m-29 1h2m25 0h1m-29 1h2m25 0h2m-30 1h2m26 0h2m-31 1h2m26 0h2m-30 1h1m27 0h1m-30 1h2m27 0h1m-30 1h1m-3 1h2m-3 1h2m-3 1h2m-2 1h1m-1 1h1m12 11h2m-3 1h2m-3 1h2m-3 1h2m-4 1h3m-5 1h3m-6 1h4m-5 1h3m-4 1h2m-3 1h2"/><path stroke="#558b2f" d="M217 118h6M0 120h7m34 0h1m33 0h14m28 0h53m28 0h16m28 0h8M0 121h7m66 0h12m30 0h55m28 0h16m28 0h8M0 122h4m69 0h12m30 0h51m30 0h14m32 0h8M0 123h4m69 0h14m29 0h50m30 0h14m33 0h7m-176 1h13m30 0h51m26 0h18m23 0h6m2 0h7m-213 1h2m16 0h2m1 0h1m16 0h18m24 0h51m26 0h18m23 0h6m1 0h8M0 126h2m35 0h2m35 0h19m24 0h57m20 0h24m17 0h15M0 127h2m71 0h26m17 0h58m20 0h23m18 0h15M0 128h8m64 0h27m17 0h64m13 0h24m18 0h15M0 129h8m64 0h27m16 0h65m12 0h23m20 0h15M0 130h14m57 0h28m15 0h64m13 0h24m20 0h15M0 131h13m57 0h29m14 0h64m13 0h22m23 0h15M0 132h12m57 0h30m12 0h65m14 0h22m23 0h15M0 133h11m56 0h31m11 0h67m13 0h25m20 0h16M0 134h10m52 0h37m8 0h69m12 0h26m19 0h17M0 135h9m52 0h39m1 0h1m2 0h73m9 0h22m24 0h18M0 136h9m52 0h117m7 0h23m22 0h20M0 137h10m51 0h120m3 0h24m23 0h19M0 138h11m46 0h151m23 0h19M0 139h12m50 0h150m19 0h19M0 140h13m49 0h150m24 0h14M0 141h21m41 0h150m24 0h14M0 142h20m42 0h150m24 0h14M0 143h20m40 0h146m30 0h14M0 144h19m41 0h146m30 0h14M0 145h19m39 0h150m28 0h14M0 146h19m41 0h148m24 0h18M0 147h18m43 0h151m25 0h13M0 148h17m45 0h138m2 0h10m25 0h13M0 149h16m22 0h5m19 0h138m2 0h7m28 0h13M0 150h15m23 0h2m21 0h137m4 0h7m28 0h13M0 151h15m23 0h1m22 0h137m4 0h3m30 0h15M0 152h14m47 0h135m39 0h15M0 153h12m48 0h136m32 0h22M0 154h11m26 0h1m21 0h135m40 0h16M0 155h10m27 0h1m20 0h136m13 0h6m21 0h16M0 156h9m28 0h3m17 0h134m17 0h5m20 0h17M0 157h8m28 0h4m16 0h135m18 0h8m15 0h18M0 158h7m29 0h6m13 0h138m16 0h7m15 0h1m2 0h16M0 159h6m30 0h9m7 0h141m18 0h4m15 0h2m2 0h16M0 160h5m30 0h152m24 0h3m20 0h16M0 161h5m29 0h153m21 0h6m15 0h1m4 0h16M0 162h4m30 0h153m23 0h4m24 0h12M0 163h4m29 0h154m23 0h5m12 0h1m11 0h11M0 164h2m36 0h153m19 0h6m23 0h11M0 165h1m37 0h153m24 0h2m8 0h1m13 0h11m-212 1h153m24 0h8m17 0h10m-212 1h153m24 0h8m18 0h9m-212 1h147m30 0h10m16 0h9m-212 1h147m30 0h10m18 0h7m-216 1h153m28 0h4m24 0h7m-211 1h148m24 0h8m21 0h10m-211 1h152m25 0h3m23 0h8m-211 1h152m25 0h3m23 0h8m-211 1h149m28 0h7m19 0h8m-213 1h151m28 0h7m24 0h3m-211 1h145m30 0h9m24 0h3m-215 1h1m4 0h144m30 0h9m24 0h3m-209 1h145m26 0h5m30 0h3m-221 1h1m10 0h146m26 0h5m30 0h3m-236 1h1m24 0h153m19 0h8m28 0h3m-237 1h8m6 0h1m10 0h154m19 0h8m24 0h7m-238 1h9m15 0h162m13 0h12m25 0h2m-239 1h10m15 0h160m15 0h12m25 0h2M9 184h12m15 0h159m15 0h10m28 0h2M7 185h14m14 0h159m16 0h10m28 0h2M5 186h13m1 0h2m14 0h158m16 0h7m30 0h4M3 187h14m17 0h159m15 0h8m30 0h4M2 188h14m17 0h159m16 0h10m26 0h6M0 189h16m15 0h163m13 0h11m26 0h6M0 190h17m12 0h165m12 0h18m17 0h9M0 191h18m9 0h167m8 0h22m18 0h8M0 192h20m5 0h205m6 0h1m5 0h8M0 193h229m13 0h8M0 194h228m13 0h9M0 195h227m15 0h8M0 196h227m16 0h7M0 197h227m16 0h7M0 198h227m15 0h8M0 199h228m13 0h9"/><path stroke="#0091ea" d="M27 119h3m1 0h9m-8 1h7m-7 1h7m-6 1h5m-5 1h4m-7 1h2m2 0h2m-5 1h1m2 0h2m-5 1h1m2 0h2m-2 5h2m-2 1h2m-2 1h2m-2 1h2m-10 1h2m-3 1h3m-4 1h4m-5 1h5m-5 1h4m5 0h4m-14 1h5m5 0h4m-14 1h4m5 0h3m-12 1h4m5 0h3m-12 1h3m-3 1h3m-5 1h4m5 0h3m-12 1h4m5 0h3m-12 1h3m6 0h8m-18 1h4m6 0h8m-19 1h3m8 0h8m-20 1h4m8 0h8m-21 1h3m10 0h8m-21 1h3m11 0h7m-22 1h2m13 0h7m-24 1h4m13 0h6m-24 1h2m17 0h5m-25 1h3m18 0h3m-25 1h6m16 0h3m-26 1h7m-8 1h2m-3 1h3m21 0h2m-27 1h4m-4 1h4m-5 1h8m-9 1h7m-8 1h6m-7 1h5m-6 1h6m-6 1h5m-6 1h5m-5 1h5m-5 1h4m9 0h1m-14 1h4m9 0h1m-14 1h3m-3 1h2m-2 1h1m7 2h1m-2 1h2m-4 1h8m-9 1h8m-10 1h9m-10 1h9m-10 1h8m-8 1h6m-6 1h3m-3 1h2m-2 1h1"/><path stroke="#1979b0" d="M30 119h1"/><path stroke="#8f7241" d="M88 119h1"/><path stroke="#1565c0" d="M32 122h1m-1 1h1m-1 1h2m-1 1h1m-1 1h1m-1 5h1m-1 1h1m-1 1h1m-1 1h1m-2 3h1m-2 1h2m-2 1h1m-2 1h2m-2 1h1m-2 1h2m-2 1h1m-2 1h2m-2 1h1m-1 1h1m-1 1h1m-1 1h1m-1 1h1m-1 1h1m-17 21h1m-2 1h2m-3 1h1m-1 1h1m-5 3h2m-4 1h3m-3 1h1m-3 1h2m-4 1h2m-2 1h1"/><path stroke="#507c3e" d="M240 122h1m-172 1h1m43 0h2m126 0h1m-127 1h1m125 0h1m-127 1h1m76 1h1m-1 1h1m37 2h1m-163 2h1m109 0h1m-114 1h1m40 1h1m123 0h1M56 147h1m-17 4h1m16 2h1m-2 1h1m-4 3h1m165 0h1m-172 1h1m169 6h1m-10 16h1m-1 1h1m-1 1h1m-1 1h1m-176 1h1m170 5h1m-180 1h1m174 0h1m37 0h1m-220 1h5m215 0h1m-12 8h1m8 0h2"/><path stroke="#538436" d="M241 122h1m-172 1h2m43 0h1m126 0h1m-127 1h1m125 0h1m-186 1h1m58 0h1m-59 1h1m57 0h1m76 0h1m40 0h1m-42 1h1m-79 1h1m-45 1h1m-14 1h1m119 0h2m50 0h1m-119 1h1m64 0h1m-110 1h1m107 0h1m12 0h1m-126 1h3m31 0h1m9 0h1m67 0h1m11 0h1m-128 1h1m43 0h2m69 0h1m10 0h1m44 0h1m-133 1h1m1 0h2m73 0h1m0 1h1m50 0h1m-47 1h1m-171 3h5m41 6h1m0 1h1m0 1h1m-19 1h1m17 0h1m-22 1h2m-3 1h1m20 0h1m-23 1h1m21 0h1m-23 1h1m-1 1h1m194 0h1m-196 1h1m194 0h1m-194 2h1m1 1h2m9 0h1m-9 1h1m1 0h5m162 1h1m14 0h1m-16 1h1m13 0h1m-15 1h1m2 3h8M37 176h1m-8 3h2m178 1h1m-174 1h1m172 0h1m-184 1h1m182 0h1m-184 1h1m7 0h1m174 0h1m-184 1h1m7 0h1m173 1h1m-192 1h1m15 0h1m-18 1h1m2 0h1m12 0h1m-18 1h1m15 0h1m159 0h1m14 0h1m-192 1h1m13 0h1m175 0h1m-190 1h1m185 0h3m32 0h1m1 0h1m-223 1h1m7 0h1m167 0h1m5 0h2m39 0h1m-222 1h5m204 1h1m11 0h1m-14 1h1m-2 1h1m-1 1h1m-1 1h1m14 0h1m-16 1h1m0 1h1"/><path stroke="#51803a" d="M67 123h1m4 1h1m0 1h1m167 0h1m-127 2h1m117 0h1m-180 1h1m16 0h1m120 0h1m-79 1h1m116 0h1m-212 1h1m49 0h1m42 0h1m-45 1h1m-3 1h1m42 0h1m-48 1h1m169 0h1m-214 1h1m-12 1h1m-1 1h1m169 0h1m1 1h2m-165 3h2m32 7h1m-11 3h1m16 3h1m172 3h1m-192 1h1m12 0h1m162 0h2m-175 1h1m182 4h1m-13 1h1m10 0h1m-11 1h1m8 0h1M36 177h1m1 0h1m0 1h1m-8 1h1m-4 1h1m-2 1h1m7 0h1m-2 1h1m159 2h1m13 0h1m-176 1h1m159 0h1m-2 1h1m14 0h1m-190 1h1m11 1h1m-5 2h1m-9 1h1m5 0h1m169 0h5m41 1h1m-1 4h1m-1 2h1m-2 1h1"/><path stroke="#507d3d" d="M68 123h1m-12 3h1m57 0h1m-46 3h1m-50 1h1m44 2h1m-6 1h1m-4 14h1m1 2h1m-2 3h1m172 3h1m-191 2h1m3 1h1m170 6h1M18 187h1m210 7h1"/><path stroke="#548833" d="M72 123h1m0 1h1m0 1h1m-17 21h1m-5 12h1m-9 1h1m-9 17h1m0 1h1m0 1h1m155 5h1m-169 7h1m212 5h1m0 1h1"/><path stroke="#4f7b41" d="M240 123h1m-128 1h2m-46 1h2m36 0h1m5 0h1m-47 1h1m1 0h2m36 0h1m80 0h4m40 0h1m-168 1h3m1 0h1m41 0h1m77 0h3m-137 1h2m10 0h1m1 0h1m39 0h4m75 0h3m-135 1h1m8 0h1m43 0h5m73 0h3m-134 1h1m8 0h2m38 0h2m1 0h1m1 0h2m74 0h3m43 0h1m-177 1h1m48 0h2m1 0h2m76 0h3m43 0h2m-212 1h1m83 0h2m70 0h2m6 0h2m-176 1h2m164 0h2m6 0h1m-176 1h3m164 0h1m-169 1h3m8 0h1m157 0h1m-170 1h4m-3 1h3m6 0h1m-9 1h1m1 0h5m1 0h2m32 10h1m1 0h3m-5 1h1m1 0h1m1 0h1m-6 1h4m-14 1h1m7 0h4m2 0h1m-18 1h2m9 0h5m-16 1h2m8 0h1m2 0h1m-14 1h1m9 1h1m1 0h1m174 0h5m-181 1h2m174 0h2m1 0h1m-184 1h6m172 0h3m1 0h1m-12 1h1m6 0h2m1 0h1m-12 1h2m6 0h1m1 0h1m-11 1h2m6 0h2m-11 1h3m6 0h2m-10 1h2m6 0h1m-8 1h1M32 180h2m174 0h1m-180 1h3m1 0h2m172 0h2m-180 1h1m1 0h3m173 0h2m-180 1h3m1 0h1m173 0h2m-180 1h5m172 0h2m-179 1h2m1 0h1m162 0h1m1 0h1m7 0h3m-179 1h3m162 0h2m1 0h1m6 0h3m-179 1h3m163 0h1m1 0h2m6 0h3m-12 1h3m6 0h2m-188 1h3m2 0h2m169 0h4m-179 1h6m170 0h5m39 2h1m-2 1h2m-4 1h4m-4 1h3m-10 1h1m6 0h2m1 0h1m-11 1h1m6 0h4m-11 1h1m6 0h4"/><path stroke="#4f7b40" d="M67 124h4m-6 1h2m4 0h1m36 0h1m1 0h1m3 0h1m-44 1h1m36 0h1m3 0h1m1 0h1m-44 1h1m34 0h1m2 0h2m3 0h1m117 0h1m-176 1h1m12 0h1m34 0h1m7 0h1m117 0h1m2 0h1m-169 1h2m37 0h2m79 0h1m-130 1h1m11 0h1m163 0h2m-214 1h2m43 0h2m-56 1h2m6 0h1m87 0h1m79 0h1m41 0h1m1 0h1m-222 1h1m165 1h1m8 0h1m-167 2h1m160 0h1m1 0h1m-163 1h1m-11 1h1m3 1h1m2 0h2m37 10h1m-15 1h1m13 0h1m-3 1h1m1 1h2m-17 1h1m11 0h2m-14 1h1m10 0h1m-14 1h3m10 1h2m-10 1h1m171 1h1m9 2h1m-13 1h1M31 180h1m4 0h1m169 0h2m-180 2h1m5 0h1m169 0h1m1 1h1m-175 3h1m-14 2h1m2 1h1m2 0h3m176 0h1m34 2h1m-3 1h1m2 1h1m-12 2h1m6 4h1"/><path stroke="#4f7c3f" d="M71 124h1m-50 6h1m35 1h1m118 1h1m-1 1h1m-164 6h1m38 8h1m5 4h1m-21 1h1m-1 1h1m-1 1h1m17 0h1m-19 1h1m16 0h1m173 2h1m-181 1h1m178 0h1m-15 2h1M35 181h1m-6 7h1m162 0h1m-177 1h1m210 7h1m-1 1h1m-1 1h1"/><path stroke="#0277bd" d="M30 125h1m1 0h1m-5 1h3m1 0h1m-5 1h5m-4 1h3m-3 1h1m-1 1h2m-2 1h1m-1 1h1m-3 1h1m1 0h1m-4 1h2"/><path stroke="#4e342e" d="M59 125h6m-6 1h6m-6 1h4m36 0h6m-46 1h4m36 0h6m75 0h6m42 0h2m-171 1h2m38 0h4m77 0h6m42 0h2m-216 1h6m39 0h2m38 0h4m77 0h4m-170 1h6m39 0h2m38 0h2m79 0h4m-170 1h4m81 0h2m79 0h2m-168 1h4m81 0h2m79 0h2m-168 1h2m83 0h2m79 0h2m-168 1h2m164 0h2m-168 1h2m-2 1h2m28 12h6m-6 1h6m-6 1h4m-4 1h4m-4 1h2m-2 1h2m-2 1h2m-2 1h2m174 1h5m-6 1h6m-6 1h4m-4 1h4m-4 1h2m-2 1h2m-2 1h2m-2 1h2M21 181h6m-6 1h6m171 0h6m-183 1h4m173 0h6m-183 1h4m173 0h4m-181 1h2m175 0h4m-181 1h2m175 0h2m-179 1h2m175 0h2m-2 1h2m-2 1h2m30 3h6m-6 1h6m-6 1h4m-4 1h4m-4 1h2m-2 1h2m-2 1h2m-2 1h2"/><path stroke="#507b40" d="M67 125h1m41 0h1m-45 1h1m47 1h1m-48 1h1m41 0h1m82 0h1m-135 1h1m132 0h1m-124 1h1m121 0h1m-133 1h1m52 0h1m-90 1h1m211 0h1m-52 4h1M41 154h1m1 2h1m0 1h1m180 6h1M36 178h2m-1 1h1m168 2h1m1 3h1m-176 1h1m173 1h1m-177 1h1m-11 2h1m3 1h1m214 8h1"/><path stroke="#4f7c41" d="M68 125h1m1 2h1m-50 9h1"/><path stroke="#507d3f" d="M72 125h1m-18 31h1m-18 22h1"/><path stroke="#4f7b3f" d="M111 125h2m-4 1h3m-55 1h1m0 1h1m55 0h1m118 1h1m-166 1h1m110 1h1m-75 2h1m125 0h2m-55 2h1m-163 4h1m42 10h1m-19 2h1m16 0h1m-1 2h1m-9 1h1m-11 2h1m190 0h1m-189 1h1m5 1h1m1 0h1m176 2h1m-2 1h1m-2 1h1M30 180h1m4 0h1m1 0h1m-4 3h1m169 0h1m3 2h1m-176 1h1m-7 1h1m4 0h1m-15 1h1m1 0h1m185 0h1m-189 2h1m175 0h1m42 9h1"/><path stroke="#4e7a41" d="M66 126h1m40 3h2m-87 4h1m29 21h1m-25 30h1m171 6h1m37 6h1"/><path stroke="#4f7a41" d="M68 126h1m44 0h1m-46 2h1m161 0h1m-163 1h2m37 1h1m-95 5h1m-1 3h1m38 10h1m2 0h1m-6 1h2m1 0h1m1 0h1m-6 1h2m-2 1h1m5 0h1m-15 1h2m6 0h1m1 1h1m-2 1h1m-9 1h1m7 0h1m-2 1h1m165 3h1m-1 1h1m-1 2h1m0 1h1M32 183h1m164 1h1m-2 1h1m-3 3h1"/><path stroke="#507c3f" d="M72 126h1m-51 2h1m84 0h1m78 0h2m-77 3h1m-102 3h1m10 0h1m-12 3h1m9 2h1m38 11h1m-17 4h1m10 0h1m173 5h1M38 179h1m167 3h1m-179 1h1m168 0h1m6 2h1m-178 3h1m1 0h1m206 5h1m3 3h1"/><path stroke="#528139" d="M73 126h1m-2 1h1m161 0h1M20 140h1m39 10h1m-6 7h1m-4 1h1m-14 21h1m-2 1h1m165 4h1m-176 5h1"/><path stroke="#507d3e" d="M233 126h1m-214 7h1m159 3h1M54 147h2m1 0h1m1 0h1m0 1h1m-6 7h1m-9 3h1m-11 19h1m158 7h1m-170 2h1m-11 2h1m210 7h1m12 2h1"/><path stroke="#4f7c3e" d="M58 127h1m-46 12h1m20 40h1m170 3h1"/><path stroke="#5d4037" d="M63 127h2m-2 1h2m-4 1h4m38 0h2m-44 1h4m38 0h2m79 0h2m42 0h2m-169 1h4m36 0h4m79 0h2m43 0h1m-212 1h2m41 0h4m36 0h4m77 0h4m-168 1h2m81 0h4m77 0h4m-170 1h4m81 0h4m77 0h4m-170 1h4m162 0h4m-170 1h4m-4 1h4m28 14h2m-2 1h2m-4 1h4m-4 1h4m-4 1h4m-4 1h4m173 3h2m-2 1h2m-4 1h4m-4 1h4m-4 1h4m-4 1h4M25 183h2m-2 1h2m175 0h2m-181 1h4m175 0h2m-181 1h3m174 0h4m-181 1h1m176 0h4m-4 1h4m-4 1h4m30 5h2m-2 1h2m-4 1h4m-4 1h4m-4 1h4m-4 1h4"/><path stroke="#507b41" d="M68 127h1m43 0h1m-48 1h1m43 2h1m-45 1h1m41 0h1m-3 1h1m73 2h1m-161 4h1m33 10h1m-2 1h1m-1 1h1m-2 3h1m177 3h1m-184 1h1m181 0h1m-2 1h1m-2 1h1M32 181h1m-3 1h1m0 3h1m164 1h1m-2 1h1m42 5h1"/><path stroke="#4f7a40" d="M105 127h1m1 0h1m80 0h1m-83 1h1m5 2h1m74 3h1m-171 6h1m41 9h1m-2 2h1m-3 2h1m-14 1h1m9 2h1m-26 31h1m209 5h1m0 4h1"/><path stroke="#4e7b41" d="M108 127h1m-67 24h1"/><path stroke="#60514c" d="M23 128h1"/><path stroke="#176da0" d="M24 128h1m1 0h1m-2 2h2m-2 1h1m-1 1h1"/><path stroke="#176ea0" d="M25 128h1m-1 1h1m-2 2h1m1 0h1m-2 2h1m-2 1h1"/><path stroke="#266db1" d="M27 128h1"/><path stroke="#0b73b1" d="M28 128h1m-2 4h1"/><path stroke="#039be5" d="M32 128h1m-3 1h3m-2 1h2m-3 1h3m-3 1h3m-3 1h3m-4 1h4m-4 1h2m-2 1h2m-2 1h3m-3 1h2m-2 1h2m-3 1h2m-2 1h2m-3 1h2m-2 1h2m-3 1h2m-2 1h2m-3 1h3m-3 1h3m-3 1h3m-3 1h3m-3 1h3m-16 15h2m-4 1h4m-7 3h3m-4 1h4m-4 1h6m-7 1h6m-6 1h5m-6 1h6m-7 1h4m-5 1h5m-7 1h6m-6 1h4m-4 1h4m-4 1h2"/><path stroke="#507e3c" d="M232 128h1m-211 1h1m5 60h1m211 6h1"/><path stroke="#517f3c" d="M233 128h1m-2 1h1M56 156h1m-24 23h1m206 15h1"/><path stroke="#60504b" d="M23 129h1"/><path stroke="#166da1" d="M24 129h1"/><path stroke="#167fbf" d="M26 129h1m-4 7h1"/><path stroke="#156ea2" d="M27 129h1m-1 1h1"/><path stroke="#1f72c3" d="M28 129h1m-1 1h1"/><path stroke="#507e3d" d="M58 129h1m132 0h1m-2 1h1m40 0h1m-219 1h1m175 0h1m40 0h1m-122 1h1m124 0h1m-214 1h1m40 0h1m44 0h1m-88 2h1m163 1h1m-173 3h1m45 15h1m-2 1h1m173 2h1m-16 1h1m13 0h1m-16 1h1m13 0h1M35 178h1m169 5h1m-1 1h1m-179 1h1m165 2h1m13 0h1m-6 3h1"/><path stroke="#507a40" d="M234 129h1m-4 2h1m-1 1h1M41 156h2m173 7h1M35 179h2"/><path stroke="#5f504c" d="M23 130h1"/><path stroke="#166ca0" d="M24 130h1"/><path stroke="#4f7c40" d="M20 131h1m7 54h1m208 8h1"/><path stroke="#60504d" d="M23 131h1m-2 6h1"/><path stroke="#0e84cd" d="M27 131h1"/><path stroke="#1976d2" d="M28 131h1m-1 1h1m-1 1h1m-1 1h1m-1 1h1m-1 1h1m-1 1h1m-1 1h1m-2 1h2m-2 1h1m-2 1h2m-2 1h1m-2 1h2m-2 1h1m-2 1h2m-2 1h1m-12 17h1m-3 1h3m-5 1h3m-5 1h3m-3 1h1m-2 1h2m-3 1h2m-2 1h1m-2 1h2m-2 1h1m-2 1h2m-3 1h2m-3 1h2m-3 1h2"/><path stroke="#507c40" d="M234 131h1M56 153h1m-2 1h1m-22 26h1m205 12h1m-1 5h1"/><path stroke="#5f514d" d="M23 132h1m-1 1h1m-1 1h1m-2 1h1"/><path stroke="#167fbe" d="M24 132h1"/><path stroke="#156da1" d="M26 132h1"/><path stroke="#1680bf" d="M24 133h1"/><path stroke="#1070aa" d="M26 133h1m-2 2h1"/><path stroke="#60514d" d="M22 134h1m-1 2h1"/><path stroke="#146ea4" d="M25 134h1"/><path stroke="#167fbd" d="M23 135h1"/><path stroke="#166da0" d="M24 135h1"/><path stroke="#126fa6" d="M24 136h1"/><path stroke="#1480c1" d="M23 137h1"/><path stroke="#604f4c" d="M22 138h1"/><path stroke="#614f4b" d="M21 139h1"/><path stroke="#507b3f" d="M54 155h1m-27 33h1"/><path stroke="#507f3c" d="M45 158h1"/><path stroke="#507e3e" d="M215 162h1"/><path stroke="#205d29" d="M34 178h1"/><path stroke="#5a433d" d="M26 186h1m-3 1h2"/><path stroke="#574440" d="M26 187h1m-4 1h1"/><path stroke="#4b3b39" d="M21 188h1"/><path stroke="#4d3935" d="M22 188h1"/><path stroke="#564744" d="M24 188h1"/><path stroke="#544745" d="M25 188h1"/><path stroke="#554846" d="M26 188h1"/></svg>