<svg xmlns="http://www.w3.org/2000/svg" viewBox="0 -0.5 64 64" shape-rendering="crispEdges">
<metadata>Made with Pixels to Svg https://codepen.io/shshaw/pen/XbxvNj</metadata>
<path stroke="#000000" d="M6 7h16M40 7h18M5 8h1M9 8h4M22 8h1M39 8h1M50 8h5M58 8h1M4 9h1M8 9h1M13 9h1M22 9h1M39 9h1M49 9h1M55 9h1M59 9h1M3 10h1M7 10h1M11 10h1M14 10h1M22 10h1M39 10h1M48 10h1M51 10h3M56 10h1M60 10h1M2 11h1M6 11h1M10 11h3M15 11h1M18 11h4M40 11h5M47 11h1M51 11h1M53 11h1M57 11h1M61 11h1M1 12h1M6 12h1M8 12h4M13 12h1M15 12h1M17 12h1M23 12h2M37 12h2M45 12h1M47 12h1M49 12h3M53 12h1M57 12h1M62 12h1M0 13h1M6 13h1M8 13h4M13 13h1M15 13h1M17 13h1M22 13h2M25 13h1M36 13h2M39 13h1M45 13h1M47 13h1M49 13h1M51 13h1M53 13h3M57 13h1M63 13h1M0 14h1M6 14h1M8 14h4M13 14h1M15 14h1M17 14h1M22 14h2M25 14h1M36 14h2M39 14h1M45 14h1M47 14h1M49 14h1M51 14h1M53 14h1M55 14h1M57 14h1M63 14h1M0 15h1M6 15h1M10 15h3M15 15h1M18 15h5M25 15h1M36 15h1M39 15h6M47 15h1M49 15h7M57 15h1M63 15h1M0 16h1M7 16h1M11 16h1M14 16h1M22 16h1M25 16h1M36 16h1M39 16h1M48 16h1M56 16h1M63 16h1M0 17h1M8 17h1M13 17h1M22 17h1M25 17h1M36 17h1M39 17h1M49 17h1M55 17h1M63 17h1M0 18h1M8 18h18M36 18h20M63 18h1M0 19h1M7 19h1M22 19h1M25 19h1M36 19h1M39 19h1M56 19h1M63 19h1M0 20h1M7 20h1M22 20h1M25 20h1M36 20h1M39 20h1M56 20h1M63 20h1M0 21h1M7 21h1M20 21h2M26 21h10M40 21h3M56 21h1M63 21h1M0 22h1M7 22h1M18 22h2M43 22h2M56 22h1M63 22h1M0 23h1M7 23h1M17 23h1M45 23h1M56 23h1M63 23h1M0 24h1M7 24h1M16 24h1M46 24h1M56 24h1M63 24h1M0 25h1M7 25h1M15 25h1M47 25h1M56 25h1M63 25h1M0 26h1M8 26h7M48 26h8M63 26h1M0 27h1M13 27h1M49 27h2M63 27h1M0 28h1M12 28h1M51 28h1M63 28h1M0 29h1M11 29h1M52 29h1M63 29h1M0 30h1M10 30h1M16 30h32M53 30h1M63 30h1M0 31h1M10 31h1M16 31h1M47 31h1M53 31h1M63 31h1M1 32h1M9 32h1M16 32h1M47 32h1M54 32h1M62 32h1M2 33h1M8 33h1M16 33h1M20 33h3M24 33h5M31 33h2M35 33h3M40 33h5M47 33h1M55 33h1M61 33h1M3 34h6M16 34h1M19 34h1M26 34h1M30 34h1M33 34h1M35 34h1M38 34h1M42 34h1M47 34h1M55 34h6M8 35h1M16 35h1M20 35h2M26 35h1M30 35h4M35 35h3M42 35h1M47 35h1M55 35h1M8 36h1M16 36h1M22 36h1M26 36h1M30 36h1M33 36h1M35 36h1M37 36h1M42 36h1M47 36h1M55 36h1M5 37h4M16 37h1M19 37h3M26 37h1M30 37h1M33 37h1M35 37h1M38 37h1M42 37h1M47 37h1M55 37h4M4 38h1M9 38h1M16 38h1M47 38h1M59 38h1M3 39h2M9 39h1M16 39h1M47 39h1M59 39h2M2 40h1M7 40h5M16 40h32M51 40h5M61 40h1M1 41h2M7 41h1M11 41h1M51 41h1M55 41h1M61 41h2M0 42h1M5 42h2M11 42h1M51 42h1M56 42h2M63 42h1M0 43h1M5 43h1M8 43h4M51 43h4M57 43h1M63 43h1M1 44h4M7 44h1M12 44h1M50 44h1M55 44h1M58 44h5M6 45h2M12 45h1M50 45h1M55 45h2M5 46h1M10 46h4M49 46h4M57 46h1M3 47h3M10 47h1M13 47h1M49 47h1M52 47h1M57 47h3M2 48h1M8 48h2M14 48h1M48 48h1M53 48h2M60 48h1M2 49h1M8 49h1M15 49h33M54 49h1M60 49h1M3 50h5M55 50h5" />
<path stroke="#d50000" d="M6 8h3M13 8h9M40 8h10M55 8h3M5 9h3M14 9h8M40 9h9M56 9h3M4 10h3M15 10h7M40 10h8M57 10h3M3 11h3M16 11h2M45 11h2M58 11h3M2 12h4M16 12h1M46 12h1M58 12h4M1 13h5M16 13h1M46 13h1M58 13h5M1 14h5M16 14h1M46 14h1M58 14h5M1 15h5M16 15h2M45 15h2M58 15h5M1 16h6M15 16h7M40 16h8M57 16h6M1 17h7M14 17h8M40 17h9M56 17h7M1 18h7M56 18h7M1 19h6M23 19h2M37 19h2M57 19h6M1 20h6M23 20h2M37 20h2M57 20h6M1 21h6M22 21h4M36 21h4M57 21h6M1 22h6M20 22h23M57 22h6M1 23h6M18 23h27M57 23h6M1 24h6M17 24h29M57 24h6M1 25h6M16 25h31M57 25h6M1 26h7M15 26h33M56 26h7M1 27h12M14 27h35M51 27h12M1 28h11M13 28h38M52 28h11M1 29h10M12 29h40M53 29h10M1 30h9M11 30h5M48 30h5M54 30h9M1 31h9M11 31h5M48 31h5M54 31h9M2 32h7M10 32h6M48 32h6M55 32h7M3 33h5M9 33h7M48 33h7M56 33h5M9 34h7M48 34h7M9 35h7M48 35h7M9 36h7M48 36h7M9 37h7M48 37h7M5 38h4M10 38h6M48 38h11M5 39h4M10 39h6M48 39h11M3 40h4M12 40h4M48 40h3M56 40h5M3 41h4M12 41h39M56 41h5M1 42h4M12 42h39M58 42h5M1 43h4M12 43h39M58 43h5M8 44h4M13 44h37M51 44h4M8 45h4M13 45h37M51 45h4M6 46h4M14 46h35M53 46h4M6 47h4M14 47h35M53 47h4M3 48h5M15 48h33M55 48h5M3 49h5M55 49h5" />
<path stroke="#ffffff" d="M9 9h4M50 9h5M8 10h3M12 10h2M49 10h2M54 10h2M7 11h3M13 11h2M48 11h3M52 11h1M54 11h3M7 12h1M12 12h1M14 12h1M48 12h1M52 12h1M54 12h3M7 13h1M12 13h1M14 13h1M38 13h1M48 13h1M50 13h1M52 13h1M56 13h1M7 14h1M12 14h1M14 14h1M24 14h1M38 14h1M48 14h1M50 14h1M52 14h1M54 14h1M56 14h1M7 15h3M13 15h2M23 15h2M37 15h2M48 15h1M56 15h1M8 16h3M12 16h2M23 16h2M37 16h2M49 16h7M9 17h4M23 17h2M37 17h1M50 17h5M17 31h30M17 32h30M17 33h3M23 33h1M29 33h2M33 33h2M38 33h2M45 33h2M17 34h2M20 34h6M27 34h3M31 34h2M34 34h1M36 34h2M39 34h3M43 34h4M17 35h3M22 35h4M27 35h3M34 35h1M38 35h4M43 35h4M17 36h5M23 36h3M27 36h3M31 36h2M34 36h1M36 36h1M38 36h4M43 36h4M17 37h2M22 37h4M27 37h3M31 37h2M34 37h1M36 37h2M39 37h3M43 37h4M17 38h30M17 39h30" />
</svg>