<svg xmlns="http://www.w3.org/2000/svg" viewBox="0 -0.5 64 64" shape-rendering="crispEdges">
<metadata>Made with Pixels to Svg https://codepen.io/shshaw/pen/XbxvNj</metadata>
<path stroke="#000000" d="M4 14h56M3 15h1M60 15h1M2 16h1M61 16h1M2 17h1M61 17h1M2 18h1M61 18h1M2 19h1M61 19h1M2 20h1M61 20h1M2 21h1M61 21h1M2 22h1M61 22h1M2 23h1M61 23h1M2 24h1M61 24h1M2 25h1M61 25h1M2 26h1M61 26h1M2 27h1M61 27h1M2 28h1M61 28h1M2 29h1M61 29h1M2 30h1M61 30h1M2 31h1M61 31h1M2 32h1M61 32h1M2 33h1M61 33h1M3 34h1M60 34h1M4 35h56" />
<path stroke="#81c784" d="M4 15h56M3 16h1M60 16h1M3 29h1M60 29h1M4 30h56" />
<path stroke="#66bb6a" d="M4 16h56M3 17h58M3 18h58M3 19h58M3 20h10M15 20h3M20 20h2M23 20h2M26 20h1M32 20h1M36 20h3M41 20h2M44 20h5M52 20h9M3 21h9M13 21h2M16 21h1M18 21h2M21 21h1M24 21h1M26 21h3M30 21h3M34 21h2M37 21h1M39 21h2M42 21h1M44 21h4M49 21h12M3 22h9M13 22h4M18 22h2M21 22h1M23 22h1M26 22h3M30 22h3M36 22h2M39 22h2M42 22h1M44 22h5M51 22h10M3 23h9M13 23h2M16 23h1M18 23h2M21 23h1M23 23h2M26 23h3M30 23h3M34 23h1M36 23h2M39 23h2M42 23h1M44 23h7M52 23h9M3 24h10M15 24h3M20 24h2M23 24h2M26 24h3M30 24h3M34 24h2M37 24h2M41 24h2M47 24h1M51 24h10M3 25h58M3 26h58M3 27h58M3 28h58M4 29h56" />
<path stroke="#ffffff" d="M13 20h2M18 20h2M22 20h1M25 20h1M27 20h5M33 20h3M39 20h2M43 20h1M49 20h3M12 21h1M15 21h1M17 21h1M20 21h1M22 21h2M25 21h1M29 21h1M33 21h1M36 21h1M38 21h1M41 21h1M43 21h1M48 21h1M12 22h1M17 22h1M20 22h1M22 22h1M24 22h2M29 22h1M33 22h3M38 22h1M41 22h1M43 22h1M49 22h2M12 23h1M15 23h1M17 23h1M20 23h1M22 23h1M25 23h1M29 23h1M33 23h1M35 23h1M38 23h1M41 23h1M43 23h1M51 23h1M13 24h2M18 24h2M22 24h1M25 24h1M29 24h1M33 24h1M36 24h1M39 24h2M43 24h4M48 24h3" />
<path stroke="#1b5e20" d="M3 30h1M60 30h1M3 31h58M3 32h58M3 33h58M4 34h56" />
</svg>