<svg xmlns="http://www.w3.org/2000/svg" viewBox="0 -0.5 340 200" shape-rendering="crispEdges">
<metadata>Made with Pixels to Svg https://codepen.io/shshaw/pen/XbxvNj</metadata>
<path stroke="#000000" d="M0 0h340M0 1h340M0 2h340M0 3h340M0 4h340M0 5h340M0 6h340M0 7h340M0 8h340M0 9h340M0 10h340M0 11h340M0 12h340M0 13h340M0 14h340M0 15h340M0 16h340M0 17h340M0 18h340M0 19h28M52 19h16M76 19h16M100 19h240M0 20h28M52 20h16M76 20h16M100 20h240M0 21h28M52 21h16M76 21h16M100 21h240M0 22h28M52 22h16M76 22h16M100 22h240M0 23h28M52 23h16M76 23h16M100 23h240M0 24h28M52 24h16M76 24h16M100 24h240M0 25h28M52 25h16M76 25h16M100 25h240M0 26h28M52 26h16M76 26h16M100 26h240M0 27h28M36 27h16M60 27h8M76 27h16M100 27h240M0 28h28M36 28h16M60 28h8M76 28h16M100 28h240M0 29h28M36 29h16M60 29h8M76 29h16M100 29h240M0 30h28M36 30h16M60 30h8M76 30h16M100 30h240M0 31h28M36 31h16M60 31h8M76 31h16M100 31h240M0 32h28M36 32h16M60 32h8M76 32h16M100 32h240M0 33h28M36 33h16M60 33h8M76 33h16M100 33h240M0 34h28M36 34h16M60 34h8M76 34h16M100 34h240M0 35h28M36 35h16M60 35h8M76 35h16M100 35h240M0 36h28M36 36h16M60 36h8M76 36h16M100 36h240M0 37h28M36 37h16M60 37h8M76 37h16M100 37h240M0 38h28M36 38h16M60 38h8M76 38h16M100 38h240M0 39h28M36 39h16M60 39h8M76 39h16M100 39h240M0 40h28M36 40h16M60 40h8M76 40h16M100 40h240M0 41h28M36 41h16M60 41h8M76 41h16M100 41h240M0 42h28M36 42h16M60 42h8M76 42h16M100 42h240M0 43h28M36 43h16M60 43h8M76 43h16M100 43h240M0 44h28M36 44h16M60 44h8M76 44h16M100 44h240M0 45h28M36 45h16M60 45h8M76 45h16M100 45h240M0 46h28M36 46h16M60 46h8M76 46h16M100 46h240M0 47h28M36 47h16M60 47h8M76 47h16M100 47h240M0 48h28M36 48h16M60 48h8M76 48h16M100 48h240M0 49h28M36 49h16M60 49h8M76 49h16M100 49h240M0 50h28M36 50h16M60 50h8M76 50h16M100 50h240M0 51h28M52 51h24M92 51h248M0 52h28M52 52h24M92 52h248M0 53h28M52 53h24M92 53h248M0 54h28M52 54h24M92 54h248M0 55h28M52 55h24M92 55h248M0 56h28M52 56h24M92 56h248M0 57h28M52 57h24M92 57h248M0 58h28M52 58h24M92 58h248M0 59h340M0 60h340M0 61h340M0 62h340M0 63h340M0 64h340M0 65h340M0 66h261M271 66h36M317 66h23M0 67h259M273 67h32M319 67h21M0 68h257M275 68h28M321 68h19M0 69h256M276 69h26M322 69h18M0 70h255M264 70h4M277 70h24M310 70h4M323 70h17M0 71h254M262 71h8M278 71h22M308 71h8M324 71h16M0 72h254M260 72h12M278 72h22M306 72h12M324 72h16M0 73h254M259 73h14M278 73h22M305 73h14M324 73h16M0 74h253M258 74h16M279 74h20M304 74h16M325 74h15M0 75h253M258 75h16M279 75h20M304 75h16M325 75h15M0 76h30M38 76h24M70 76h16M102 76h16M126 76h16M150 76h8M182 76h16M238 76h15M258 76h16M279 76h20M304 76h16M325 76h15M0 77h30M38 77h24M70 77h16M102 77h16M126 77h16M150 77h8M182 77h16M238 77h15M257 77h18M279 77h20M303 77h18M325 77h15M0 78h30M38 78h24M70 78h16M102 78h16M126 78h16M150 78h8M182 78h16M238 78h15M257 78h18M279 78h20M303 78h18M325 78h15M0 79h30M38 79h24M70 79h16M102 79h16M126 79h16M150 79h8M182 79h16M238 79h15M258 79h16M279 79h20M304 79h16M325 79h15M0 80h30M38 80h24M70 80h16M102 80h16M126 80h16M150 80h8M182 80h16M238 80h15M258 80h16M279 80h20M304 80h16M325 80h15M0 81h30M38 81h24M70 81h16M102 81h16M126 81h16M150 81h8M182 81h16M238 81h15M258 81h16M279 81h20M304 81h16M325 81h15M0 82h30M38 82h24M70 82h16M102 82h16M126 82h16M150 82h8M182 82h16M238 82h16M259 82h14M278 82h22M305 82h14M324 82h16M0 83h30M38 83h24M70 83h16M102 83h16M126 83h16M150 83h8M182 83h16M238 83h16M260 83h12M278 83h22M306 83h12M324 83h16M0 84h30M38 84h24M70 84h8M86 84h16M110 84h8M134 84h8M150 84h8M166 84h16M190 84h24M222 84h32M262 84h8M278 84h22M308 84h8M324 84h16M0 85h30M38 85h24M70 85h8M86 85h16M110 85h8M134 85h8M150 85h8M166 85h16M190 85h24M222 85h33M264 85h4M277 85h24M310 85h4M323 85h17M0 86h30M38 86h24M70 86h8M86 86h16M110 86h8M134 86h8M150 86h8M166 86h16M190 86h24M222 86h34M276 86h26M322 86h18M0 87h30M38 87h24M70 87h8M86 87h16M110 87h8M134 87h8M150 87h8M166 87h16M190 87h24M222 87h35M275 87h28M321 87h19M0 88h30M38 88h24M70 88h8M86 88h16M110 88h8M134 88h8M150 88h8M166 88h16M190 88h24M222 88h37M273 88h32M319 88h21M0 89h30M38 89h24M70 89h8M86 89h16M110 89h8M134 89h8M150 89h8M166 89h16M190 89h24M222 89h39M271 89h36M317 89h23M0 90h30M38 90h24M70 90h8M86 90h16M110 90h8M134 90h8M150 90h8M166 90h16M190 90h24M222 90h118M0 91h30M38 91h24M70 91h8M86 91h16M110 91h8M134 91h8M150 91h8M166 91h16M190 91h24M222 91h118M0 92h38M46 92h8M62 92h16M110 92h8M126 92h8M150 92h8M166 92h16M190 92h24M222 92h118M0 93h38M46 93h8M62 93h16M110 93h8M126 93h8M150 93h8M166 93h16M190 93h24M222 93h118M0 94h38M46 94h8M62 94h16M110 94h8M126 94h8M150 94h8M166 94h16M190 94h24M222 94h118M0 95h38M46 95h8M62 95h16M110 95h8M126 95h8M150 95h8M166 95h16M190 95h24M222 95h118M0 96h38M46 96h8M62 96h16M110 96h8M126 96h8M150 96h8M166 96h16M190 96h24M222 96h118M0 97h38M46 97h8M62 97h16M110 97h8M126 97h8M150 97h8M166 97h16M190 97h24M222 97h118M0 98h38M46 98h8M62 98h16M110 98h8M126 98h8M150 98h8M166 98h16M190 98h24M222 98h118M0 99h38M46 99h8M62 99h16M110 99h8M126 99h8M150 99h8M166 99h16M190 99h24M222 99h118M0 100h38M46 100h8M62 100h16M86 100h16M110 100h8M126 100h16M150 100h8M166 100h16M190 100h24M222 100h118M0 101h38M46 101h8M62 101h16M86 101h16M110 101h8M126 101h16M150 101h8M166 101h16M190 101h24M222 101h118M0 102h38M46 102h8M62 102h16M86 102h16M110 102h8M126 102h16M150 102h8M166 102h16M190 102h24M222 102h118M0 103h38M46 103h8M62 103h16M86 103h16M110 103h8M126 103h16M150 103h8M166 103h16M190 103h24M222 103h118M0 104h38M46 104h8M62 104h16M86 104h16M110 104h8M126 104h16M150 104h8M166 104h16M190 104h24M222 104h118M0 105h38M46 105h8M62 105h16M86 105h16M110 105h8M126 105h16M150 105h8M166 105h16M190 105h24M222 105h118M0 106h38M46 106h8M62 106h16M86 106h16M110 106h8M126 106h16M150 106h8M166 106h16M190 106h24M222 106h41M267 106h73M0 107h38M46 107h8M62 107h16M86 107h16M110 107h8M126 107h16M150 107h8M166 107h16M190 107h24M222 107h41M267 107h50M321 107h19M0 108h46M54 108h24M86 108h16M110 108h8M126 108h16M150 108h8M182 108h32M222 108h41M268 108h48M321 108h19M0 109h46M54 109h24M86 109h16M110 109h8M126 109h16M150 109h8M182 109h32M222 109h41M269 109h46M321 109h19M0 110h46M54 110h24M86 110h16M110 110h8M126 110h16M150 110h8M182 110h32M222 110h41M270 110h44M321 110h19M0 111h46M54 111h24M86 111h16M110 111h8M126 111h16M150 111h8M182 111h32M222 111h42M272 111h40M320 111h20M0 112h46M54 112h24M86 112h16M110 112h8M126 112h16M150 112h8M182 112h32M222 112h43M274 112h36M319 112h21M0 113h46M54 113h24M86 113h16M110 113h8M126 113h16M150 113h8M182 113h32M222 113h44M276 113h32M318 113h22M0 114h46M54 114h24M86 114h16M110 114h8M126 114h16M150 114h8M182 114h32M222 114h45M280 114h24M317 114h23M0 115h46M54 115h24M86 115h16M110 115h8M126 115h16M150 115h8M182 115h32M222 115h47M285 115h14M315 115h25M0 116h271M313 116h27M0 117h273M311 117h29M0 118h277M307 118h33M0 119h282M302 119h38M0 120h340M0 121h340M0 122h340M0 123h340M0 124h340M0 125h340M0 126h340M0 127h340M0 128h340M0 129h340M0 130h340M0 131h340M0 132h340M0 133h340M0 134h340M0 135h340M0 136h340M0 137h340M0 138h340M0 139h27M33 139h6M48 139h6M66 139h3M78 139h6M93 139h3M111 139h3M118 139h17M144 139h3M156 139h3M162 139h9M174 139h6M186 139h6M195 139h6M204 139h9M216 139h6M225 139h6M237 139h6M246 139h15M267 139h6M285 139h3M297 139h43M0 140h27M33 140h6M48 140h6M66 140h3M78 140h6M93 140h3M111 140h3M118 140h17M144 140h3M156 140h3M162 140h9M174 140h6M186 140h6M195 140h6M204 140h9M216 140h6M225 140h6M237 140h6M246 140h15M267 140h6M285 140h3M297 140h43M0 141h27M33 141h6M48 141h6M66 141h3M78 141h6M93 141h3M111 141h3M118 141h17M144 141h3M156 141h3M162 141h9M174 141h6M186 141h6M195 141h6M204 141h9M216 141h6M225 141h6M237 141h6M246 141h15M267 141h6M285 141h3M297 141h43M0 142h24M27 142h6M36 142h3M42 142h6M51 142h3M57 142h12M72 142h6M81 142h6M90 142h12M105 142h9M118 142h14M135 142h15M153 142h6M165 142h3M174 142h3M180 142h6M189 142h3M198 142h3M204 142h9M216 142h6M225 142h3M231 142h6M240 142h3M246 142h12M261 142h12M276 142h12M291 142h6M300 142h40M0 143h24M27 143h6M36 143h3M42 143h6M51 143h3M57 143h12M72 143h6M81 143h6M90 143h12M105 143h27M135 143h15M153 143h6M165 143h3M174 143h3M180 143h6M189 143h3M198 143h3M204 143h9M216 143h6M225 143h3M231 143h6M240 143h3M246 143h12M261 143h12M276 143h12M291 143h6M300 143h40M0 144h24M27 144h6M36 144h3M42 144h6M51 144h3M57 144h12M72 144h6M81 144h6M90 144h12M105 144h27M135 144h15M153 144h6M165 144h3M174 144h3M180 144h6M189 144h3M198 144h3M204 144h9M216 144h6M225 144h3M231 144h6M240 144h3M246 144h12M261 144h12M276 144h12M291 144h6M300 144h40M0 145h24M27 145h12M48 145h6M63 145h6M72 145h6M81 145h6M90 145h12M105 145h30M141 145h9M153 145h6M162 145h3M168 145h3M174 145h3M180 145h6M189 145h3M195 145h3M204 145h9M225 145h3M231 145h6M240 145h3M246 145h12M261 145h3M270 145h3M282 145h6M297 145h43M0 146h24M27 146h12M48 146h6M63 146h6M72 146h6M81 146h6M90 146h12M105 146h30M141 146h9M153 146h6M162 146h3M168 146h3M174 146h3M180 146h6M189 146h3M195 146h3M204 146h9M225 146h3M231 146h6M240 146h3M246 146h12M261 146h3M270 146h3M282 146h6M297 146h43M0 147h24M27 147h12M48 147h6M63 147h6M72 147h6M81 147h6M90 147h12M105 147h30M141 147h9M153 147h6M162 147h3M168 147h3M174 147h3M180 147h6M189 147h3M195 147h3M204 147h9M225 147h3M231 147h6M240 147h3M246 147h12M261 147h3M270 147h3M282 147h6M297 147h43M0 148h24M27 148h6M36 148h3M42 148h3M48 148h6M57 148h12M72 148h6M81 148h6M90 148h12M105 148h36M144 148h6M153 148h6M162 148h9M174 148h3M180 148h6M189 148h3M195 148h6M204 148h9M216 148h6M225 148h3M231 148h6M240 148h3M246 148h12M261 148h6M270 148h3M276 148h12M291 148h3M297 148h43M0 149h24M27 149h6M36 149h3M42 149h3M48 149h6M57 149h12M72 149h6M81 149h6M90 149h12M105 149h36M144 149h6M153 149h6M162 149h9M174 149h3M180 149h6M189 149h3M195 149h6M204 149h9M216 149h6M225 149h3M231 149h6M240 149h3M246 149h12M261 149h6M270 149h3M276 149h12M291 149h3M297 149h43M0 150h24M27 150h6M36 150h3M42 150h3M48 150h6M57 150h12M72 150h6M81 150h6M90 150h12M105 150h36M144 150h6M153 150h6M162 150h9M174 150h3M180 150h6M189 150h3M195 150h6M204 150h3M211 150h2M216 150h6M225 150h3M231 150h6M240 150h3M246 150h12M261 150h6M270 150h3M276 150h12M291 150h3M297 150h43M0 151h27M33 151h6M42 151h6M51 151h3M66 151h3M78 151h6M93 151h9M105 151h9M118 151h14M141 151h6M156 151h3M162 151h9M174 151h6M186 151h6M195 151h6M204 151h3M211 151h2M216 151h6M225 151h6M237 151h6M255 151h6M267 151h6M285 151h3M291 151h6M300 151h40M0 152h27M33 152h6M42 152h6M51 152h3M66 152h3M78 152h6M93 152h9M105 152h9M118 152h14M141 152h6M156 152h3M162 152h9M174 152h6M186 152h6M195 152h6M204 152h3M211 152h2M216 152h6M225 152h6M237 152h6M255 152h6M267 152h6M285 152h3M291 152h6M300 152h40M0 153h27M33 153h6M42 153h6M51 153h3M66 153h3M78 153h6M93 153h9M105 153h9M118 153h14M141 153h6M156 153h3M162 153h9M174 153h6M186 153h6M195 153h6M204 153h3M211 153h2M216 153h6M225 153h6M237 153h6M255 153h6M267 153h6M285 153h3M291 153h6M300 153h40M0 154h114M118 154h222M0 155h340M0 156h340M0 157h340M0 158h340M0 159h340M0 160h340M0 161h185M194 161h9M209 161h6M218 161h12M242 161h98M0 162h185M194 162h9M209 162h6M218 162h12M242 162h98M0 163h185M194 163h9M209 163h6M218 163h12M242 163h98M0 164h185M188 164h6M197 164h3M203 164h6M212 164h3M218 164h12M233 164h107M0 165h185M188 165h6M197 165h3M203 165h6M212 165h3M218 165h12M233 165h107M0 166h185M188 166h6M197 166h3M203 166h6M212 166h3M218 166h12M233 166h107M0 167h185M194 167h6M203 167h6M212 167h3M218 167h12M239 167h101M0 168h185M194 168h6M203 168h6M212 168h3M218 168h12M239 168h101M0 169h185M194 169h6M203 169h6M212 169h3M218 169h12M239 169h101M0 170h185M188 170h3M194 170h6M203 170h6M212 170h3M218 170h12M233 170h107M0 171h185M188 171h3M194 171h6M203 171h6M212 171h3M218 171h12M233 171h107M0 172h185M188 172h3M194 172h6M203 172h6M212 172h3M218 172h12M233 172h107M0 173h185M188 173h6M197 173h6M209 173h6M227 173h3M233 173h107M0 174h185M188 174h6M197 174h6M209 174h6M227 174h3M233 174h107M0 175h185M188 175h6M197 175h6M209 175h6M227 175h3M233 175h107M0 176h340M0 177h340M0 178h340M0 179h340M0 180h340M0 181h340M0 182h340M0 183h340M0 184h340M0 185h340M0 186h340M0 187h340M0 188h340M0 189h340M0 190h340M0 191h340M0 192h340M0 193h340M0 194h340M0 195h340M0 196h340M0 197h340M0 198h340M0 199h340" />
<path stroke="#ffffff" d="M28 19h24M68 19h8M92 19h8M28 20h24M68 20h8M92 20h8M28 21h24M68 21h8M92 21h8M28 22h24M68 22h8M92 22h8M28 23h24M68 23h8M92 23h8M28 24h24M68 24h8M92 24h8M28 25h24M68 25h8M92 25h8M28 26h24M68 26h8M92 26h8M28 27h8M52 27h8M68 27h8M92 27h8M28 28h8M52 28h8M68 28h8M92 28h8M28 29h8M52 29h8M68 29h8M92 29h8M28 30h8M52 30h8M68 30h8M92 30h8M28 31h8M52 31h8M68 31h8M92 31h8M28 32h8M52 32h8M68 32h8M92 32h8M28 33h8M52 33h8M68 33h8M92 33h8M28 34h8M52 34h8M68 34h8M92 34h8M28 35h8M52 35h8M68 35h8M92 35h8M28 36h8M52 36h8M68 36h8M92 36h8M28 37h8M52 37h8M68 37h8M92 37h8M28 38h8M52 38h8M68 38h8M92 38h8M28 39h8M52 39h8M68 39h8M92 39h8M28 40h8M52 40h8M68 40h8M92 40h8M28 41h8M52 41h8M68 41h8M92 41h8M28 42h8M52 42h8M68 42h8M92 42h8M28 43h8M52 43h8M68 43h8M92 43h8M28 44h8M52 44h8M68 44h8M92 44h8M28 45h8M52 45h8M68 45h8M92 45h8M28 46h8M52 46h8M68 46h8M92 46h8M28 47h8M52 47h8M68 47h8M92 47h8M28 48h8M52 48h8M68 48h8M92 48h8M28 49h8M52 49h8M68 49h8M92 49h8M28 50h8M52 50h8M68 50h8M92 50h8M28 51h24M76 51h16M28 52h24M76 52h16M28 53h24M76 53h16M28 54h24M76 54h16M28 55h24M76 55h16M28 56h24M76 56h16M28 57h24M76 57h16M28 58h24M76 58h16M261 66h10M307 66h10M259 67h14M305 67h14M257 68h18M303 68h18M256 69h20M302 69h20M255 70h9M268 70h9M301 70h9M314 70h9M254 71h8M270 71h8M300 71h8M316 71h8M254 72h6M272 72h6M300 72h6M318 72h6M254 73h5M273 73h5M300 73h5M319 73h5M253 74h5M274 74h5M299 74h5M320 74h5M253 75h5M274 75h5M299 75h5M320 75h5M30 76h8M62 76h8M86 76h16M118 76h8M142 76h8M158 76h24M198 76h40M253 76h5M274 76h5M299 76h5M320 76h5M30 77h8M62 77h8M86 77h16M118 77h8M142 77h8M158 77h24M198 77h40M253 77h4M275 77h4M299 77h4M321 77h4M30 78h8M62 78h8M86 78h16M118 78h8M142 78h8M158 78h24M198 78h40M253 78h4M275 78h4M299 78h4M321 78h4M30 79h8M62 79h8M86 79h16M118 79h8M142 79h8M158 79h24M198 79h40M253 79h5M274 79h5M299 79h5M320 79h5M30 80h8M62 80h8M86 80h16M118 80h8M142 80h8M158 80h24M198 80h40M253 80h5M274 80h5M299 80h5M320 80h5M30 81h8M62 81h8M86 81h16M118 81h8M142 81h8M158 81h24M198 81h40M253 81h5M274 81h5M299 81h5M320 81h5M30 82h8M62 82h8M86 82h16M118 82h8M142 82h8M158 82h24M198 82h40M254 82h5M273 82h5M300 82h5M319 82h5M30 83h8M62 83h8M86 83h16M118 83h8M142 83h8M158 83h24M198 83h40M254 83h6M272 83h6M300 83h6M318 83h6M30 84h8M62 84h8M78 84h8M102 84h8M118 84h16M142 84h8M158 84h8M182 84h8M214 84h8M254 84h8M270 84h8M300 84h8M316 84h8M30 85h8M62 85h8M78 85h8M102 85h8M118 85h16M142 85h8M158 85h8M182 85h8M214 85h8M255 85h9M268 85h9M301 85h9M314 85h9M30 86h8M62 86h8M78 86h8M102 86h8M118 86h16M142 86h8M158 86h8M182 86h8M214 86h8M256 86h20M302 86h20M30 87h8M62 87h8M78 87h8M102 87h8M118 87h16M142 87h8M158 87h8M182 87h8M214 87h8M257 87h18M303 87h18M30 88h8M62 88h8M78 88h8M102 88h8M118 88h16M142 88h8M158 88h8M182 88h8M214 88h8M259 88h14M305 88h14M30 89h8M62 89h8M78 89h8M102 89h8M118 89h16M142 89h8M158 89h8M182 89h8M214 89h8M261 89h10M307 89h10M30 90h8M62 90h8M78 90h8M102 90h8M118 90h16M142 90h8M158 90h8M182 90h8M214 90h8M30 91h8M62 91h8M78 91h8M102 91h8M118 91h16M142 91h8M158 91h8M182 91h8M214 91h8M38 92h8M54 92h8M78 92h32M118 92h8M134 92h16M158 92h8M182 92h8M214 92h8M38 93h8M54 93h8M78 93h32M118 93h8M134 93h16M158 93h8M182 93h8M214 93h8M38 94h8M54 94h8M78 94h32M118 94h8M134 94h16M158 94h8M182 94h8M214 94h8M38 95h8M54 95h8M78 95h32M118 95h8M134 95h16M158 95h8M182 95h8M214 95h8M38 96h8M54 96h8M78 96h32M118 96h8M134 96h16M158 96h8M182 96h8M214 96h8M38 97h8M54 97h8M78 97h32M118 97h8M134 97h16M158 97h8M182 97h8M214 97h8M38 98h8M54 98h8M78 98h32M118 98h8M134 98h16M158 98h8M182 98h8M214 98h8M38 99h8M54 99h8M78 99h32M118 99h8M134 99h16M158 99h8M182 99h8M214 99h8M38 100h8M54 100h8M78 100h8M102 100h8M118 100h8M142 100h8M158 100h8M182 100h8M214 100h8M38 101h8M54 101h8M78 101h8M102 101h8M118 101h8M142 101h8M158 101h8M182 101h8M214 101h8M38 102h8M54 102h8M78 102h8M102 102h8M118 102h8M142 102h8M158 102h8M182 102h8M214 102h8M38 103h8M54 103h8M78 103h8M102 103h8M118 103h8M142 103h8M158 103h8M182 103h8M214 103h8M38 104h8M54 104h8M78 104h8M102 104h8M118 104h8M142 104h8M158 104h8M182 104h8M214 104h8M38 105h8M54 105h8M78 105h8M102 105h8M118 105h8M142 105h8M158 105h8M182 105h8M214 105h8M38 106h8M54 106h8M78 106h8M102 106h8M118 106h8M142 106h8M158 106h8M182 106h8M214 106h8M263 106h4M38 107h8M54 107h8M78 107h8M102 107h8M118 107h8M142 107h8M158 107h8M182 107h8M214 107h8M263 107h4M317 107h4M46 108h8M78 108h8M102 108h8M118 108h8M142 108h8M158 108h24M214 108h8M263 108h5M316 108h5M46 109h8M78 109h8M102 109h8M118 109h8M142 109h8M158 109h24M214 109h8M263 109h6M315 109h6M46 110h8M78 110h8M102 110h8M118 110h8M142 110h8M158 110h24M214 110h8M263 110h7M314 110h7M46 111h8M78 111h8M102 111h8M118 111h8M142 111h8M158 111h24M214 111h8M264 111h8M312 111h8M46 112h8M78 112h8M102 112h8M118 112h8M142 112h8M158 112h24M214 112h8M265 112h9M310 112h9M46 113h8M78 113h8M102 113h8M118 113h8M142 113h8M158 113h24M214 113h8M266 113h10M308 113h10M46 114h8M78 114h8M102 114h8M118 114h8M142 114h8M158 114h24M214 114h8M267 114h13M304 114h13M46 115h8M78 115h8M102 115h8M118 115h8M142 115h8M158 115h24M214 115h8M269 115h16M299 115h16M271 116h42M273 117h38M277 118h30M282 119h20M27 139h6M39 139h9M54 139h12M69 139h9M84 139h9M96 139h15M114 139h4M135 139h9M147 139h9M159 139h3M171 139h3M180 139h6M192 139h3M201 139h3M213 139h3M222 139h3M231 139h6M243 139h3M261 139h6M273 139h12M288 139h9M27 140h6M39 140h9M54 140h12M69 140h9M84 140h9M96 140h15M114 140h4M135 140h9M147 140h9M159 140h3M171 140h3M180 140h6M192 140h3M201 140h3M213 140h3M222 140h3M231 140h6M243 140h3M261 140h6M273 140h12M288 140h9M27 141h6M39 141h9M54 141h12M69 141h9M84 141h9M96 141h15M114 141h4M135 141h9M147 141h9M159 141h3M171 141h3M180 141h6M192 141h3M201 141h3M213 141h3M222 141h3M231 141h6M243 141h3M261 141h6M273 141h12M288 141h9M24 142h3M33 142h3M39 142h3M48 142h3M54 142h3M69 142h3M78 142h3M87 142h3M102 142h3M114 142h4M132 142h3M150 142h3M159 142h6M168 142h6M177 142h3M186 142h3M192 142h6M201 142h3M213 142h3M222 142h3M228 142h3M237 142h3M243 142h3M258 142h3M273 142h3M288 142h3M297 142h3M24 143h3M33 143h3M39 143h3M48 143h3M54 143h3M69 143h3M78 143h3M87 143h3M102 143h3M132 143h3M150 143h3M159 143h6M168 143h6M177 143h3M186 143h3M192 143h6M201 143h3M213 143h3M222 143h3M228 143h3M237 143h3M243 143h3M258 143h3M273 143h3M288 143h3M297 143h3M24 144h3M33 144h3M39 144h3M48 144h3M54 144h3M69 144h3M78 144h3M87 144h3M102 144h3M132 144h3M150 144h3M159 144h6M168 144h6M177 144h3M186 144h3M192 144h6M201 144h3M213 144h3M222 144h3M228 144h3M237 144h3M243 144h3M258 144h3M273 144h3M288 144h3M297 144h3M24 145h3M39 145h9M54 145h9M69 145h3M78 145h3M87 145h3M102 145h3M135 145h6M150 145h3M159 145h3M165 145h3M171 145h3M177 145h3M186 145h3M192 145h3M198 145h6M213 145h12M228 145h3M237 145h3M243 145h3M258 145h3M264 145h6M273 145h9M288 145h9M24 146h3M39 146h9M54 146h9M69 146h3M78 146h3M87 146h3M102 146h3M135 146h6M150 146h3M159 146h3M165 146h3M171 146h3M177 146h3M186 146h3M192 146h3M198 146h6M213 146h12M228 146h3M237 146h3M243 146h3M258 146h3M264 146h6M273 146h9M288 146h9M24 147h3M39 147h9M54 147h9M69 147h3M78 147h3M87 147h3M102 147h3M135 147h6M150 147h3M159 147h3M165 147h3M171 147h3M177 147h3M186 147h3M192 147h3M198 147h6M213 147h12M228 147h3M237 147h3M243 147h3M258 147h3M264 147h6M273 147h9M288 147h9M24 148h3M33 148h3M39 148h3M45 148h3M54 148h3M69 148h3M78 148h3M87 148h3M102 148h3M141 148h3M150 148h3M159 148h3M171 148h3M177 148h3M186 148h3M192 148h3M201 148h3M213 148h3M222 148h3M228 148h3M237 148h3M243 148h3M258 148h3M267 148h3M273 148h3M288 148h3M294 148h3M24 149h3M33 149h3M39 149h3M45 149h3M54 149h3M69 149h3M78 149h3M87 149h3M102 149h3M141 149h3M150 149h3M159 149h3M171 149h3M177 149h3M186 149h3M192 149h3M201 149h3M213 149h3M222 149h3M228 149h3M237 149h3M243 149h3M258 149h3M267 149h3M273 149h3M288 149h3M294 149h3M24 150h3M33 150h3M39 150h3M45 150h3M54 150h3M69 150h3M78 150h3M87 150h3M102 150h3M141 150h3M150 150h3M159 150h3M171 150h3M177 150h3M186 150h3M192 150h3M201 150h3M207 150h4M213 150h3M222 150h3M228 150h3M237 150h3M243 150h3M258 150h3M267 150h3M273 150h3M288 150h3M294 150h3M27 151h6M39 151h3M48 151h3M54 151h12M69 151h9M84 151h9M102 151h3M114 151h4M132 151h9M147 151h9M159 151h3M171 151h3M180 151h6M192 151h3M201 151h3M207 151h4M213 151h3M222 151h3M231 151h6M243 151h12M261 151h6M273 151h12M288 151h3M297 151h3M27 152h6M39 152h3M48 152h3M54 152h12M69 152h9M84 152h9M102 152h3M114 152h4M132 152h9M147 152h9M159 152h3M171 152h3M180 152h6M192 152h3M201 152h3M207 152h4M213 152h3M222 152h3M231 152h6M243 152h12M261 152h6M273 152h12M288 152h3M297 152h3M27 153h6M39 153h3M48 153h3M54 153h12M69 153h9M84 153h9M102 153h3M114 153h4M132 153h9M147 153h9M159 153h3M171 153h3M180 153h6M192 153h3M201 153h3M207 153h4M213 153h3M222 153h3M231 153h6M243 153h12M261 153h6M273 153h12M288 153h3M297 153h3M114 154h4M185 161h9M203 161h6M215 161h3M230 161h12M185 162h9M203 162h6M215 162h3M230 162h12M185 163h9M203 163h6M215 163h3M230 163h12M185 164h3M194 164h3M200 164h3M209 164h3M215 164h3M230 164h3M185 165h3M194 165h3M200 165h3M209 165h3M215 165h3M230 165h3M185 166h3M194 166h3M200 166h3M209 166h3M215 166h3M230 166h3M185 167h9M200 167h3M209 167h3M215 167h3M230 167h9M185 168h9M200 168h3M209 168h3M215 168h3M230 168h9M185 169h9M200 169h3M209 169h3M215 169h3M230 169h9M185 170h3M191 170h3M200 170h3M209 170h3M215 170h3M230 170h3M185 171h3M191 171h3M200 171h3M209 171h3M215 171h3M230 171h3M185 172h3M191 172h3M200 172h3M209 172h3M215 172h3M230 172h3M185 173h3M194 173h3M203 173h6M215 173h12M230 173h3M185 174h3M194 174h3M203 174h6M215 174h12M230 174h3M185 175h3M194 175h3M203 175h6M215 175h12M230 175h3" />
</svg>