<svg xmlns="http://www.w3.org/2000/svg" viewBox="0 -0.5 64 64" shape-rendering="crispEdges">
<metadata>Made with Pixels to Svg https://codepen.io/shshaw/pen/XbxvNj</metadata>
<path stroke="#000000" d="M4 14h56M3 15h1M60 15h1M2 16h1M61 16h1M2 17h1M61 17h1M2 18h1M61 18h1M2 19h1M61 19h1M2 20h1M61 20h1M2 21h1M61 21h1M2 22h1M61 22h1M2 23h1M61 23h1M2 24h1M61 24h1M2 25h1M61 25h1M2 26h1M61 26h1M2 27h1M61 27h1M2 28h1M61 28h1M2 29h1M61 29h1M2 30h1M61 30h1M2 31h1M61 31h1M2 32h1M61 32h1M2 33h1M61 33h1M3 34h1M60 34h1M4 35h56" />
<path stroke="#d32f2f" d="M4 15h56M3 16h1M60 16h1M3 29h1M60 29h1M4 30h56" />
<path stroke="#d50000" d="M4 16h56M3 17h58M3 18h10M21 18h2M25 18h4M31 18h2M39 18h2M51 18h10M3 19h10M21 19h2M25 19h4M31 19h2M39 19h2M51 19h10M3 20h10M15 20h8M25 20h4M31 20h4M37 20h8M47 20h14M3 21h10M15 21h8M25 21h4M31 21h4M37 21h8M47 21h14M3 22h10M19 22h6M29 22h6M37 22h8M47 22h14M3 23h10M19 23h6M29 23h6M37 23h8M47 23h14M3 24h10M15 24h8M25 24h4M31 24h4M37 24h8M47 24h14M3 25h10M15 25h8M25 25h4M31 25h4M37 25h8M47 25h14M3 26h10M21 26h2M25 26h4M31 26h2M39 26h6M47 26h14M3 27h10M21 27h2M25 27h4M31 27h2M39 27h6M47 27h14M3 28h58M4 29h56" />
<path stroke="#ffffff" d="M13 18h8M23 18h2M29 18h2M33 18h6M41 18h10M13 19h8M23 19h2M29 19h2M33 19h6M41 19h10M13 20h2M23 20h2M29 20h2M35 20h2M45 20h2M13 21h2M23 21h2M29 21h2M35 21h2M45 21h2M13 22h6M25 22h4M35 22h2M45 22h2M13 23h6M25 23h4M35 23h2M45 23h2M13 24h2M23 24h2M29 24h2M35 24h2M45 24h2M13 25h2M23 25h2M29 25h2M35 25h2M45 25h2M13 26h8M23 26h2M29 26h2M33 26h6M45 26h2M13 27h8M23 27h2M29 27h2M33 27h6M45 27h2" />
<path stroke="#b71c1c" d="M3 30h1M60 30h1M3 31h58M3 32h58M3 33h58M4 34h56" />
</svg>