<svg xmlns="http://www.w3.org/2000/svg" viewBox="0 -0.5 340 200" shape-rendering="crispEdges">
<metadata>Made with Pixels to Svg https://codepen.io/shshaw/pen/XbxvNj</metadata>
<path stroke="#f0c869" d="M0 0h59M69 0h6M83 0h257M0 1h57M70 1h2M84 1h8M97 1h243M0 2h47M85 2h4M99 2h241M0 3h44M85 3h2M100 3h240M0 4h41M102 4h238M0 5h40M103 5h237M0 6h38M103 6h237M0 7h37M103 7h237M0 8h37M104 8h207M319 8h21M0 9h37M111 9h197M322 9h18M0 10h37M112 10h194M324 10h16M0 11h37M113 11h101M224 11h9M238 11h67M325 11h15M0 12h37M114 12h97M225 12h6M241 12h63M326 12h14M0 13h36M114 13h95M225 13h5M242 13h61M327 13h13M0 14h34M114 14h93M226 14h3M243 14h59M328 14h12M0 15h31M114 15h79M202 15h4M243 15h58M329 15h11M0 16h29M119 16h72M244 16h57M329 16h11M0 17h25M122 17h20M152 17h39M245 17h55M330 17h10M0 18h25M124 18h18M153 18h38M253 18h47M330 18h10M0 19h25M125 19h25M153 19h38M254 19h46M330 19h10M0 20h25M46 20h1M127 20h5M142 20h49M255 20h44M331 20h9M0 21h33M39 21h9M127 21h5M142 21h49M255 21h44M331 21h9M0 22h33M39 22h9M75 22h11M94 22h1M101 22h85M255 22h15M273 22h26M331 22h9M0 23h49M70 23h27M104 23h81M256 23h5M273 23h26M331 23h9M0 24h49M70 24h23M104 24h47M153 24h32M256 24h5M271 24h28M331 24h9M0 25h11M19 25h31M70 25h23M103 25h40M153 25h32M256 25h43M331 25h9M0 26h7M19 26h124M153 26h1M162 26h23M255 26h44M331 26h9M0 27h7M12 27h142M164 27h21M254 27h45M331 27h9M0 28h161M164 28h21M254 28h46M330 28h10M0 29h184M253 29h47M330 29h10M0 30h181M253 30h47M330 30h10M0 31h175M253 31h24M285 31h16M329 31h11M0 32h175M265 32h12M285 32h16M329 32h11M0 33h175M267 33h35M328 33h12M0 34h97M114 34h18M139 34h36M267 34h36M327 34h13M0 35h97M114 35h18M139 35h39M195 35h5M225 35h13M267 35h37M326 35h14M0 36h115M117 36h66M194 36h6M217 36h22M266 36h39M325 36h15M0 37h115M117 37h66M193 37h8M217 37h22M263 37h43M324 37h16M0 38h244M249 38h59M322 38h18M0 39h311M319 39h21M0 40h150M161 40h179M0 41h147M161 41h179M0 42h147M151 42h189M0 43h340M0 44h340M0 45h340M0 46h340M0 47h340M0 48h340M0 49h340M0 50h57M59 50h281M0 51h57M60 51h280M0 52h56M60 52h280M0 53h55M61 53h279M0 54h55M61 54h279M0 55h55M62 55h278M0 56h54M62 56h278M0 57h54M62 57h278M0 58h54M63 58h277M0 59h54M63 59h277M0 60h53M64 60h276M0 61h53M65 61h275M0 62h53M65 62h275M0 63h52M66 63h274M0 64h52M66 64h274M0 65h52M68 65h272M0 66h51M68 66h272M0 67h51M69 67h271M0 68h50M59 68h2M70 68h270M0 69h50M59 69h2M71 69h269M0 70h50M73 70h267M0 71h49M74 71h259M0 72h48M76 72h254M0 73h48M77 73h252M331 73h2M0 74h47M65 74h2M78 74h250M331 74h2M0 75h47M65 75h2M79 75h248M0 76h46M80 76h246M335 76h2M0 77h45M82 77h44M129 77h196M335 77h2M0 78h44M85 78h41M130 78h194M0 79h44M85 79h41M132 79h191M0 80h43M87 80h39M134 80h188M0 81h42M88 81h38M136 81h186M0 82h41M89 82h37M138 82h183M0 83h40M69 83h2M92 83h33M141 83h180M0 84h39M69 84h2M85 84h3M94 84h31M143 84h178M322 84h3M0 85h39M85 85h3M95 85h29M146 85h172M322 85h3M326 85h2M0 86h38M86 86h2M97 86h27M147 86h171M326 86h3M0 87h37M99 87h25M150 87h151M308 87h7M316 87h2M327 87h2M0 88h36M101 88h22M152 88h148M311 88h3M323 88h2M326 88h2M0 89h35M102 89h21M127 89h3M153 89h75M234 89h65M323 89h2M326 89h2M0 90h35M104 90h18M127 90h3M155 90h73M235 90h29M277 90h21M304 90h2M0 91h34M107 91h14M157 91h71M231 91h2M238 91h24M281 91h16M304 91h2M0 92h33M100 92h2M113 92h5M160 92h27M196 92h31M231 92h2M245 92h16M286 92h9M0 93h32M100 93h2M162 93h24M198 93h28M233 93h2M245 93h14M268 93h2M0 94h31M100 94h3M164 94h21M199 94h26M233 94h2M249 94h8M268 94h2M293 94h2M312 94h2M0 95h30M100 95h3M165 95h19M200 95h24M276 95h2M293 95h2M312 95h2M0 96h29M168 96h2M172 96h11M202 96h1M207 96h14M237 96h2M276 96h2M0 97h27M120 97h2M160 97h2M173 97h9M210 97h2M213 97h4M237 97h2M0 98h25M96 98h2M120 98h2M151 98h2M160 98h2M174 98h7M210 98h2M299 98h2M0 99h24M96 99h2M137 99h2M151 99h3M177 99h3M198 99h2M299 99h2M0 100h22M137 100h2M151 100h3M198 100h2M257 100h2M269 100h2M0 101h20M151 101h2M257 101h2M269 101h2M0 102h18M0 103h9M144 104h2M207 104h2M144 105h2M207 105h2M285 108h2M285 109h2M120 110h2M224 110h2M120 111h2M224 111h2M175 117h2M218 117h2M175 118h2M218 118h2M157 120h2M157 121h2" />
<path stroke="#fae3a0" d="M59 0h10M75 0h8M57 1h13M72 1h12M92 1h5M47 2h38M89 2h10M44 3h41M87 3h13M41 4h19M62 4h14M82 4h20M40 5h20M65 5h10M82 5h21M38 6h22M65 6h9M78 6h11M93 6h10M37 7h13M54 7h9M66 7h6M80 7h8M93 7h10M37 8h12M54 8h10M66 8h5M79 8h9M91 8h13M37 9h11M52 9h12M74 9h14M90 9h9M101 9h10M37 10h10M50 10h14M73 10h14M90 10h9M101 10h11M37 11h10M49 11h16M67 11h12M81 11h5M89 11h24M214 11h10M233 11h5M37 12h10M49 12h16M67 12h12M82 12h3M89 12h25M211 12h14M231 12h10M36 13h11M50 13h15M67 13h13M88 13h6M97 13h17M209 13h16M230 13h12M34 14h13M51 14h14M67 14h13M87 14h7M97 14h17M207 14h12M222 14h4M229 14h14M31 15h17M51 15h14M67 15h15M86 15h9M98 15h16M193 15h9M206 15h11M222 15h21M29 16h17M51 16h14M67 16h15M85 16h10M98 16h21M191 16h25M220 16h24M25 17h21M51 17h13M67 17h14M86 17h10M99 17h23M191 17h25M219 17h26M25 18h19M51 18h12M67 18h1M69 18h6M87 18h10M99 18h25M191 18h24M218 18h35M25 19h8M52 19h10M66 19h1M91 19h6M99 19h26M191 19h24M218 19h17M240 19h14M25 20h8M52 20h10M64 20h2M99 20h1M114 20h11M191 20h5M199 20h16M217 20h18M241 20h14M52 21h9M99 21h1M114 21h11M191 21h5M200 21h15M218 21h5M227 21h11M241 21h14M186 22h12M201 22h14M218 22h3M227 22h12M241 22h5M248 22h7M185 23h14M201 23h15M218 23h2M224 23h15M241 23h5M251 23h5M185 24h14M210 24h6M223 24h16M241 24h6M252 24h4M185 25h14M210 25h1M222 25h17M241 25h8M252 25h4M185 26h13M201 26h7M218 26h32M252 26h3M185 27h13M200 27h8M213 27h13M228 27h8M238 27h11M252 27h2M185 28h10M200 28h7M210 28h16M228 28h7M238 28h11M252 28h2M184 29h10M199 29h8M210 29h16M229 29h5M238 29h11M251 29h2M181 30h12M198 30h9M209 30h16M230 30h3M237 30h12M251 30h2M175 31h17M203 31h3M209 31h15M236 31h13M251 31h2M175 32h16M203 32h2M209 32h13M242 32h6M251 32h14M175 33h16M211 33h2M243 33h5M251 33h16M175 34h3M247 34h1M250 34h17M250 35h8M263 35h4M263 36h3" />
<path stroke="#dda249" d="M60 4h2M76 4h6M60 5h5M75 5h7M60 6h5M74 6h4M89 6h4M50 7h4M63 7h3M72 7h8M88 7h5M49 8h5M64 8h2M71 8h8M88 8h3M48 9h4M64 9h10M88 9h2M99 9h2M47 10h3M64 10h9M87 10h3M99 10h2M47 11h2M65 11h2M79 11h2M86 11h3M47 12h2M65 12h2M79 12h3M85 12h4M47 13h3M65 13h2M80 13h8M94 13h3M47 14h4M65 14h2M80 14h7M94 14h3M219 14h3M48 15h3M65 15h2M82 15h4M95 15h3M217 15h5M46 16h5M65 16h2M82 16h3M95 16h3M216 16h4M46 17h5M64 17h3M81 17h5M96 17h3M216 17h3M44 18h7M63 18h4M68 18h1M75 18h12M97 18h2M215 18h3M33 19h19M62 19h4M67 19h24M97 19h2M215 19h3M235 19h5M33 20h13M49 20h3M62 20h2M66 20h9M86 20h13M100 20h14M196 20h3M215 20h2M235 20h6M50 21h2M61 21h8M89 21h10M100 21h14M196 21h4M215 21h3M223 21h4M238 21h3M51 22h17M95 22h6M198 22h3M215 22h3M221 22h6M239 22h2M246 22h2M52 23h15M97 23h4M199 23h2M216 23h2M220 23h4M239 23h2M246 23h5M199 24h11M216 24h7M239 24h2M247 24h5M199 25h11M211 25h11M239 25h2M249 25h3M198 26h3M208 26h10M250 26h2M198 27h2M208 27h5M226 27h2M236 27h2M249 27h3M195 28h5M207 28h3M226 28h2M235 28h3M249 28h3M194 29h5M207 29h3M226 29h3M234 29h4M249 29h2M193 30h5M207 30h2M225 30h5M233 30h4M249 30h2M192 31h11M206 31h3M224 31h12M249 31h2M191 32h4M197 32h6M205 32h4M222 32h20M248 32h3M191 33h3M197 33h14M213 33h12M233 33h10M248 33h3M178 34h14M197 34h28M233 34h14M248 34h2M178 35h14M200 35h25M238 35h12M258 35h5M200 36h2M245 36h18M248 37h15" />
<path stroke="#fae39d" d="M311 8h8M308 9h14M306 10h18M305 11h20M304 12h22M303 13h24M302 14h26M301 15h28M301 16h28M300 17h30M300 18h30M300 19h30M299 20h32M299 21h32M299 22h32M299 23h32M299 24h32M299 25h32M299 26h32M299 27h32M300 28h30M300 29h30M300 30h30M301 31h28M301 32h28M302 33h26M303 34h24M304 35h22M305 36h20M306 37h18M308 38h14M311 39h8" />
<path stroke="#eeb55e" d="M142 17h10M142 18h11M150 19h3M125 20h2M132 20h10M125 21h2M132 21h10M270 22h3M261 23h12M151 24h2M261 24h10M11 25h8M143 25h10M7 26h12M143 26h10M154 26h8M7 27h5M154 27h10M161 28h3M277 31h8M277 32h8M97 34h17M132 34h7M97 35h17M132 35h7M115 36h2M115 37h2M150 40h11M147 41h14M147 42h4" />
<path stroke="#d28c41" d="M47 20h2M75 20h11M33 21h6M48 21h2M69 21h20M33 22h6M48 22h3M68 22h7M86 22h8M49 23h3M67 23h3M101 23h3M49 24h21M93 24h11M50 25h20M93 25h10M195 32h2M194 33h3M225 33h8M192 34h5M225 34h8M192 35h3M183 36h11M202 36h15M239 36h6M183 37h10M201 37h16M239 37h9M244 38h5" />
<path stroke="#799750" d="M57 50h2M57 51h3M57 52h3M58 53h3M58 54h3M59 55h3M60 56h2M60 57h2M60 58h3M60 59h3M57 60h2M61 60h3M57 61h2M61 61h3M57 62h3M62 62h2M57 63h4M58 64h3M59 65h2M63 65h2M63 66h2M63 67h3M63 68h5M65 69h3M69 71h2M333 71h7M69 72h3M333 72h7M58 73h2M69 73h5M338 73h2M58 74h2M70 74h5M58 75h3M72 75h5M58 76h4M73 76h4M59 77h4M75 77h4M126 77h3M60 78h4M74 78h5M83 78h2M126 78h4M62 79h3M74 79h2M83 79h2M127 79h5M57 80h2M62 80h4M74 80h2M83 80h3M129 80h4M57 81h2M63 81h4M74 81h6M83 81h4M129 81h7M57 82h2M64 82h4M74 82h8M84 82h5M129 82h2M133 82h4M57 83h3M66 83h2M75 83h7M86 83h5M129 83h2M133 83h5M58 84h3M76 84h3M80 84h2M88 84h4M129 84h11M58 85h5M80 85h2M89 85h5M130 85h13M60 86h7M80 86h3M90 86h7M132 86h15M61 87h8M72 87h3M80 87h4M92 87h7M134 87h4M141 87h8M304 87h4M65 88h5M72 88h3M81 88h8M95 88h6M134 88h16M304 88h7M67 89h4M73 89h3M82 89h8M98 89h3M135 89h10M147 89h4M231 89h3M307 89h7M68 90h3M74 90h3M87 90h4M148 90h4M231 90h4M271 90h3M310 90h5M69 91h2M75 91h3M88 91h6M104 91h3M130 91h4M149 91h7M233 91h5M271 91h7M312 91h4M69 92h2M76 92h2M90 92h7M104 92h6M130 92h6M150 92h10M191 92h5M234 92h11M273 92h13M313 92h3M76 93h3M93 93h5M105 93h8M132 93h6M154 93h7M191 93h7M236 93h9M277 93h10M76 94h5M96 94h2M108 94h9M118 94h2M134 94h6M144 94h3M158 94h5M195 94h4M243 94h2M247 94h2M284 94h8M78 95h7M111 95h9M136 95h12M160 95h3M196 95h4M243 95h6M286 95h6M80 96h7M115 96h5M139 96h11M170 96h2M197 96h4M203 96h4M243 96h6M83 97h4M147 97h4M170 97h3M198 97h9M149 98h2M170 98h4M199 98h10M127 99h1M171 99h6M202 99h7M126 100h3M164 100h1M172 100h10M125 101h4M163 101h3M174 101h8M123 102h8M162 102h5M176 102h7M120 103h12M161 103h7M179 103h4M118 104h14M160 104h9M180 104h5M117 105h16M159 105h11M181 105h4M116 106h20M158 106h13M114 107h24M158 107h14M113 108h26M157 108h16M111 109h29M156 109h18M110 110h1M112 110h8M122 110h19M155 110h20M109 111h11M122 111h20M154 111h22M107 112h36M153 112h24M106 113h1M108 113h36M152 113h26M105 114h40M151 114h28M103 115h43M150 115h30M102 116h1M104 116h43M149 116h32M102 117h73M177 117h5M102 118h9M114 118h61M177 118h6M104 119h7M114 119h70M105 120h5M114 120h43M159 120h24M106 121h3M115 121h42M159 121h23M107 122h2M116 122h65M117 123h63M118 124h61M118 125h60M119 126h57M120 127h55M122 128h52M122 129h51M119 130h53M119 131h52M119 132h51M121 133h12M134 133h35M123 134h45M123 135h44M124 136h42M125 137h40M126 138h38M128 139h35M129 140h32M130 141h30" />
<path stroke="#4f8b4d" d="M56 52h1M55 53h3M55 54h3M55 55h4M54 56h6M54 57h6M54 58h6M54 59h6M53 60h4M59 60h2M53 61h4M59 61h2M64 61h1M53 62h4M60 62h2M64 62h1M52 63h5M61 63h5M52 64h6M61 64h5M52 65h7M61 65h2M65 65h3M51 66h12M65 66h3M51 67h12M66 67h3M50 68h9M61 68h2M68 68h2M50 69h9M61 69h4M68 69h3M50 70h23M49 71h20M71 71h3M48 72h21M72 72h4M330 72h3M48 73h10M60 73h9M74 73h3M329 73h2M333 73h5M47 74h11M60 74h5M67 74h3M75 74h3M328 74h3M333 74h7M47 75h11M61 75h4M67 75h5M77 75h2M327 75h13M46 76h12M62 76h11M77 76h3M326 76h9M337 76h3M45 77h14M63 77h12M79 77h3M325 77h10M337 77h3M44 78h16M64 78h10M79 78h4M324 78h16M44 79h18M65 79h9M76 79h7M126 79h1M323 79h17M43 80h14M59 80h3M66 80h8M76 80h7M86 80h1M126 80h3M133 80h1M322 80h18M42 81h15M59 81h4M67 81h7M80 81h3M87 81h1M126 81h3M322 81h18M41 82h16M59 82h5M68 82h6M82 82h2M126 82h3M131 82h2M137 82h1M321 82h19M40 83h17M60 83h6M68 83h1M71 83h4M82 83h4M91 83h1M125 83h4M131 83h2M138 83h3M321 83h19M39 84h19M61 84h8M71 84h5M79 84h1M82 84h3M92 84h2M125 84h4M140 84h3M321 84h1M325 84h15M39 85h19M63 85h17M82 85h3M88 85h1M94 85h1M124 85h6M143 85h3M318 85h4M325 85h1M328 85h12M38 86h22M67 86h13M83 86h3M88 86h2M124 86h8M318 86h8M329 86h11M37 87h24M69 87h3M75 87h5M84 87h8M124 87h10M138 87h3M149 87h1M301 87h3M315 87h1M318 87h9M329 87h11M36 88h29M70 88h2M75 88h6M89 88h6M123 88h11M150 88h2M300 88h4M314 88h9M325 88h1M328 88h12M35 89h32M71 89h2M76 89h6M90 89h8M101 89h1M123 89h4M130 89h5M145 89h2M151 89h2M228 89h3M299 89h8M314 89h9M325 89h1M328 89h12M35 90h33M71 90h3M77 90h10M91 90h13M122 90h5M130 90h18M152 90h3M228 90h3M264 90h7M274 90h3M298 90h6M306 90h4M315 90h25M34 91h35M71 91h4M78 91h10M94 91h10M121 91h9M134 91h15M156 91h1M228 91h3M262 91h9M278 91h3M297 91h7M306 91h6M316 91h24M33 92h36M71 92h5M78 92h12M97 92h3M102 92h2M110 92h3M118 92h12M136 92h14M187 92h4M227 92h4M233 92h1M261 92h12M295 92h18M316 92h24M32 93h44M79 93h14M98 93h2M102 93h3M113 93h19M138 93h16M161 93h1M186 93h5M226 93h7M235 93h1M259 93h9M270 93h7M287 93h53M31 94h45M81 94h15M98 94h2M103 94h5M117 94h1M120 94h14M140 94h4M147 94h11M163 94h1M185 94h10M225 94h8M235 94h8M245 94h2M257 94h11M270 94h14M292 94h1M295 94h17M314 94h26M30 95h48M85 95h15M103 95h8M120 95h16M148 95h12M163 95h2M184 95h12M224 95h19M249 95h27M278 95h8M292 95h1M295 95h17M314 95h26M29 96h46M76 96h4M87 96h28M120 96h19M150 96h18M183 96h14M201 96h1M221 96h16M239 96h4M249 96h27M278 96h62M27 97h47M77 97h6M87 97h33M122 97h25M151 97h9M162 97h8M182 97h16M207 97h3M212 97h1M217 97h20M239 97h101M25 98h48M78 98h18M98 98h22M122 98h27M153 98h7M162 98h8M181 98h18M209 98h1M212 98h87M301 98h39M24 99h47M80 99h16M98 99h29M128 99h9M139 99h12M154 99h17M180 99h18M200 99h2M209 99h90M301 99h39M22 100h48M81 100h45M129 100h8M139 100h12M154 100h10M165 100h7M182 100h16M200 100h57M259 100h10M271 100h69M20 101h49M82 101h43M129 101h22M153 101h10M166 101h8M182 101h75M259 101h10M271 101h69M18 102h50M83 102h40M131 102h31M167 102h9M183 102h157M9 103h58M84 103h36M132 103h29M168 103h11M183 103h157M0 104h66M86 104h32M132 104h12M146 104h14M169 104h11M185 104h15M201 104h6M209 104h131M0 105h65M87 105h30M133 105h11M146 105h13M170 105h11M185 105h14M202 105h5M209 105h131M0 106h63M88 106h28M136 106h22M171 106h27M204 106h136M0 107h62M89 107h25M138 107h20M172 107h25M205 107h135M0 108h61M90 108h23M139 108h18M173 108h23M206 108h79M287 108h53M0 109h60M92 109h19M140 109h16M174 109h21M207 109h78M287 109h53M0 110h59M93 110h17M141 110h14M175 110h19M208 110h16M226 110h114M0 111h58M94 111h15M142 111h12M176 111h16M210 111h14M226 111h114M0 112h56M95 112h12M143 112h10M177 112h14M211 112h129M0 113h55M96 113h10M144 113h8M178 113h12M212 113h128M0 114h10M13 114h41M98 114h7M145 114h6M179 114h10M213 114h127M0 115h10M13 115h40M99 115h4M146 115h4M180 115h8M214 115h102M319 115h21M0 116h9M13 116h39M100 116h2M147 116h2M181 116h6M216 116h100M319 116h21M0 117h8M14 117h37M182 117h4M217 117h1M220 117h95M319 117h21M0 118h8M15 118h23M41 118h9M183 118h2M220 118h46M269 118h45M320 118h20M0 119h7M16 119h22M41 119h7M219 119h47M269 119h45M321 119h19M0 120h7M17 120h20M41 120h6M220 120h45M269 120h44M322 120h18M0 121h7M17 121h19M42 121h4M222 121h42M270 121h43M323 121h17M0 122h8M18 122h18M43 122h2M223 122h41M271 122h42M323 122h17M0 123h9M19 123h16M224 123h39M272 123h42M324 123h16M0 124h8M21 124h14M225 124h38M273 124h17M293 124h4M300 124h1M302 124h8M325 124h15M0 125h8M21 125h14M226 125h37M273 125h10M295 125h9M310 125h4M327 125h13M0 126h8M18 126h18M228 126h36M297 126h1M301 126h1M327 126h13M0 127h4M18 127h19M229 127h36M298 127h4M325 127h15M0 128h4M18 128h18M230 128h34M326 128h1M328 128h12M0 129h4M20 129h16M231 129h33M324 129h1M327 129h13M0 130h5M22 130h14M232 130h32M326 130h14M0 131h8M22 131h10M234 131h26M328 131h12M0 132h9M22 132h10M239 132h3M254 132h3M331 132h8M0 133h9M23 133h9M236 133h3M256 133h4M331 133h9M0 134h3M24 134h7M332 134h8M0 135h3M24 135h6M334 135h1M336 135h4M0 136h4M335 136h3M0 137h4M0 138h3M0 139h1" />
<path stroke="#85995c" d="M75 96h1M74 97h3M73 98h5M71 99h9M70 100h11M69 101h13M68 102h15M67 103h17M66 104h20M200 104h1M65 105h22M199 105h3M63 106h25M198 106h6M62 107h27M197 107h8M61 108h29M196 108h10M60 109h32M195 109h12M59 110h34M111 110h1M194 110h14M58 111h36M192 111h18M56 112h39M191 112h20M55 113h41M107 113h1M190 113h22M54 114h44M189 114h24M53 115h46M188 115h26M52 116h48M103 116h1M187 116h29M51 117h51M186 117h31M50 118h25M78 118h24M185 118h4M192 118h26M48 119h27M78 119h26M184 119h5M192 119h27M47 120h27M78 120h27M183 120h5M192 120h28M46 121h27M79 121h27M182 121h5M193 121h29M45 122h28M80 122h27M181 122h6M194 122h29M44 123h28M81 123h27M180 123h6M195 123h29M45 124h27M82 124h26M179 124h7M196 124h29M290 124h3M297 124h3M301 124h1M310 124h5M45 125h27M82 125h26M178 125h8M196 125h30M283 125h12M304 125h6M46 126h27M83 126h26M176 126h11M197 126h31M274 126h23M298 126h3M302 126h12M47 127h27M84 127h26M175 127h13M198 127h31M275 127h23M302 127h12M324 127h1M49 128h24M86 128h23M174 128h13M200 128h30M277 128h33M324 128h2M327 128h1M49 129h24M86 129h23M173 129h14M200 129h31M277 129h33M325 129h2M46 130h27M83 130h26M172 130h15M197 130h35M274 130h36M46 131h23M83 131h22M171 131h12M197 131h37M274 131h37M46 132h23M83 132h22M170 132h13M197 132h42M242 132h12M257 132h3M274 132h40M328 132h3M339 132h1M48 133h21M85 133h20M133 133h1M169 133h14M199 133h37M239 133h17M276 133h39M328 133h3M31 134h2M50 134h20M87 134h19M168 134h16M201 134h60M278 134h37M329 134h3M30 135h6M50 135h23M87 135h22M167 135h20M201 135h63M278 135h31M330 135h4M335 135h1M24 136h13M50 136h24M87 136h23M123 136h1M166 136h22M201 136h64M278 136h31M330 136h5M338 136h2M4 137h1M20 137h17M51 137h23M88 137h22M124 137h1M165 137h23M202 137h63M279 137h31M330 137h10M3 138h4M17 138h14M52 138h16M89 138h15M125 138h1M164 138h18M203 138h56M280 138h31M326 138h14M1 139h8M17 139h14M52 139h16M89 139h15M125 139h3M163 139h19M203 139h56M280 139h33M323 139h17M0 140h11M15 140h17M52 140h17M89 140h16M125 140h4M161 140h22M203 140h57M280 140h35M323 140h17M0 141h11M15 141h18M48 141h22M85 141h21M121 141h9M160 141h24M199 141h62M276 141h41M321 141h19M0 142h11M15 142h20M45 142h27M82 142h26M118 142h68M196 142h67M273 142h44M321 142h19M0 143h11M15 143h22M45 143h29M82 143h28M118 143h70M196 143h69M273 143h44M321 143h19M0 144h11M15 144h24M43 144h33M80 144h32M116 144h74M194 144h73M271 144h46M321 144h19M0 145h11M15 145h24M43 145h33M80 145h32M116 145h74M194 145h73M271 145h46M321 145h19M0 146h7M21 146h18M43 146h17M64 146h12M80 146h32M116 146h22M154 146h36M194 146h10M208 146h41M253 146h14M271 146h36M326 146h14M0 147h7M21 147h18M43 147h17M64 147h12M80 147h32M116 147h22M154 147h36M194 147h10M208 147h41M253 147h14M271 147h36M326 147h14M0 148h7M21 148h18M43 148h17M64 148h12M80 148h32M116 148h22M154 148h36M194 148h10M208 148h41M253 148h14M271 148h36M326 148h14M0 149h7M21 149h18M43 149h17M64 149h12M80 149h32M116 149h22M154 149h36M194 149h10M208 149h41M253 149h14M271 149h36M326 149h14" />
<path stroke="#225743" d="M10 114h3M10 115h3M316 115h3M9 116h4M316 116h3M8 117h6M315 117h4M8 118h7M38 118h3M75 118h3M111 118h3M189 118h3M266 118h3M314 118h6M7 119h9M38 119h3M75 119h3M111 119h3M189 119h3M266 119h3M314 119h7M7 120h10M37 120h4M74 120h4M110 120h4M188 120h4M265 120h4M313 120h9M7 121h10M36 121h6M73 121h6M109 121h6M187 121h6M264 121h6M313 121h10M8 122h10M36 122h7M73 122h7M109 122h7M187 122h7M264 122h7M313 122h10M9 123h10M35 123h9M72 123h9M108 123h9M186 123h9M263 123h9M314 123h10M8 124h13M35 124h10M72 124h10M108 124h10M186 124h10M263 124h10M315 124h10M8 125h13M35 125h10M72 125h10M108 125h10M186 125h10M263 125h10M314 125h13M8 126h10M36 126h10M73 126h10M109 126h10M187 126h10M264 126h10M314 126h13M4 127h14M37 127h10M74 127h10M110 127h10M188 127h10M265 127h10M314 127h10M4 128h14M36 128h13M73 128h13M109 128h13M187 128h13M264 128h13M310 128h14M4 129h16M36 129h13M73 129h13M109 129h13M187 129h13M264 129h13M310 129h14M5 130h17M36 130h10M73 130h10M109 130h10M187 130h10M264 130h10M310 130h16M8 131h14M32 131h14M69 131h14M105 131h14M183 131h14M260 131h14M311 131h17M9 132h13M32 132h14M69 132h14M105 132h14M183 132h14M260 132h14M314 132h14M9 133h14M32 133h16M69 133h16M105 133h16M183 133h16M260 133h16M315 133h13M3 134h21M33 134h17M70 134h17M106 134h17M184 134h17M261 134h17M315 134h14M3 135h21M36 135h14M73 135h14M109 135h14M187 135h14M264 135h14M309 135h21M4 136h20M37 136h13M74 136h13M110 136h13M188 136h13M265 136h13M309 136h21M5 137h15M37 137h14M74 137h14M110 137h14M188 137h14M265 137h14M310 137h20M7 138h10M31 138h21M68 138h21M104 138h21M182 138h21M259 138h21M311 138h15M9 139h8M31 139h21M68 139h21M104 139h21M182 139h21M259 139h21M313 139h10M11 140h4M32 140h20M69 140h20M105 140h20M183 140h20M260 140h20M315 140h8M11 141h4M33 141h15M70 141h15M106 141h15M184 141h15M261 141h15M317 141h4M11 142h4M35 142h10M72 142h10M108 142h10M186 142h10M263 142h10M317 142h4M11 143h4M37 143h8M74 143h8M110 143h8M188 143h8M265 143h8M317 143h4M11 144h4M39 144h4M76 144h4M112 144h4M190 144h4M267 144h4M317 144h4M11 145h4M39 145h4M76 145h4M112 145h4M190 145h4M267 145h4M317 145h4M39 146h4M76 146h4M112 146h4M190 146h4M267 146h4M317 146h4M39 147h4M76 147h4M112 147h4M190 147h4M267 147h4M39 148h4M76 148h4M112 148h4M190 148h4M267 148h4M39 149h4M76 149h4M112 149h4M190 149h4M267 149h4" />
<path stroke="#152717" d="M7 146h14M60 146h4M138 146h16M204 146h4M249 146h4M307 146h10M321 146h5M7 147h14M60 147h4M138 147h16M204 147h4M249 147h4M307 147h19M7 148h14M60 148h4M138 148h16M204 148h4M249 148h4M307 148h19M7 149h14M60 149h4M138 149h16M204 149h4M249 149h4M307 149h19M0 150h340M0 151h340M0 152h340M0 153h340M0 154h340M0 155h340M0 156h340M0 157h340M0 158h340M0 159h340M0 160h340M0 161h340M0 162h340M0 163h340M0 164h340M0 165h340M0 166h340M0 167h340M0 168h340M0 169h340M0 170h340M0 171h340M0 172h340M0 173h340M0 174h340M0 175h340M0 176h340M0 177h340M0 178h340M0 179h340M0 180h340M0 181h340M0 182h340M0 183h340M0 184h340M0 185h340M0 186h340M0 187h340M0 188h340M0 189h340M0 190h340M0 191h340M0 192h340M0 193h340M0 194h340M0 195h340M0 196h340M0 197h340M0 198h340M0 199h340" />
</svg>