<svg xmlns="http://www.w3.org/2000/svg" viewBox="0 -0.5 500 500" shape-rendering="crispEdges">
<metadata>Made with Pixels to Svg https://codepen.io/shshaw/pen/XbxvNj</metadata>
<path stroke="#000000" d="M235 2h31M223 3h13M260 3h1M266 3h12M215 4h8M235 4h1M260 4h1M278 4h8M209 5h6M235 5h1M259 5h1M286 5h6M203 6h6M235 6h1M259 6h1M292 6h6M199 7h4M234 7h1M259 7h1M298 7h4M194 8h5M232 8h3M259 8h1M302 8h5M190 9h4M230 9h3M259 9h1M307 9h4M186 10h4M227 10h3M259 10h1M277 10h4M306 10h9M183 11h3M222 11h5M259 11h1M276 11h2M281 11h3M304 11h2M315 11h3M179 12h4M215 12h7M259 12h1M276 12h1M283 12h2M304 12h1M318 12h4M176 13h3M212 13h3M259 13h1M274 13h2M284 13h2M303 13h2M317 13h1M322 13h3M173 14h3M210 14h2M259 14h1M273 14h2M286 14h1M302 14h1M317 14h1M325 14h3M170 15h3M208 15h2M259 15h2M273 15h1M286 15h1M302 15h1M317 15h1M328 15h3M167 16h3M206 16h2M260 16h1M273 16h1M286 16h2M301 16h2M316 16h2M331 16h3M164 17h3M205 17h1M261 17h1M272 17h1M287 17h1M300 17h2M316 17h1M334 17h3M159 18h1M162 18h2M202 18h3M261 18h1M271 18h1M287 18h1M298 18h3M316 18h7M337 18h2M159 19h3M202 19h1M256 19h2M262 19h1M271 19h1M287 19h1M298 19h1M322 19h2M339 19h3M157 20h2M202 20h1M256 20h2M263 20h1M270 20h2M287 20h1M298 20h1M323 20h2M342 20h2M154 21h4M200 21h2M255 21h3M263 21h2M269 21h2M287 21h1M298 21h1M325 21h2M344 21h3M152 22h2M156 22h2M198 22h2M253 22h3M257 22h1M265 22h4M287 22h1M298 22h1M326 22h1M347 22h2M149 23h3M156 23h1M196 23h2M253 23h1M257 23h1M287 23h1M298 23h1M326 23h1M349 23h3M147 24h2M156 24h1M195 24h1M251 24h3M258 24h1M287 24h6M297 24h2M322 24h5M352 24h2M145 25h2M156 25h1M194 25h1M251 25h1M258 25h1M293 25h4M322 25h1M354 25h2M143 26h2M155 26h1M192 26h2M250 26h1M258 26h1M322 26h1M356 26h2M141 27h2M154 27h1M190 27h2M247 27h3M258 27h1M283 27h3M322 27h1M358 27h2M139 28h2M154 28h1M189 28h1M246 28h1M258 28h1M283 28h1M286 28h1M321 28h2M360 28h2M137 29h2M154 29h1M186 29h3M245 29h2M258 29h1M281 29h3M286 29h3M321 29h1M362 29h2M135 30h2M154 30h1M185 30h1M245 30h1M258 30h1M281 30h1M289 30h2M321 30h1M364 30h2M133 31h2M154 31h1M185 31h1M245 31h1M256 31h2M279 31h2M291 31h1M302 31h7M321 31h1M366 31h2M131 32h2M153 32h1M183 32h2M244 32h1M256 32h10M279 32h1M291 32h1M301 32h2M308 32h1M320 32h1M368 32h2M130 33h1M153 33h1M182 33h1M243 33h1M265 33h1M279 33h1M291 33h1M301 33h1M308 33h1M319 33h1M370 33h1M128 34h2M153 34h1M180 34h2M243 34h1M265 34h1M271 34h1M279 34h1M291 34h1M301 34h1M307 34h2M319 34h1M371 34h2M126 35h2M153 35h1M178 35h2M243 35h1M265 35h1M270 35h3M279 35h1M291 35h1M301 35h2M307 35h1M319 35h1M373 35h2M124 36h2M153 36h1M174 36h4M243 36h1M265 36h1M270 36h1M273 36h5M279 36h1M291 36h1M302 36h6M318 36h2M375 36h2M121 37h3M153 37h1M172 37h2M243 37h1M261 37h5M270 37h1M277 37h1M279 37h1M290 37h2M317 37h2M377 37h1M121 38h3M154 38h1M170 38h2M243 38h1M260 38h1M270 38h1M277 38h1M279 38h1M289 38h1M316 38h2M378 38h2M119 39h2M124 39h2M154 39h16M243 39h1M260 39h1M270 39h1M277 39h1M279 39h11M314 39h3M380 39h2M118 40h1M126 40h1M243 40h1M260 40h1M270 40h1M277 40h1M311 40h3M382 40h1M116 41h2M126 41h2M243 41h1M260 41h1M270 41h7M304 41h8M383 41h2M115 42h1M128 42h1M243 42h1M261 42h1M291 42h14M385 42h1M113 43h2M128 43h1M243 43h1M261 43h2M288 43h3M386 43h2M112 44h1M128 44h1M243 44h2M262 44h2M283 44h5M388 44h1M110 45h2M128 45h1M244 45h1M263 45h1M282 45h2M389 45h2M109 46h1M126 46h3M144 46h4M245 46h1M263 46h2M280 46h2M391 46h1M107 47h2M125 47h2M142 47h2M147 47h3M245 47h1M264 47h1M278 47h2M392 47h2M106 48h1M124 48h1M141 48h2M150 48h2M245 48h1M264 48h1M277 48h2M394 48h1M105 49h1M123 49h1M140 49h2M151 49h2M246 49h1M264 49h2M275 49h2M395 49h1M103 50h2M123 50h1M140 50h1M152 50h1M246 50h2M265 50h1M273 50h2M396 50h2M102 51h1M121 51h2M139 51h2M152 51h2M248 51h1M265 51h3M271 51h3M398 51h1M101 52h1M119 52h2M139 52h1M152 52h2M248 52h2M268 52h4M399 52h1M99 53h2M119 53h1M139 53h1M152 53h1M249 53h1M400 53h2M98 54h1M118 54h2M139 54h1M152 54h1M249 54h2M402 54h1M97 55h1M117 55h2M139 55h1M151 55h2M250 55h1M403 55h1M95 56h2M116 56h1M139 56h1M150 56h2M250 56h1M404 56h2M94 57h1M116 57h1M139 57h1M142 57h8M250 57h1M406 57h1M93 58h1M116 58h1M131 58h9M141 58h1M250 58h1M407 58h1M92 59h1M115 59h1M129 59h2M141 59h2M250 59h1M408 59h1M91 60h1M115 60h1M128 60h2M142 60h1M248 60h3M409 60h1M89 61h2M115 61h1M128 61h1M142 61h1M248 61h1M410 61h2M88 62h1M115 62h1M127 62h2M142 62h1M246 62h2M412 62h1M87 63h1M115 63h1M127 63h1M142 63h1M246 63h1M413 63h1M86 64h1M116 64h1M127 64h1M141 64h1M246 64h1M414 64h1M85 65h1M116 65h1M126 65h2M141 65h1M246 65h1M415 65h1M84 66h1M116 66h1M126 66h1M139 66h2M245 66h1M416 66h1M83 67h1M116 67h7M126 67h1M138 67h2M245 67h1M417 67h1M81 68h2M123 68h1M125 68h1M137 68h2M230 68h6M245 68h1M418 68h2M80 69h1M123 69h2M134 69h3M227 69h3M235 69h4M243 69h3M420 69h1M79 70h1M123 70h2M131 70h3M227 70h1M238 70h6M421 70h1M78 71h1M114 71h8M123 71h1M128 71h3M226 71h1M363 71h2M422 71h1M77 72h1M112 72h3M121 72h1M127 72h2M225 72h2M361 72h3M365 72h4M423 72h1M76 73h1M111 73h1M120 73h1M126 73h1M207 73h11M225 73h1M360 73h1M368 73h3M424 73h1M75 74h1M111 74h1M119 74h1M126 74h1M206 74h2M217 74h3M225 74h1M359 74h2M370 74h2M425 74h1M74 75h1M109 75h2M118 75h2M125 75h1M206 75h1M220 75h5M359 75h1M372 75h2M382 75h13M426 75h1M73 76h1M109 76h1M118 76h1M124 76h1M206 76h1M359 76h1M373 76h9M395 76h1M427 76h1M72 77h1M109 77h1M118 77h1M124 77h1M206 77h2M359 77h1M395 77h1M428 77h1M71 78h1M109 78h1M117 78h1M124 78h1M207 78h1M359 78h1M395 78h1M417 78h9M429 78h1M70 79h1M108 79h1M116 79h1M123 79h2M207 79h2M359 79h1M395 79h2M410 79h7M425 79h1M430 79h1M69 80h1M108 80h1M115 80h2M123 80h1M208 80h1M359 80h1M396 80h1M406 80h5M426 80h1M431 80h1M68 81h1M108 81h1M114 81h1M123 81h1M209 81h1M359 81h1M396 81h1M405 81h1M427 81h1M432 81h1M68 82h1M108 82h1M114 82h1M123 82h1M210 82h2M359 82h1M396 82h1M402 82h4M427 82h2M432 82h1M67 83h1M107 83h1M114 83h1M123 83h1M211 83h2M359 83h1M396 83h1M401 83h1M428 83h1M433 83h1M66 84h1M106 84h1M113 84h2M121 84h2M212 84h1M359 84h1M395 84h2M398 84h3M429 84h2M434 84h1M65 85h1M106 85h1M112 85h2M121 85h1M212 85h1M359 85h2M394 85h2M397 85h2M430 85h2M435 85h1M64 86h1M106 86h1M112 86h1M121 86h1M212 86h1M360 86h1M394 86h1M397 86h1M431 86h1M436 86h1M63 87h1M105 87h2M111 87h1M121 87h1M212 87h1M360 87h1M393 87h5M431 87h1M437 87h1M62 88h1M105 88h1M110 88h2M120 88h1M212 88h1M360 88h1M432 88h3M438 88h1M61 89h1M104 89h1M109 89h2M120 89h1M212 89h1M360 89h1M434 89h1M439 89h1M61 90h1M104 90h1M109 90h1M119 90h2M212 90h1M360 90h1M434 90h1M439 90h1M60 91h1M104 91h1M109 91h1M119 91h1M212 91h1M360 91h1M434 91h1M440 91h1M59 92h1M103 92h1M109 92h1M119 92h1M212 92h1M360 92h1M434 92h1M441 92h1M58 93h1M103 93h1M108 93h1M118 93h1M212 93h1M360 93h1M434 93h1M442 93h1M57 94h1M103 94h1M108 94h1M117 94h1M212 94h1M360 94h1M434 94h1M443 94h1M56 95h1M102 95h1M108 95h1M116 95h1M211 95h2M360 95h1M434 95h1M444 95h1M56 96h1M101 96h1M108 96h1M115 96h1M211 96h1M360 96h1M433 96h2M444 96h1M55 97h1M101 97h1M108 97h1M114 97h1M210 97h2M360 97h2M432 97h2M445 97h1M54 98h1M99 98h2M107 98h1M113 98h1M208 98h3M361 98h1M429 98h3M446 98h1M53 99h1M98 99h2M107 99h6M187 99h9M207 99h2M361 99h1M426 99h3M447 99h1M53 100h1M96 100h3M185 100h3M196 100h11M361 100h1M422 100h5M447 100h1M52 101h1M95 101h1M185 101h1M361 101h1M420 101h3M448 101h1M51 102h1M94 102h1M184 102h1M288 102h17M361 102h1M417 102h4M449 102h1M50 103h1M93 103h1M182 103h2M285 103h3M305 103h4M342 103h11M360 103h1M408 103h10M450 103h1M50 104h1M91 104h2M182 104h1M284 104h1M309 104h1M339 104h4M353 104h2M360 104h1M406 104h3M450 104h1M49 105h1M90 105h2M180 105h2M255 105h10M284 105h1M310 105h4M334 105h5M355 105h6M401 105h6M451 105h1M48 106h1M88 106h3M180 106h1M253 106h3M265 106h1M284 106h1M314 106h1M330 106h4M399 106h2M452 106h1M47 107h1M84 107h4M180 107h1M252 107h2M266 107h3M284 107h1M314 107h2M329 107h2M396 107h3M453 107h1M47 108h1M81 108h3M180 108h1M251 108h1M268 108h2M284 108h3M316 108h3M329 108h1M392 108h4M453 108h1M46 109h1M81 109h1M181 109h1M250 109h2M270 109h1M286 109h3M319 109h1M328 109h1M390 109h3M454 109h1M45 110h1M78 110h3M181 110h1M249 110h2M270 110h2M288 110h2M319 110h3M328 110h1M388 110h3M455 110h1M45 111h1M76 111h3M181 111h2M248 111h2M271 111h2M289 111h2M321 111h1M328 111h1M387 111h2M455 111h1M44 112h1M75 112h2M182 112h1M247 112h2M273 112h2M290 112h2M322 112h1M328 112h1M386 112h2M456 112h1M43 113h1M73 113h3M182 113h1M245 113h2M275 113h2M292 113h1M322 113h1M328 113h1M385 113h1M457 113h1M43 114h1M71 114h2M183 114h1M232 114h2M245 114h1M277 114h2M293 114h1M322 114h1M328 114h1M385 114h1M457 114h1M42 115h1M70 115h2M184 115h1M232 115h1M234 115h2M243 115h3M279 115h1M293 115h2M322 115h1M328 115h1M383 115h3M458 115h1M41 116h1M69 116h2M184 116h1M232 116h1M235 116h2M243 116h1M280 116h1M294 116h1M322 116h1M328 116h1M383 116h1M459 116h1M41 117h1M69 117h1M184 117h1M231 117h2M236 117h7M281 117h2M295 117h2M322 117h1M328 117h1M383 117h1M459 117h1M40 118h1M68 118h1M184 118h2M231 118h1M283 118h1M296 118h2M322 118h1M328 118h1M382 118h1M460 118h1M39 119h1M67 119h1M185 119h1M230 119h1M283 119h1M298 119h1M322 119h1M328 119h1M382 119h1M461 119h1M39 120h1M67 120h1M185 120h1M230 120h1M284 120h1M298 120h2M322 120h1M328 120h1M382 120h1M461 120h1M38 121h1M67 121h1M185 121h1M228 121h3M285 121h2M300 121h2M322 121h1M327 121h2M381 121h1M398 121h5M462 121h1M38 122h1M66 122h1M185 122h1M227 122h2M287 122h2M301 122h2M322 122h1M327 122h1M380 122h1M397 122h2M402 122h1M462 122h1M37 123h1M65 123h1M185 123h2M227 123h1M288 123h2M302 123h2M322 123h1M327 123h1M380 123h1M395 123h3M402 123h2M463 123h1M36 124h1M65 124h1M187 124h1M227 124h1M289 124h1M303 124h1M322 124h1M327 124h1M380 124h1M395 124h1M404 124h2M464 124h1M36 125h1M65 125h1M187 125h1M225 125h2M289 125h1M304 125h1M322 125h1M327 125h1M380 125h1M394 125h2M405 125h2M464 125h1M35 126h1M65 126h1M187 126h2M223 126h3M289 126h1M304 126h1M322 126h1M327 126h1M380 126h1M393 126h1M406 126h3M465 126h1M35 127h1M65 127h1M188 127h2M223 127h1M289 127h1M304 127h1M322 127h1M327 127h1M380 127h1M393 127h1M409 127h2M465 127h1M34 128h1M64 128h1M189 128h1M222 128h1M289 128h1M296 128h9M322 128h2M327 128h1M380 128h3M392 128h2M410 128h5M466 128h1M34 129h1M64 129h1M189 129h1M220 129h2M289 129h1M295 129h2M323 129h1M327 129h1M382 129h1M392 129h1M414 129h2M439 129h6M466 129h1M33 130h1M63 130h1M190 130h1M220 130h1M289 130h1M294 130h2M323 130h2M327 130h1M383 130h1M391 130h2M416 130h24M444 130h5M467 130h1M32 131h1M63 131h1M190 131h1M206 131h3M218 131h2M289 131h1M294 131h1M324 131h4M384 131h7M448 131h3M468 131h1M32 132h1M62 132h1M190 132h1M204 132h3M208 132h1M217 132h1M289 132h1M294 132h1M451 132h1M468 132h1M31 133h1M62 133h1M190 133h1M202 133h3M208 133h1M216 133h2M289 133h1M294 133h1M452 133h2M469 133h1M31 134h1M62 134h1M190 134h1M202 134h1M208 134h1M215 134h1M286 134h4M294 134h1M454 134h3M469 134h1M30 135h1M61 135h1M190 135h1M200 135h3M208 135h8M284 135h3M293 135h2M456 135h1M470 135h1M30 136h1M61 136h1M190 136h1M200 136h1M283 136h2M291 136h2M456 136h1M470 136h1M29 137h1M61 137h1M190 137h1M199 137h1M283 137h1M291 137h1M456 137h1M471 137h1M29 138h1M61 138h1M190 138h1M198 138h2M283 138h1M289 138h2M456 138h1M471 138h1M28 139h1M60 139h1M190 139h1M197 139h1M283 139h1M289 139h1M456 139h1M472 139h1M28 140h1M60 140h1M190 140h1M197 140h1M283 140h1M288 140h1M456 140h1M472 140h1M27 141h1M60 141h1M190 141h1M195 141h2M283 141h6M456 141h1M473 141h1M27 142h1M60 142h1M190 142h5M385 142h19M456 142h1M473 142h1M26 143h1M60 143h1M311 143h14M383 143h3M404 143h5M457 143h1M474 143h1M26 144h1M60 144h1M307 144h5M325 144h1M383 144h1M409 144h3M457 144h1M474 144h1M25 145h1M60 145h1M302 145h5M326 145h5M382 145h2M412 145h11M457 145h2M475 145h1M25 146h1M60 146h1M296 146h6M331 146h5M382 146h1M423 146h3M458 146h1M475 146h1M24 147h1M60 147h1M295 147h1M336 147h2M382 147h1M426 147h2M458 147h1M476 147h1M24 148h1M60 148h1M209 148h31M289 148h6M338 148h6M382 148h1M428 148h2M457 148h2M476 148h1M23 149h1M60 149h1M208 149h1M240 149h5M287 149h2M344 149h2M382 149h1M430 149h1M457 149h1M477 149h1M23 150h1M59 150h2M207 150h1M245 150h15M278 150h9M346 150h5M382 150h1M431 150h2M453 150h4M477 150h1M23 151h1M59 151h1M205 151h2M260 151h18M351 151h6M382 151h1M433 151h1M451 151h2M477 151h1M22 152h1M59 152h1M204 152h1M357 152h1M382 152h1M434 152h1M449 152h2M478 152h1M22 153h1M59 153h1M203 153h1M358 153h1M382 153h1M435 153h1M448 153h1M478 153h1M21 154h1M59 154h1M201 154h2M359 154h2M382 154h1M436 154h2M446 154h3M479 154h1M21 155h1M58 155h1M200 155h1M361 155h3M381 155h1M437 155h1M445 155h1M479 155h1M21 156h1M58 156h1M198 156h2M364 156h2M381 156h1M438 156h2M444 156h2M479 156h1M20 157h1M58 157h1M197 157h1M366 157h2M381 157h1M439 157h1M443 157h2M451 157h5M480 157h1M20 158h1M58 158h1M195 158h2M368 158h3M380 158h2M439 158h2M443 158h1M451 158h1M456 158h1M480 158h1M19 159h1M58 159h1M194 159h1M371 159h2M378 159h2M441 159h1M443 159h1M450 159h2M456 159h2M481 159h1M19 160h1M58 160h1M192 160h2M373 160h5M442 160h1M449 160h1M458 160h1M481 160h1M19 161h1M58 161h1M191 161h1M443 161h1M447 161h3M458 161h1M481 161h1M18 162h1M58 162h1M190 162h1M444 162h3M458 162h1M482 162h1M18 163h1M58 163h1M189 163h1M445 163h1M458 163h2M482 163h1M17 164h1M58 164h1M188 164h1M446 164h1M459 164h1M483 164h1M17 165h1M58 165h1M187 165h1M447 165h1M459 165h1M483 165h1M17 166h1M58 166h1M186 166h1M448 166h1M459 166h1M483 166h1M16 167h1M58 167h1M185 167h1M449 167h1M459 167h1M484 167h1M16 168h1M58 168h1M184 168h2M449 168h1M459 168h1M484 168h1M16 169h1M58 169h1M183 169h1M449 169h1M459 169h1M484 169h1M15 170h1M58 170h1M182 170h1M449 170h1M459 170h1M485 170h1M15 171h1M57 171h2M182 171h1M450 171h1M459 171h1M485 171h1M15 172h1M57 172h1M181 172h1M450 172h1M459 172h1M485 172h1M14 173h1M57 173h1M180 173h1M450 173h1M460 173h1M486 173h1M14 174h1M56 174h1M179 174h1M450 174h1M460 174h1M486 174h1M14 175h1M55 175h1M178 175h1M450 175h1M460 175h1M486 175h1M13 176h1M54 176h1M178 176h1M451 176h1M460 176h1M487 176h1M13 177h1M54 177h1M177 177h1M451 177h1M460 177h1M487 177h1M13 178h1M53 178h1M176 178h1M451 178h1M460 178h2M487 178h1M12 179h1M52 179h1M176 179h1M451 179h1M461 179h1M488 179h1M12 180h1M50 180h2M175 180h1M451 180h1M461 180h1M488 180h1M12 181h1M42 181h9M175 181h1M451 181h1M462 181h1M488 181h1M12 182h1M41 182h2M175 182h1M451 182h1M463 182h1M488 182h1M11 183h1M40 183h1M174 183h1M451 183h1M464 183h2M489 183h1M11 184h1M38 184h3M174 184h1M451 184h1M466 184h1M489 184h1M11 185h1M38 185h1M174 185h1M451 185h1M467 185h1M489 185h1M10 186h1M37 186h1M173 186h1M451 186h1M467 186h2M490 186h1M10 187h1M37 187h1M173 187h1M451 187h1M469 187h2M490 187h1M10 188h1M37 188h1M172 188h1M451 188h1M470 188h1M490 188h1M10 189h1M35 189h2M172 189h1M451 189h1M471 189h2M490 189h1M9 190h1M35 190h1M171 190h1M451 190h1M473 190h1M491 190h1M9 191h1M34 191h2M171 191h1M452 191h1M474 191h2M491 191h1M9 192h1M34 192h1M171 192h1M452 192h1M476 192h2M491 192h1M9 193h1M33 193h1M170 193h1M452 193h1M478 193h1M491 193h1M8 194h1M33 194h1M170 194h1M452 194h1M478 194h2M492 194h1M8 195h1M32 195h1M170 195h1M452 195h1M479 195h2M492 195h1M8 196h1M32 196h1M169 196h1M453 196h1M481 196h1M492 196h1M8 197h1M31 197h1M169 197h1M453 197h1M482 197h1M492 197h1M8 198h1M30 198h1M169 198h1M453 198h1M482 198h1M492 198h1M7 199h1M30 199h1M169 199h1M454 199h1M482 199h2M493 199h1M7 200h1M30 200h1M169 200h1M454 200h1M483 200h1M493 200h1M7 201h1M30 201h1M169 201h1M454 201h1M483 201h2M493 201h1M7 202h1M29 202h1M169 202h1M455 202h1M484 202h1M493 202h1M6 203h1M28 203h1M169 203h1M455 203h1M484 203h1M494 203h1M6 204h1M28 204h1M169 204h1M456 204h1M484 204h1M494 204h1M6 205h1M27 205h1M169 205h1M456 205h1M484 205h1M494 205h1M6 206h1M27 206h1M169 206h1M456 206h1M484 206h1M492 206h3M6 207h1M27 207h1M169 207h1M457 207h1M483 207h2M489 207h4M494 207h1M6 208h1M26 208h1M169 208h1M458 208h1M483 208h1M489 208h1M494 208h1M5 209h1M25 209h1M170 209h1M458 209h1M482 209h1M486 209h3M495 209h1M5 210h1M25 210h1M170 210h1M458 210h1M482 210h1M486 210h1M495 210h1M5 211h1M25 211h1M170 211h1M459 211h1M481 211h2M486 211h1M495 211h1M5 212h1M24 212h1M170 212h1M459 212h1M481 212h1M484 212h2M495 212h1M5 213h1M24 213h1M170 213h1M459 213h1M481 213h1M484 213h1M495 213h1M5 214h1M24 214h1M171 214h1M460 214h1M480 214h1M483 214h1M495 214h1M4 215h1M24 215h1M171 215h1M461 215h1M480 215h1M482 215h2M496 215h1M4 216h1M23 216h1M171 216h1M461 216h1M480 216h1M482 216h1M496 216h1M4 217h1M23 217h1M171 217h1M461 217h1M479 217h1M481 217h2M496 217h1M4 218h1M22 218h1M172 218h1M461 218h1M479 218h1M481 218h1M487 218h5M496 218h1M4 219h1M22 219h1M172 219h1M462 219h1M479 219h2M487 219h1M492 219h1M496 219h1M4 220h1M22 220h1M172 220h1M462 220h1M486 220h2M492 220h1M496 220h1M4 221h1M22 221h1M173 221h1M462 221h1M486 221h1M492 221h1M496 221h1M4 222h1M22 222h1M173 222h1M463 222h1M486 222h1M493 222h2M496 222h1M3 223h1M22 223h1M174 223h1M463 223h1M486 223h1M494 223h1M497 223h1M3 224h1M22 224h1M174 224h1M464 224h1M486 224h1M494 224h2M497 224h1M3 225h1M22 225h1M174 225h1M465 225h1M486 225h1M496 225h2M3 226h1M22 226h1M175 226h1M466 226h1M485 226h1M497 226h1M3 227h1M22 227h1M175 227h1M467 227h1M485 227h1M497 227h1M3 228h1M22 228h1M176 228h1M468 228h1M485 228h1M497 228h1M3 229h1M21 229h1M176 229h1M469 229h1M484 229h2M497 229h1M3 230h1M21 230h1M177 230h1M470 230h2M484 230h1M497 230h1M3 231h1M21 231h1M178 231h1M471 231h1M484 231h1M497 231h1M3 232h1M20 232h2M178 232h1M472 232h1M484 232h1M497 232h1M3 233h1M20 233h1M179 233h1M473 233h1M484 233h1M497 233h1M3 234h1M20 234h1M179 234h1M474 234h2M483 234h2M497 234h1M2 235h1M20 235h1M180 235h1M476 235h7M498 235h1M2 236h1M20 236h1M180 236h1M498 236h1M2 237h1M20 237h1M181 237h1M498 237h1M2 238h1M20 238h1M181 238h1M498 238h1M2 239h1M20 239h1M182 239h1M498 239h1M2 240h1M20 240h1M182 240h1M498 240h1M2 241h1M20 241h1M183 241h1M498 241h1M2 242h1M20 242h1M183 242h1M498 242h1M2 243h1M20 243h1M184 243h1M498 243h1M2 244h1M20 244h1M184 244h1M498 244h1M2 245h1M20 245h1M185 245h1M498 245h1M2 246h1M20 246h1M185 246h1M498 246h1M2 247h1M20 247h1M186 247h2M498 247h1M2 248h1M20 248h1M188 248h2M498 248h1M2 249h2M20 249h1M190 249h1M498 249h1M2 250h3M20 250h1M191 250h1M498 250h1M2 251h1M4 251h1M20 251h1M192 251h1M498 251h1M2 252h1M5 252h1M20 252h1M193 252h1M498 252h1M2 253h1M5 253h1M20 253h1M194 253h2M498 253h1M2 254h1M5 254h1M20 254h1M196 254h1M498 254h1M2 255h1M5 255h1M20 255h1M197 255h1M498 255h1M2 256h1M6 256h1M20 256h1M198 256h2M498 256h1M2 257h1M7 257h1M20 257h1M200 257h1M498 257h1M2 258h1M7 258h1M20 258h1M201 258h1M498 258h1M2 259h1M7 259h1M20 259h1M202 259h1M498 259h1M2 260h1M7 260h1M20 260h1M203 260h1M498 260h1M2 261h1M7 261h1M20 261h1M204 261h1M498 261h1M2 262h1M7 262h1M19 262h1M205 262h1M498 262h1M2 263h1M7 263h1M19 263h1M206 263h1M498 263h1M2 264h1M7 264h1M19 264h1M207 264h1M498 264h1M2 265h1M7 265h1M19 265h1M208 265h1M498 265h1M3 266h1M7 266h1M18 266h1M209 266h2M497 266h1M3 267h1M7 267h1M17 267h2M211 267h2M497 267h1M3 268h1M7 268h1M17 268h1M213 268h2M497 268h1M3 269h1M8 269h1M17 269h1M215 269h3M497 269h1M3 270h1M8 270h5M15 270h2M218 270h2M497 270h1M3 271h1M12 271h4M220 271h2M497 271h1M3 272h1M222 272h2M497 272h1M3 273h1M224 273h4M497 273h1M3 274h1M228 274h5M497 274h1M3 275h1M233 275h5M497 275h1M3 276h1M238 276h4M497 276h1M3 277h1M242 277h5M497 277h1M4 278h1M247 278h6M496 278h1M4 279h1M253 279h5M496 279h1M4 280h1M258 280h4M496 280h1M4 281h1M262 281h3M496 281h1M4 282h1M265 282h3M496 282h1M4 283h1M268 283h2M496 283h1M4 284h1M270 284h4M496 284h1M4 285h1M274 285h1M496 285h1M5 286h1M274 286h1M495 286h1M5 287h1M274 287h1M495 287h1M5 288h1M274 288h1M495 288h1M5 289h1M274 289h1M495 289h1M5 290h1M275 290h1M495 290h1M5 291h1M276 291h1M495 291h1M6 292h1M277 292h9M494 292h1M6 293h1M278 293h1M286 293h6M494 293h1M6 294h1M278 294h1M292 294h2M494 294h1M6 295h1M294 295h4M494 295h1M6 296h1M298 296h2M494 296h1M6 297h1M300 297h2M494 297h1M7 298h1M302 298h3M493 298h1M7 299h1M305 299h3M493 299h1M7 300h1M308 300h3M493 300h1M7 301h1M311 301h2M493 301h1M8 302h1M313 302h1M492 302h1M8 303h1M313 303h2M492 303h1M8 304h1M314 304h1M492 304h1M8 305h1M315 305h1M492 305h1M8 306h1M315 306h1M492 306h1M9 307h1M316 307h1M491 307h1M9 308h1M316 308h1M491 308h1M9 309h1M316 309h1M491 309h1M9 310h1M316 310h1M491 310h1M10 311h1M316 311h1M490 311h1M10 312h1M316 312h1M490 312h1M10 313h1M317 313h1M490 313h1M10 314h1M317 314h1M490 314h1M11 315h1M317 315h1M489 315h1M11 316h1M317 316h1M489 316h1M11 317h1M317 317h1M489 317h1M12 318h1M317 318h1M488 318h1M12 319h1M317 319h1M488 319h1M12 320h1M52 320h8M317 320h1M488 320h1M12 321h1M46 321h6M60 321h12M317 321h1M488 321h1M13 322h1M41 322h5M72 322h6M317 322h1M487 322h1M13 323h1M37 323h4M78 323h2M317 323h1M487 323h1M13 324h1M35 324h3M80 324h5M317 324h1M487 324h1M14 325h1M33 325h2M85 325h2M317 325h1M486 325h1M14 326h1M32 326h1M87 326h3M317 326h1M486 326h1M14 327h1M30 327h2M90 327h2M317 327h1M486 327h1M15 328h1M28 328h2M92 328h2M317 328h1M485 328h1M15 329h1M25 329h3M94 329h1M317 329h1M485 329h1M15 330h1M23 330h2M94 330h1M317 330h1M485 330h1M16 331h1M22 331h1M95 331h2M316 331h1M484 331h1M16 332h1M20 332h2M97 332h1M316 332h1M484 332h1M16 333h1M19 333h1M98 333h1M315 333h1M484 333h1M17 334h2M98 334h3M315 334h1M483 334h1M17 335h1M101 335h1M315 335h1M483 335h1M17 336h1M102 336h1M314 336h1M483 336h1M18 337h1M103 337h1M314 337h1M482 337h1M18 338h1M104 338h1M313 338h1M482 338h1M19 339h1M104 339h2M313 339h1M481 339h1M19 340h1M105 340h1M313 340h1M481 340h1M19 341h1M106 341h1M313 341h1M481 341h1M20 342h1M107 342h1M313 342h1M480 342h1M20 343h1M108 343h1M313 343h1M480 343h1M21 344h1M109 344h1M313 344h1M479 344h1M21 345h1M109 345h3M313 345h1M479 345h1M21 346h1M111 346h1M313 346h1M479 346h1M22 347h1M112 347h1M313 347h1M478 347h1M22 348h1M112 348h1M313 348h1M478 348h1M23 349h1M113 349h1M313 349h1M477 349h1M23 350h1M113 350h1M313 350h1M477 350h1M23 351h1M113 351h1M313 351h1M477 351h1M24 352h1M113 352h1M313 352h1M476 352h1M24 353h1M113 353h1M313 353h1M476 353h1M25 354h1M113 354h1M313 354h1M475 354h1M25 355h1M113 355h1M313 355h1M475 355h1M26 356h1M113 356h1M313 356h1M474 356h1M26 357h1M113 357h1M313 357h1M474 357h1M27 358h1M113 358h1M313 358h1M473 358h1M27 359h1M113 359h1M313 359h1M473 359h1M28 360h1M113 360h1M313 360h1M472 360h1M28 361h1M113 361h1M313 361h1M472 361h1M29 362h1M113 362h1M313 362h1M471 362h1M29 363h1M113 363h1M313 363h1M471 363h1M30 364h1M113 364h1M313 364h1M470 364h1M30 365h1M113 365h1M313 365h1M470 365h1M31 366h1M113 366h1M314 366h1M469 366h1M31 367h1M113 367h1M314 367h1M469 367h1M32 368h1M113 368h1M314 368h1M468 368h1M32 369h1M113 369h3M314 369h1M468 369h1M33 370h1M116 370h2M314 370h1M467 370h1M34 371h1M118 371h4M314 371h1M466 371h1M34 372h1M122 372h9M314 372h1M466 372h1M35 373h1M131 373h4M314 373h1M465 373h1M35 374h1M135 374h3M314 374h1M465 374h1M36 375h1M138 375h3M315 375h1M464 375h1M36 376h1M141 376h3M315 376h1M464 376h1M37 377h1M144 377h1M315 377h1M463 377h1M38 378h1M145 378h2M315 378h1M462 378h1M38 379h1M147 379h2M316 379h1M462 379h1M39 380h1M149 380h1M316 380h1M461 380h1M39 381h1M150 381h2M316 381h1M461 381h1M40 382h1M152 382h2M317 382h1M460 382h1M41 383h1M154 383h1M318 383h1M459 383h1M41 384h1M155 384h1M318 384h1M459 384h1M42 385h1M156 385h1M319 385h1M458 385h1M43 386h1M157 386h1M320 386h1M457 386h1M43 387h1M158 387h1M320 387h1M457 387h1M44 388h1M158 388h1M321 388h1M456 388h1M45 389h1M159 389h2M321 389h1M455 389h1M45 390h1M161 390h1M322 390h1M455 390h1M46 391h1M161 391h1M323 391h1M454 391h1M47 392h1M162 392h1M324 392h1M453 392h1M47 393h1M162 393h1M325 393h1M453 393h1M48 394h1M163 394h1M326 394h1M452 394h1M49 395h1M163 395h2M327 395h2M451 395h1M50 396h1M164 396h1M329 396h1M450 396h1M50 397h1M161 397h4M330 397h2M450 397h1M51 398h1M161 398h1M332 398h1M449 398h1M52 399h1M160 399h2M333 399h2M448 399h1M53 400h1M160 400h1M335 400h2M447 400h1M53 401h1M160 401h1M337 401h2M447 401h1M54 402h1M160 402h1M339 402h1M446 402h1M55 403h1M160 403h1M340 403h2M445 403h1M56 404h1M160 404h1M342 404h2M444 404h1M56 405h1M160 405h1M344 405h2M444 405h1M57 406h1M160 406h1M346 406h1M443 406h1M58 407h1M160 407h1M347 407h2M442 407h1M59 408h1M160 408h1M349 408h2M441 408h1M60 409h1M161 409h1M351 409h3M440 409h1M61 410h1M161 410h1M354 410h3M439 410h1M61 411h1M161 411h1M357 411h3M439 411h1M62 412h1M161 412h1M360 412h4M438 412h1M63 413h1M161 413h1M364 413h2M437 413h1M64 414h1M161 414h1M366 414h6M436 414h1M65 415h1M162 415h1M372 415h2M435 415h1M66 416h1M162 416h1M374 416h3M434 416h1M67 417h1M162 417h1M377 417h2M433 417h1M68 418h1M162 418h1M379 418h1M432 418h1M68 419h1M163 419h1M380 419h1M432 419h1M69 420h1M163 420h1M381 420h3M431 420h1M70 421h1M164 421h1M384 421h1M430 421h1M71 422h1M164 422h2M385 422h1M429 422h1M72 423h1M166 423h1M386 423h1M428 423h1M73 424h1M167 424h1M386 424h1M427 424h1M74 425h1M167 425h1M387 425h2M426 425h1M75 426h1M167 426h1M389 426h1M425 426h1M76 427h1M167 427h1M389 427h1M424 427h1M77 428h1M167 428h1M389 428h1M423 428h1M78 429h1M167 429h1M389 429h1M422 429h1M79 430h1M167 430h1M389 430h1M421 430h1M80 431h1M167 431h1M389 431h1M420 431h1M81 432h2M167 432h1M389 432h1M418 432h2M83 433h1M167 433h1M389 433h1M417 433h1M84 434h1M167 434h1M389 434h1M416 434h1M85 435h1M167 435h1M389 435h1M415 435h1M86 436h1M167 436h1M388 436h1M414 436h1M87 437h1M167 437h1M388 437h1M413 437h1M88 438h1M167 438h1M388 438h1M412 438h1M89 439h2M167 439h1M387 439h1M410 439h2M91 440h1M167 440h1M387 440h1M409 440h1M92 441h1M167 441h1M387 441h1M408 441h1M93 442h1M166 442h1M387 442h1M407 442h1M94 443h1M166 443h1M387 443h1M406 443h1M95 444h2M166 444h1M386 444h1M404 444h2M97 445h1M166 445h1M386 445h1M403 445h1M98 446h1M166 446h1M386 446h1M402 446h1M99 447h2M165 447h1M386 447h1M400 447h2M101 448h1M165 448h1M386 448h1M399 448h1M102 449h1M165 449h1M386 449h1M398 449h1M103 450h2M165 450h1M386 450h1M396 450h2M105 451h1M164 451h1M386 451h1M395 451h1M106 452h1M164 452h1M386 452h1M394 452h1M107 453h2M164 453h1M386 453h1M392 453h2M109 454h1M164 454h1M386 454h1M391 454h1M110 455h2M164 455h1M386 455h1M389 455h2M112 456h1M164 456h1M386 456h3M113 457h2M164 457h1M386 457h2M115 458h1M164 458h1M385 458h1M116 459h2M164 459h1M383 459h2M118 460h1M164 460h1M382 460h1M119 461h2M164 461h1M380 461h2M121 462h2M164 462h1M378 462h2M123 463h1M164 463h1M377 463h1M124 464h2M164 464h1M375 464h2M126 465h2M164 465h1M373 465h2M128 466h2M164 466h1M371 466h2M130 467h1M164 467h1M370 467h1M131 468h2M164 468h2M368 468h2M133 469h2M165 469h2M366 469h2M135 470h2M166 470h2M364 470h2M137 471h2M167 471h1M362 471h2M139 472h2M167 472h1M360 472h2M141 473h2M167 473h2M358 473h2M143 474h2M169 474h1M356 474h2M145 475h2M169 475h1M354 475h2M147 476h2M169 476h2M352 476h2M149 477h3M170 477h1M349 477h3M152 478h2M170 478h1M347 478h2M154 479h3M170 479h1M344 479h3M157 480h2M170 480h1M342 480h2M159 481h3M170 481h1M339 481h3M162 482h2M170 482h1M337 482h2M164 483h3M170 483h1M334 483h3M167 484h4M331 484h3M170 485h3M328 485h3M173 486h3M325 486h3M176 487h3M322 487h3M179 488h4M318 488h4M183 489h3M315 489h3M186 490h4M311 490h4M190 491h4M307 491h4M194 492h5M302 492h5M199 493h4M298 493h4M203 494h6M292 494h6M209 495h6M286 495h6M215 496h8M278 496h8M223 497h12M266 497h12M235 498h31" />
<path stroke="#1a237e" d="M236 3h24M236 4h24M236 5h23M236 6h23M235 7h24M235 8h24M233 9h26M230 10h29M227 11h32M278 11h3M306 11h9M222 12h37M277 12h6M305 12h13M215 13h44M276 13h8M305 13h12M212 14h47M275 14h11M303 14h14M210 15h49M274 15h12M303 15h14M208 16h52M274 16h12M303 16h13M206 17h55M273 17h14M302 17h14M205 18h56M272 18h15M301 18h15M203 19h53M258 19h4M272 19h15M299 19h23M203 20h53M258 20h5M272 20h15M299 20h24M202 21h53M258 21h5M271 21h16M299 21h26M154 22h2M200 22h53M258 22h7M269 22h18M299 22h27M152 23h4M198 23h55M258 23h29M299 23h27M149 24h7M196 24h55M259 24h28M299 24h23M147 25h9M195 25h56M259 25h34M297 25h25M145 26h10M194 26h56M259 26h63M143 27h11M192 27h55M259 27h24M286 27h36M141 28h13M190 28h56M259 28h24M287 28h34M139 29h15M189 29h56M259 29h22M289 29h32M137 30h17M186 30h59M259 30h22M291 30h30M135 31h19M186 31h59M258 31h21M292 31h10M309 31h12M133 32h20M185 32h59M266 32h13M292 32h9M309 32h11M131 33h22M183 33h60M266 33h13M292 33h9M309 33h10M130 34h23M182 34h61M266 34h5M272 34h7M292 34h9M309 34h10M128 35h25M180 35h63M266 35h4M273 35h6M292 35h9M308 35h11M126 36h27M178 36h65M266 36h4M278 36h1M292 36h10M308 36h10M124 37h29M174 37h69M266 37h4M278 37h1M292 37h25M124 38h30M172 38h71M261 38h9M278 38h1M290 38h26M126 39h28M170 39h73M261 39h9M278 39h1M290 39h24M127 40h116M261 40h9M278 40h33M128 41h115M261 41h9M277 41h27M129 42h114M262 42h29M129 43h114M263 43h25M129 44h114M264 44h19M129 45h115M264 45h18M129 46h15M148 46h97M265 46h15M127 47h15M150 47h95M265 47h13M125 48h16M152 48h93M265 48h12M124 49h16M153 49h93M266 49h9M124 50h16M153 50h93M266 50h7M123 51h16M154 51h94M268 51h3M121 52h18M154 52h94M120 53h19M153 53h96M120 54h19M153 54h96M119 55h20M153 55h97M117 56h22M152 56h98M117 57h22M150 57h100M117 58h14M142 58h108M116 59h13M143 59h107M116 60h12M143 60h105M116 61h12M143 61h105M116 62h11M143 62h103M116 63h11M143 63h103M117 64h10M142 64h104M117 65h9M142 65h104M117 66h9M141 66h104M123 67h3M140 67h105M124 68h1M139 68h91M236 68h9M137 69h90M239 69h4M134 70h93M131 71h95M115 72h6M129 72h96M364 72h1M112 73h8M127 73h80M218 73h7M361 73h7M112 74h7M127 74h79M220 74h5M361 74h9M111 75h7M126 75h80M360 75h12M110 76h8M125 76h81M360 76h13M382 76h13M110 77h8M125 77h81M360 77h35M110 78h7M125 78h82M360 78h35M109 79h7M125 79h82M360 79h35M417 79h8M109 80h6M124 80h84M360 80h36M411 80h15M109 81h5M124 81h85M360 81h36M406 81h21M109 82h5M124 82h86M360 82h36M406 82h21M108 83h6M124 83h87M360 83h36M402 83h26M107 84h6M123 84h89M360 84h35M401 84h28M107 85h5M122 85h90M361 85h33M399 85h31M107 86h5M122 86h90M361 86h33M398 86h33M107 87h4M122 87h90M361 87h32M398 87h33M106 88h4M121 88h91M361 88h71M105 89h4M121 89h91M361 89h73M105 90h4M121 90h91M361 90h73M105 91h4M120 91h92M361 91h73M104 92h5M120 92h92M361 92h73M104 93h4M119 93h93M361 93h73M104 94h4M118 94h94M361 94h73M103 95h5M117 95h94M361 95h73M102 96h6M116 96h95M361 96h72M102 97h6M115 97h95M362 97h70M101 98h6M114 98h94M362 98h67M100 99h7M113 99h74M196 99h11M362 99h64M99 100h86M362 100h60M96 101h89M362 101h58M95 102h89M362 102h55M94 103h88M288 103h17M361 103h47M93 104h89M285 104h24M343 104h10M361 104h45M92 105h88M285 105h25M339 105h16M361 105h40M91 106h89M256 106h9M285 106h29M334 106h65M88 107h92M254 107h12M285 107h29M331 107h65M84 108h96M252 108h16M287 108h29M330 108h62M82 109h99M252 109h18M289 109h30M329 109h61M81 110h100M251 110h19M290 110h29M329 110h59M79 111h102M250 111h21M291 111h30M329 111h58M77 112h105M249 112h24M292 112h30M329 112h57M76 113h106M247 113h28M293 113h29M329 113h56M73 114h110M246 114h31M294 114h28M329 114h56M72 115h112M233 115h1M246 115h33M295 115h27M329 115h54M71 116h113M233 116h2M244 116h36M295 116h27M329 116h54M70 117h114M233 117h3M243 117h38M297 117h25M329 117h54M69 118h115M232 118h51M298 118h24M329 118h53M68 119h117M231 119h52M299 119h23M329 119h53M68 120h117M231 120h53M300 120h22M329 120h53M68 121h117M231 121h54M302 121h20M329 121h52M67 122h118M229 122h58M303 122h19M328 122h52M399 122h3M66 123h119M228 123h60M304 123h18M328 123h52M398 123h4M66 124h121M228 124h61M304 124h18M328 124h52M396 124h8M66 125h121M227 125h62M305 125h17M328 125h52M396 125h9M66 126h121M226 126h63M305 126h17M328 126h52M394 126h12M66 127h122M224 127h65M305 127h17M328 127h52M394 127h15M65 128h124M223 128h66M305 128h17M328 128h52M394 128h16M65 129h124M222 129h67M297 129h26M328 129h54M393 129h21M64 130h126M221 130h68M296 130h27M328 130h55M393 130h23M440 130h4M64 131h126M220 131h69M295 131h29M328 131h56M391 131h57M63 132h127M207 132h1M218 132h71M295 132h156M63 133h127M205 133h3M218 133h71M295 133h157M63 134h127M203 134h5M216 134h70M295 134h159M62 135h128M203 135h5M216 135h68M295 135h161M62 136h128M201 136h82M293 136h163M62 137h128M200 137h83M292 137h164M62 138h128M200 138h83M291 138h165M61 139h129M198 139h85M290 139h166M61 140h129M198 140h85M289 140h167M61 141h129M197 141h86M289 141h167M61 142h129M195 142h190M404 142h52M61 143h250M325 143h58M409 143h48M61 144h246M326 144h57M412 144h45M61 145h241M331 145h51M423 145h34M61 146h235M336 146h46M426 146h32M61 147h234M338 147h44M428 147h30M61 148h148M240 148h49M344 148h38M430 148h27M61 149h147M245 149h42M346 149h36M431 149h26M61 150h146M260 150h18M351 150h31M433 150h20M60 151h145M357 151h25M434 151h17M60 152h144M358 152h24M435 152h14M60 153h143M359 153h23M436 153h12M60 154h141M361 154h21M438 154h8M59 155h141M364 155h17M438 155h7M59 156h139M366 156h15M440 156h4M59 157h138M368 157h13M440 157h3M59 158h136M371 158h9M441 158h2M452 158h4M59 159h135M373 159h5M442 159h1M452 159h4M59 160h133M450 160h8M59 161h132M450 161h8M59 162h131M447 162h11M59 163h130M446 163h12M59 164h129M447 164h12M59 165h128M448 165h11M59 166h127M449 166h10M59 167h126M450 167h9M59 168h125M450 168h9M59 169h124M450 169h9M59 170h123M450 170h9M59 171h123M451 171h8M58 172h123M451 172h8M58 173h122M451 173h9M57 174h122M451 174h9M56 175h122M451 175h9M55 176h123M452 176h8M55 177h122M452 177h8M54 178h122M452 178h8M53 179h123M452 179h9M52 180h123M452 180h9M51 181h124M452 181h10M43 182h132M452 182h11M41 183h133M452 183h12M41 184h133M452 184h14M39 185h135M452 185h15M38 186h135M452 186h15M38 187h135M452 187h17M38 188h134M452 188h18M37 189h135M452 189h19M36 190h135M452 190h21M36 191h135M453 191h21M35 192h136M453 192h23M34 193h136M453 193h25M34 194h136M453 194h25M33 195h137M453 195h26M33 196h136M454 196h27M32 197h137M454 197h28M31 198h138M454 198h28M31 199h138M455 199h27M31 200h138M455 200h28M31 201h138M455 201h28M30 202h139M456 202h28M29 203h140M456 203h28M29 204h140M457 204h27M28 205h141M457 205h27M28 206h141M457 206h27M28 207h141M458 207h25M493 207h1M27 208h142M459 208h24M490 208h4M26 209h144M459 209h23M489 209h6M26 210h144M459 210h23M487 210h8M26 211h144M460 211h21M487 211h8M25 212h145M460 212h21M486 212h9M25 213h145M460 213h21M485 213h10M25 214h146M461 214h19M484 214h11M25 215h146M462 215h18M484 215h12M24 216h147M462 216h18M483 216h13M24 217h147M462 217h17M483 217h13M23 218h149M462 218h17M482 218h5M492 218h4M23 219h149M463 219h16M481 219h6M493 219h3M23 220h149M463 220h23M493 220h3M23 221h150M463 221h23M493 221h3M23 222h150M464 222h22M495 222h1M23 223h151M464 223h22M495 223h2M23 224h151M465 224h21M496 224h1M23 225h151M466 225h20M23 226h152M467 226h18M23 227h152M468 227h17M23 228h153M469 228h16M22 229h154M470 229h14M22 230h155M472 230h12M22 231h156M472 231h12M22 232h156M473 232h11M21 233h158M474 233h10M21 234h158M476 234h7M21 235h159M21 236h159M21 237h160M21 238h160M21 239h161M21 240h161M21 241h162M21 242h162M21 243h163M21 244h163M21 245h164M21 246h164M21 247h165M21 248h167M21 249h169M21 250h170M3 251h1M21 251h171M3 252h2M21 252h172M3 253h2M21 253h173M3 254h2M21 254h175M3 255h2M21 255h176M3 256h3M21 256h177M3 257h4M21 257h179M3 258h4M21 258h180M3 259h4M21 259h181M3 260h4M21 260h182M3 261h4M21 261h183M3 262h4M20 262h185M3 263h4M20 263h186M3 264h4M20 264h187M3 265h4M20 265h188M4 266h3M19 266h190M4 267h3M19 267h192M4 268h3M18 268h195M4 269h4M18 269h197M4 270h4M17 270h201M4 271h8M16 271h204M4 272h218M4 273h220M4 274h224M4 275h229M4 276h234M4 277h238M5 278h242M5 279h248M5 280h253M5 281h257M5 282h260M5 283h263M5 284h265M5 285h269M6 286h268M6 287h268M6 288h268M6 289h268M6 290h269M6 291h270M7 292h270M7 293h271M279 293h7M7 294h271M279 294h13M7 295h287M7 296h291M7 297h293M8 298h294M8 299h297M8 300h300M8 301h303M9 302h304M9 303h304M9 304h305M9 305h306M9 306h306M10 307h306M10 308h306M10 309h306M10 310h306M11 311h305M11 312h305M11 313h306M11 314h306M12 315h305M12 316h305M12 317h305M13 318h304M13 319h304M13 320h39M60 320h257M13 321h33M72 321h245M14 322h27M78 322h239M14 323h23M80 323h237M14 324h21M85 324h232M15 325h18M87 325h230M15 326h17M90 326h227M15 327h15M92 327h225M16 328h12M94 328h223M16 329h9M95 329h222M16 330h7M95 330h222M17 331h5M97 331h219M17 332h3M98 332h218M17 333h2M99 333h216M101 334h214M102 335h213M103 336h211M104 337h210M105 338h208M106 339h207M106 340h207M107 341h206M108 342h205M109 343h204M110 344h203M112 345h201M112 346h201M113 347h200M113 348h200M114 349h199M114 350h199M114 351h199M114 352h199M114 353h199M114 354h199M114 355h199M114 356h199M114 357h199M114 358h199M114 359h199M114 360h199M114 361h199M114 362h199M114 363h199M114 364h199M114 365h199M114 366h200M114 367h200M114 368h200M116 369h198M118 370h196M122 371h192M131 372h183M135 373h179M138 374h176M141 375h174M144 376h171M145 377h170M147 378h168M149 379h167M150 380h166M152 381h164M154 382h163M155 383h163M156 384h162M157 385h162M158 386h162M159 387h161M159 388h162M161 389h160M162 390h160M162 391h161M163 392h161M163 393h162M164 394h162M165 395h162M165 396h164M165 397h165M162 398h170M162 399h171M161 400h174M161 401h176M161 402h178M161 403h179M161 404h181M161 405h183M161 406h185M161 407h186M161 408h188M162 409h189M162 410h192M162 411h195M162 412h198M162 413h202M162 414h204M163 415h209M163 416h211M163 417h214M163 418h216M164 419h216M164 420h217M165 421h219M166 422h219M167 423h219M168 424h218M168 425h219M168 426h221M168 427h221M168 428h221M168 429h221M168 430h221M168 431h221M168 432h221M168 433h221M168 434h221M168 435h221M168 436h220M168 437h220M168 438h220M168 439h219M168 440h219M168 441h219M167 442h220M167 443h220M167 444h219M167 445h219M167 446h219M166 447h220M166 448h220M166 449h220M166 450h220M165 451h221M165 452h221M165 453h221M165 454h221M165 455h221M165 456h221M165 457h221M165 458h220M165 459h218M165 460h217M165 461h215M165 462h213M165 463h212M165 464h210M165 465h208M165 466h206M165 467h205M166 468h202M167 469h199M168 470h196M168 471h194M168 472h192M169 473h189M170 474h186M170 475h184M171 476h181M171 477h178M171 478h176M171 479h173M171 480h171M171 481h168M171 482h166M171 483h163M171 484h160M173 485h155M176 486h149M179 487h143M183 488h135M186 489h129M190 490h121M194 491h113M199 492h103M203 493h95M209 494h83M215 495h71M223 496h55M235 497h31" />
<path stroke="#1b5e20" d="M261 3h5M261 4h17M260 5h26M260 6h32M260 7h38M260 8h42M260 9h47M260 10h17M281 10h25M260 11h16M284 11h20M260 12h16M285 12h19M260 13h14M286 13h17M318 13h4M260 14h13M287 14h15M318 14h7M261 15h12M287 15h15M318 15h10M261 16h12M288 16h13M318 16h13M262 17h10M288 17h12M317 17h17M262 18h9M288 18h10M323 18h14M263 19h8M288 19h10M324 19h15M264 20h6M288 20h10M325 20h17M265 21h4M288 21h10M327 21h17M256 22h1M288 22h10M327 22h20M254 23h3M288 23h10M327 23h22M254 24h4M293 24h4M327 24h25M252 25h6M323 25h31M251 26h7M323 26h33M250 27h8M323 27h35M247 28h11M284 28h2M323 28h37M247 29h11M284 29h2M322 29h40M246 30h12M282 30h7M322 30h42M246 31h10M281 31h10M322 31h44M245 32h11M280 32h11M303 32h5M321 32h47M244 33h21M280 33h11M302 33h6M320 33h50M244 34h21M280 34h11M302 34h5M320 34h51M244 35h21M280 35h11M303 35h4M320 35h53M244 36h21M271 36h2M280 36h11M320 36h55M244 37h17M271 37h6M280 37h10M319 37h58M244 38h16M271 38h6M280 38h9M318 38h60M121 39h3M244 39h16M271 39h6M317 39h63M119 40h7M244 40h16M271 40h6M314 40h68M118 41h8M244 41h16M312 41h71M116 42h12M244 42h17M305 42h80M115 43h13M244 43h17M291 43h95M113 44h15M245 44h17M288 44h100M112 45h16M245 45h18M284 45h105M110 46h16M246 46h17M282 46h109M109 47h16M144 47h3M246 47h18M280 47h112M107 48h17M143 48h7M246 48h18M279 48h115M106 49h17M142 49h9M247 49h17M277 49h118M105 50h18M141 50h11M248 50h17M275 50h121M103 51h18M141 51h11M249 51h16M274 51h124M102 52h17M140 52h12M250 52h18M272 52h127M101 53h18M140 53h12M250 53h150M99 54h19M140 54h12M251 54h151M98 55h19M140 55h11M251 55h152M97 56h19M140 56h10M251 56h153M95 57h21M140 57h2M251 57h155M94 58h22M140 58h1M251 58h156M93 59h22M131 59h10M251 59h157M92 60h23M130 60h12M251 60h158M91 61h24M129 61h13M249 61h161M89 62h26M129 62h13M248 62h164M88 63h27M128 63h14M247 63h166M87 64h29M128 64h13M247 64h167M86 65h30M128 65h13M247 65h168M85 66h31M127 66h12M246 66h170M84 67h32M127 67h11M246 67h171M83 68h40M126 68h11M246 68h172M81 69h42M125 69h9M230 69h5M246 69h174M80 70h43M125 70h6M228 70h10M244 70h177M79 71h35M122 71h1M124 71h4M227 71h136M365 71h57M78 72h34M122 72h5M227 72h134M369 72h54M77 73h34M121 73h5M226 73h134M371 73h53M76 74h35M120 74h6M208 74h9M226 74h133M372 74h53M75 75h34M120 75h5M207 75h13M225 75h134M374 75h8M395 75h31M74 76h35M119 76h5M207 76h152M396 76h31M73 77h36M119 77h5M208 77h151M396 77h32M72 78h37M118 78h6M208 78h151M396 78h21M426 78h3M71 79h37M117 79h6M209 79h150M397 79h13M426 79h4M70 80h38M117 80h6M209 80h150M397 80h9M427 80h4M69 81h39M115 81h8M210 81h149M397 81h8M428 81h4M69 82h39M115 82h8M212 82h147M397 82h5M429 82h3M68 83h39M115 83h8M213 83h146M397 83h4M429 83h4M67 84h39M115 84h6M213 84h146M397 84h1M431 84h3M66 85h40M114 85h7M213 85h146M396 85h1M432 85h3M65 86h41M113 86h8M213 86h147M395 86h2M432 86h4M64 87h41M112 87h9M213 87h147M432 87h5M63 88h42M112 88h8M213 88h147M435 88h3M62 89h42M111 89h9M213 89h147M435 89h4M62 90h42M110 90h9M213 90h147M435 90h4M61 91h43M110 91h9M213 91h147M435 91h5M60 92h43M110 92h9M213 92h147M435 92h6M59 93h44M109 93h9M213 93h147M435 93h7M58 94h45M109 94h8M213 94h147M435 94h8M57 95h45M109 95h7M213 95h147M435 95h9M57 96h44M109 96h6M212 96h148M435 96h9M56 97h45M109 97h5M212 97h148M434 97h11M55 98h44M108 98h5M211 98h150M432 98h14M54 99h44M209 99h152M429 99h18M54 100h42M188 100h8M207 100h154M427 100h20M53 101h42M186 101h175M423 101h25M52 102h42M185 102h103M305 102h56M421 102h28M51 103h42M184 103h101M309 103h33M353 103h7M418 103h32M51 104h40M183 104h101M310 104h29M355 104h5M409 104h41M50 105h40M182 105h73M265 105h19M314 105h20M407 105h44M49 106h39M181 106h72M266 106h18M315 106h15M401 106h51M48 107h36M181 107h71M269 107h15M316 107h13M399 107h54M48 108h33M181 108h70M270 108h14M319 108h10M396 108h57M47 109h34M182 109h68M271 109h15M320 109h8M393 109h61M46 110h32M182 110h67M272 110h16M322 110h6M391 110h64M46 111h30M183 111h65M273 111h16M322 111h6M389 111h66M45 112h30M183 112h64M275 112h15M323 112h5M388 112h68M44 113h29M183 113h62M277 113h15M323 113h5M386 113h71M44 114h27M184 114h48M234 114h11M279 114h14M323 114h5M386 114h71M43 115h27M185 115h47M236 115h7M280 115h13M323 115h5M386 115h72M42 116h27M185 116h47M237 116h6M281 116h13M323 116h5M384 116h75M42 117h27M185 117h46M283 117h12M323 117h5M384 117h75M41 118h27M186 118h45M284 118h12M323 118h5M383 118h77M40 119h27M186 119h44M284 119h14M323 119h5M383 119h78M40 120h27M186 120h44M285 120h13M323 120h5M383 120h78M39 121h28M186 121h42M287 121h13M323 121h4M382 121h16M403 121h59M39 122h27M186 122h41M289 122h12M323 122h4M381 122h16M403 122h59M38 123h27M187 123h40M290 123h12M323 123h4M381 123h14M404 123h59M37 124h28M188 124h39M290 124h13M323 124h4M381 124h14M406 124h58M37 125h28M188 125h37M290 125h14M323 125h4M381 125h13M407 125h57M36 126h29M189 126h34M290 126h14M323 126h4M381 126h12M409 126h56M36 127h29M190 127h33M290 127h14M323 127h4M381 127h12M411 127h54M35 128h29M190 128h32M290 128h6M324 128h3M383 128h9M415 128h51M35 129h29M190 129h30M290 129h5M324 129h3M383 129h9M416 129h23M445 129h21M34 130h29M191 130h29M290 130h4M325 130h2M384 130h7M449 130h18M33 131h30M191 131h15M209 131h9M290 131h4M451 131h17M33 132h29M191 132h13M209 132h8M290 132h4M452 132h16M32 133h30M191 133h11M209 133h7M290 133h4M454 133h15M32 134h30M191 134h11M209 134h6M290 134h4M457 134h12M31 135h30M191 135h9M287 135h6M457 135h13M31 136h30M191 136h9M285 136h6M457 136h13M30 137h31M191 137h8M284 137h7M457 137h14M30 138h31M191 138h7M284 138h5M457 138h14M29 139h31M191 139h6M284 139h5M457 139h15M29 140h31M191 140h6M284 140h4M457 140h15M28 141h32M191 141h4M457 141h16M28 142h32M457 142h16M27 143h33M386 143h18M458 143h16M27 144h33M312 144h13M384 144h25M458 144h16M26 145h34M307 145h19M384 145h28M459 145h16M26 146h34M302 146h29M383 146h40M459 146h16M25 147h35M296 147h40M383 147h43M459 147h17M25 148h35M295 148h43M383 148h45M459 148h17M24 149h36M209 149h31M289 149h55M383 149h47M458 149h19M24 150h35M208 150h37M287 150h59M383 150h48M457 150h20M24 151h35M207 151h53M278 151h73M383 151h50M453 151h24M23 152h36M205 152h152M383 152h51M451 152h27M23 153h36M204 153h154M383 153h52M449 153h29M22 154h37M203 154h156M383 154h53M449 154h30M22 155h36M201 155h160M382 155h55M446 155h33M22 156h36M200 156h164M382 156h56M446 156h33M21 157h37M198 157h168M382 157h57M445 157h6M456 157h24M21 158h37M197 158h171M382 158h57M444 158h7M457 158h23M20 159h38M195 159h176M380 159h61M444 159h6M458 159h23M20 160h38M194 160h179M378 160h64M443 160h6M459 160h22M20 161h38M192 161h251M444 161h3M459 161h22M19 162h39M191 162h253M459 162h23M19 163h39M190 163h255M460 163h22M18 164h40M189 164h257M460 164h23M18 165h40M188 165h259M460 165h23M18 166h40M187 166h261M460 166h23M17 167h41M186 167h263M460 167h24M17 168h41M186 168h263M460 168h24M17 169h41M184 169h265M460 169h24M16 170h42M183 170h266M460 170h25M16 171h41M183 171h267M460 171h25M16 172h41M182 172h268M460 172h25M15 173h42M181 173h269M461 173h25M15 174h41M180 174h270M461 174h25M15 175h40M179 175h271M461 175h25M14 176h40M179 176h272M461 176h26M14 177h40M178 177h273M461 177h26M14 178h39M177 178h274M462 178h25M13 179h39M177 179h274M462 179h26M13 180h37M176 180h275M462 180h26M13 181h29M176 181h275M463 181h25M13 182h28M176 182h275M464 182h24M12 183h28M175 183h276M466 183h23M12 184h26M175 184h276M467 184h22M12 185h26M175 185h276M468 185h21M11 186h26M174 186h277M469 186h21M11 187h26M174 187h277M471 187h19M11 188h26M173 188h278M471 188h19M11 189h24M173 189h278M473 189h17M10 190h25M172 190h279M474 190h17M10 191h24M172 191h280M476 191h15M10 192h24M172 192h280M478 192h13M10 193h23M171 193h281M479 193h12M9 194h24M171 194h281M480 194h12M9 195h23M171 195h281M481 195h11M9 196h23M170 196h283M482 196h10M9 197h22M170 197h283M483 197h9M9 198h21M170 198h283M483 198h9M8 199h22M170 199h284M484 199h9M8 200h22M170 200h284M484 200h9M8 201h22M170 201h284M485 201h8M8 202h21M170 202h285M485 202h8M7 203h21M170 203h285M485 203h9M7 204h21M170 204h286M485 204h9M7 205h20M170 205h286M485 205h9M7 206h20M170 206h286M485 206h7M7 207h20M170 207h287M485 207h4M7 208h19M170 208h288M484 208h5M6 209h19M171 209h287M483 209h3M6 210h19M171 210h287M483 210h3M6 211h19M171 211h288M483 211h3M6 212h18M171 212h288M482 212h2M6 213h18M171 213h288M482 213h2M6 214h18M172 214h288M481 214h2M5 215h19M172 215h289M481 215h1M5 216h18M172 216h289M481 216h1M5 217h18M172 217h289M480 217h1M5 218h17M173 218h288M480 218h1M5 219h17M173 219h289M488 219h4M5 220h17M173 220h289M488 220h4M5 221h17M174 221h288M487 221h5M5 222h17M174 222h289M487 222h6M4 223h18M175 223h288M487 223h7M4 224h18M175 224h289M487 224h7M4 225h18M175 225h290M487 225h9M4 226h18M176 226h290M486 226h11M4 227h18M176 227h291M486 227h11M4 228h18M177 228h291M486 228h11M4 229h17M177 229h292M486 229h11M4 230h17M178 230h292M485 230h12M4 231h17M179 231h292M485 231h12M4 232h16M179 232h293M485 232h12M4 233h16M180 233h293M485 233h12M4 234h16M180 234h294M485 234h12M3 235h17M181 235h295M483 235h15M3 236h17M181 236h317M3 237h17M182 237h316M3 238h17M182 238h316M3 239h17M183 239h315M3 240h17M183 240h315M3 241h17M184 241h314M3 242h17M184 242h314M3 243h17M185 243h313M3 244h17M185 244h313M3 245h17M186 245h312M3 246h17M186 246h312M3 247h17M188 247h310M3 248h17M190 248h308M4 249h16M191 249h307M5 250h15M192 250h306M5 251h15M193 251h305M6 252h14M194 252h304M6 253h14M196 253h302M6 254h14M197 254h301M6 255h14M198 255h300M7 256h13M200 256h298M8 257h12M201 257h297M8 258h12M202 258h296M8 259h12M203 259h295M8 260h12M204 260h294M8 261h12M205 261h293M8 262h11M206 262h292M8 263h11M207 263h291M8 264h11M208 264h290M8 265h11M209 265h289M8 266h10M211 266h286M8 267h9M213 267h284M8 268h9M215 268h282M9 269h8M218 269h279M13 270h2M220 270h277M222 271h275M224 272h273M228 273h269M233 274h264M238 275h259M242 276h255M247 277h250M253 278h243M258 279h238M262 280h234M265 281h231M268 282h228M270 283h226M274 284h222M275 285h221M275 286h220M275 287h220M275 288h220M275 289h220M276 290h219M277 291h218M286 292h208M292 293h202M294 294h200M298 295h196M300 296h194M302 297h192M305 298h188M308 299h185M311 300h182M313 301h180M314 302h178M315 303h177M315 304h177M316 305h176M316 306h176M317 307h174M317 308h174M317 309h174M317 310h174M317 311h173M317 312h173M318 313h172M318 314h172M318 315h171M318 316h171M318 317h171M318 318h170M318 319h170M318 320h170M52 321h8M318 321h170M46 322h26M318 322h169M41 323h37M318 323h169M38 324h42M318 324h169M35 325h50M318 325h168M33 326h54M318 326h168M32 327h58M318 327h168M30 328h62M318 328h167M28 329h66M318 329h167M25 330h69M318 330h167M23 331h72M317 331h167M22 332h75M317 332h167M20 333h78M316 333h168M19 334h79M316 334h167M18 335h83M316 335h167M18 336h84M315 336h168M19 337h84M315 337h167M19 338h85M314 338h168M20 339h84M314 339h167M20 340h85M314 340h167M20 341h86M314 341h167M21 342h86M314 342h166M21 343h87M314 343h166M22 344h87M314 344h165M22 345h87M314 345h165M22 346h89M314 346h165M23 347h89M314 347h164M23 348h89M314 348h164M24 349h89M314 349h163M24 350h89M314 350h163M24 351h89M314 351h163M25 352h88M314 352h162M25 353h88M314 353h162M26 354h87M314 354h161M26 355h87M314 355h161M27 356h86M314 356h160M27 357h86M314 357h160M28 358h85M314 358h159M28 359h85M314 359h159M29 360h84M314 360h158M29 361h84M314 361h158M30 362h83M314 362h157M30 363h83M314 363h157M31 364h82M314 364h156M31 365h82M314 365h156M32 366h81M315 366h154M32 367h81M315 367h154M33 368h80M315 368h153M33 369h80M315 369h153M34 370h82M315 370h152M35 371h83M315 371h151M35 372h87M315 372h151M36 373h95M315 373h150M36 374h99M315 374h150M37 375h101M316 375h148M37 376h104M316 376h148M38 377h106M316 377h147M39 378h106M316 378h146M39 379h108M317 379h145M40 380h109M317 380h144M40 381h110M317 381h144M41 382h111M318 382h142M42 383h112M319 383h140M42 384h113M319 384h140M43 385h113M320 385h138M44 386h113M321 386h136M44 387h114M321 387h136M45 388h113M322 388h134M46 389h113M322 389h133M46 390h115M323 390h132M47 391h114M324 391h130M48 392h114M325 392h128M48 393h114M326 393h127M49 394h114M327 394h125M50 395h113M329 395h122M51 396h113M330 396h120M51 397h110M332 397h118M52 398h109M333 398h116M53 399h107M335 399h113M54 400h106M337 400h110M54 401h106M339 401h108M55 402h105M340 402h106M56 403h104M342 403h103M57 404h103M344 404h100M57 405h103M346 405h98M58 406h102M347 406h96M59 407h101M349 407h93M60 408h100M351 408h90M61 409h100M354 409h86M62 410h99M357 410h82M62 411h99M360 411h79M63 412h98M364 412h74M64 413h97M366 413h71M65 414h96M372 414h64M66 415h96M374 415h61M67 416h95M377 416h57M68 417h94M379 417h54M69 418h93M380 418h52M69 419h94M381 419h51M70 420h93M384 420h47M71 421h93M385 421h45M72 422h92M386 422h43M73 423h93M387 423h41M74 424h93M387 424h40M75 425h92M389 425h37M76 426h91M390 426h35M77 427h90M390 427h34M78 428h89M390 428h33M79 429h88M390 429h32M80 430h87M390 430h31M81 431h86M390 431h30M83 432h84M390 432h28M84 433h83M390 433h27M85 434h82M390 434h26M86 435h81M390 435h25M87 436h80M389 436h25M88 437h79M389 437h24M89 438h78M389 438h23M91 439h76M388 439h22M92 440h75M388 440h21M93 441h74M388 441h20M94 442h72M388 442h19M95 443h71M388 443h18M97 444h69M387 444h17M98 445h68M387 445h16M99 446h67M387 446h15M101 447h64M387 447h13M102 448h63M387 448h12M103 449h62M387 449h11M105 450h60M387 450h9M106 451h58M387 451h8M107 452h57M387 452h7M109 453h55M387 453h5M110 454h54M387 454h4M112 455h52M387 455h2M113 456h51M115 457h49M116 458h48M118 459h46M119 460h45M121 461h43M123 462h41M124 463h40M126 464h38M128 465h36M130 466h34M131 467h33M133 468h31M135 469h30M137 470h29M139 471h28M141 472h26M143 473h24M145 474h24M147 475h22M149 476h20M152 477h18M154 478h16M157 479h13M159 480h11M162 481h8M164 482h6M167 483h3" />
<path stroke="#ffffff" d="M223 4h12M215 5h20M209 6h26M203 7h31M199 8h33M194 9h36M190 10h37M186 11h36M183 12h32M179 13h33M176 14h34M173 15h35M170 16h36M167 17h38M164 18h38M162 19h40M159 20h43M158 21h42M158 22h40M157 23h39M157 24h38M157 25h37M156 26h36M155 27h35M155 28h34M155 29h31M155 30h30M155 31h30M154 32h29M154 33h28M154 34h26M154 35h24M154 36h20M154 37h18M155 38h15" />
</svg>