<svg xmlns="http://www.w3.org/2000/svg" viewBox="0 -0.5 267 150" shape-rendering="crispEdges">
<metadata>Made with Pixels to Svg https://codepen.io/shshaw/pen/XbxvNj</metadata>
<path stroke="#8bc34a" d="M0 0h267M0 1h33M41 1h184M233 1h34M0 2h33M41 2h184M233 2h34M0 3h33M41 3h184M233 3h34M0 4h33M45 4h8M56 4h12M80 4h6M92 4h6M107 4h6M125 4h3M137 4h6M152 4h9M167 4h9M182 4h6M197 4h6M212 4h9M233 4h34M0 5h29M33 5h8M45 5h8M56 5h12M80 5h6M92 5h6M107 5h6M125 5h3M137 5h6M152 5h9M167 5h9M182 5h6M197 5h6M212 5h9M225 5h8M237 5h30M0 6h29M33 6h8M45 6h8M56 6h12M80 6h6M92 6h6M107 6h6M125 6h3M137 6h6M152 6h9M167 6h9M182 6h6M197 6h6M212 6h9M225 6h8M237 6h30M0 7h29M33 7h8M45 7h8M56 7h12M71 7h12M86 7h6M95 7h3M101 7h6M110 7h3M116 7h12M131 7h6M140 7h3M146 7h6M155 7h3M161 7h6M170 7h3M176 7h6M185 7h3M191 7h6M200 7h3M206 7h6M215 7h6M225 7h8M237 7h30M0 8h29M33 8h20M56 8h12M71 8h12M86 8h6M95 8h3M101 8h6M110 8h3M116 8h12M131 8h6M140 8h3M146 8h6M155 8h3M161 8h6M170 8h3M176 8h6M185 8h3M191 8h6M200 8h3M206 8h6M215 8h18M237 8h30M0 9h29M33 9h20M56 9h12M71 9h12M86 9h6M95 9h3M101 9h6M110 9h3M116 9h12M131 9h6M140 9h3M146 9h6M155 9h3M161 9h6M170 9h3M176 9h6M185 9h3M191 9h6M200 9h3M206 9h6M215 9h18M237 9h30M0 10h29M33 10h20M56 10h12M77 10h6M95 10h3M101 10h6M110 10h3M122 10h6M137 10h6M152 10h6M161 10h6M170 10h3M185 10h3M197 10h6M206 10h6M215 10h18M237 10h30M0 11h29M33 11h20M56 11h12M77 11h6M95 11h3M101 11h6M110 11h3M122 11h6M137 11h6M152 11h6M161 11h6M170 11h3M185 11h3M197 11h6M206 11h6M215 11h18M237 11h30M0 12h29M33 12h20M56 12h12M77 12h6M95 12h3M101 12h6M110 12h3M122 12h6M137 12h6M152 12h6M161 12h6M170 12h3M185 12h3M197 12h6M206 12h6M215 12h18M237 12h30M0 13h33M37 13h16M56 13h12M71 13h12M86 13h6M95 13h3M101 13h6M110 13h3M116 13h12M131 13h3M137 13h6M146 13h6M155 13h3M161 13h6M170 13h3M176 13h6M185 13h3M191 13h3M197 13h6M206 13h6M215 13h14M233 13h34M0 14h20M28 14h5M37 14h16M56 14h12M71 14h12M86 14h6M95 14h3M101 14h6M110 14h3M116 14h12M131 14h3M137 14h6M146 14h6M155 14h3M161 14h6M170 14h3M176 14h6M185 14h3M191 14h3M197 14h6M206 14h6M215 14h14M233 14h5M246 14h21M0 15h20M28 15h5M37 15h16M56 15h12M71 15h12M86 15h6M95 15h3M101 15h6M110 15h3M116 15h12M131 15h3M137 15h6M146 15h6M155 15h3M161 15h6M170 15h3M176 15h6M185 15h3M191 15h3M197 15h6M206 15h6M215 15h14M233 15h5M246 15h21M0 16h20M28 16h5M37 16h16M65 16h3M80 16h3M86 16h6M95 16h3M107 16h6M125 16h3M131 16h6M140 16h3M152 16h9M167 16h6M176 16h6M185 16h3M191 16h6M200 16h3M212 16h17M233 16h5M246 16h21M0 17h16M28 17h9M41 17h12M65 17h3M80 17h3M86 17h6M95 17h3M107 17h6M125 17h3M131 17h6M140 17h3M152 17h9M167 17h6M176 17h6M185 17h3M191 17h6M200 17h3M212 17h13M229 17h9M250 17h17M0 18h16M20 18h8M32 18h5M41 18h12M65 18h3M80 18h3M86 18h6M95 18h3M107 18h6M125 18h3M131 18h6M140 18h3M152 18h9M167 18h6M176 18h6M185 18h3M191 18h6M200 18h3M212 18h13M229 18h5M238 18h8M250 18h17M0 19h16M20 19h8M32 19h5M41 19h184M229 19h5M238 19h8M250 19h17M0 20h16M20 20h8M32 20h5M41 20h184M229 20h5M238 20h8M250 20h17M0 21h16M20 21h8M32 21h8M226 21h8M238 21h8M250 21h17M0 22h16M20 22h12M36 22h4M226 22h4M234 22h12M250 22h17M0 23h16M20 23h12M36 23h4M226 23h4M234 23h12M250 23h17M0 24h16M20 24h12M36 24h3M227 24h3M234 24h12M250 24h17M0 25h20M24 25h8M36 25h2M228 25h2M234 25h8M246 25h21M0 26h20M24 26h11M231 26h11M246 26h21M0 27h20M24 27h11M231 27h11M246 27h21M0 28h20M24 28h11M231 28h11M246 28h21M0 29h35M231 29h36M0 30h35M231 30h36M0 31h35M231 31h36M0 32h35M231 32h36M0 33h35M231 33h36M0 34h35M231 34h36M0 35h35M231 35h36M0 36h35M231 36h36M0 37h35M231 37h36M0 38h35M231 38h36M0 39h35M231 39h36M0 40h35M231 40h36M0 41h35M231 41h36M0 42h35M231 42h36M0 43h35M231 43h36M0 44h35M231 44h36M0 45h35M231 45h36M0 46h35M231 46h36M0 47h35M231 47h36M0 48h35M231 48h36M0 49h35M231 49h36M0 50h35M231 50h36M0 51h35M231 51h36M0 52h35M231 52h36M0 53h35M231 53h36M0 54h35M231 54h36M0 55h35M231 55h36M0 56h35M231 56h36M0 57h35M231 57h36M0 58h35M231 58h36M0 59h35M231 59h36M0 60h35M231 60h36M0 61h35M231 61h36M0 62h31M35 62h4M227 62h4M235 62h32M0 63h31M35 63h4M227 63h4M235 63h32M0 64h31M35 64h4M227 64h4M235 64h32M0 65h31M35 65h4M227 65h4M235 65h32M0 66h27M31 66h8M227 66h8M239 66h28M0 67h27M31 67h8M227 67h8M239 67h28M0 68h16M20 68h7M31 68h8M227 68h8M239 68h7M250 68h17M0 69h16M20 69h7M31 69h8M227 69h8M239 69h7M250 69h17M0 70h16M20 70h3M27 70h12M227 70h12M243 70h3M250 70h17M0 71h16M20 71h3M27 71h12M227 71h12M243 71h3M250 71h17M0 72h12M16 72h3M247 72h3M254 72h13M0 73h12M16 73h3M247 73h3M254 73h13M0 74h12M16 74h3M23 74h4M239 74h4M247 74h3M254 74h13M0 75h12M16 75h3M247 75h3M254 75h13M0 76h12M16 76h3M247 76h3M254 76h13M0 77h16M20 77h3M27 77h12M227 77h12M243 77h3M250 77h17M0 78h16M20 78h3M27 78h12M227 78h12M243 78h3M250 78h17M0 79h16M20 79h7M31 79h8M227 79h8M239 79h7M250 79h17M0 80h16M20 80h7M31 80h8M227 80h8M239 80h7M250 80h17M0 81h27M31 81h8M227 81h8M239 81h28M0 82h27M31 82h8M227 82h8M239 82h28M0 83h31M35 83h4M227 83h4M235 83h32M0 84h31M35 84h4M227 84h4M235 84h32M0 85h31M35 85h4M227 85h4M235 85h32M0 86h31M35 86h4M227 86h4M235 86h32M0 87h35M231 87h36M0 88h35M231 88h36M0 89h35M231 89h36M0 90h35M231 90h36M0 91h35M231 91h36M0 92h35M231 92h36M0 93h35M231 93h36M0 94h35M231 94h36M0 95h35M231 95h36M0 96h35M231 96h36M0 97h35M231 97h36M0 98h35M231 98h36M0 99h35M231 99h36M0 100h35M231 100h36M0 101h35M231 101h36M0 102h35M231 102h36M0 103h35M231 103h36M0 104h35M231 104h36M0 105h35M231 105h36M0 106h35M231 106h36M0 107h35M231 107h36M0 108h35M231 108h36M0 109h35M231 109h36M0 110h35M231 110h36M0 111h35M231 111h36M0 112h35M231 112h36M0 113h35M231 113h36M0 114h35M231 114h36M0 115h35M231 115h36M0 116h35M231 116h36M0 117h35M231 117h36M0 118h35M231 118h36M0 119h35M231 119h36M0 120h20M24 120h11M231 120h11M246 120h21M0 121h20M24 121h11M231 121h11M246 121h21M0 122h20M24 122h11M231 122h11M246 122h21M0 123h20M24 123h8M36 123h2M228 123h2M234 123h8M246 123h21M0 124h16M20 124h12M36 124h3M227 124h3M234 124h12M250 124h17M0 125h16M20 125h12M36 125h4M226 125h4M234 125h12M250 125h17M0 126h16M20 126h12M36 126h4M226 126h4M234 126h12M250 126h17M0 127h16M20 127h8M32 127h8M226 127h8M238 127h8M250 127h17M0 128h16M20 128h8M32 128h5M41 128h184M229 128h5M238 128h8M250 128h17M0 129h16M20 129h8M32 129h5M41 129h184M229 129h5M238 129h8M250 129h17M0 130h16M20 130h8M32 130h5M41 130h40M185 130h40M229 130h5M238 130h8M250 130h17M0 131h16M28 131h9M41 131h40M185 131h40M229 131h9M250 131h17M0 132h20M28 132h5M37 132h44M185 132h44M233 132h5M246 132h21M0 133h20M28 133h5M37 133h44M185 133h44M233 133h5M246 133h21M0 134h20M28 134h5M37 134h44M185 134h44M233 134h5M246 134h21M0 135h33M37 135h44M185 135h44M233 135h34M0 136h29M33 136h48M185 136h48M237 136h30M0 137h29M33 137h48M185 137h48M237 137h30M0 138h29M33 138h48M185 138h48M237 138h30M0 139h29M33 139h48M185 139h48M237 139h30M0 140h29M33 140h48M185 140h48M237 140h30M0 141h29M33 141h8M45 141h36M185 141h36M225 141h8M237 141h30M0 142h29M33 142h8M45 142h36M185 142h36M225 142h8M237 142h30M0 143h29M33 143h8M45 143h36M185 143h36M225 143h8M237 143h30M0 144h33M45 144h36M185 144h36M233 144h34M0 145h33M41 145h40M185 145h40M233 145h34M0 146h33M41 146h40M185 146h40M233 146h34M0 147h33M41 147h40M185 147h40M233 147h34M0 148h267M0 149h267" />
<path stroke="#ffffff" d="M33 1h8M225 1h8M33 2h8M225 2h8M33 3h8M225 3h8M33 4h12M53 4h3M68 4h12M86 4h6M98 4h9M113 4h12M128 4h9M143 4h9M161 4h6M176 4h6M188 4h9M203 4h9M221 4h12M29 5h4M41 5h4M53 5h3M68 5h12M86 5h6M98 5h9M113 5h12M128 5h9M143 5h9M161 5h6M176 5h6M188 5h9M203 5h9M221 5h4M233 5h4M29 6h4M41 6h4M53 6h3M68 6h12M86 6h6M98 6h9M113 6h12M128 6h9M143 6h9M161 6h6M176 6h6M188 6h9M203 6h9M221 6h4M233 6h4M29 7h4M41 7h4M53 7h3M68 7h3M83 7h3M92 7h3M98 7h3M107 7h3M113 7h3M128 7h3M137 7h3M143 7h3M152 7h3M158 7h3M167 7h3M173 7h3M182 7h3M188 7h3M197 7h3M203 7h3M212 7h3M221 7h4M233 7h4M29 8h4M53 8h3M68 8h3M83 8h3M92 8h3M98 8h3M107 8h3M113 8h3M128 8h3M137 8h3M143 8h3M152 8h3M158 8h3M167 8h3M173 8h3M182 8h3M188 8h3M197 8h3M203 8h3M212 8h3M233 8h4M29 9h4M53 9h3M68 9h3M83 9h3M92 9h3M98 9h3M107 9h3M113 9h3M128 9h3M137 9h3M143 9h3M152 9h3M158 9h3M167 9h3M173 9h3M182 9h3M188 9h3M197 9h3M203 9h3M212 9h3M233 9h4M29 10h4M53 10h3M68 10h9M83 10h12M98 10h3M107 10h3M113 10h9M128 10h9M143 10h9M158 10h3M167 10h3M173 10h12M188 10h9M203 10h3M212 10h3M233 10h4M29 11h4M53 11h3M68 11h9M83 11h12M98 11h3M107 11h3M113 11h9M128 11h9M143 11h9M158 11h3M167 11h3M173 11h12M188 11h9M203 11h3M212 11h3M233 11h4M29 12h4M53 12h3M68 12h9M83 12h12M98 12h3M107 12h3M113 12h9M128 12h9M143 12h9M158 12h3M167 12h3M173 12h12M188 12h9M203 12h3M212 12h3M233 12h4M33 13h4M53 13h3M68 13h3M83 13h3M92 13h3M98 13h3M107 13h3M113 13h3M128 13h3M134 13h3M143 13h3M152 13h3M158 13h3M167 13h3M173 13h3M182 13h3M188 13h3M194 13h3M203 13h3M212 13h3M229 13h4M20 14h8M33 14h4M53 14h3M68 14h3M83 14h3M92 14h3M98 14h3M107 14h3M113 14h3M128 14h3M134 14h3M143 14h3M152 14h3M158 14h3M167 14h3M173 14h3M182 14h3M188 14h3M194 14h3M203 14h3M212 14h3M229 14h4M238 14h8M20 15h8M33 15h4M53 15h3M68 15h3M83 15h3M92 15h3M98 15h3M107 15h3M113 15h3M128 15h3M134 15h3M143 15h3M152 15h3M158 15h3M167 15h3M173 15h3M182 15h3M188 15h3M194 15h3M203 15h3M212 15h3M229 15h4M238 15h8M20 16h8M33 16h4M53 16h12M68 16h12M83 16h3M92 16h3M98 16h9M113 16h12M128 16h3M137 16h3M143 16h9M161 16h6M173 16h3M182 16h3M188 16h3M197 16h3M203 16h9M229 16h4M238 16h8M16 17h12M37 17h4M53 17h12M68 17h12M83 17h3M92 17h3M98 17h9M113 17h12M128 17h3M137 17h3M143 17h9M161 17h6M173 17h3M182 17h3M188 17h3M197 17h3M203 17h9M225 17h4M238 17h12M16 18h4M28 18h4M37 18h4M53 18h12M68 18h12M83 18h3M92 18h3M98 18h9M113 18h12M128 18h3M137 18h3M143 18h9M161 18h6M173 18h3M182 18h3M188 18h3M197 18h3M203 18h9M225 18h4M234 18h4M246 18h4M16 19h4M28 19h4M37 19h4M225 19h4M234 19h4M246 19h4M16 20h4M28 20h4M37 20h4M225 20h4M234 20h4M246 20h4M16 21h4M28 21h4M40 21h186M234 21h4M246 21h4M16 22h4M32 22h4M40 22h186M230 22h4M246 22h4M16 23h4M32 23h4M40 23h186M230 23h4M246 23h4M16 24h4M32 24h4M39 24h188M230 24h4M246 24h4M20 25h4M32 25h4M38 25h2M226 25h2M230 25h4M242 25h4M20 26h4M35 26h4M227 26h4M242 26h4M20 27h4M35 27h4M227 27h4M242 27h4M20 28h4M35 28h4M227 28h4M242 28h4M35 29h4M227 29h4M35 30h4M227 30h4M35 31h4M227 31h4M35 32h4M227 32h4M35 33h4M227 33h4M35 34h4M227 34h4M35 35h4M227 35h4M35 36h4M227 36h4M35 37h4M227 37h4M35 38h4M227 38h4M35 39h4M227 39h4M35 40h4M227 40h4M35 41h4M227 41h4M35 42h4M227 42h4M35 43h4M227 43h4M35 44h4M227 44h4M35 45h4M227 45h4M35 46h4M227 46h4M35 47h4M227 47h4M35 48h4M227 48h4M35 49h4M227 49h4M35 50h4M227 50h4M35 51h4M227 51h4M35 52h4M227 52h4M35 53h4M227 53h4M35 54h4M227 54h4M35 55h4M227 55h4M35 56h4M227 56h4M35 57h4M227 57h4M35 58h4M227 58h4M35 59h4M227 59h4M35 60h4M227 60h4M35 61h4M227 61h4M31 62h4M231 62h4M31 63h4M231 63h4M31 64h4M231 64h4M31 65h4M231 65h4M27 66h4M235 66h4M27 67h4M235 67h4M16 68h4M27 68h4M235 68h4M246 68h4M16 69h4M27 69h4M235 69h4M246 69h4M16 70h4M23 70h4M239 70h4M246 70h4M16 71h4M23 71h4M239 71h4M246 71h4M12 72h4M19 72h20M227 72h20M250 72h4M12 73h4M19 73h20M227 73h20M250 73h4M12 74h4M19 74h4M27 74h12M227 74h12M243 74h4M250 74h4M12 75h4M19 75h20M227 75h20M250 75h4M12 76h4M19 76h20M227 76h20M250 76h4M16 77h4M23 77h4M239 77h4M246 77h4M16 78h4M23 78h4M239 78h4M246 78h4M16 79h4M27 79h4M235 79h4M246 79h4M16 80h4M27 80h4M235 80h4M246 80h4M27 81h4M235 81h4M27 82h4M235 82h4M31 83h4M231 83h4M31 84h4M231 84h4M31 85h4M231 85h4M31 86h4M231 86h4M35 87h4M227 87h4M35 88h4M227 88h4M35 89h4M227 89h4M35 90h4M227 90h4M35 91h4M227 91h4M35 92h4M227 92h4M35 93h4M227 93h4M35 94h4M227 94h4M35 95h4M227 95h4M35 96h4M227 96h4M35 97h4M227 97h4M35 98h4M227 98h4M35 99h4M227 99h4M35 100h4M227 100h4M35 101h4M227 101h4M35 102h4M227 102h4M35 103h4M227 103h4M35 104h4M227 104h4M35 105h4M227 105h4M35 106h4M227 106h4M35 107h4M227 107h4M35 108h4M227 108h4M35 109h4M227 109h4M35 110h4M227 110h4M35 111h4M227 111h4M35 112h4M227 112h4M35 113h4M227 113h4M35 114h4M227 114h4M35 115h4M227 115h4M35 116h4M227 116h4M35 117h4M227 117h4M35 118h4M227 118h4M35 119h4M227 119h4M20 120h4M35 120h4M227 120h4M242 120h4M20 121h4M35 121h4M227 121h4M242 121h4M20 122h4M35 122h4M227 122h4M242 122h4M20 123h4M32 123h4M38 123h2M226 123h2M230 123h4M242 123h4M16 124h4M32 124h4M39 124h188M230 124h4M246 124h4M16 125h4M32 125h4M40 125h186M230 125h4M246 125h4M16 126h4M32 126h4M40 126h186M230 126h4M246 126h4M16 127h4M28 127h4M40 127h186M234 127h4M246 127h4M16 128h4M28 128h4M37 128h4M225 128h4M234 128h4M246 128h4M16 129h4M28 129h4M37 129h4M225 129h4M234 129h4M246 129h4M16 130h4M28 130h4M37 130h4M81 130h104M225 130h4M234 130h4M246 130h4M16 131h12M37 131h4M81 131h104M225 131h4M238 131h12M20 132h8M33 132h4M81 132h2M183 132h2M229 132h4M238 132h8M20 133h8M33 133h4M81 133h2M183 133h2M229 133h4M238 133h8M20 134h8M33 134h4M81 134h2M116 134h6M128 134h4M138 134h4M146 134h2M152 134h2M183 134h2M229 134h4M238 134h8M33 135h4M81 135h2M116 135h6M128 135h4M138 135h4M146 135h2M152 135h2M183 135h2M229 135h4M29 136h4M81 136h2M116 136h2M122 136h2M126 136h2M132 136h2M136 136h2M142 136h2M146 136h2M150 136h2M183 136h2M233 136h4M29 137h4M81 137h2M116 137h2M122 137h2M126 137h2M132 137h2M136 137h2M142 137h2M146 137h2M150 137h2M183 137h2M233 137h4M29 138h4M81 138h2M116 138h6M126 138h8M136 138h2M146 138h4M183 138h2M233 138h4M29 139h4M81 139h2M116 139h6M126 139h8M136 139h2M146 139h4M183 139h2M233 139h4M29 140h4M81 140h2M116 140h2M122 140h2M126 140h2M132 140h2M136 140h2M142 140h2M146 140h2M150 140h2M183 140h2M233 140h4M29 141h4M41 141h4M81 141h2M116 141h2M122 141h2M126 141h2M132 141h2M136 141h2M142 141h2M146 141h2M150 141h2M183 141h2M221 141h4M233 141h4M29 142h4M41 142h4M81 142h2M116 142h6M126 142h2M132 142h2M138 142h4M146 142h2M152 142h2M183 142h2M221 142h4M233 142h4M29 143h4M41 143h4M81 143h2M116 143h6M126 143h2M132 143h2M138 143h4M146 143h2M152 143h2M183 143h2M221 143h4M233 143h4M33 144h12M81 144h2M183 144h2M221 144h12M33 145h8M81 145h2M183 145h2M225 145h8M33 146h8M81 146h104M225 146h8M33 147h8M81 147h104M225 147h8" />
<path stroke="#558b2f" d="M40 25h186M39 26h188M39 27h188M39 28h188M39 29h188M39 30h188M39 31h188M39 32h188M39 33h188M39 34h188M39 35h188M39 36h188M39 37h188M39 38h188M39 39h188M39 40h188M39 41h188M39 42h188M39 43h188M39 44h188M39 45h188M39 46h188M39 47h188M39 48h188M39 49h188M39 50h188M39 51h188M39 52h188M39 53h188M39 54h188M39 55h188M39 56h188M39 57h188M39 58h188M39 59h188M39 60h188M39 61h188M39 62h188M39 63h188M39 64h188M39 65h188M39 66h188M39 67h188M39 68h188M39 69h188M39 70h188M39 71h188M39 72h188M39 73h188M39 74h188M39 75h188M39 76h188M39 77h188M39 78h188M39 79h188M39 80h188M39 81h188M39 82h188M39 83h188M39 84h188M39 85h188M39 86h188M39 87h188M39 88h188M39 89h188M39 90h188M39 91h188M39 92h188M39 93h188M39 94h188M39 95h188M39 96h188M39 97h188M39 98h188M39 99h188M39 100h188M39 101h188M39 102h188M39 103h188M39 104h188M39 105h188M39 106h188M39 107h188M39 108h188M39 109h188M39 110h188M39 111h188M39 112h188M39 113h188M39 114h188M39 115h188M39 116h188M39 117h188M39 118h188M39 119h188M39 120h188M39 121h188M39 122h188M40 123h186M83 132h100M83 133h100M83 134h33M122 134h6M132 134h6M142 134h4M148 134h4M154 134h29M83 135h33M122 135h6M132 135h6M142 135h4M148 135h4M154 135h29M83 136h33M118 136h4M124 136h2M128 136h4M134 136h2M138 136h4M144 136h2M148 136h2M152 136h31M83 137h33M118 137h4M124 137h2M128 137h4M134 137h2M138 137h4M144 137h2M148 137h2M152 137h31M83 138h33M122 138h4M134 138h2M138 138h8M150 138h33M83 139h33M122 139h4M134 139h2M138 139h8M150 139h33M83 140h33M118 140h4M124 140h2M128 140h4M134 140h2M138 140h4M144 140h2M148 140h2M152 140h31M83 141h33M118 141h4M124 141h2M128 141h4M134 141h2M138 141h4M144 141h2M148 141h2M152 141h31M83 142h33M122 142h4M128 142h4M134 142h4M142 142h4M148 142h4M154 142h29M83 143h33M122 143h4M128 143h4M134 143h4M142 143h4M148 143h4M154 143h29M83 144h100M83 145h100" />
</svg>