<svg xmlns="http://www.w3.org/2000/svg" viewBox="0 -0.5 64 64" shape-rendering="crispEdges">
<metadata>Made with Pixels to Svg https://codepen.io/shshaw/pen/XbxvNj</metadata>
<path stroke="#ffffff" d="M2 14h2M60 14h2M2 15h1M61 15h1M29 16h1M28 17h2M27 18h3M26 19h4M25 20h5M24 21h15M23 22h16M24 23h15M25 24h5M26 25h4M27 26h3M28 27h2M29 28h1M2 34h1M61 34h1M2 35h2M60 35h2" />
<path stroke="#000000" d="M4 14h56M3 15h1M60 15h1M2 16h1M61 16h1M2 17h1M61 17h1M2 18h1M61 18h1M2 19h1M61 19h1M2 20h1M61 20h1M2 21h1M61 21h1M2 22h1M61 22h1M2 23h1M61 23h1M2 24h1M61 24h1M2 25h1M61 25h1M2 26h1M61 26h1M2 27h1M61 27h1M2 28h1M61 28h1M2 29h1M61 29h1M2 30h1M61 30h1M2 31h1M61 31h1M2 32h1M61 32h1M2 33h1M61 33h1M3 34h1M60 34h1M4 35h56" />
<path stroke="#81c784" d="M4 15h56M3 16h1M60 16h1M3 29h1M60 29h1M4 30h56" />
<path stroke="#66bb6a" d="M4 16h25M30 16h30M3 17h25M30 17h31M3 18h24M30 18h31M3 19h23M30 19h31M3 20h22M30 20h31M3 21h21M39 21h22M3 22h20M39 22h22M3 23h21M39 23h22M3 24h22M30 24h31M3 25h23M30 25h31M3 26h24M30 26h31M3 27h25M30 27h31M3 28h26M30 28h31M4 29h56" />
<path stroke="#1b5e20" d="M3 30h1M60 30h1M3 31h58M3 32h58M3 33h58M4 34h56" />
</svg>