<svg xmlns="http://www.w3.org/2000/svg" viewBox="0 -0.5 64 64" shape-rendering="crispEdges">
<metadata>Made with Pixels to Svg https://codepen.io/shshaw/pen/XbxvNj</metadata>
<path stroke="#000000" d="M4 14h56M3 15h1M60 15h1M2 16h1M61 16h1M2 17h1M61 17h1M2 18h1M61 18h1M2 19h1M61 19h1M2 20h1M61 20h1M2 21h1M61 21h1M2 22h1M61 22h1M2 23h1M61 23h1M2 24h1M61 24h1M2 25h1M61 25h1M2 26h1M61 26h1M2 27h1M61 27h1M2 28h1M61 28h1M2 29h1M61 29h1M2 30h1M61 30h1M2 31h1M61 31h1M2 32h1M61 32h1M2 33h1M61 33h1M3 34h1M60 34h1M4 35h56" />
<path stroke="#81c784" d="M4 15h56M3 16h1M60 16h1M3 29h1M60 29h1M4 30h56" />
<path stroke="#66bb6a" d="M4 16h56M3 17h58M3 18h58M3 19h58M3 20h58M3 21h10M14 21h4M21 21h1M26 21h1M32 21h4M38 21h2M44 21h1M49 21h12M3 22h10M14 22h5M20 22h2M23 22h6M30 22h5M36 22h2M39 22h1M41 22h4M46 22h15M3 23h10M14 23h5M20 23h2M25 23h4M30 23h5M36 23h2M39 23h1M43 23h2M48 23h13M3 24h10M14 24h5M20 24h2M23 24h6M30 24h5M36 24h2M39 24h1M41 24h4M46 24h15M3 25h10M17 25h1M21 25h1M23 25h6M30 25h6M38 25h2M41 25h4M46 25h15M3 26h58M3 27h58M3 28h58M4 29h56" />
<path stroke="#ffffff" d="M13 21h1M18 21h3M22 21h4M27 21h5M36 21h2M40 21h4M45 21h4M13 22h1M19 22h1M22 22h1M29 22h1M35 22h1M38 22h1M40 22h1M45 22h1M13 23h1M19 23h1M22 23h3M29 23h1M35 23h1M38 23h1M40 23h3M45 23h3M13 24h1M19 24h1M22 24h1M29 24h1M35 24h1M38 24h1M40 24h1M45 24h1M13 25h4M18 25h3M22 25h1M29 25h1M36 25h2M40 25h1M45 25h1" />
<path stroke="#1b5e20" d="M3 30h1M60 30h1M3 31h58M3 32h58M3 33h58M4 34h56" />
</svg>