<svg xmlns="http://www.w3.org/2000/svg" viewBox="0 -0.5 500 500" shape-rendering="crispEdges">
<metadata>Made with Pixels to Svg https://codepen.io/shshaw/pen/XbxvNj</metadata>
<path stroke="#000000" d="M235 1h31M223 2h12M266 2h12M215 3h8M278 3h8M209 4h6M286 4h6M203 5h6M292 5h6M199 6h4M298 6h4M194 7h5M302 7h5M190 8h4M307 8h4M186 9h4M311 9h4M183 10h3M315 10h3M179 11h4M318 11h4M176 12h3M322 12h3M173 13h3M325 13h3M170 14h3M328 14h3M167 15h3M331 15h3M164 16h3M334 16h3M162 17h2M337 17h2M159 18h3M339 18h3M157 19h2M342 19h2M154 20h3M344 20h3M152 21h2M347 21h2M149 22h3M349 22h3M147 23h2M352 23h2M145 24h2M354 24h2M143 25h2M356 25h2M141 26h2M358 26h2M139 27h2M360 27h2M137 28h2M362 28h2M135 29h2M364 29h2M133 30h2M366 30h2M131 31h2M368 31h2M130 32h1M370 32h1M128 33h2M371 33h2M126 34h2M373 34h2M124 35h2M375 35h2M123 36h1M377 36h1M121 37h2M378 37h2M119 38h2M380 38h2M118 39h1M382 39h1M116 40h2M383 40h2M115 41h1M385 41h1M113 42h2M386 42h2M112 43h1M388 43h1M110 44h2M389 44h2M109 45h1M391 45h1M107 46h2M392 46h2M106 47h1M394 47h1M105 48h1M395 48h1M103 49h2M396 49h2M102 50h1M398 50h1M101 51h1M399 51h1M99 52h2M400 52h2M98 53h1M402 53h1M97 54h1M403 54h1M95 55h2M404 55h2M94 56h1M406 56h1M93 57h1M407 57h1M92 58h1M408 58h1M91 59h1M409 59h1M89 60h2M410 60h2M88 61h1M412 61h1M87 62h1M413 62h1M86 63h1M414 63h1M85 64h1M415 64h1M84 65h1M416 65h1M83 66h1M417 66h1M81 67h2M418 67h2M80 68h1M420 68h1M79 69h1M421 69h1M78 70h1M422 70h1M77 71h1M423 71h1M76 72h1M424 72h1M75 73h1M425 73h1M74 74h1M426 74h1M73 75h1M427 75h1M72 76h1M428 76h1M71 77h1M429 77h1M70 78h1M430 78h1M69 79h1M431 79h1M68 80h1M432 80h1M68 81h1M432 81h1M67 82h1M433 82h1M66 83h1M434 83h1M65 84h1M435 84h1M64 85h1M436 85h1M63 86h1M437 86h1M62 87h1M438 87h1M61 88h1M439 88h1M61 89h1M439 89h1M60 90h1M440 90h1M59 91h1M441 91h1M58 92h1M442 92h1M57 93h1M443 93h1M56 94h1M444 94h1M56 95h1M444 95h1M55 96h1M445 96h1M54 97h1M446 97h1M53 98h1M447 98h1M53 99h1M447 99h1M52 100h1M448 100h1M51 101h1M449 101h1M50 102h1M450 102h1M50 103h1M450 103h1M49 104h1M451 104h1M48 105h1M452 105h1M47 106h1M453 106h1M47 107h1M453 107h1M46 108h1M454 108h1M45 109h1M455 109h1M45 110h1M455 110h1M44 111h1M456 111h1M43 112h1M457 112h1M43 113h1M457 113h1M42 114h1M458 114h1M41 115h1M459 115h1M41 116h1M459 116h1M40 117h1M460 117h1M39 118h1M461 118h1M39 119h1M461 119h1M38 120h1M462 120h1M38 121h1M462 121h1M37 122h1M463 122h1M36 123h1M464 123h1M36 124h1M464 124h1M35 125h1M465 125h1M35 126h1M465 126h1M34 127h1M466 127h1M34 128h1M466 128h1M33 129h1M467 129h1M32 130h1M468 130h1M32 131h1M468 131h1M31 132h1M469 132h1M31 133h1M469 133h1M30 134h1M470 134h1M30 135h1M470 135h1M29 136h1M471 136h1M29 137h1M471 137h1M28 138h1M472 138h1M28 139h1M472 139h1M27 140h1M473 140h1M27 141h1M473 141h1M26 142h1M474 142h1M26 143h1M474 143h1M25 144h1M475 144h1M25 145h1M475 145h1M24 146h1M476 146h1M24 147h1M476 147h1M23 148h1M477 148h1M23 149h1M477 149h1M23 150h1M477 150h1M22 151h1M478 151h1M22 152h1M478 152h1M21 153h1M479 153h1M21 154h1M479 154h1M21 155h1M479 155h1M20 156h1M480 156h1M20 157h1M480 157h1M19 158h1M481 158h1M19 159h1M481 159h1M19 160h1M481 160h1M18 161h1M482 161h1M18 162h1M482 162h1M17 163h1M483 163h1M17 164h1M483 164h1M17 165h1M483 165h1M16 166h1M484 166h1M16 167h1M484 167h1M16 168h1M484 168h1M15 169h1M485 169h1M15 170h1M485 170h1M15 171h1M485 171h1M14 172h1M486 172h1M14 173h1M486 173h1M14 174h1M486 174h1M13 175h1M487 175h1M13 176h1M487 176h1M13 177h1M487 177h1M12 178h1M488 178h1M12 179h1M488 179h1M12 180h1M488 180h1M12 181h1M488 181h1M11 182h1M489 182h1M11 183h1M489 183h1M11 184h1M489 184h1M10 185h1M490 185h1M10 186h1M490 186h1M10 187h1M490 187h1M10 188h1M490 188h1M9 189h1M491 189h1M9 190h1M491 190h1M9 191h1M491 191h1M9 192h1M491 192h1M8 193h1M492 193h1M8 194h1M492 194h1M8 195h1M492 195h1M8 196h1M492 196h1M8 197h1M492 197h1M7 198h1M493 198h1M7 199h1M493 199h1M7 200h1M493 200h1M7 201h1M493 201h1M6 202h1M494 202h1M6 203h1M494 203h1M6 204h1M494 204h1M6 205h1M494 205h1M6 206h1M494 206h1M6 207h1M494 207h1M5 208h1M495 208h1M5 209h1M495 209h1M5 210h1M495 210h1M5 211h1M495 211h1M5 212h1M495 212h1M5 213h1M495 213h1M4 214h1M496 214h1M4 215h1M496 215h1M4 216h1M496 216h1M4 217h1M496 217h1M4 218h1M496 218h1M4 219h1M496 219h1M4 220h1M496 220h1M4 221h1M496 221h1M3 222h1M497 222h1M3 223h1M497 223h1M3 224h1M497 224h1M3 225h1M497 225h1M3 226h1M497 226h1M3 227h1M497 227h1M3 228h1M497 228h1M3 229h1M497 229h1M3 230h1M497 230h1M3 231h1M497 231h1M3 232h1M497 232h1M3 233h1M497 233h1M2 234h1M498 234h1M2 235h1M498 235h1M2 236h1M498 236h1M2 237h1M498 237h1M2 238h1M498 238h1M2 239h1M498 239h1M2 240h1M498 240h1M2 241h1M498 241h1M2 242h1M498 242h1M2 243h1M498 243h1M2 244h1M498 244h1M2 245h1M498 245h1M2 246h1M498 246h1M2 247h1M498 247h1M2 248h1M498 248h1M2 249h1M498 249h1M2 250h1M498 250h1M2 251h1M498 251h1M2 252h1M498 252h1M2 253h1M498 253h1M2 254h1M498 254h1M2 255h1M498 255h1M2 256h1M498 256h1M2 257h1M498 257h1M2 258h1M498 258h1M2 259h1M498 259h1M2 260h1M498 260h1M2 261h1M498 261h1M2 262h1M498 262h1M2 263h1M498 263h1M2 264h1M498 264h1M3 265h1M497 265h1M3 266h1M497 266h1M3 267h1M497 267h1M3 268h1M497 268h1M3 269h1M497 269h1M3 270h1M497 270h1M3 271h1M497 271h1M3 272h1M497 272h1M3 273h1M497 273h1M3 274h1M497 274h1M3 275h1M497 275h1M3 276h1M497 276h1M4 277h1M496 277h1M4 278h1M496 278h1M4 279h1M496 279h1M4 280h1M496 280h1M4 281h1M496 281h1M4 282h1M496 282h1M4 283h1M496 283h1M4 284h1M496 284h1M5 285h1M495 285h1M5 286h1M495 286h1M5 287h1M495 287h1M5 288h1M495 288h1M5 289h1M495 289h1M5 290h1M495 290h1M6 291h1M494 291h1M6 292h1M494 292h1M6 293h1M494 293h1M6 294h1M494 294h1M6 295h1M494 295h1M6 296h1M494 296h1M7 297h1M493 297h1M7 298h1M493 298h1M7 299h1M493 299h1M7 300h1M493 300h1M8 301h1M492 301h1M8 302h1M492 302h1M8 303h1M492 303h1M8 304h1M492 304h1M8 305h1M492 305h1M9 306h1M491 306h1M9 307h1M491 307h1M9 308h1M491 308h1M9 309h1M491 309h1M10 310h1M490 310h1M10 311h1M490 311h1M10 312h1M490 312h1M10 313h1M490 313h1M11 314h1M489 314h1M11 315h1M489 315h1M11 316h1M489 316h1M12 317h1M488 317h1M12 318h1M488 318h1M12 319h1M488 319h1M12 320h1M488 320h1M13 321h1M487 321h1M13 322h1M487 322h1M13 323h1M487 323h1M14 324h1M486 324h1M14 325h1M486 325h1M14 326h1M486 326h1M15 327h1M485 327h1M15 328h1M485 328h1M15 329h1M485 329h1M16 330h1M484 330h1M16 331h1M484 331h1M16 332h1M484 332h1M17 333h1M483 333h1M17 334h1M483 334h1M17 335h1M483 335h1M18 336h1M482 336h1M18 337h1M482 337h1M19 338h1M481 338h1M19 339h1M481 339h1M19 340h1M481 340h1M20 341h1M480 341h1M20 342h1M480 342h1M21 343h1M479 343h1M21 344h1M479 344h1M21 345h1M479 345h1M22 346h1M478 346h1M22 347h1M478 347h1M23 348h1M477 348h1M23 349h1M477 349h1M23 350h1M477 350h1M24 351h1M476 351h1M24 352h1M476 352h1M25 353h1M475 353h1M25 354h1M475 354h1M26 355h1M474 355h1M26 356h1M474 356h1M27 357h1M473 357h1M27 358h1M473 358h1M28 359h1M472 359h1M28 360h1M472 360h1M29 361h1M471 361h1M29 362h1M471 362h1M30 363h1M470 363h1M30 364h1M470 364h1M31 365h1M469 365h1M31 366h1M469 366h1M32 367h1M468 367h1M32 368h1M468 368h1M33 369h1M467 369h1M34 370h1M466 370h1M34 371h1M466 371h1M35 372h1M465 372h1M35 373h1M465 373h1M36 374h1M464 374h1M36 375h1M464 375h1M37 376h1M463 376h1M38 377h1M462 377h1M38 378h1M462 378h1M39 379h1M461 379h1M39 380h1M461 380h1M40 381h1M460 381h1M41 382h1M459 382h1M41 383h1M459 383h1M42 384h1M458 384h1M43 385h1M457 385h1M43 386h1M457 386h1M44 387h1M456 387h1M45 388h1M455 388h1M45 389h1M455 389h1M46 390h1M454 390h1M47 391h1M453 391h1M47 392h1M453 392h1M48 393h1M452 393h1M49 394h1M451 394h1M50 395h1M450 395h1M50 396h1M450 396h1M51 397h1M449 397h1M52 398h1M448 398h1M53 399h1M447 399h1M53 400h1M447 400h1M54 401h1M446 401h1M55 402h1M445 402h1M56 403h1M444 403h1M56 404h1M444 404h1M57 405h1M443 405h1M58 406h1M442 406h1M59 407h1M441 407h1M60 408h1M440 408h1M61 409h1M439 409h1M61 410h1M439 410h1M62 411h1M438 411h1M63 412h1M437 412h1M64 413h1M436 413h1M65 414h1M435 414h1M66 415h1M434 415h1M67 416h1M433 416h1M68 417h1M432 417h1M68 418h1M432 418h1M69 419h1M431 419h1M70 420h1M430 420h1M71 421h1M429 421h1M72 422h1M428 422h1M73 423h1M427 423h1M74 424h1M426 424h1M75 425h1M425 425h1M76 426h1M424 426h1M77 427h1M423 427h1M78 428h1M422 428h1M79 429h1M421 429h1M80 430h1M420 430h1M81 431h2M418 431h2M83 432h1M417 432h1M84 433h1M416 433h1M85 434h1M415 434h1M86 435h1M414 435h1M87 436h1M413 436h1M88 437h1M412 437h1M89 438h2M410 438h2M91 439h1M409 439h1M92 440h1M408 440h1M93 441h1M407 441h1M94 442h1M406 442h1M95 443h2M404 443h2M97 444h1M403 444h1M98 445h1M402 445h1M99 446h2M400 446h2M101 447h1M399 447h1M102 448h1M398 448h1M103 449h2M396 449h2M105 450h1M395 450h1M106 451h1M394 451h1M107 452h2M392 452h2M109 453h1M391 453h1M110 454h2M389 454h2M112 455h1M388 455h1M113 456h2M386 456h2M115 457h1M385 457h1M116 458h2M383 458h2M118 459h1M382 459h1M119 460h2M380 460h2M121 461h2M378 461h2M123 462h1M377 462h1M124 463h2M375 463h2M126 464h2M373 464h2M128 465h2M371 465h2M130 466h1M370 466h1M131 467h2M368 467h2M133 468h2M366 468h2M135 469h2M364 469h2M137 470h2M362 470h2M139 471h2M360 471h2M141 472h2M358 472h2M143 473h2M356 473h2M145 474h2M354 474h2M147 475h2M352 475h2M149 476h3M349 476h3M152 477h2M347 477h2M154 478h3M344 478h3M157 479h2M342 479h2M159 480h3M339 480h3M162 481h2M337 481h2M164 482h3M334 482h3M167 483h3M331 483h3M170 484h3M328 484h3M173 485h3M325 485h3M176 486h3M322 486h3M179 487h4M318 487h4M183 488h3M315 488h3M186 489h4M311 489h4M190 490h4M307 490h4M194 491h5M302 491h5M199 492h4M298 492h4M203 493h6M292 493h6M209 494h6M286 494h6M215 495h8M278 495h8M223 496h12M266 496h12M235 497h31" />
<path stroke="#9e9e9e" d="M235 2h31M223 3h55M215 4h71M209 5h83M203 6h95M199 7h103M194 8h113M190 9h121M186 10h129M183 11h135M179 12h143M176 13h149M173 14h155M170 15h161M167 16h167M164 17h173M162 18h177M159 19h183M157 20h149M339 20h5M154 21h152M339 21h8M152 22h154M339 22h10M149 23h157M339 23h13M147 24h159M339 24h15M145 25h161M339 25h17M143 26h163M339 26h19M141 27h165M339 27h21M139 28h167M339 28h23M137 29h169M339 29h25M135 30h171M339 30h27M133 31h173M339 31h29M131 32h175M339 32h31M130 33h176M339 33h32M128 34h178M339 34h34M126 35h180M339 35h36M124 36h182M339 36h38M123 37h183M339 37h39M121 38h185M339 38h41M119 39h187M339 39h43M118 40h188M339 40h44M116 41h190M339 41h46M115 42h191M339 42h47M113 43h193M339 43h49M112 44h194M339 44h50M110 45h196M339 45h52M109 46h197M339 46h53M107 47h199M339 47h55M106 48h200M339 48h56M105 49h201M339 49h57M103 50h203M339 50h59M102 51h204M339 51h60M101 52h205M339 52h61M99 53h207M339 53h63M98 54h208M363 54h40M97 55h209M363 55h41M95 56h211M363 56h43M94 57h212M363 57h44M93 58h213M363 58h45M92 59h214M363 59h46M91 60h215M363 60h47M89 61h217M363 61h49M88 62h218M363 62h50M87 63h219M363 63h51M86 64h220M363 64h52M85 65h221M363 65h53M84 66h222M363 66h54M83 67h223M363 67h55M81 68h225M363 68h57M80 69h226M363 69h58M79 70h227M363 70h59M78 71h228M363 71h60M77 72h229M363 72h61M76 73h230M363 73h62M75 74h231M363 74h63M74 75h232M363 75h64M73 76h233M363 76h65M72 77h234M363 77h66M71 78h235M363 78h67M70 79h236M363 79h68M69 80h37M292 80h14M363 80h69M69 81h37M292 81h14M363 81h69M68 82h38M292 82h14M417 82h16M67 83h39M292 83h14M417 83h17M66 84h40M292 84h14M339 84h20M417 84h18M65 85h41M292 85h14M339 85h20M417 85h19M64 86h42M292 86h14M339 86h20M417 86h20M63 87h43M292 87h14M339 87h20M417 87h21M62 88h44M292 88h14M339 88h20M417 88h22M62 89h44M292 89h14M339 89h20M417 89h22M61 90h45M292 90h14M339 90h20M417 90h23M60 91h46M292 91h14M339 91h20M417 91h24M59 92h47M292 92h14M339 92h20M417 92h25M58 93h48M292 93h14M339 93h20M417 93h26M57 94h49M292 94h14M339 94h20M417 94h27M57 95h49M292 95h14M339 95h20M417 95h27M56 96h50M292 96h14M339 96h20M417 96h28M55 97h51M292 97h67M417 97h29M54 98h52M292 98h67M417 98h30M54 99h52M292 99h67M417 99h30M53 100h53M292 100h67M417 100h31M52 101h54M292 101h67M417 101h32M51 102h55M292 102h67M417 102h33M51 103h55M292 103h67M417 103h33M50 104h56M292 104h67M417 104h34M49 105h57M318 105h41M417 105h35M48 106h58M318 106h41M417 106h36M48 107h58M318 107h41M417 107h36M47 108h216M318 108h41M417 108h37M46 109h217M318 109h41M417 109h38M46 110h217M318 110h41M417 110h38M45 111h218M318 111h41M417 111h39M44 112h219M318 112h41M417 112h40M44 113h219M318 113h41M417 113h40M43 114h220M318 114h41M417 114h41M42 115h221M318 115h41M417 115h42M42 116h221M318 116h41M417 116h42M41 117h222M318 117h41M417 117h43M40 118h223M318 118h41M417 118h44M40 119h223M318 119h41M417 119h44M39 120h224M318 120h41M417 120h45M39 121h224M318 121h144M38 122h225M318 122h145M37 123h226M318 123h146M37 124h226M318 124h146M36 125h227M318 125h147M36 126h227M318 126h147M35 127h228M318 127h148M35 128h228M318 128h148M34 129h229M318 129h149M33 130h230M318 130h150M33 131h201M372 131h96M32 132h202M372 132h97M32 133h75M161 133h73M372 133h97M31 134h76M161 134h73M372 134h98M31 135h76M161 135h73M372 135h98M30 136h77M161 136h73M372 136h99M30 137h77M161 137h73M372 137h99M29 138h78M161 138h73M372 138h100M29 139h78M161 139h73M372 139h100M28 140h79M161 140h73M372 140h101M28 141h79M161 141h73M372 141h101M27 142h80M161 142h73M372 142h102M27 143h80M161 143h73M372 143h102M26 144h81M161 144h73M372 144h103M26 145h81M161 145h73M372 145h103M25 146h82M161 146h73M372 146h104M25 147h82M161 147h73M372 147h104M24 148h83M161 148h73M372 148h105M24 149h83M161 149h73M372 149h105M24 150h83M161 150h73M372 150h105M23 151h84M161 151h73M372 151h106M23 152h84M161 152h73M372 152h106M22 153h85M161 153h73M372 153h107M22 154h85M161 154h73M372 154h107M22 155h85M161 155h73M372 155h107M21 156h86M161 156h73M372 156h108M21 157h86M161 157h73M372 157h108M20 158h87M161 158h73M372 158h109M20 159h87M161 159h73M372 159h109M20 160h87M161 160h73M319 160h21M372 160h109M19 161h88M161 161h73M319 161h21M372 161h110M19 162h88M161 162h73M319 162h21M372 162h110M18 163h89M161 163h73M319 163h21M372 163h111M18 164h89M161 164h73M319 164h21M372 164h111M18 165h89M161 165h73M319 165h21M372 165h111M17 166h90M161 166h73M319 166h21M372 166h112M17 167h90M161 167h73M319 167h21M372 167h112M17 168h90M161 168h73M319 168h21M372 168h112M16 169h91M161 169h73M319 169h21M372 169h113M16 170h91M161 170h73M319 170h21M372 170h113M16 171h91M161 171h73M319 171h21M372 171h113M15 172h92M161 172h73M319 172h21M372 172h114M15 173h92M161 173h73M319 173h21M372 173h114M15 174h92M161 174h73M319 174h21M372 174h114M14 175h93M161 175h73M319 175h21M372 175h115M14 176h93M161 176h73M319 176h21M372 176h115M14 177h93M161 177h73M319 177h21M372 177h115M13 178h94M161 178h73M319 178h21M372 178h116M13 179h94M161 179h73M319 179h21M372 179h116M13 180h94M161 180h73M319 180h21M372 180h116M13 181h94M161 181h73M319 181h21M372 181h116M12 182h95M161 182h73M319 182h21M372 182h117M12 183h95M161 183h73M319 183h21M372 183h117M12 184h95M161 184h73M319 184h21M372 184h117M11 185h96M187 185h47M319 185h21M372 185h118M11 186h96M187 186h47M319 186h21M372 186h118M11 187h149M187 187h47M319 187h21M372 187h118M11 188h149M187 188h47M319 188h171M10 189h150M187 189h47M319 189h172M10 190h150M187 190h47M319 190h172M10 191h150M187 191h304M10 192h150M187 192h304M9 193h151M187 193h305M9 194h151M187 194h305M9 195h151M187 195h305M9 196h151M187 196h305M9 197h151M187 197h305M8 198h152M187 198h306M8 199h152M187 199h306M8 200h152M187 200h306M8 201h152M187 201h306M7 202h153M187 202h307M7 203h153M187 203h307M7 204h153M187 204h307M7 205h153M187 205h307M7 206h153M187 206h307M7 207h153M187 207h307M6 208h154M187 208h308M6 209h154M187 209h308M6 210h154M187 210h308M6 211h124M187 211h77M316 211h179M6 212h124M187 212h77M316 212h179M6 213h48M81 213h49M187 213h77M316 213h179M5 214h49M81 214h49M187 214h77M316 214h180M5 215h49M81 215h49M187 215h77M316 215h180M5 216h49M81 216h49M187 216h77M316 216h180M5 217h49M81 217h49M187 217h77M316 217h180M5 218h49M81 218h49M187 218h77M316 218h180M5 219h49M81 219h49M187 219h77M316 219h180M5 220h49M81 220h49M187 220h77M316 220h180M5 221h49M81 221h49M187 221h77M316 221h180M4 222h50M81 222h49M187 222h77M316 222h181M4 223h50M81 223h49M187 223h77M316 223h181M4 224h50M81 224h49M187 224h77M316 224h181M4 225h50M81 225h49M187 225h77M316 225h181M4 226h50M81 226h49M187 226h77M316 226h181M4 227h50M81 227h49M187 227h77M316 227h181M4 228h50M81 228h49M187 228h77M316 228h181M4 229h50M81 229h49M187 229h77M316 229h181M4 230h50M81 230h49M187 230h77M316 230h181M4 231h50M81 231h49M187 231h77M316 231h181M4 232h50M81 232h49M187 232h77M316 232h181M4 233h50M81 233h49M187 233h77M316 233h181M3 234h51M81 234h49M187 234h77M316 234h182M3 235h51M81 235h49M187 235h77M316 235h182M3 236h51M81 236h49M187 236h77M316 236h182M3 237h51M81 237h49M162 237h102M316 237h182M3 238h51M81 238h49M162 238h102M316 238h53M421 238h77M3 239h51M81 239h49M162 239h102M316 239h53M421 239h77M3 240h51M81 240h49M162 240h102M316 240h53M421 240h77M3 241h51M81 241h49M162 241h102M316 241h53M421 241h77M3 242h51M81 242h49M162 242h102M316 242h53M421 242h77M3 243h51M81 243h49M162 243h102M316 243h53M421 243h77M3 244h51M81 244h49M162 244h102M316 244h53M421 244h77M3 245h51M81 245h49M162 245h102M316 245h53M421 245h77M3 246h51M81 246h49M162 246h102M316 246h53M421 246h77M3 247h51M81 247h49M162 247h102M316 247h53M421 247h77M3 248h51M81 248h49M162 248h102M316 248h53M421 248h77M3 249h51M81 249h49M162 249h102M316 249h53M421 249h77M3 250h51M81 250h49M162 250h102M316 250h53M421 250h77M3 251h51M81 251h49M162 251h102M316 251h53M421 251h77M3 252h51M81 252h49M162 252h102M316 252h53M421 252h77M3 253h51M81 253h49M162 253h102M316 253h53M421 253h77M3 254h51M81 254h49M162 254h102M316 254h53M421 254h77M3 255h51M81 255h49M162 255h102M316 255h53M421 255h77M3 256h51M81 256h49M162 256h102M316 256h53M421 256h77M3 257h51M81 257h49M162 257h102M316 257h53M421 257h77M3 258h51M81 258h49M162 258h102M316 258h53M421 258h77M3 259h51M81 259h49M162 259h102M316 259h53M421 259h77M3 260h51M81 260h49M162 260h102M316 260h53M421 260h77M3 261h51M81 261h49M162 261h102M316 261h53M421 261h77M3 262h51M81 262h49M162 262h102M316 262h53M421 262h77M3 263h51M81 263h49M162 263h207M421 263h77M3 264h51M81 264h49M162 264h207M421 264h77M4 265h50M81 265h49M162 265h207M421 265h76M4 266h50M81 266h49M162 266h207M421 266h76M4 267h50M81 267h49M162 267h207M421 267h76M4 268h50M81 268h49M162 268h207M421 268h76M4 269h50M81 269h49M162 269h207M421 269h76M4 270h50M81 270h49M162 270h207M421 270h76M4 271h50M81 271h49M162 271h207M421 271h76M4 272h50M81 272h49M162 272h207M421 272h76M4 273h50M81 273h49M162 273h207M421 273h76M4 274h50M81 274h49M162 274h207M421 274h76M4 275h50M81 275h49M162 275h207M421 275h76M4 276h50M81 276h49M162 276h207M421 276h76M5 277h49M81 277h49M162 277h207M421 277h75M5 278h49M81 278h49M162 278h207M421 278h75M5 279h49M81 279h49M162 279h207M421 279h75M5 280h49M81 280h49M162 280h207M421 280h75M5 281h49M81 281h49M162 281h207M421 281h75M5 282h49M81 282h49M162 282h207M421 282h75M5 283h49M81 283h49M162 283h207M421 283h75M5 284h49M81 284h49M162 284h207M421 284h75M6 285h48M81 285h49M162 285h207M421 285h74M6 286h48M81 286h49M162 286h207M421 286h74M6 287h48M81 287h49M162 287h207M421 287h74M6 288h48M81 288h49M162 288h207M421 288h74M6 289h48M81 289h49M162 289h207M421 289h74M6 290h48M81 290h49M162 290h155M342 290h153M7 291h73M108 291h22M162 291h155M342 291h152M7 292h73M108 292h22M162 292h155M342 292h152M7 293h73M108 293h22M162 293h155M342 293h152M7 294h73M108 294h22M162 294h155M342 294h152M7 295h73M108 295h22M162 295h155M342 295h152M7 296h73M108 296h22M162 296h155M342 296h152M8 297h72M108 297h22M162 297h155M342 297h151M8 298h72M108 298h22M162 298h155M342 298h151M8 299h72M108 299h22M162 299h155M342 299h151M8 300h72M108 300h22M162 300h155M342 300h151M9 301h71M108 301h22M162 301h155M342 301h150M9 302h71M108 302h22M162 302h155M342 302h150M9 303h71M108 303h22M162 303h155M342 303h150M9 304h71M108 304h22M162 304h155M342 304h150M9 305h71M108 305h22M162 305h155M342 305h150M10 306h70M108 306h22M162 306h155M342 306h149M10 307h70M108 307h22M162 307h155M342 307h149M10 308h70M108 308h22M162 308h155M342 308h149M10 309h70M108 309h22M162 309h155M342 309h149M11 310h69M108 310h22M162 310h155M342 310h148M11 311h69M108 311h22M162 311h155M342 311h148M11 312h69M108 312h22M162 312h155M342 312h148M11 313h69M108 313h22M162 313h155M342 313h148M12 314h68M108 314h22M162 314h155M342 314h147M12 315h68M108 315h22M162 315h155M342 315h147M12 316h68M108 316h381M13 317h67M108 317h183M316 317h172M13 318h67M108 318h183M316 318h172M13 319h67M108 319h183M316 319h172M13 320h67M108 320h183M316 320h172M14 321h66M108 321h183M316 321h171M14 322h66M108 322h183M316 322h171M14 323h66M108 323h183M316 323h171M15 324h65M108 324h183M316 324h170M15 325h65M108 325h183M316 325h170M15 326h65M108 326h183M316 326h170M16 327h64M108 327h183M316 327h169M16 328h64M108 328h183M316 328h169M16 329h64M108 329h183M316 329h169M17 330h63M108 330h183M316 330h168M17 331h63M108 331h183M316 331h168M17 332h63M108 332h183M316 332h168M18 333h62M108 333h183M316 333h167M18 334h62M108 334h183M316 334h167M18 335h62M108 335h183M316 335h167M19 336h61M108 336h183M316 336h166M19 337h61M108 337h183M316 337h166M20 338h60M108 338h183M316 338h165M20 339h60M108 339h183M316 339h165M20 340h60M134 340h157M316 340h165M21 341h59M134 341h157M316 341h164M21 342h59M134 342h77M316 342h164M22 343h58M134 343h77M316 343h163M22 344h58M134 344h77M316 344h163M22 345h58M134 345h77M316 345h163M23 346h57M134 346h77M316 346h162M23 347h57M134 347h77M316 347h162M24 348h56M134 348h77M316 348h161M24 349h56M134 349h77M316 349h161M24 350h56M134 350h77M316 350h161M25 351h55M134 351h77M316 351h160M25 352h55M134 352h77M316 352h160M26 353h54M134 353h77M316 353h159M26 354h54M134 354h77M316 354h159M27 355h53M134 355h77M316 355h158M27 356h53M134 356h77M316 356h158M28 357h52M134 357h77M316 357h157M28 358h52M134 358h77M316 358h157M29 359h51M134 359h77M316 359h156M29 360h51M134 360h77M316 360h156M30 361h50M134 361h77M316 361h155M30 362h50M134 362h77M316 362h155M31 363h49M134 363h77M316 363h154M31 364h49M134 364h77M316 364h154M32 365h48M134 365h77M316 365h153M32 366h48M134 366h77M316 366h153M33 367h47M134 367h77M316 367h152M33 368h47M134 368h77M316 368h152M34 369h70M134 369h333M35 370h69M134 370h332M35 371h69M134 371h332M36 372h68M134 372h331M36 373h68M134 373h331M37 374h67M134 374h330M37 375h67M134 375h330M38 376h66M134 376h329M39 377h65M134 377h328M39 378h65M134 378h328M40 379h64M134 379h327M40 380h64M134 380h327M41 381h63M134 381h326M42 382h62M134 382h325M42 383h62M134 383h325M43 384h61M134 384h324M44 385h60M134 385h323M44 386h60M134 386h323M45 387h59M134 387h322M46 388h58M134 388h321M46 389h58M134 389h321M47 390h57M134 390h320M48 391h56M134 391h319M48 392h56M134 392h319M49 393h55M134 393h318M50 394h54M134 394h317M51 395h53M134 395h316M51 396h213M318 396h132M52 397h212M318 397h131M53 398h211M318 398h130M54 399h210M318 399h129M54 400h210M318 400h129M55 401h209M318 401h128M56 402h208M318 402h127M57 403h207M318 403h126M57 404h207M318 404h126M58 405h206M318 405h125M59 406h205M318 406h124M60 407h204M318 407h123M61 408h203M318 408h122M62 409h202M318 409h121M62 410h202M318 410h121M63 411h201M318 411h120M64 412h200M318 412h119M65 413h199M318 413h118M66 414h198M318 414h117M67 415h197M318 415h116M68 416h196M318 416h115M69 417h195M318 417h114M69 418h195M318 418h114M70 419h194M318 419h113M71 420h193M318 420h112M72 421h192M318 421h111M73 422h191M318 422h110M74 423h190M318 423h109M75 424h189M318 424h108M76 425h188M318 425h107M77 426h187M318 426h106M78 427h186M318 427h105M79 428h185M318 428h104M80 429h184M318 429h103M81 430h183M318 430h102M83 431h181M318 431h100M84 432h180M318 432h99M85 433h179M318 433h98M86 434h178M318 434h97M87 435h177M318 435h96M88 436h176M318 436h95M89 437h175M318 437h94M91 438h173M318 438h92M92 439h172M318 439h91M93 440h171M318 440h90M94 441h170M318 441h89M95 442h169M318 442h88M97 443h167M318 443h86M98 444h166M318 444h85M99 445h165M318 445h84M101 446h163M318 446h82M102 447h162M318 447h81M103 448h295M105 449h291M106 450h289M107 451h287M109 452h283M110 453h281M112 454h277M113 455h275M115 456h271M116 457h269M118 458h265M119 459h263M121 460h259M123 461h255M124 462h253M126 463h249M128 464h245M130 465h241M131 466h239M133 467h235M135 468h231M137 469h227M139 470h223M141 471h219M143 472h215M145 473h211M147 474h207M149 475h203M152 476h197M154 477h193M157 478h187M159 479h183M162 480h177M164 481h173M167 482h167M170 483h161M173 484h155M176 485h149M179 486h143M183 487h135M186 488h129M190 489h121M194 490h113M199 491h103M203 492h95M209 493h83M215 494h71M223 495h55M235 496h31" />
<path stroke="#8e8e8e" d="M306 20h33M306 21h33M306 22h33M306 23h33M306 24h33M306 25h33M306 26h33M306 27h33M306 28h33M306 29h33M306 30h33M306 31h33M306 32h33M306 33h33M306 34h33M306 35h33M306 36h33M306 37h33M306 38h33M306 39h33M306 40h33M306 41h33M306 42h33M306 43h33M306 44h33M306 45h33M306 46h33M306 47h33M306 48h33M306 49h33M306 50h33M306 51h33M306 52h33M306 53h33M306 54h57M306 55h57M306 56h57M306 57h57M306 58h57M306 59h57M306 60h57M306 61h57M306 62h57M306 63h57M306 64h57M306 65h57M306 66h57M306 67h57M306 68h57M306 69h57M306 70h57M306 71h57M306 72h57M306 73h57M306 74h57M306 75h57M306 76h57M306 77h57M306 78h57M306 79h57M106 80h186M306 80h57M106 81h186M306 81h57M106 82h186M306 82h111M106 83h186M306 83h111M106 84h186M306 84h33M359 84h58M106 85h186M306 85h33M359 85h58M106 86h186M306 86h33M359 86h58M106 87h186M306 87h33M359 87h58M106 88h186M306 88h33M359 88h58M106 89h186M306 89h33M359 89h58M106 90h186M306 90h33M359 90h58M106 91h186M306 91h33M359 91h58M106 92h186M306 92h33M359 92h58M106 93h186M306 93h33M359 93h58M106 94h186M306 94h33M359 94h58M106 95h186M306 95h33M359 95h58M106 96h186M306 96h33M359 96h58M106 97h186M359 97h58M106 98h186M359 98h58M106 99h186M359 99h58M106 100h186M359 100h58M106 101h186M359 101h58M106 102h186M359 102h58M106 103h186M359 103h58M106 104h186M359 104h58M106 105h212M359 105h58M106 106h212M359 106h58M106 107h212M359 107h58M263 108h55M359 108h58M263 109h55M359 109h58M263 110h55M359 110h58M263 111h55M359 111h58M263 112h55M359 112h58M263 113h55M359 113h58M263 114h55M359 114h58M263 115h55M359 115h58M263 116h55M359 116h58M263 117h55M359 117h58M263 118h55M359 118h58M263 119h55M359 119h58M263 120h55M359 120h58M263 121h55M263 122h55M263 123h55M263 124h55M263 125h55M263 126h55M263 127h55M263 128h55M263 129h55M263 130h55M234 131h138M234 132h138M107 133h54M234 133h138M107 134h54M234 134h138M107 135h54M234 135h138M107 136h54M234 136h138M107 137h54M234 137h138M107 138h54M234 138h138M107 139h54M234 139h138M107 140h54M234 140h138M107 141h54M234 141h138M107 142h54M234 142h138M107 143h54M234 143h138M107 144h54M234 144h138M107 145h54M234 145h138M107 146h54M234 146h138M107 147h54M234 147h138M107 148h54M234 148h138M107 149h54M234 149h138M107 150h54M234 150h138M107 151h54M234 151h138M107 152h54M234 152h138M107 153h54M234 153h138M107 154h54M234 154h138M107 155h54M234 155h138M107 156h54M234 156h138M107 157h54M234 157h138M107 158h54M234 158h138M107 159h54M234 159h138M107 160h54M234 160h85M340 160h32M107 161h54M234 161h85M340 161h32M107 162h54M234 162h85M340 162h32M107 163h54M234 163h85M340 163h32M107 164h54M234 164h85M340 164h32M107 165h54M234 165h85M340 165h32M107 166h54M234 166h85M340 166h32M107 167h54M234 167h85M340 167h32M107 168h54M234 168h85M340 168h32M107 169h54M234 169h85M340 169h32M107 170h54M234 170h85M340 170h32M107 171h54M234 171h85M340 171h32M107 172h54M234 172h85M340 172h32M107 173h54M234 173h85M340 173h32M107 174h54M234 174h85M340 174h32M107 175h54M234 175h85M340 175h32M107 176h54M234 176h85M340 176h32M107 177h54M234 177h85M340 177h32M107 178h54M234 178h85M340 178h32M107 179h54M234 179h85M340 179h32M107 180h54M234 180h85M340 180h32M107 181h54M234 181h85M340 181h32M107 182h54M234 182h85M340 182h32M107 183h54M234 183h85M340 183h32M107 184h54M234 184h85M340 184h32M107 185h80M234 185h85M340 185h32M107 186h80M234 186h85M340 186h32M160 187h27M234 187h85M340 187h32M160 188h27M234 188h85M160 189h27M234 189h85M160 190h27M234 190h85M160 191h27M160 192h27M160 193h27M160 194h27M160 195h27M160 196h27M160 197h27M160 198h27M160 199h27M160 200h27M160 201h27M160 202h27M160 203h27M160 204h27M160 205h27M160 206h27M160 207h27M160 208h27M160 209h27M160 210h27M130 211h57M264 211h52M130 212h57M264 212h52M54 213h27M130 213h57M264 213h52M54 214h27M130 214h57M264 214h52M54 215h27M130 215h57M264 215h52M54 216h27M130 216h57M264 216h52M54 217h27M130 217h57M264 217h52M54 218h27M130 218h57M264 218h52M54 219h27M130 219h57M264 219h52M54 220h27M130 220h57M264 220h52M54 221h27M130 221h57M264 221h52M54 222h27M130 222h57M264 222h52M54 223h27M130 223h57M264 223h52M54 224h27M130 224h57M264 224h52M54 225h27M130 225h57M264 225h52M54 226h27M130 226h57M264 226h52M54 227h27M130 227h57M264 227h52M54 228h27M130 228h57M264 228h52M54 229h27M130 229h57M264 229h52M54 230h27M130 230h57M264 230h52M54 231h27M130 231h57M264 231h52M54 232h27M130 232h57M264 232h52M54 233h27M130 233h57M264 233h52M54 234h27M130 234h57M264 234h52M54 235h27M130 235h57M264 235h52M54 236h27M130 236h57M264 236h52M54 237h27M130 237h32M264 237h52M54 238h27M130 238h32M264 238h52M369 238h52M54 239h27M130 239h32M264 239h52M369 239h52M54 240h27M130 240h32M264 240h52M369 240h52M54 241h27M130 241h32M264 241h52M369 241h52M54 242h27M130 242h32M264 242h52M369 242h52M54 243h27M130 243h32M264 243h52M369 243h52M54 244h27M130 244h32M264 244h52M369 244h52M54 245h27M130 245h32M264 245h52M369 245h52M54 246h27M130 246h32M264 246h52M369 246h52M54 247h27M130 247h32M264 247h52M369 247h52M54 248h27M130 248h32M264 248h52M369 248h52M54 249h27M130 249h32M264 249h52M369 249h52M54 250h27M130 250h32M264 250h52M369 250h52M54 251h27M130 251h32M264 251h52M369 251h52M54 252h27M130 252h32M264 252h52M369 252h52M54 253h27M130 253h32M264 253h52M369 253h52M54 254h27M130 254h32M264 254h52M369 254h52M54 255h27M130 255h32M264 255h52M369 255h52M54 256h27M130 256h32M264 256h52M369 256h52M54 257h27M130 257h32M264 257h52M369 257h52M54 258h27M130 258h32M264 258h52M369 258h52M54 259h27M130 259h32M264 259h52M369 259h52M54 260h27M130 260h32M264 260h52M369 260h52M54 261h27M130 261h32M264 261h52M369 261h52M54 262h27M130 262h32M264 262h52M369 262h52M54 263h27M130 263h32M369 263h52M54 264h27M130 264h32M369 264h52M54 265h27M130 265h32M369 265h52M54 266h27M130 266h32M369 266h52M54 267h27M130 267h32M369 267h52M54 268h27M130 268h32M369 268h52M54 269h27M130 269h32M369 269h52M54 270h27M130 270h32M369 270h52M54 271h27M130 271h32M369 271h52M54 272h27M130 272h32M369 272h52M54 273h27M130 273h32M369 273h52M54 274h27M130 274h32M369 274h52M54 275h27M130 275h32M369 275h52M54 276h27M130 276h32M369 276h52M54 277h27M130 277h32M369 277h52M54 278h27M130 278h32M369 278h52M54 279h27M130 279h32M369 279h52M54 280h27M130 280h32M369 280h52M54 281h27M130 281h32M369 281h52M54 282h27M130 282h32M369 282h52M54 283h27M130 283h32M369 283h52M54 284h27M130 284h32M369 284h52M54 285h27M130 285h32M369 285h52M54 286h27M130 286h32M369 286h52M54 287h27M130 287h32M369 287h52M54 288h27M130 288h32M369 288h52M54 289h27M130 289h32M369 289h52M54 290h27M130 290h32M317 290h25M80 291h28M130 291h32M317 291h25M80 292h28M130 292h32M317 292h25M80 293h28M130 293h32M317 293h25M80 294h28M130 294h32M317 294h25M80 295h28M130 295h32M317 295h25M80 296h28M130 296h32M317 296h25M80 297h28M130 297h32M317 297h25M80 298h28M130 298h32M317 298h25M80 299h28M130 299h32M317 299h25M80 300h28M130 300h32M317 300h25M80 301h28M130 301h32M317 301h25M80 302h28M130 302h32M317 302h25M80 303h28M130 303h32M317 303h25M80 304h28M130 304h32M317 304h25M80 305h28M130 305h32M317 305h25M80 306h28M130 306h32M317 306h25M80 307h28M130 307h32M317 307h25M80 308h28M130 308h32M317 308h25M80 309h28M130 309h32M317 309h25M80 310h28M130 310h32M317 310h25M80 311h28M130 311h32M317 311h25M80 312h28M130 312h32M317 312h25M80 313h28M130 313h32M317 313h25M80 314h28M130 314h32M317 314h25M80 315h28M130 315h32M317 315h25M80 316h28M80 317h28M291 317h25M80 318h28M291 318h25M80 319h28M291 319h25M80 320h28M291 320h25M80 321h28M291 321h25M80 322h28M291 322h25M80 323h28M291 323h25M80 324h28M291 324h25M80 325h28M291 325h25M80 326h28M291 326h25M80 327h28M291 327h25M80 328h28M291 328h25M80 329h28M291 329h25M80 330h28M291 330h25M80 331h28M291 331h25M80 332h28M291 332h25M80 333h28M291 333h25M80 334h28M291 334h25M80 335h28M291 335h25M80 336h28M291 336h25M80 337h28M291 337h25M80 338h28M291 338h25M80 339h28M291 339h25M80 340h54M291 340h25M80 341h54M291 341h25M80 342h54M211 342h105M80 343h54M211 343h105M80 344h54M211 344h105M80 345h54M211 345h105M80 346h54M211 346h105M80 347h54M211 347h105M80 348h54M211 348h105M80 349h54M211 349h105M80 350h54M211 350h105M80 351h54M211 351h105M80 352h54M211 352h105M80 353h54M211 353h105M80 354h54M211 354h105M80 355h54M211 355h105M80 356h54M211 356h105M80 357h54M211 357h105M80 358h54M211 358h105M80 359h54M211 359h105M80 360h54M211 360h105M80 361h54M211 361h105M80 362h54M211 362h105M80 363h54M211 363h105M80 364h54M211 364h105M80 365h54M211 365h105M80 366h54M211 366h105M80 367h54M211 367h105M80 368h54M211 368h105M104 369h30M104 370h30M104 371h30M104 372h30M104 373h30M104 374h30M104 375h30M104 376h30M104 377h30M104 378h30M104 379h30M104 380h30M104 381h30M104 382h30M104 383h30M104 384h30M104 385h30M104 386h30M104 387h30M104 388h30M104 389h30M104 390h30M104 391h30M104 392h30M104 393h30M104 394h30M104 395h30M264 396h54M264 397h54M264 398h54M264 399h54M264 400h54M264 401h54M264 402h54M264 403h54M264 404h54M264 405h54M264 406h54M264 407h54M264 408h54M264 409h54M264 410h54M264 411h54M264 412h54M264 413h54M264 414h54M264 415h54M264 416h54M264 417h54M264 418h54M264 419h54M264 420h54M264 421h54M264 422h54M264 423h54M264 424h54M264 425h54M264 426h54M264 427h54M264 428h54M264 429h54M264 430h54M264 431h54M264 432h54M264 433h54M264 434h54M264 435h54M264 436h54M264 437h54M264 438h54M264 439h54M264 440h54M264 441h54M264 442h54M264 443h54M264 444h54M264 445h54M264 446h54M264 447h54" />
</svg>