<svg xmlns="http://www.w3.org/2000/svg" viewBox="0 -0.5 64 64" shape-rendering="crispEdges">
<metadata>Made with Pixels to Svg https://codepen.io/shshaw/pen/XbxvNj</metadata>
<path stroke="#000000" d="M29 1h1M29 2h1M29 3h1M29 4h1M29 5h1M29 6h1M29 7h1M29 8h1M26 9h7M25 10h1M33 10h1M24 11h1M34 11h1M23 12h1M35 12h1M22 13h2M35 13h2M22 14h1M24 14h1M34 14h1M36 14h1M22 15h1M25 15h9M36 15h1M22 16h1M36 16h1M22 17h1M36 17h1M22 18h1M36 18h1M22 19h1M36 19h1M22 20h1M36 20h1M22 21h1M36 21h1M22 22h1M36 22h1M22 23h1M28 23h1M30 23h1M36 23h1M22 24h1M36 24h1M22 25h1M36 25h1M22 26h1M36 26h1M22 27h1M36 27h1M22 28h1M36 28h1M22 29h1M36 29h1M22 30h1M36 30h1M22 31h1M36 31h1M22 32h1M36 32h1M22 33h1M36 33h1M22 34h1M36 34h1M22 35h1M36 35h1M22 36h1M36 36h1M22 37h1M36 37h1M22 38h1M36 38h1M22 39h1M36 39h1M22 40h1M36 40h1M21 41h2M36 41h2M20 42h1M22 42h1M36 42h1M38 42h1M20 43h1M22 43h1M36 43h1M38 43h1M19 44h1M22 44h1M36 44h1M39 44h1M18 45h1M22 45h1M36 45h1M40 45h1M18 46h1M22 46h1M36 46h1M40 46h1M17 47h1M22 47h1M36 47h1M41 47h1M17 48h1M22 48h1M36 48h1M41 48h1M16 49h1M22 49h1M36 49h1M42 49h1M15 50h1M22 50h1M36 50h1M43 50h1M15 51h1M22 51h1M36 51h1M43 51h1M14 52h1M22 52h15M44 52h1M14 53h8M37 53h8M20 54h1M38 54h1M19 55h1M39 55h1M18 56h1M40 56h1" />
<path stroke="#9e9e9e" d="M26 10h2M31 10h2M26 11h2M31 11h2M26 12h2M31 12h2M26 13h2M31 13h2M26 14h2M31 14h2M26 16h2M31 16h2M31 17h2M31 18h2M31 19h2M31 20h2M31 21h1M26 22h1M26 23h1M26 24h1M32 24h1M27 27h1M31 27h1M26 28h2M31 28h2M26 29h2M31 29h2M26 30h2M31 30h2M26 31h2M31 31h2M26 32h2M31 32h2M26 33h2M31 33h2M26 34h2M31 34h2M26 35h2M31 35h2M26 36h2M31 36h2M26 37h2M31 37h2M26 38h2M31 38h2M26 39h2M31 39h2M26 40h2M31 40h2M26 41h2M31 41h2M21 42h1M26 42h2M31 42h2M37 42h1M21 43h1M26 43h2M31 43h2M37 43h1M20 44h2M26 44h2M31 44h2M37 44h2M19 45h3M26 45h2M31 45h2M37 45h3M19 46h3M26 46h2M31 46h2M37 46h3M18 47h4M26 47h2M31 47h2M37 47h4M18 48h4M26 48h2M31 48h2M37 48h4M17 49h5M26 49h2M31 49h2M37 49h5M16 50h6M26 50h2M31 50h2M37 50h6M16 51h6M26 51h2M31 51h2M37 51h6M15 52h7M37 52h7" />
<path stroke="#757575" d="M28 10h3M28 11h3M28 12h3M28 13h3M28 14h3M28 16h3M28 17h3M28 18h3M28 19h1M30 19h1M28 20h1M30 21h1M28 22h3M28 26h3M28 27h3M28 28h3M28 29h3M28 30h3M28 31h3M28 32h3M28 33h3M28 34h3M28 35h3M28 36h3M28 37h3M28 38h3M28 39h3M28 40h3M28 41h3M28 42h3M28 43h3M28 44h3M28 45h3M28 46h3M28 47h3M28 48h3M28 49h3M28 50h3M28 51h3" />
<path stroke="#616161" d="M25 11h1M33 11h1M24 12h2M33 12h2M24 13h2M33 13h2M23 14h1M25 14h1M33 14h1M35 14h1M23 15h2M34 15h2M23 16h3M33 16h3M23 17h3M33 17h3M23 18h2M33 18h3M23 19h2M33 19h3M23 20h2M33 20h3M23 21h3M33 21h3M23 22h3M33 22h3M23 23h3M33 23h3M23 24h3M33 24h3M23 25h3M33 25h3M23 26h3M33 26h3M23 27h3M33 27h3M23 28h3M33 28h3M23 29h3M33 29h3M23 30h3M33 30h3M23 31h3M33 31h3M23 32h3M33 32h3M23 33h3M33 33h3M23 34h3M33 34h3M23 35h3M33 35h3M23 36h3M33 36h3M23 37h3M33 37h3M23 38h3M33 38h3M23 39h3M33 39h3M23 40h3M33 40h3M23 41h3M33 41h3M23 42h3M33 42h3M23 43h3M33 43h3M23 44h3M33 44h3M23 45h3M33 45h3M23 46h3M33 46h3M23 47h3M33 47h3M23 48h3M33 48h3M23 49h3M33 49h3M23 50h3M33 50h3M23 51h3M33 51h3" />
<path stroke="#d50000" d="M26 17h1M25 18h2M25 19h2M25 20h2M29 20h2M26 21h4M32 21h1M27 22h1M32 22h1M27 23h1M29 23h1M31 23h2M28 24h3M27 25h5M26 26h1M32 26h1" />
<path stroke="#b71c1c" d="M27 17h1M27 18h1M27 19h1M29 19h1M27 20h1M31 22h1M27 24h1M31 24h1M26 25h1M32 25h1M27 26h1M31 26h1M26 27h1M32 27h1" />
</svg>