<svg xmlns="http://www.w3.org/2000/svg" viewBox="0 -0.5 200 250" shape-rendering="crispEdges">
<metadata>Made with Pixels to Svg https://codepen.io/shshaw/pen/XbxvNj</metadata>
<path stroke="#c62828" d="M142 4h4M193 4h4M142 5h4M193 5h4M142 6h4M193 6h4M142 7h4M193 7h4M142 8h55M142 9h55M142 10h55M142 11h55M156 12h6M173 12h3M187 12h3M193 12h4M156 13h7M172 13h5M186 13h5M193 13h4M156 14h4M161 14h3M171 14h3M175 14h3M185 14h3M189 14h3M193 14h4M156 15h4M162 15h3M170 15h3M176 15h3M184 15h3M190 15h7M156 16h4M163 16h3M169 16h3M177 16h3M183 16h3M191 16h6M156 17h4M164 17h3M168 17h3M178 17h3M182 17h3M192 17h5M156 18h4M165 18h5M179 18h5M193 18h4M156 19h4M166 19h3M180 19h3M193 19h4M156 20h41M156 21h41M156 22h41M156 23h41M156 24h6M173 24h3M187 24h3M193 24h4M156 25h7M172 25h5M186 25h5M193 25h4M156 26h4M161 26h3M171 26h3M175 26h3M185 26h3M189 26h3M193 26h4M156 27h4M162 27h3M170 27h3M176 27h3M184 27h3M190 27h7M156 28h4M163 28h3M169 28h3M177 28h3M183 28h3M191 28h6M156 29h4M164 29h3M168 29h3M178 29h3M182 29h3M192 29h5M156 30h4M165 30h5M179 30h5M193 30h4M156 31h4M166 31h3M180 31h3M193 31h4M156 32h41M156 33h41M156 34h41M156 35h41M156 36h6M173 36h3M187 36h3M193 36h4M156 37h7M172 37h5M186 37h5M193 37h4M156 38h4M161 38h3M171 38h3M175 38h3M185 38h3M189 38h3M193 38h4M156 39h4M162 39h3M170 39h3M176 39h3M184 39h3M190 39h7M156 40h4M163 40h3M169 40h3M177 40h3M183 40h3M191 40h6M156 41h4M164 41h3M168 41h3M178 41h3M182 41h3M192 41h5M156 42h4M165 42h5M179 42h5M193 42h4M156 43h4M166 43h3M180 43h3M193 43h4M156 44h41M156 45h41M156 46h41M156 47h41M156 48h6M173 48h3M187 48h3M193 48h4M156 49h7M172 49h5M186 49h5M193 49h4M156 50h4M161 50h3M171 50h3M175 50h3M185 50h3M189 50h3M193 50h4M156 51h4M162 51h3M170 51h3M176 51h3M184 51h3M190 51h7M156 52h4M163 52h3M169 52h3M177 52h3M183 52h3M191 52h6M156 53h4M164 53h3M168 53h3M178 53h3M182 53h3M192 53h5M156 54h4M165 54h5M179 54h5M193 54h4M148 55h4M156 55h4M166 55h3M180 55h3M193 55h4M148 56h4M156 56h41M148 57h4M156 57h41M148 58h4M156 58h41M148 59h49M148 60h14M173 60h3M187 60h3M193 60h4M148 61h15M172 61h5M186 61h5M193 61h4M148 62h12M161 62h3M171 62h3M175 62h3M185 62h3M189 62h3M193 62h4M156 63h4M162 63h3M170 63h3M176 63h3M184 63h3M190 63h7M156 64h4M163 64h3M169 64h3M177 64h3M183 64h3M191 64h6M156 65h4M164 65h3M168 65h3M178 65h3M182 65h3M192 65h5M156 66h4M165 66h5M179 66h5M193 66h4M156 67h4M166 67h3M180 67h3M193 67h4M156 68h41M156 69h41M156 70h41M156 71h41M156 72h6M173 72h3M187 72h3M193 72h4M156 73h7M172 73h5M186 73h5M193 73h4M156 74h4M161 74h3M171 74h3M175 74h3M185 74h3M189 74h3M193 74h4M156 75h4M162 75h3M170 75h3M176 75h3M184 75h3M190 75h7M156 76h4M163 76h3M169 76h3M177 76h3M183 76h3M191 76h6M156 77h4M164 77h3M168 77h3M178 77h3M182 77h3M192 77h5M156 78h4M165 78h5M179 78h5M193 78h4M156 79h4M166 79h3M180 79h3M193 79h4M156 80h41M156 81h41M156 82h41M156 83h41M156 84h6M173 84h3M187 84h3M193 84h4M156 85h7M172 85h5M186 85h5M193 85h4M156 86h4M161 86h3M171 86h3M175 86h3M185 86h3M189 86h3M193 86h4M156 87h4M162 87h3M170 87h3M176 87h3M184 87h3M190 87h7M156 88h4M163 88h3M169 88h3M177 88h3M183 88h3M191 88h6M156 89h4M164 89h3M168 89h3M178 89h3M182 89h3M192 89h5M156 90h4M165 90h5M179 90h5M193 90h4M156 91h4M166 91h3M180 91h3M193 91h4M156 92h41M156 93h41M156 94h41M156 95h41M156 96h6M173 96h3M187 96h3M193 96h4M156 97h7M172 97h5M186 97h5M193 97h4M156 98h4M161 98h3M171 98h3M175 98h3M185 98h3M189 98h3M193 98h4M156 99h4M162 99h3M170 99h3M176 99h3M184 99h3M190 99h7M156 100h4M163 100h3M169 100h3M177 100h3M183 100h3M191 100h6M156 101h4M164 101h3M168 101h3M178 101h3M182 101h3M192 101h5M156 102h4M165 102h5M179 102h5M193 102h4M148 103h4M156 103h4M166 103h3M180 103h3M193 103h4M148 104h4M156 104h41M148 105h4M156 105h41M148 106h4M156 106h41M148 107h49M148 108h14M173 108h3M187 108h3M193 108h4M148 109h15M172 109h5M186 109h5M193 109h4M148 110h12M161 110h3M171 110h3M175 110h3M185 110h3M189 110h3M193 110h4M156 111h4M162 111h3M170 111h3M176 111h3M184 111h3M190 111h7M156 112h4M163 112h3M169 112h3M177 112h3M183 112h3M191 112h6M156 113h4M164 113h3M168 113h3M178 113h3M182 113h3M192 113h5M156 114h4M165 114h5M179 114h5M193 114h4M156 115h4M166 115h3M180 115h3M193 115h4M156 116h41M156 117h41M156 118h41M156 119h41M156 120h6M173 120h3M187 120h3M193 120h4M156 121h7M172 121h5M186 121h5M193 121h4M156 122h4M161 122h3M171 122h3M175 122h3M185 122h3M189 122h3M193 122h4M156 123h4M162 123h3M170 123h3M176 123h3M184 123h3M190 123h7M156 124h4M163 124h3M169 124h3M177 124h3M183 124h3M191 124h6M156 125h4M164 125h3M168 125h3M178 125h3M182 125h3M192 125h5M156 126h4M165 126h5M179 126h5M193 126h4M156 127h4M166 127h3M180 127h3M193 127h4M156 128h41M156 129h41M156 130h41M156 131h41M156 132h6M173 132h3M187 132h3M193 132h4M156 133h7M172 133h5M186 133h5M193 133h4M156 134h4M161 134h3M171 134h3M175 134h3M185 134h3M189 134h3M193 134h4M156 135h4M162 135h3M170 135h3M176 135h3M184 135h3M190 135h7M156 136h4M163 136h3M169 136h3M177 136h3M183 136h3M191 136h6M156 137h4M164 137h3M168 137h3M178 137h3M182 137h3M192 137h5M156 138h4M165 138h5M179 138h5M193 138h4M156 139h4M166 139h3M180 139h3M193 139h4M156 140h41M156 141h41M156 142h41M156 143h41M156 144h6M173 144h3M187 144h3M193 144h4M156 145h7M172 145h5M186 145h5M193 145h4M148 146h4M156 146h4M161 146h3M171 146h3M175 146h3M185 146h3M189 146h3M193 146h4M148 147h4M156 147h4M162 147h3M170 147h3M176 147h3M184 147h3M190 147h7M148 148h4M156 148h4M163 148h3M169 148h3M177 148h3M183 148h3M191 148h6M148 149h4M156 149h4M164 149h3M168 149h3M178 149h3M182 149h3M192 149h5M148 150h12M165 150h5M179 150h5M193 150h4M148 151h12M166 151h3M180 151h3M193 151h4M148 152h49M148 153h49M156 154h41M156 155h41M156 156h6M173 156h3M187 156h3M193 156h4M156 157h7M172 157h5M186 157h5M193 157h4M156 158h4M161 158h3M171 158h3M175 158h3M185 158h3M189 158h3M193 158h4M156 159h4M162 159h3M170 159h3M176 159h3M184 159h3M190 159h7M156 160h4M163 160h3M169 160h3M177 160h3M183 160h3M191 160h6M156 161h4M164 161h3M168 161h3M178 161h3M182 161h3M192 161h5M156 162h4M165 162h5M179 162h5M193 162h4M156 163h4M166 163h3M180 163h3M193 163h4M156 164h41M156 165h41M156 166h41M156 167h41M156 168h6M173 168h3M187 168h3M193 168h4M156 169h7M172 169h5M186 169h5M193 169h4M156 170h4M161 170h3M171 170h3M175 170h3M185 170h3M189 170h3M193 170h4M156 171h4M162 171h3M170 171h3M176 171h3M184 171h3M190 171h7M156 172h4M163 172h3M169 172h3M177 172h3M183 172h3M191 172h6M156 173h4M164 173h3M168 173h3M178 173h3M182 173h3M192 173h5M156 174h4M165 174h5M179 174h5M193 174h4M156 175h4M166 175h3M180 175h3M193 175h4M156 176h41M156 177h41M156 178h41M156 179h41M156 180h6M173 180h3M187 180h3M193 180h4M156 181h7M172 181h5M186 181h5M193 181h4M156 182h4M161 182h3M171 182h3M175 182h3M185 182h3M189 182h3M193 182h4M156 183h4M162 183h3M170 183h3M176 183h3M184 183h3M190 183h7M156 184h4M163 184h3M169 184h3M177 184h3M183 184h3M191 184h6M156 185h4M164 185h3M168 185h3M178 185h3M182 185h3M192 185h5M156 186h4M165 186h5M179 186h5M193 186h4M156 187h4M166 187h3M180 187h3M193 187h4M156 188h41M156 189h41M156 190h41M148 191h4M156 191h41M148 192h4M156 192h6M173 192h3M187 192h3M193 192h4M148 193h4M156 193h7M172 193h5M186 193h5M193 193h4M148 194h4M156 194h4M161 194h3M171 194h3M175 194h3M185 194h3M189 194h3M193 194h4M148 195h12M162 195h3M170 195h3M176 195h3M184 195h3M190 195h7M148 196h12M163 196h3M169 196h3M177 196h3M183 196h3M191 196h6M148 197h12M164 197h3M168 197h3M178 197h3M182 197h3M192 197h5M148 198h12M165 198h5M179 198h5M193 198h4M156 199h4M166 199h3M180 199h3M193 199h4M156 200h41M156 201h41M156 202h41M156 203h41M156 204h6M173 204h3M187 204h3M193 204h4M156 205h7M172 205h5M186 205h5M193 205h4M156 206h4M161 206h3M171 206h3M175 206h3M185 206h3M189 206h3M193 206h4M156 207h4M162 207h3M170 207h3M176 207h3M184 207h3M190 207h7M156 208h4M163 208h3M169 208h3M177 208h3M183 208h3M191 208h6M156 209h4M164 209h3M168 209h3M178 209h3M182 209h3M192 209h5M156 210h4M165 210h5M179 210h5M193 210h4M156 211h4M166 211h3M180 211h3M193 211h4M156 212h41M156 213h41M156 214h41M156 215h41M156 216h6M173 216h3M187 216h3M193 216h4M156 217h7M172 217h5M186 217h5M193 217h4M156 218h4M161 218h3M171 218h3M175 218h3M185 218h3M189 218h3M193 218h4M156 219h4M162 219h3M170 219h3M176 219h3M184 219h3M190 219h7M156 220h4M163 220h3M169 220h3M177 220h3M183 220h3M191 220h6M156 221h4M164 221h3M168 221h3M178 221h3M182 221h3M192 221h5M156 222h4M165 222h5M179 222h5M193 222h4M156 223h4M166 223h3M180 223h3M193 223h4M156 224h41M156 225h41M156 226h41M156 227h41M156 228h4M193 228h4M156 229h4M193 229h4" />
<path stroke="#795548" d="M180 12h7M180 13h6M180 14h5M180 15h4M187 15h1M180 16h3M186 16h2M181 17h1M185 17h3M184 18h4M183 19h5M180 24h7M180 25h6M180 26h5M180 27h4M187 27h1M180 28h3M186 28h2M181 29h1M185 29h3M184 30h4M183 31h5M180 36h7M180 37h6M180 38h5M180 39h4M187 39h1M180 40h3M186 40h2M181 41h1M185 41h3M184 42h4M183 43h5M180 48h7M180 49h6M180 50h5M180 51h4M187 51h1M180 52h3M186 52h2M181 53h1M185 53h3M184 54h4M183 55h5M180 60h7M180 61h6M180 62h5M180 63h4M187 63h1M180 64h3M186 64h2M181 65h1M185 65h3M184 66h4M183 67h5M180 72h7M180 73h6M180 74h5M180 75h4M187 75h1M180 76h3M186 76h2M181 77h1M185 77h3M184 78h4M183 79h5M180 84h7M180 85h6M180 86h5M180 87h4M187 87h1M180 88h3M186 88h2M181 89h1M185 89h3M184 90h4M183 91h5M180 96h7M180 97h6M180 98h5M180 99h4M187 99h1M180 100h3M186 100h2M181 101h1M185 101h3M184 102h4M183 103h5M180 108h7M180 109h6M180 110h5M180 111h4M187 111h1M180 112h3M186 112h2M181 113h1M185 113h3M184 114h4M183 115h5M180 120h7M180 121h6M180 122h5M188 122h1M180 123h4M187 123h2M180 124h3M186 124h3M181 125h1M185 125h4M184 126h5M183 127h6M181 132h6M181 133h5M181 134h4M188 134h1M181 135h3M187 135h2M181 136h2M186 136h3M181 137h1M185 137h4M184 138h5M183 139h6M181 144h6M181 145h5M181 146h4M188 146h1M181 147h3M187 147h2M181 148h2M186 148h3M181 149h1M185 149h4M184 150h5M183 151h6M181 156h6M181 157h5M181 158h4M188 158h1M181 159h3M187 159h2M181 160h2M186 160h3M181 161h1M185 161h4M184 162h5M183 163h6M181 168h6M181 169h5M181 170h4M188 170h1M181 171h3M187 171h2M181 172h2M186 172h3M181 173h1M185 173h4M184 174h5M183 175h6M181 180h6M181 181h5M181 182h4M188 182h1M181 183h3M187 183h2M181 184h2M186 184h3M181 185h1M185 185h4M184 186h5M183 187h6M181 192h6M181 193h5M181 194h4M188 194h1M181 195h3M187 195h2M181 196h2M186 196h3M181 197h1M185 197h4M184 198h5M183 199h6M181 204h6M181 205h5M181 206h4M188 206h1M181 207h3M187 207h2M181 208h2M186 208h3M181 209h1M185 209h4M184 210h5M183 211h6M181 216h6M181 217h5M181 218h4M188 218h1M181 219h3M187 219h2M181 220h2M186 220h3M181 221h1M185 221h4M184 222h5M183 223h6M181 228h8M181 229h8" />
<path stroke="#9e9e9e" d="M0 230h200M0 231h200M0 232h200M0 233h200M0 234h200M0 235h200M0 236h200M0 237h200" />
</svg>