<svg xmlns="http://www.w3.org/2000/svg" viewBox="0 -0.5 100 250" shape-rendering="crispEdges">
<metadata>Made with Pixels to Svg https://codepen.io/shshaw/pen/XbxvNj</metadata>
<path stroke="#c62828" d="M42 12h4M93 12h4M42 13h4M93 13h4M42 14h4M93 14h4M42 15h4M93 15h4M42 16h55M42 17h55M42 18h55M42 19h55M56 20h6M73 20h3M87 20h3M93 20h4M56 21h7M72 21h5M86 21h5M93 21h4M56 22h4M61 22h3M71 22h3M75 22h3M85 22h3M89 22h3M93 22h4M56 23h4M62 23h3M70 23h3M76 23h3M84 23h3M90 23h7M56 24h4M63 24h3M69 24h3M77 24h3M83 24h3M91 24h6M56 25h4M64 25h3M68 25h3M78 25h3M82 25h3M92 25h5M56 26h4M65 26h5M79 26h5M93 26h4M56 27h4M66 27h3M80 27h3M93 27h4M56 28h41M56 29h41M56 30h41M56 31h41M56 32h6M73 32h3M87 32h3M93 32h4M56 33h7M72 33h5M86 33h5M93 33h4M56 34h4M61 34h3M71 34h3M75 34h3M85 34h3M89 34h3M93 34h4M56 35h4M62 35h3M70 35h3M76 35h3M84 35h3M90 35h7M56 36h4M63 36h3M69 36h3M77 36h3M83 36h3M91 36h6M56 37h4M64 37h3M68 37h3M78 37h3M82 37h3M92 37h5M56 38h4M65 38h5M79 38h5M93 38h4M56 39h4M66 39h3M80 39h3M93 39h4M56 40h41M56 41h41M56 42h41M56 43h41M56 44h6M73 44h3M87 44h3M93 44h4M56 45h7M72 45h5M86 45h5M93 45h4M56 46h4M61 46h3M71 46h3M75 46h3M85 46h3M89 46h3M93 46h4M56 47h4M62 47h3M70 47h3M76 47h3M84 47h3M90 47h7M56 48h4M63 48h3M69 48h3M77 48h3M83 48h3M91 48h6M56 49h4M64 49h3M68 49h3M78 49h3M82 49h3M92 49h5M56 50h4M65 50h5M79 50h5M93 50h4M56 51h4M66 51h3M80 51h3M93 51h4M56 52h41M56 53h41M56 54h41M56 55h41M56 56h6M73 56h3M87 56h3M93 56h4M56 57h7M72 57h5M86 57h5M93 57h4M56 58h4M61 58h3M71 58h3M75 58h3M85 58h3M89 58h3M93 58h4M56 59h4M62 59h3M70 59h3M76 59h3M84 59h3M90 59h7M56 60h4M63 60h3M69 60h3M77 60h3M83 60h3M91 60h6M56 61h4M64 61h3M68 61h3M78 61h3M82 61h3M92 61h5M56 62h4M65 62h5M79 62h5M93 62h4M48 63h4M56 63h4M66 63h3M80 63h3M93 63h4M48 64h4M56 64h41M48 65h4M56 65h41M48 66h4M56 66h41M48 67h49M48 68h14M73 68h3M87 68h3M93 68h4M48 69h15M72 69h5M86 69h5M93 69h4M48 70h12M61 70h3M71 70h3M75 70h3M85 70h3M89 70h3M93 70h4M56 71h4M62 71h3M70 71h3M76 71h3M84 71h3M90 71h7M56 72h4M63 72h3M69 72h3M77 72h3M83 72h3M91 72h6M56 73h4M64 73h3M68 73h3M78 73h3M82 73h3M92 73h5M56 74h4M65 74h5M79 74h5M93 74h4M56 75h4M66 75h3M80 75h3M93 75h4M56 76h41M56 77h41M56 78h41M56 79h41M56 80h6M73 80h3M87 80h3M93 80h4M56 81h7M72 81h5M86 81h5M93 81h4M56 82h4M61 82h3M71 82h3M75 82h3M85 82h3M89 82h3M93 82h4M56 83h4M62 83h3M70 83h3M76 83h3M84 83h3M90 83h7M56 84h4M63 84h3M69 84h3M77 84h3M83 84h3M91 84h6M56 85h4M64 85h3M68 85h3M78 85h3M82 85h3M92 85h5M56 86h4M65 86h5M79 86h5M93 86h4M56 87h4M66 87h3M80 87h3M93 87h4M56 88h41M56 89h41M56 90h41M56 91h41M56 92h6M73 92h3M87 92h3M93 92h4M56 93h7M72 93h5M86 93h5M93 93h4M56 94h4M61 94h3M71 94h3M75 94h3M85 94h3M89 94h3M93 94h4M56 95h4M62 95h3M70 95h3M76 95h3M84 95h3M90 95h7M56 96h4M63 96h3M69 96h3M77 96h3M83 96h3M91 96h6M56 97h4M64 97h3M68 97h3M78 97h3M82 97h3M92 97h5M56 98h4M65 98h5M79 98h5M93 98h4M56 99h4M66 99h3M80 99h3M93 99h4M56 100h41M56 101h41M56 102h41M56 103h41M56 104h6M73 104h3M87 104h3M93 104h4M56 105h7M72 105h5M86 105h5M93 105h4M56 106h4M61 106h3M71 106h3M75 106h3M85 106h3M89 106h3M93 106h4M56 107h4M62 107h3M70 107h3M76 107h3M84 107h3M90 107h7M56 108h4M63 108h3M69 108h3M77 108h3M83 108h3M91 108h6M56 109h4M64 109h3M68 109h3M78 109h3M82 109h3M92 109h5M56 110h4M65 110h5M79 110h5M93 110h4M48 111h4M56 111h4M66 111h3M80 111h3M93 111h4M48 112h4M56 112h41M48 113h4M56 113h41M48 114h4M56 114h41M48 115h49M48 116h14M73 116h3M87 116h3M93 116h4M48 117h15M72 117h5M86 117h5M93 117h4M48 118h12M61 118h3M71 118h3M75 118h3M85 118h3M89 118h3M93 118h4M56 119h4M62 119h3M70 119h3M76 119h3M84 119h3M90 119h7M56 120h4M63 120h3M69 120h3M77 120h3M83 120h3M91 120h6M56 121h4M64 121h3M68 121h3M78 121h3M82 121h3M92 121h5M56 122h4M65 122h5M79 122h5M93 122h4M56 123h4M66 123h3M80 123h3M93 123h4M56 124h41M56 125h41M56 126h41M56 127h41M56 128h6M73 128h3M87 128h3M93 128h4M56 129h7M72 129h5M86 129h5M93 129h4M56 130h4M61 130h3M71 130h3M75 130h3M85 130h3M89 130h3M93 130h4M56 131h4M62 131h3M70 131h3M76 131h3M84 131h3M90 131h7M56 132h4M63 132h3M69 132h3M77 132h3M83 132h3M91 132h6M56 133h4M64 133h3M68 133h3M78 133h3M82 133h3M92 133h5M56 134h4M65 134h5M79 134h5M93 134h4M56 135h4M66 135h3M80 135h3M93 135h4M56 136h41M56 137h41M56 138h41M56 139h41M56 140h6M73 140h3M87 140h3M93 140h4M56 141h7M72 141h5M86 141h5M93 141h4M56 142h4M61 142h3M71 142h3M75 142h3M85 142h3M89 142h3M93 142h4M56 143h4M62 143h3M70 143h3M76 143h3M84 143h3M90 143h7M56 144h4M63 144h3M69 144h3M77 144h3M83 144h3M91 144h6M56 145h4M64 145h3M68 145h3M78 145h3M82 145h3M92 145h5M56 146h4M65 146h5M79 146h5M93 146h4M56 147h4M66 147h3M80 147h3M93 147h4M56 148h41M56 149h41M56 150h41M56 151h41M56 152h6M73 152h3M87 152h3M93 152h4M56 153h7M72 153h5M86 153h5M93 153h4M48 154h4M56 154h4M61 154h3M71 154h3M75 154h3M85 154h3M89 154h3M93 154h4M48 155h4M56 155h4M62 155h3M70 155h3M76 155h3M84 155h3M90 155h7M48 156h4M56 156h4M63 156h3M69 156h3M77 156h3M83 156h3M91 156h6M48 157h4M56 157h4M64 157h3M68 157h3M78 157h3M82 157h3M92 157h5M48 158h12M65 158h5M79 158h5M93 158h4M48 159h12M66 159h3M80 159h3M93 159h4M48 160h49M48 161h49M56 162h41M56 163h41M56 164h6M73 164h3M87 164h3M93 164h4M56 165h7M72 165h5M86 165h5M93 165h4M56 166h4M61 166h3M71 166h3M75 166h3M85 166h3M89 166h3M93 166h4M56 167h4M62 167h3M70 167h3M76 167h3M84 167h3M90 167h7M56 168h4M63 168h3M69 168h3M77 168h3M83 168h3M91 168h6M56 169h4M64 169h3M68 169h3M78 169h3M82 169h3M92 169h5M56 170h4M65 170h5M79 170h5M93 170h4M56 171h4M66 171h3M80 171h3M93 171h4M56 172h41M56 173h41M56 174h41M56 175h41M56 176h6M73 176h3M87 176h3M93 176h4M56 177h7M72 177h5M86 177h5M93 177h4M56 178h4M61 178h3M71 178h3M75 178h3M85 178h3M89 178h3M93 178h4M56 179h4M62 179h3M70 179h3M76 179h3M84 179h3M90 179h7M56 180h4M63 180h3M69 180h3M77 180h3M83 180h3M91 180h6M56 181h4M64 181h3M68 181h3M78 181h3M82 181h3M92 181h5M56 182h4M65 182h5M79 182h5M93 182h4M56 183h4M66 183h3M80 183h3M93 183h4M56 184h41M56 185h41M56 186h41M56 187h41M56 188h6M73 188h3M87 188h3M93 188h4M56 189h7M72 189h5M86 189h5M93 189h4M56 190h4M61 190h3M71 190h3M75 190h3M85 190h3M89 190h3M93 190h4M56 191h4M62 191h3M70 191h3M76 191h3M84 191h3M90 191h7M56 192h4M63 192h3M69 192h3M77 192h3M83 192h3M91 192h6M56 193h4M64 193h3M68 193h3M78 193h3M82 193h3M92 193h5M56 194h4M65 194h5M79 194h5M93 194h4M56 195h4M66 195h3M80 195h3M93 195h4M56 196h41M56 197h41M56 198h41M48 199h4M56 199h41M48 200h4M56 200h6M73 200h3M87 200h3M93 200h4M48 201h4M56 201h7M72 201h5M86 201h5M93 201h4M48 202h4M56 202h4M61 202h3M71 202h3M75 202h3M85 202h3M89 202h3M93 202h4M48 203h12M62 203h3M70 203h3M76 203h3M84 203h3M90 203h7M48 204h12M63 204h3M69 204h3M77 204h3M83 204h3M91 204h6M48 205h12M64 205h3M68 205h3M78 205h3M82 205h3M92 205h5M48 206h12M65 206h5M79 206h5M93 206h4M56 207h4M66 207h3M80 207h3M93 207h4M56 208h41M56 209h41M56 210h41M56 211h41M56 212h6M73 212h3M87 212h3M93 212h4M56 213h7M72 213h5M86 213h5M93 213h4M56 214h4M61 214h3M71 214h3M75 214h3M85 214h3M89 214h3M93 214h4M56 215h4M62 215h3M70 215h3M76 215h3M84 215h3M90 215h7M56 216h4M63 216h3M69 216h3M77 216h3M83 216h3M91 216h6M56 217h4M64 217h3M68 217h3M78 217h3M82 217h3M92 217h5M56 218h4M65 218h5M79 218h5M93 218h4M56 219h4M66 219h3M80 219h3M93 219h4M56 220h41M56 221h41M56 222h41M56 223h41M56 224h6M73 224h3M87 224h3M93 224h4M56 225h7M72 225h5M86 225h5M93 225h4M56 226h4M61 226h3M71 226h3M75 226h3M85 226h3M89 226h3M93 226h4M56 227h4M62 227h3M70 227h3M76 227h3M84 227h3M90 227h7M56 228h4M63 228h3M69 228h3M77 228h3M83 228h3M91 228h6M56 229h4M64 229h3M68 229h3M78 229h3M82 229h3M92 229h5M56 230h4M65 230h5M79 230h5M93 230h4M56 231h4M66 231h3M80 231h3M93 231h4M56 232h41M56 233h41M56 234h41M56 235h41M56 236h4M93 236h4M56 237h4M93 237h4" />
<path stroke="#795548" d="M80 20h7M80 21h6M80 22h5M80 23h4M87 23h1M80 24h3M86 24h2M81 25h1M85 25h3M84 26h4M83 27h5M80 32h7M80 33h6M80 34h5M80 35h4M87 35h1M80 36h3M86 36h2M81 37h1M85 37h3M84 38h4M83 39h5M80 44h7M80 45h6M80 46h5M80 47h4M87 47h1M80 48h3M86 48h2M81 49h1M85 49h3M84 50h4M83 51h5M80 56h7M80 57h6M80 58h5M80 59h4M87 59h1M80 60h3M86 60h2M81 61h1M85 61h3M84 62h4M83 63h5M80 68h7M80 69h6M80 70h5M80 71h4M87 71h1M80 72h3M86 72h2M81 73h1M85 73h3M84 74h4M83 75h5M80 80h7M80 81h6M80 82h5M80 83h4M87 83h1M80 84h3M86 84h2M81 85h1M85 85h3M84 86h4M83 87h5M80 92h7M80 93h6M80 94h5M80 95h4M87 95h1M80 96h3M86 96h2M81 97h1M85 97h3M84 98h4M83 99h5M80 104h7M80 105h6M80 106h5M80 107h4M87 107h1M80 108h3M86 108h2M81 109h1M85 109h3M84 110h4M83 111h5M80 116h7M80 117h6M80 118h5M80 119h4M87 119h1M80 120h3M86 120h2M81 121h1M85 121h3M84 122h4M83 123h5M80 128h7M80 129h6M80 130h5M88 130h1M80 131h4M87 131h2M80 132h3M86 132h3M81 133h1M85 133h4M84 134h5M83 135h6M81 140h6M81 141h5M81 142h4M88 142h1M81 143h3M87 143h2M81 144h2M86 144h3M81 145h1M85 145h4M84 146h5M83 147h6M81 152h6M81 153h5M81 154h4M88 154h1M81 155h3M87 155h2M81 156h2M86 156h3M81 157h1M85 157h4M84 158h5M83 159h6M81 164h6M81 165h5M81 166h4M88 166h1M81 167h3M87 167h2M81 168h2M86 168h3M81 169h1M85 169h4M84 170h5M83 171h6M81 176h6M81 177h5M81 178h4M88 178h1M81 179h3M87 179h2M81 180h2M86 180h3M81 181h1M85 181h4M84 182h5M83 183h6M81 188h6M81 189h5M81 190h4M88 190h1M81 191h3M87 191h2M81 192h2M86 192h3M81 193h1M85 193h4M84 194h5M83 195h6M81 200h6M81 201h5M81 202h4M88 202h1M81 203h3M87 203h2M81 204h2M86 204h3M81 205h1M85 205h4M84 206h5M83 207h6M81 212h6M81 213h5M81 214h4M88 214h1M81 215h3M87 215h2M81 216h2M86 216h3M81 217h1M85 217h4M84 218h5M83 219h6M81 224h6M81 225h5M81 226h4M88 226h1M81 227h3M87 227h2M81 228h2M86 228h3M81 229h1M85 229h4M84 230h5M83 231h6M81 236h8M81 237h8" />
<path stroke="#9e9e9e" d="M0 238h100M0 239h100M0 240h100M0 241h100" />
</svg>