<svg xmlns="http://www.w3.org/2000/svg" viewBox="0 -0.5 100 100" shape-rendering="crispEdges">
<metadata>Made with Pixels to Svg https://codepen.io/shshaw/pen/XbxvNj</metadata>
<path stroke="#000000" d="M18 5h64M17 6h1M82 6h1M16 7h1M83 7h1M15 8h1M84 8h1M14 9h1M85 9h1M14 10h1M85 10h1M14 11h1M85 11h1M14 12h1M85 12h1M14 13h1M85 13h1M14 14h1M85 14h1M14 15h1M85 15h1M14 16h1M85 16h1M14 17h1M85 17h1M14 18h1M85 18h1M14 19h1M85 19h1M14 20h1M85 20h1M14 21h1M85 21h1M14 22h1M85 22h1M14 23h1M85 23h1M14 24h1M85 24h1M14 25h1M85 25h1M14 26h1M85 26h1M14 27h1M85 27h1M14 28h1M85 28h1M14 29h1M85 29h1M14 30h1M85 30h1M14 31h1M85 31h1M14 32h1M85 32h1M14 33h1M85 33h1M14 34h1M85 34h1M14 35h1M85 35h1M14 36h1M85 36h1M14 37h1M85 37h1M14 38h1M85 38h1M14 39h1M85 39h1M14 40h1M85 40h1M14 41h1M85 41h1M14 42h1M85 42h1M14 43h1M85 43h1M14 44h1M85 44h1M14 45h1M85 45h1M14 46h1M85 46h1M14 47h1M85 47h1M14 48h1M85 48h1M14 49h1M85 49h1M14 50h1M85 50h1M14 51h1M85 51h1M14 52h1M85 52h1M14 53h1M85 53h1M14 54h1M85 54h1M14 55h1M85 55h1M14 56h1M85 56h1M14 57h1M85 57h1M14 58h1M85 58h1M14 59h1M85 59h1M14 60h1M85 60h1M14 61h1M85 61h1M14 62h1M85 62h1M14 63h1M85 63h1M14 64h1M85 64h1M14 65h1M85 65h1M14 66h1M85 66h1M14 67h1M85 67h1M14 68h1M85 68h1M14 69h1M85 69h1M14 70h1M85 70h1M14 71h1M85 71h1M14 72h1M85 72h1M14 73h1M85 73h1M14 74h1M85 74h1M14 75h1M85 75h1M14 76h1M85 76h1M14 77h1M85 77h1M14 78h1M85 78h1M14 79h1M85 79h1M14 80h1M85 80h1M14 81h1M85 81h1M14 82h1M85 82h1M14 83h1M85 83h1M14 84h1M85 84h1M14 85h1M85 85h1M14 86h1M85 86h1M14 87h1M85 87h1M14 88h1M85 88h1M14 89h1M85 89h1M14 90h1M85 90h1M15 91h1M84 91h1M16 92h1M83 92h1M17 93h1M82 93h1M18 94h64" />
<path stroke="#424242" d="M18 6h10M17 7h11M17 8h3M21 8h1M15 9h5M21 9h1M15 10h1M15 11h1" />
<path stroke="#414141" d="M28 6h6M28 7h6M16 8h1M20 8h1M22 8h6M20 9h1M22 9h6M16 10h6M23 10h1M16 11h6M23 11h1M15 12h1M15 13h1" />
<path stroke="#404040" d="M34 6h6M34 7h6M41 7h1M28 8h6M28 9h6M22 10h1M24 10h4M29 10h1M22 11h1M24 11h6M16 12h8M16 13h8M15 14h2M15 15h2M19 15h1" />
<path stroke="#3f3f3f" d="M40 6h6M47 6h1M40 7h1M42 7h6M34 8h6M34 9h6M28 10h1M30 10h6M30 11h6M24 12h6M24 13h6M18 14h3M22 14h1M18 15h1M20 15h1M22 15h1M25 15h1M15 16h3M15 17h3" />
<path stroke="#3e3e3e" d="M46 6h1M48 6h4M53 6h1M48 7h6M40 8h6M47 8h1M40 9h8M36 10h6M36 11h6M30 12h6M30 13h6M27 14h1M29 14h3M24 15h1M26 15h2M29 15h3M19 16h1M21 16h2M19 17h1M21 17h2M15 18h4M15 19h5" />
<path stroke="#3d3d3d" d="M52 6h1M54 6h6M54 7h6M46 8h1M48 8h4M53 8h1M48 9h6M42 10h6M42 11h6M36 12h6M36 13h6M43 13h1M32 14h2M37 14h1M32 15h1M34 15h2M37 15h1M26 16h2M29 16h1M31 16h1M24 17h4M29 17h3M20 18h3M20 19h6M15 20h5M15 21h5M15 22h1M15 23h1" />
<path stroke="#3c3c3c" d="M60 6h6M60 7h6M52 8h1M54 8h6M54 9h6M48 10h6M55 10h1M48 11h8M42 12h6M42 13h1M44 13h4M49 13h1M36 14h1M38 14h1M41 14h2M39 15h2M42 15h2M30 16h1M32 16h1M34 16h2M37 16h1M32 17h1M34 17h2M37 17h1M27 18h1M26 19h6M20 20h6M20 21h6M27 21h1M16 22h6M16 23h6M15 24h1M15 25h1" />
<path stroke="#3b3b3b" d="M66 6h6M66 7h6M60 8h6M60 9h6M54 10h1M56 10h4M61 10h1M56 11h6M48 12h6M55 12h1M48 13h1M50 13h6M46 14h1M45 15h4M51 15h1M39 16h5M39 17h2M42 17h2M32 18h2M36 18h2M32 19h8M26 20h6M26 21h1M28 21h4M33 21h1M22 22h6M22 23h6M16 24h4M21 24h1M16 25h6M15 26h1M15 27h1" />
<path stroke="#3a3a3a" d="M72 6h6M79 6h1M72 7h8M66 8h6M66 9h6M60 10h1M62 10h6M62 11h6M54 12h1M56 12h4M61 12h1M56 13h6M52 14h1M54 14h2M50 15h1M52 15h1M54 15h2M45 16h4M45 17h4M38 18h1M41 18h2M40 19h6M32 20h6M39 20h1M32 21h1M34 21h6M28 22h6M28 23h1M20 24h1M22 24h6M22 25h6M16 26h6M23 26h1M16 27h8M15 28h1M15 29h1M17 29h1" />
<path stroke="#393939" d="M78 6h1M80 6h2M80 7h3M72 8h6M79 8h1M72 9h8M68 10h6M68 11h6M60 12h1M62 12h6M62 13h6M56 14h1M58 14h4M63 14h1M56 15h1M58 15h6M50 16h4M50 17h5M46 18h3M50 18h2M46 19h6M38 20h1M40 20h4M45 20h1M40 21h6M34 22h6M28 24h1M28 25h1M22 26h1M24 26h4M24 27h5M16 28h6M23 28h1M16 29h1M18 29h6M15 30h3M15 31h3M19 31h1" />
<path stroke="#383838" d="M78 8h1M80 8h4M80 9h4M74 10h6M74 11h6M68 12h6M68 13h6M62 14h1M64 14h4M69 14h1M64 15h6M57 16h5M63 16h1M56 17h8M52 18h3M56 18h2M52 19h6M44 20h1M46 20h6M46 21h6M40 22h6M47 22h1M28 26h1M22 28h1M24 28h4M24 29h5M18 30h6M18 31h1M20 31h4M25 31h1M15 32h3M15 33h3" />
<path stroke="#373737" d="M84 9h1M80 10h5M80 11h5M74 12h6M74 13h6M68 14h1M70 14h6M70 15h6M62 16h1M64 16h4M69 16h1M64 17h6M58 18h6M58 19h6M52 20h6M52 21h6M46 22h1M48 22h4M53 22h1M28 28h1M24 30h5M24 31h1M26 31h3M18 32h6M18 33h6M15 34h5M15 35h5" />
<path stroke="#363636" d="M80 12h5M80 13h5M76 14h6M76 15h6M68 16h1M70 16h6M70 17h6M64 18h6M71 18h1M64 19h8M58 20h6M58 21h6M52 22h1M54 22h6M24 32h5M24 33h5M20 34h6M20 35h6M15 36h5M15 37h5M15 38h1M15 39h1" />
<path stroke="#ffffff" d="M17 14h1M21 14h1M23 14h4M28 14h1M34 14h2M39 14h2M43 14h3M47 14h5M53 14h1M57 14h1M17 15h1M21 15h1M23 15h1M28 15h1M33 15h1M36 15h1M38 15h1M41 15h1M44 15h1M49 15h1M53 15h1M57 15h1M18 16h1M20 16h1M23 16h3M28 16h1M33 16h1M36 16h1M38 16h1M44 16h1M49 16h1M54 16h3M18 17h1M20 17h1M23 17h1M28 17h1M33 17h1M36 17h1M38 17h1M41 17h1M44 17h1M49 17h1M55 17h1M19 18h1M23 18h4M28 18h4M34 18h2M39 18h2M43 18h3M49 18h1M55 18h1M43 40h1M48 40h1M43 41h1M48 41h1M17 42h3M22 42h4M27 42h1M32 42h5M39 42h2M43 42h1M48 42h1M17 43h1M20 43h1M22 43h1M27 43h1M34 43h1M38 43h1M41 43h1M44 43h1M47 43h1M17 44h1M20 44h1M22 44h3M27 44h1M34 44h1M38 44h4M44 44h1M47 44h1M17 45h1M20 45h1M22 45h1M27 45h1M34 45h1M38 45h1M41 45h1M45 45h2M17 46h3M22 46h4M27 46h4M34 46h1M38 46h1M41 46h1M45 46h2M17 67h5M23 67h1M26 67h1M28 67h3M34 67h2M38 67h5M44 67h5M50 67h1M55 67h4M19 68h1M23 68h1M26 68h1M28 68h1M31 68h1M33 68h1M36 68h1M40 68h1M46 68h1M50 68h1M55 68h1M19 69h1M23 69h4M28 69h3M33 69h1M36 69h1M40 69h1M46 69h1M50 69h1M55 69h3M19 70h1M23 70h1M26 70h1M28 70h1M30 70h1M33 70h1M36 70h1M40 70h1M46 70h1M50 70h1M55 70h1M19 71h1M23 71h1M26 71h1M28 71h1M31 71h1M34 71h2M40 71h1M46 71h1M50 71h4M55 71h4" />
<path stroke="#353535" d="M82 14h3M82 15h3M76 16h6M76 17h6M70 18h1M72 18h4M77 18h1M72 19h4M77 19h1M64 20h6M71 20h1M64 21h8M60 22h6M26 34h3M26 35h3M20 36h6M20 37h6M27 37h1M16 38h4M21 38h1M16 39h6M15 40h1M15 41h1" />
<path stroke="#343434" d="M82 16h3M82 17h3M76 18h1M78 18h6M76 19h1M78 19h6M70 20h1M72 20h4M77 20h1M72 21h6M66 22h6M26 36h3M26 37h1M28 37h1M20 38h1M22 38h6M22 39h6M16 40h4M21 40h1M16 41h6M15 42h1M15 43h1" />
<path stroke="#333333" d="M84 18h1M84 19h1M76 20h1M78 20h6M78 21h6M72 22h6M79 22h1M28 38h6M28 39h6M20 40h1M22 40h6M22 41h6M16 42h1M20 42h2M16 43h1M18 43h2M21 43h1M23 43h1M15 44h1M15 45h1" />
<path stroke="#323232" d="M84 20h1M84 21h1M78 22h1M80 22h4M82 23h3M34 38h6M34 39h6M28 40h6M28 41h6M26 42h1M29 42h1M24 43h3M28 43h2M16 44h1M18 44h2M21 44h1M16 45h1M18 45h2M21 45h1M23 45h1M15 46h2M15 47h3M19 47h1" />
<path stroke="#313131" d="M84 22h1M82 24h2M82 25h2M40 38h6M47 38h1M40 39h8M34 40h6M34 41h6M28 42h1M30 42h2M30 43h4M35 43h1M25 44h2M29 44h1M24 45h3M28 45h2M20 46h2M18 47h1M20 47h4M15 48h3M15 49h3" />
<path stroke="#757575" d="M29 23h53M29 24h1M81 24h1M29 25h1M81 25h1M29 26h1M81 26h1M29 27h1M81 27h1M29 28h1M81 28h1M29 29h1M81 29h1M29 30h1M81 30h1M29 31h1M81 31h1M29 32h1M81 32h1M29 33h1M81 33h1M29 34h1M81 34h1M29 35h1M81 35h1M29 36h1M81 36h1M29 37h53M29 49h53M29 50h1M81 50h1M29 51h1M81 51h1M29 52h1M81 52h1M29 53h1M81 53h1M29 54h1M81 54h1M29 55h1M81 55h1M29 56h1M81 56h1M29 57h1M81 57h1M29 58h1M81 58h1M29 59h1M81 59h1M29 60h1M81 60h1M29 61h1M81 61h1M29 62h1M81 62h1M29 63h53M29 74h53M29 75h1M81 75h1M29 76h1M81 76h1M29 77h1M81 77h1M29 78h1M81 78h1M29 79h1M81 79h1M29 80h1M81 80h1M29 81h1M81 81h1M29 82h1M81 82h1M29 83h1M81 83h1M29 84h1M81 84h1M29 85h1M81 85h1M29 86h1M81 86h1M29 87h1M81 87h1M29 88h53" />
<path stroke="#121212" d="M30 24h51M30 25h51M30 26h51M30 27h51M30 28h51M30 29h51M30 30h51M30 31h51M30 32h51M30 33h51M30 34h51M30 35h51M30 36h51M30 50h51M30 51h51M30 52h51M30 53h51M30 54h51M30 55h51M30 56h51M30 57h51M30 58h51M30 59h51M30 60h51M30 61h51M30 62h51M30 75h51M30 76h51M30 77h51M30 78h51M30 79h51M30 80h51M30 81h51M30 82h51M30 83h51M30 84h51M30 85h51M30 86h51M30 87h51" />
<path stroke="#303030" d="M84 24h1M84 25h1M82 26h3M82 27h3M46 38h1M48 38h6M48 39h6M40 40h3M44 40h4M40 41h3M44 41h4M37 42h2M41 42h1M36 43h2M39 43h2M43 43h1M28 44h1M30 44h4M35 44h1M30 45h4M35 45h1M26 46h1M31 46h1M24 47h8M18 48h6M18 49h6M25 49h1M15 50h5M15 51h5" />
<path stroke="#2f2f2f" d="M82 28h3M82 29h3M83 31h1M54 38h6M54 39h6M49 40h3M53 40h1M49 41h5M42 42h1M44 42h4M42 43h1M45 43h2M49 43h1M36 44h2M36 45h2M39 45h2M43 45h1M32 46h2M35 46h3M32 47h6M24 48h8M24 49h1M26 49h3M20 50h6M20 51h6M27 51h1M15 52h5M15 53h5M15 54h1M15 55h1" />
<path stroke="#2e2e2e" d="M82 30h3M82 31h1M84 31h1M60 38h6M60 39h6M67 39h1M52 40h1M54 40h6M54 41h6M49 42h5M55 42h1M48 43h1M50 43h6M42 44h2M45 44h2M42 45h1M44 45h1M47 45h1M49 45h1M39 46h2M42 46h2M38 47h6M32 48h6M26 50h3M26 51h1M28 51h1M20 52h6M20 53h6M27 53h1M16 54h6M16 55h6M15 56h1M15 57h1" />
<path stroke="#2d2d2d" d="M82 32h3M82 33h3M82 34h2M82 35h2M66 38h6M66 39h1M68 39h4M73 39h1M60 40h6M60 41h6M67 41h1M54 42h1M56 42h4M61 42h1M56 43h6M48 44h8M48 45h1M50 45h6M44 46h1M47 46h3M44 47h6M51 47h1M38 48h6M26 52h3M26 53h1M28 53h1M22 54h6M22 55h6M16 56h6M16 57h6M15 58h1M15 59h1M17 59h1" />
<path stroke="#2c2c2c" d="M84 34h1M84 35h1M82 36h2M82 37h2M72 38h8M72 39h1M74 39h6M66 40h6M66 41h1M68 41h4M60 42h1M62 42h6M62 43h6M56 44h6M56 45h6M50 46h6M50 47h1M52 47h4M57 47h1M44 48h6M28 54h1M28 55h1M22 56h6M22 57h6M16 58h8M16 59h1M18 59h6M15 60h1M15 61h1M17 61h1" />
<path stroke="#2b2b2b" d="M84 36h1M84 37h1M80 38h5M80 39h5M72 40h6M79 40h1M72 41h8M68 42h6M68 43h6M62 44h6M62 45h6M56 46h8M56 47h1M58 47h6M50 48h6M28 56h1M28 57h1M24 58h5M24 59h5M16 60h8M16 61h1M18 61h6M15 62h3M15 63h3M19 63h1" />
<path stroke="#2a2a2a" d="M78 40h1M80 40h4M80 41h5M74 42h6M74 43h6M68 44h6M68 45h6M75 45h1M64 46h6M64 47h6M56 48h6M63 48h1M24 60h5M24 61h5M18 62h6M18 63h1M20 63h4M25 63h1M15 64h3M15 65h3M19 65h1" />
<path stroke="#292929" d="M84 40h1M80 42h5M80 43h5M74 44h6M74 45h1M76 45h4M81 45h1M70 46h6M70 47h6M62 48h1M64 48h4M69 48h1M24 62h5M24 63h1M26 63h3M18 64h6M18 65h1M20 65h4M25 65h1M15 66h5M15 67h2" />
<path stroke="#282828" d="M80 44h5M80 45h1M82 45h3M76 46h6M76 47h6M83 47h1M68 48h1M70 48h6M24 64h6M31 64h1M24 65h1M26 65h6M20 66h6M22 67h1M24 67h2M27 67h1M15 68h4M15 69h4M15 70h1M15 71h1" />
<path stroke="#272727" d="M82 46h3M82 47h1M84 47h1M76 48h6M30 64h1M32 64h4M37 64h1M32 65h6M26 66h6M31 67h1M33 67h1M20 68h3M24 68h2M20 69h3M27 69h1M16 70h3M20 70h2M16 71h3M20 71h2M15 72h1M15 73h1" />
<path stroke="#262626" d="M82 48h3M82 49h3M82 50h2M82 51h2M36 64h1M38 64h6M38 65h6M32 66h6M39 66h1M32 67h1M36 67h2M27 68h1M29 68h2M31 69h1M22 70h1M24 70h2M27 70h1M22 71h1M24 71h2M27 71h1M16 72h4M21 72h1M16 73h6M15 74h1M15 75h1M17 75h1" />
<path stroke="#252525" d="M84 50h1M84 51h1M82 52h2M82 53h2M44 64h6M44 65h6M38 66h1M40 66h4M45 66h1M43 67h1M32 68h1M34 68h2M37 68h3M32 69h1M34 69h2M37 69h3M29 70h1M31 70h2M29 71h2M32 71h2M20 72h1M22 72h6M22 73h6M16 74h6M23 74h1M16 75h1M18 75h6M15 76h1M15 77h1M17 77h1" />
<path stroke="#242424" d="M84 52h1M84 53h1M82 54h2M82 55h3M50 64h6M50 65h6M44 66h1M46 66h6M49 67h1M51 67h1M41 68h5M41 69h5M34 70h2M37 70h3M36 71h4M41 71h1M28 72h6M28 73h6M35 73h1M22 74h1M24 74h4M24 75h5M16 76h8M16 77h1M18 77h6M15 78h3M15 79h3M19 79h1" />
<path stroke="#232323" d="M84 54h1M82 56h2M82 57h3M56 64h6M63 64h1M56 65h8M52 66h6M52 67h3M47 68h3M51 68h1M47 69h3M51 69h1M41 70h5M47 70h1M42 71h4M47 71h1M34 72h6M34 73h1M36 73h4M28 74h1M24 76h5M24 77h5M18 78h6M18 79h1M20 79h4M25 79h1M15 80h3M15 81h3M19 81h1" />
<path stroke="#222222" d="M84 56h1M82 58h3M82 59h3M62 64h1M64 64h4M69 64h1M64 65h6M58 66h6M59 67h5M52 68h3M56 68h2M52 69h3M59 69h1M48 70h2M51 70h3M48 71h2M40 72h6M47 72h1M40 73h8M24 78h5M24 79h1M26 79h3M18 80h6M18 81h1M20 81h4M25 81h1M15 82h5M15 83h5" />
<path stroke="#212121" d="M82 60h3M82 61h3M82 62h3M82 63h3M68 64h1M70 64h6M77 64h3M81 64h3M70 65h15M64 66h21M64 67h21M58 68h6M65 68h3M69 68h3M73 68h3M77 68h3M81 68h3M58 69h1M60 69h25M54 70h1M56 70h29M54 71h1M59 71h26M46 72h1M48 72h4M53 72h3M57 72h3M61 72h3M65 72h3M69 72h3M73 72h3M77 72h3M81 72h3M48 73h37M82 74h3M82 75h3M82 76h2M82 77h3M82 78h3M82 79h3M24 80h5M82 80h2M24 81h1M26 81h3M82 81h3M20 82h9M82 82h3M20 83h9M82 83h3M15 84h5M21 84h3M25 84h3M82 84h2M15 85h14M82 85h3M15 86h14M82 86h3M15 87h14M82 87h3M15 88h1M17 88h3M21 88h3M25 88h3M82 88h2M15 89h70M15 90h69M16 91h67M17 92h3M21 92h3M25 92h3M29 92h3M33 92h3M37 92h3M41 92h3M45 92h3M49 92h3M53 92h3M57 92h3M61 92h3M65 92h3M69 92h3M73 92h3M77 92h3M81 92h1M18 93h63" />
<path stroke="#202020" d="M76 64h1M80 64h1M84 64h1M64 68h1M68 68h1M72 68h1M76 68h1M80 68h1M84 68h1M52 72h1M56 72h1M60 72h1M64 72h1M68 72h1M72 72h1M76 72h1M80 72h1M84 72h1M84 76h1M84 80h1M20 84h1M24 84h1M28 84h1M84 84h1M16 88h1M20 88h1M24 88h1M28 88h1M84 88h1M84 90h1M83 91h1M20 92h1M24 92h1M28 92h1M32 92h1M36 92h1M40 92h1M44 92h1M48 92h1M52 92h1M56 92h1M60 92h1M64 92h1M68 92h1M72 92h1M76 92h1M80 92h1M82 92h1M81 93h1" />
</svg>