<svg xmlns="http://www.w3.org/2000/svg" viewBox="0 -0.5 32 32" shape-rendering="crispEdges">
<metadata>Made with Pixels to Svg https://codepen.io/shshaw/pen/XbxvNj</metadata>
<path stroke="#ffffff" d="M1 1h30M1 2h3M28 2h3M1 3h4M27 3h4M1 4h1M3 4h3M26 4h3M30 4h1M1 5h1M4 5h3M25 5h3M30 5h1M1 6h1M5 6h3M24 6h3M30 6h1M1 7h1M6 7h3M23 7h3M30 7h1M1 8h1M7 8h3M22 8h3M30 8h1M1 9h1M8 9h3M21 9h3M30 9h1M1 10h1M9 10h3M20 10h3M30 10h1M1 11h1M10 11h3M19 11h3M30 11h1M1 12h1M11 12h3M18 12h3M30 12h1M1 13h1M12 13h3M17 13h3M30 13h1M1 14h1M13 14h6M30 14h1M1 15h1M14 15h4M30 15h1M1 16h1M14 16h4M30 16h1M1 17h1M13 17h6M30 17h1M1 18h1M12 18h3M17 18h3M30 18h1M1 19h1M11 19h3M18 19h3M30 19h1M1 20h1M10 20h3M19 20h3M30 20h1M1 21h1M9 21h3M20 21h3M30 21h1M1 22h1M8 22h3M21 22h3M30 22h1M1 23h1M7 23h3M22 23h3M30 23h1M1 24h1M6 24h3M23 24h3M30 24h1M1 25h1M5 25h3M24 25h3M30 25h1M1 26h1M4 26h3M25 26h3M30 26h1M1 27h1M3 27h3M26 27h3M30 27h1M1 28h4M27 28h4M1 29h3M28 29h3M1 30h30" />
</svg>