<svg xmlns="http://www.w3.org/2000/svg" viewBox="0 -0.5 700 700" shape-rendering="crispEdges">
<metadata>Made with Pixels to Svg https://codepen.io/shshaw/pen/XbxvNj</metadata>
<path stroke="rgba(0,0,0,0.4980392156862745)" d="M129 107h1M129 108h1M129 109h1M129 110h1M129 111h1M129 112h1M129 113h1M129 114h1M129 115h1M129 116h1M129 117h1M129 118h1M129 119h1M129 120h1M129 121h1M129 122h1M129 123h1M129 124h1M129 125h1M129 126h1M129 127h1M129 128h1M129 129h1M129 130h1M129 131h1M129 132h1M129 133h1M129 134h1M129 135h1M129 136h1M129 137h1M129 138h1M129 139h1M129 140h1M101 164h1M101 165h1M101 166h1M101 167h1M101 168h1M73 407h1M73 408h1M73 409h1M73 410h1M73 411h1M51 423h11M203 423h5M45 435h1M45 436h1M45 437h1M45 438h1M45 439h1M73 441h1M73 442h1M73 443h1M73 444h1M73 445h1M73 446h1M73 447h1M73 448h1M73 449h1M73 450h1M63 451h10M192 451h11M63 457h10M192 457h11M63 458h10M192 458h11M63 459h10M192 459h11M63 460h10M192 460h11M63 461h10M192 461h11" />
<path stroke="#000000" d="M130 107h5M130 108h5M130 109h5M130 110h5M130 111h5M130 112h5M130 113h5M130 114h5M130 115h5M130 116h5M130 117h5M130 118h5M130 119h5M130 120h5M130 121h5M130 122h5M130 123h5M130 124h5M130 125h5M130 126h5M130 127h5M130 128h5M130 129h5M130 130h5M130 131h5M130 132h5M130 133h5M130 134h5M130 135h5M130 136h5M130 137h5M130 138h5M130 139h5M130 140h5M130 141h5M119 142h28M119 143h28M119 144h28M119 145h28M119 146h28M119 147h28M119 148h28M119 149h28M119 150h28M119 151h28M107 153h11M147 153h11M107 154h11M147 154h11M107 155h11M147 155h11M107 156h11M147 156h11M107 157h11M147 157h11M107 158h11M147 158h11M107 159h11M147 159h11M107 160h11M147 160h11M107 161h11M147 161h11M107 162h11M147 162h11M150 163h8M102 164h9M153 164h5M159 164h4M102 165h9M153 165h5M159 165h4M102 166h9M153 166h5M159 166h4M102 167h9M153 167h5M159 167h4M102 168h9M153 168h5M159 168h4M102 169h9M153 169h10M91 170h20M153 170h22M91 171h20M153 171h22M91 172h20M153 172h22M91 173h20M153 173h5M159 173h16M91 174h20M153 174h5M159 174h16M91 175h20M153 175h22M91 176h20M153 176h22M91 177h20M153 177h22M91 178h20M153 178h22M91 179h20M153 179h22M91 180h10M107 180h4M153 180h5M164 180h11M91 181h10M107 181h45M153 181h5M164 181h11M91 182h10M107 182h51M164 182h11M91 183h10M107 183h51M164 183h11M91 184h10M107 184h51M164 184h11M91 185h10M107 185h51M164 185h11M91 186h10M107 186h51M164 186h11M91 187h10M107 187h51M164 187h11M91 188h10M107 188h51M164 188h11M91 189h10M107 189h51M164 189h11M91 190h10M107 190h51M164 190h11M91 191h10M151 191h5M164 191h11M91 192h10M164 192h11M91 193h10M164 193h11M91 194h10M164 194h11M91 195h10M164 195h11M91 196h10M164 196h11M91 197h10M164 197h11M91 198h10M164 198h11M91 199h10M164 199h11M91 200h10M164 200h11M91 201h10M164 201h11M91 202h10M164 202h11M91 203h10M164 203h11M91 204h10M164 204h11M91 205h10M164 205h11M91 206h10M164 206h11M91 207h10M164 207h11M91 208h10M164 208h11M91 209h10M164 209h11M91 210h10M164 210h11M91 211h10M164 211h11M91 212h10M164 212h11M91 213h10M164 213h11M91 214h10M164 214h11M91 215h10M164 215h11M91 216h10M164 216h11M91 217h10M164 217h11M91 218h10M164 218h11M91 219h10M164 219h11M91 220h10M164 220h11M91 221h10M164 221h11M91 222h10M164 222h11M91 223h10M164 223h11M91 224h10M164 224h11M91 225h10M164 225h11M91 226h10M164 226h11M91 227h10M164 227h11M91 228h10M164 228h11M91 229h10M164 229h11M91 230h10M164 230h11M91 231h10M164 231h11M91 232h10M164 232h11M91 233h10M164 233h11M91 234h10M164 234h11M91 235h10M164 235h11M91 236h10M164 236h11M91 237h10M164 237h11M91 238h10M164 238h11M91 239h10M164 239h11M91 240h10M164 240h11M91 241h10M164 241h11M91 242h10M164 242h11M91 243h10M164 243h11M91 244h10M164 244h11M91 245h10M164 245h11M91 246h10M164 246h11M91 247h10M164 247h11M91 248h10M164 248h11M91 249h10M164 249h11M91 250h10M164 250h11M91 251h10M164 251h11M91 252h10M164 252h11M91 253h10M164 253h11M91 254h10M164 254h11M91 255h10M164 255h11M91 256h10M164 256h11M91 257h10M164 257h11M91 258h10M164 258h11M91 259h10M164 259h11M91 260h10M164 260h11M91 261h10M164 261h11M91 262h10M164 262h11M91 263h10M164 263h11M91 264h10M164 264h11M91 265h10M164 265h11M91 266h10M164 266h11M91 267h10M164 267h11M91 268h10M164 268h11M91 269h10M164 269h11M91 270h10M164 270h11M91 271h10M164 271h11M91 272h10M164 272h11M91 273h10M164 273h11M91 274h10M164 274h11M91 275h10M164 275h11M91 276h10M164 276h11M91 277h10M164 277h11M91 278h10M164 278h11M91 279h10M164 279h11M91 280h10M164 280h11M91 281h10M164 281h11M91 282h10M164 282h11M91 283h10M164 283h11M91 284h10M164 284h11M91 285h10M164 285h11M91 286h10M164 286h11M91 287h10M164 287h11M91 288h10M164 288h11M91 289h10M164 289h11M91 290h10M164 290h11M194 290h16M226 290h24M274 290h16M306 290h24M91 291h10M164 291h11M194 291h16M226 291h24M274 291h16M306 291h24M91 292h10M164 292h11M194 292h16M226 292h24M274 292h16M306 292h24M91 293h10M164 293h11M194 293h16M226 293h24M274 293h16M306 293h24M91 294h10M164 294h11M190 294h4M210 294h4M222 294h4M250 294h4M270 294h4M290 294h4M302 294h4M330 294h4M91 295h10M164 295h11M190 295h4M210 295h4M222 295h4M250 295h4M270 295h4M290 295h4M302 295h4M330 295h4M91 296h10M164 296h11M190 296h4M210 296h4M222 296h4M250 296h4M270 296h4M290 296h4M302 296h4M330 296h4M91 297h10M164 297h11M190 297h4M210 297h4M222 297h4M250 297h4M270 297h4M290 297h4M302 297h4M330 297h4M91 298h10M164 298h11M186 298h8M210 298h8M222 298h4M250 298h8M266 298h8M290 298h8M302 298h4M330 298h8M91 299h10M164 299h11M186 299h8M210 299h8M222 299h4M250 299h8M266 299h8M290 299h8M302 299h4M330 299h8M91 300h10M164 300h11M186 300h8M210 300h8M222 300h4M250 300h8M266 300h8M290 300h8M302 300h4M330 300h8M91 301h10M164 301h11M186 301h8M210 301h8M222 301h4M250 301h8M266 301h8M290 301h8M302 301h4M330 301h8M91 302h10M164 302h11M182 302h4M194 302h16M218 302h8M234 302h16M258 302h8M274 302h16M298 302h8M314 302h16M338 302h4M91 303h10M164 303h11M182 303h4M194 303h16M218 303h8M234 303h16M258 303h8M274 303h16M298 303h8M314 303h16M338 303h4M91 304h10M164 304h11M182 304h4M194 304h16M218 304h8M234 304h16M258 304h8M274 304h16M298 304h8M314 304h16M338 304h4M91 305h10M164 305h11M182 305h4M194 305h16M218 305h8M234 305h16M258 305h8M274 305h16M298 305h8M314 305h16M338 305h4M91 306h10M164 306h11M182 306h4M194 306h4M206 306h4M218 306h8M234 306h16M258 306h8M274 306h16M298 306h8M314 306h16M338 306h4M91 307h10M164 307h11M182 307h4M194 307h4M206 307h4M218 307h8M234 307h16M258 307h8M274 307h16M298 307h8M314 307h16M338 307h4M91 308h10M164 308h11M182 308h4M194 308h4M206 308h4M218 308h8M234 308h16M258 308h8M274 308h16M298 308h8M314 308h16M338 308h4M91 309h10M164 309h11M182 309h4M194 309h4M206 309h4M218 309h8M234 309h16M258 309h8M274 309h16M298 309h8M314 309h16M338 309h4M91 310h10M164 310h11M182 310h4M194 310h4M210 310h8M222 310h4M250 310h8M262 310h4M298 310h8M330 310h8M91 311h10M164 311h11M182 311h4M194 311h4M210 311h8M222 311h4M250 311h8M262 311h4M298 311h8M330 311h8M91 312h10M164 312h11M182 312h4M194 312h4M210 312h8M222 312h4M250 312h8M262 312h4M298 312h8M330 312h8M91 313h10M164 313h11M182 313h4M194 313h4M210 313h8M222 313h4M250 313h8M262 313h4M298 313h8M330 313h8M91 314h10M164 314h11M182 314h4M194 314h4M210 314h8M222 314h4M250 314h4M262 314h4M298 314h8M330 314h8M91 315h10M164 315h11M182 315h4M194 315h4M210 315h8M222 315h4M250 315h4M262 315h4M298 315h8M330 315h8M91 316h10M164 316h11M182 316h4M194 316h4M210 316h8M222 316h4M250 316h4M262 316h4M298 316h8M330 316h8M91 317h10M164 317h11M182 317h4M194 317h4M210 317h8M222 317h4M250 317h4M262 317h4M298 317h8M330 317h8M91 318h10M164 318h11M182 318h4M194 318h4M206 318h4M218 318h8M234 318h8M250 318h4M262 318h4M274 318h16M298 318h8M314 318h16M338 318h4M91 319h10M164 319h11M182 319h4M194 319h4M206 319h4M218 319h8M234 319h8M250 319h4M262 319h4M274 319h16M298 319h8M314 319h16M338 319h4M91 320h10M164 320h11M182 320h4M194 320h4M206 320h4M218 320h8M234 320h8M250 320h4M262 320h4M274 320h16M298 320h8M314 320h16M338 320h4M91 321h10M164 321h11M182 321h4M194 321h4M206 321h4M218 321h8M234 321h8M250 321h4M262 321h4M274 321h16M298 321h8M314 321h16M338 321h4M91 322h10M164 322h11M182 322h4M194 322h16M218 322h8M234 322h8M250 322h8M262 322h4M274 322h4M286 322h4M298 322h8M314 322h16M338 322h4M91 323h10M164 323h11M182 323h4M194 323h16M218 323h8M234 323h8M250 323h8M262 323h4M274 323h4M286 323h4M298 323h8M314 323h16M338 323h4M91 324h10M164 324h11M182 324h4M194 324h16M218 324h8M234 324h8M250 324h8M262 324h4M274 324h4M286 324h4M298 324h8M314 324h16M338 324h4M91 325h10M164 325h11M182 325h4M194 325h16M218 325h8M234 325h8M250 325h8M262 325h4M274 325h4M286 325h4M298 325h8M314 325h16M338 325h4M91 326h10M164 326h11M186 326h8M210 326h8M222 326h4M234 326h4M242 326h8M258 326h8M274 326h4M286 326h4M298 326h8M330 326h8M91 327h10M164 327h11M186 327h8M210 327h8M222 327h4M234 327h4M242 327h8M258 327h8M274 327h4M286 327h4M298 327h8M330 327h8M91 328h10M164 328h11M186 328h8M210 328h8M222 328h4M234 328h4M242 328h8M258 328h8M274 328h4M286 328h4M298 328h8M330 328h8M91 329h10M164 329h11M186 329h8M210 329h8M222 329h4M234 329h4M242 329h8M258 329h8M274 329h4M286 329h4M298 329h8M330 329h8M91 330h10M164 330h11M190 330h4M210 330h4M222 330h4M234 330h4M246 330h4M258 330h8M274 330h4M286 330h4M298 330h8M330 330h4M91 331h10M164 331h11M190 331h4M210 331h4M222 331h4M234 331h4M246 331h4M258 331h8M274 331h4M286 331h4M298 331h8M330 331h4M91 332h10M164 332h11M190 332h4M210 332h4M222 332h4M234 332h4M246 332h4M258 332h8M274 332h4M286 332h4M298 332h8M330 332h4M91 333h10M164 333h11M190 333h4M210 333h4M222 333h4M234 333h4M246 333h4M258 333h8M274 333h4M286 333h4M298 333h8M330 333h4M91 334h10M164 334h11M194 334h16M226 334h8M250 334h8M266 334h8M290 334h8M306 334h24M91 335h10M164 335h11M194 335h16M226 335h8M250 335h8M266 335h8M290 335h8M306 335h24M91 336h10M164 336h11M194 336h16M226 336h8M250 336h8M266 336h8M290 336h8M306 336h24M91 337h10M164 337h11M194 337h16M226 337h8M250 337h8M266 337h8M290 337h8M306 337h24M91 338h10M164 338h11M194 338h24M226 338h24M274 338h16M314 338h16M346 338h32M402 338h24M442 338h24M490 338h16M530 338h16M562 338h24M610 338h16M642 338h8M674 338h8M91 339h10M164 339h11M194 339h24M226 339h24M274 339h16M314 339h16M346 339h32M402 339h24M442 339h24M490 339h16M530 339h16M562 339h24M610 339h16M642 339h8M674 339h8M91 340h10M164 340h11M194 340h24M226 340h24M274 340h16M314 340h16M346 340h32M402 340h24M442 340h24M490 340h16M530 340h16M562 340h24M610 340h16M642 340h8M674 340h8M91 341h10M164 341h11M194 341h24M226 341h24M274 341h16M314 341h16M346 341h32M402 341h24M442 341h24M490 341h16M530 341h16M562 341h24M610 341h16M642 341h8M674 341h8M91 342h10M164 342h11M190 342h4M218 342h8M250 342h4M270 342h4M290 342h4M310 342h4M330 342h4M342 342h4M378 342h4M398 342h4M426 342h4M438 342h4M466 342h4M486 342h4M506 342h4M526 342h4M546 342h4M558 342h4M586 342h4M606 342h4M626 342h4M638 342h4M650 342h4M670 342h4M682 342h4M91 343h10M164 343h11M190 343h4M218 343h8M250 343h4M270 343h4M290 343h4M310 343h4M330 343h4M342 343h4M378 343h4M398 343h4M426 343h4M438 343h4M466 343h4M486 343h4M506 343h4M526 343h4M546 343h4M558 343h4M586 343h4M606 343h4M626 343h4M638 343h4M650 343h4M670 343h4M682 343h4M91 344h10M164 344h11M190 344h4M218 344h8M250 344h4M270 344h4M290 344h4M310 344h4M330 344h4M342 344h4M378 344h4M398 344h4M426 344h4M438 344h4M466 344h4M486 344h4M506 344h4M526 344h4M546 344h4M558 344h4M586 344h4M606 344h4M626 344h4M638 344h4M650 344h4M670 344h4M682 344h4M91 345h10M164 345h11M190 345h4M218 345h8M250 345h4M270 345h4M290 345h4M310 345h4M330 345h4M342 345h4M378 345h4M398 345h4M426 345h4M438 345h4M466 345h4M486 345h4M506 345h4M526 345h4M546 345h4M558 345h4M586 345h4M606 345h4M626 345h4M638 345h4M650 345h4M670 345h4M682 345h4M91 346h10M164 346h11M186 346h8M218 346h8M250 346h8M266 346h8M290 346h8M306 346h8M330 346h8M342 346h4M378 346h4M398 346h4M426 346h8M438 346h4M466 346h8M482 346h8M506 346h8M522 346h8M546 346h4M558 346h4M586 346h8M602 346h8M626 346h8M638 346h4M650 346h8M666 346h8M682 346h4M91 347h10M164 347h11M186 347h8M218 347h8M250 347h8M266 347h8M290 347h8M306 347h8M330 347h8M342 347h4M378 347h4M398 347h4M426 347h8M438 347h4M466 347h8M482 347h8M506 347h8M522 347h8M546 347h4M558 347h4M586 347h8M602 347h8M626 347h8M638 347h4M650 347h8M666 347h8M682 347h4M91 348h10M164 348h11M186 348h8M218 348h8M250 348h8M266 348h8M290 348h8M306 348h8M330 348h8M342 348h4M378 348h4M398 348h4M426 348h8M438 348h4M466 348h8M482 348h8M506 348h8M522 348h8M546 348h4M558 348h4M586 348h8M602 348h8M626 348h8M638 348h4M650 348h8M666 348h8M682 348h4M91 349h10M164 349h11M186 349h8M218 349h8M250 349h8M266 349h8M290 349h8M306 349h8M330 349h8M342 349h4M378 349h4M398 349h4M426 349h8M438 349h4M466 349h8M482 349h8M506 349h8M522 349h8M546 349h4M558 349h4M586 349h8M602 349h8M626 349h8M638 349h4M650 349h8M666 349h8M682 349h4M91 350h10M164 350h11M182 350h4M194 350h24M222 350h4M234 350h16M258 350h8M274 350h16M298 350h8M314 350h16M338 350h8M354 350h24M398 350h4M410 350h16M438 350h4M450 350h16M474 350h8M490 350h16M514 350h8M530 350h16M558 350h4M570 350h16M594 350h8M610 350h16M634 350h8M658 350h8M682 350h4M91 351h10M164 351h11M182 351h4M194 351h24M222 351h4M234 351h16M258 351h8M274 351h16M298 351h8M314 351h16M338 351h8M354 351h24M398 351h4M410 351h16M438 351h4M450 351h16M474 351h8M490 351h16M514 351h8M530 351h16M558 351h4M570 351h16M594 351h8M610 351h16M634 351h8M658 351h8M682 351h4M91 352h10M164 352h11M182 352h4M194 352h24M222 352h4M234 352h16M258 352h8M274 352h16M298 352h8M314 352h16M338 352h8M354 352h24M398 352h4M410 352h16M438 352h4M450 352h16M474 352h8M490 352h16M514 352h8M530 352h16M558 352h4M570 352h16M594 352h8M610 352h16M634 352h8M658 352h8M682 352h4M91 353h10M164 353h11M182 353h4M194 353h24M222 353h4M234 353h16M258 353h8M274 353h16M298 353h8M314 353h16M338 353h8M354 353h24M398 353h4M410 353h16M438 353h4M450 353h16M474 353h8M490 353h16M514 353h8M530 353h16M558 353h4M570 353h16M594 353h8M610 353h16M634 353h8M658 353h8M682 353h4M91 354h10M164 354h11M182 354h4M194 354h17M222 354h4M234 354h16M258 354h8M274 354h16M298 354h8M314 354h4M326 354h4M338 354h8M354 354h16M398 354h4M410 354h16M438 354h4M450 354h16M474 354h8M490 354h4M502 354h4M514 354h8M530 354h24M558 354h4M570 354h16M594 354h8M610 354h16M634 354h8M658 354h8M682 354h4M91 355h10M164 355h11M182 355h4M194 355h17M222 355h4M234 355h16M258 355h8M274 355h16M298 355h8M314 355h4M326 355h4M338 355h8M354 355h16M398 355h4M410 355h16M438 355h4M450 355h16M474 355h8M490 355h4M502 355h4M514 355h8M530 355h24M558 355h4M570 355h16M594 355h8M610 355h16M634 355h8M658 355h8M682 355h4M91 356h10M164 356h11M182 356h4M194 356h17M222 356h4M234 356h16M258 356h8M274 356h16M298 356h8M314 356h4M326 356h4M338 356h8M354 356h16M398 356h4M410 356h16M438 356h4M450 356h16M474 356h8M490 356h4M502 356h4M514 356h8M530 356h24M558 356h4M570 356h16M594 356h8M610 356h16M634 356h8M658 356h8M682 356h4M91 357h10M164 357h11M182 357h4M194 357h17M222 357h4M234 357h16M258 357h8M274 357h16M298 357h8M314 357h4M326 357h4M338 357h8M354 357h16M398 357h4M410 357h16M438 357h4M450 357h16M474 357h8M490 357h4M502 357h4M514 357h8M530 357h24M558 357h4M570 357h16M594 357h8M610 357h16M634 357h8M658 357h8M682 357h4M91 358h10M164 358h11M186 358h8M210 358h4M222 358h4M250 358h8M262 358h4M298 358h8M314 358h4M330 358h8M342 358h4M370 358h4M398 358h4M426 358h8M438 358h4M466 358h8M478 358h4M490 358h4M502 358h4M514 358h8M530 358h8M554 358h8M586 358h8M598 358h4M634 358h8M650 358h8M666 358h8M682 358h4M91 359h10M164 359h11M186 359h8M210 359h4M222 359h4M250 359h8M262 359h4M298 359h8M314 359h4M330 359h8M342 359h4M370 359h4M398 359h4M426 359h8M438 359h4M466 359h8M478 359h4M490 359h4M502 359h4M514 359h8M530 359h8M554 359h8M586 359h8M598 359h4M634 359h8M650 359h8M666 359h8M682 359h4M91 360h10M164 360h11M186 360h8M210 360h4M222 360h4M250 360h8M262 360h4M298 360h8M314 360h4M330 360h8M342 360h4M370 360h4M398 360h4M426 360h8M438 360h4M466 360h8M478 360h4M490 360h4M502 360h4M514 360h8M530 360h8M554 360h8M586 360h8M598 360h4M634 360h8M650 360h8M666 360h8M682 360h4M91 361h10M164 361h11M186 361h8M210 361h4M222 361h4M250 361h8M262 361h4M298 361h8M314 361h4M330 361h8M342 361h4M370 361h4M398 361h4M426 361h8M438 361h4M466 361h8M478 361h4M490 361h4M502 361h4M514 361h8M530 361h8M554 361h8M586 361h8M598 361h4M634 361h8M650 361h8M666 361h8M682 361h4M91 362h10M164 362h11M190 362h4M210 362h8M222 362h4M250 362h4M262 362h4M298 362h8M314 362h4M330 362h8M342 362h4M370 362h4M398 362h4M426 362h4M438 362h4M466 362h4M478 362h4M490 362h4M502 362h4M514 362h8M530 362h8M554 362h8M586 362h4M598 362h4M634 362h8M650 362h8M666 362h8M682 362h4M91 363h10M164 363h11M190 363h4M210 363h8M222 363h4M250 363h4M262 363h4M298 363h8M314 363h4M330 363h8M342 363h4M370 363h4M398 363h4M426 363h4M438 363h4M466 363h4M478 363h4M490 363h4M502 363h4M514 363h8M530 363h8M554 363h8M586 363h4M598 363h4M634 363h8M650 363h8M666 363h8M682 363h4M91 364h10M164 364h11M190 364h4M210 364h8M222 364h4M250 364h4M262 364h4M298 364h8M314 364h4M330 364h8M342 364h4M370 364h4M398 364h4M426 364h4M438 364h4M466 364h4M478 364h4M490 364h4M502 364h4M514 364h8M530 364h8M554 364h8M586 364h4M598 364h4M634 364h8M650 364h8M666 364h8M682 364h4M91 365h10M164 365h11M190 365h4M210 365h8M222 365h4M250 365h4M262 365h4M298 365h8M314 365h4M330 365h8M342 365h4M370 365h4M398 365h4M426 365h4M438 365h4M466 365h4M478 365h4M490 365h4M502 365h4M514 365h8M530 365h8M554 365h8M586 365h4M598 365h4M634 365h8M650 365h8M666 365h8M682 365h4M91 366h10M164 366h11M194 366h16M218 366h8M234 366h16M262 366h4M274 366h16M298 366h8M314 366h4M326 366h4M338 366h8M354 366h16M398 366h4M410 366h16M438 366h4M450 366h8M466 366h4M478 366h4M490 366h4M502 366h4M514 366h8M530 366h16M554 366h8M570 366h8M586 366h4M598 366h4M610 366h16M634 366h8M650 366h4M658 366h8M670 366h4M682 366h4M91 367h10M164 367h11M194 367h16M218 367h8M234 367h16M262 367h4M274 367h16M298 367h8M314 367h4M326 367h4M338 367h8M354 367h16M398 367h4M410 367h16M438 367h4M450 367h8M466 367h4M478 367h4M490 367h4M502 367h4M514 367h8M530 367h16M554 367h8M570 367h8M586 367h4M598 367h4M610 367h16M634 367h8M650 367h4M658 367h8M670 367h4M682 367h4M91 368h10M164 368h11M194 368h16M218 368h8M234 368h16M262 368h4M274 368h16M298 368h8M314 368h4M326 368h4M338 368h8M354 368h16M398 368h4M410 368h16M438 368h4M450 368h8M466 368h4M478 368h4M490 368h4M502 368h4M514 368h8M530 368h16M554 368h8M570 368h8M586 368h4M598 368h4M610 368h16M634 368h8M650 368h4M658 368h8M670 368h4M682 368h4M91 369h10M164 369h11M194 369h16M218 369h8M234 369h16M262 369h4M274 369h16M298 369h8M314 369h4M326 369h4M338 369h8M354 369h16M398 369h4M410 369h16M438 369h4M450 369h8M466 369h4M478 369h4M490 369h4M502 369h4M514 369h8M530 369h16M554 369h8M570 369h8M586 369h4M598 369h4M610 369h16M634 369h8M650 369h4M658 369h8M670 369h4M682 369h4M91 370h10M164 370h11M186 370h24M218 370h8M234 370h4M262 370h4M274 370h4M286 370h4M298 370h8M314 370h16M338 370h8M354 370h24M398 370h4M410 370h4M438 370h4M450 370h8M466 370h8M478 370h4M490 370h16M514 370h8M530 370h16M554 370h8M570 370h8M586 370h8M598 370h4M610 370h4M622 370h4M634 370h8M650 370h4M670 370h4M682 370h4M91 371h10M164 371h11M186 371h24M218 371h8M234 371h4M262 371h4M274 371h4M286 371h4M298 371h8M314 371h16M338 371h8M354 371h24M398 371h4M410 371h4M438 371h4M450 371h8M466 371h8M478 371h4M490 371h16M514 371h8M530 371h16M554 371h8M570 371h8M586 371h8M598 371h4M610 371h4M622 371h4M634 371h8M650 371h4M670 371h4M682 371h4M91 372h10M164 372h11M186 372h24M218 372h8M234 372h4M262 372h4M274 372h4M286 372h4M298 372h8M314 372h16M338 372h8M354 372h24M398 372h4M410 372h4M438 372h4M450 372h8M466 372h8M478 372h4M490 372h16M514 372h8M530 372h16M554 372h8M570 372h8M586 372h8M598 372h4M610 372h4M622 372h4M634 372h8M650 372h4M670 372h4M682 372h4M91 373h10M164 373h11M186 373h24M218 373h8M234 373h4M262 373h4M274 373h4M286 373h4M298 373h8M314 373h16M338 373h8M354 373h24M398 373h4M410 373h4M438 373h4M450 373h8M466 373h8M478 373h4M490 373h16M514 373h8M530 373h16M554 373h8M570 373h8M586 373h8M598 373h4M610 373h4M622 373h4M634 373h8M650 373h4M670 373h4M682 373h4M91 374h10M164 374h11M182 374h4M210 374h8M222 374h4M234 374h4M262 374h4M274 374h4M286 374h4M298 374h4M306 374h8M330 374h8M342 374h4M398 374h4M410 374h4M438 374h4M450 374h4M458 374h8M474 374h4M482 374h8M506 374h8M522 374h8M546 374h8M558 374h4M570 374h16M594 374h8M610 374h4M622 374h4M634 374h8M650 374h4M670 374h4M682 374h4M91 375h10M164 375h11M182 375h4M210 375h8M222 375h4M234 375h4M262 375h4M274 375h4M286 375h4M298 375h4M306 375h8M330 375h8M342 375h4M378 375h4M398 375h4M410 375h4M438 375h4M450 375h4M458 375h8M474 375h4M482 375h8M506 375h8M522 375h8M546 375h8M558 375h4M570 375h4M578 375h8M594 375h8M610 375h4M622 375h4M634 375h8M650 375h4M670 375h4M682 375h4M91 376h10M164 376h11M182 376h4M210 376h8M222 376h4M234 376h4M262 376h4M274 376h4M286 376h4M298 376h4M306 376h8M330 376h8M342 376h4M378 376h4M398 376h4M410 376h4M438 376h4M450 376h4M458 376h8M474 376h4M482 376h8M506 376h8M522 376h8M546 376h8M558 376h4M570 376h4M578 376h8M594 376h8M610 376h4M622 376h4M634 376h8M650 376h4M670 376h4M682 376h4M91 377h10M164 377h11M182 377h4M210 377h8M222 377h4M234 377h4M262 377h4M274 377h4M286 377h4M298 377h4M306 377h8M330 377h8M342 377h4M378 377h4M398 377h4M410 377h4M438 377h4M450 377h4M458 377h8M474 377h4M482 377h8M506 377h8M522 377h8M546 377h8M558 377h4M570 377h4M578 377h8M594 377h8M610 377h4M622 377h4M634 377h8M650 377h4M670 377h4M682 377h4M91 378h10M164 378h11M182 378h4M210 378h4M222 378h4M234 378h4M262 378h4M274 378h4M286 378h4M298 378h4M310 378h4M330 378h4M342 378h4M378 378h4M398 378h4M410 378h4M438 378h4M450 378h4M462 378h4M474 378h4M486 378h4M506 378h4M526 378h4M546 378h4M558 378h4M570 378h4M582 378h4M594 378h8M610 378h4M622 378h4M634 378h8M650 378h4M670 378h4M682 378h4M91 379h10M164 379h11M182 379h4M210 379h4M222 379h4M234 379h4M262 379h4M274 379h4M286 379h4M298 379h4M310 379h4M330 379h4M342 379h4M378 379h4M398 379h4M410 379h4M438 379h4M450 379h4M462 379h4M474 379h4M486 379h4M506 379h4M526 379h4M546 379h4M558 379h4M570 379h4M582 379h4M594 379h8M610 379h4M622 379h4M634 379h8M650 379h4M670 379h4M682 379h4M91 380h10M164 380h11M182 380h4M210 380h4M222 380h4M234 380h4M262 380h4M274 380h4M286 380h4M298 380h4M310 380h4M330 380h4M342 380h4M378 380h4M398 380h4M410 380h4M438 380h4M450 380h4M462 380h4M474 380h4M486 380h4M506 380h4M526 380h4M546 380h4M558 380h4M570 380h4M582 380h4M594 380h8M610 380h4M622 380h4M634 380h8M650 380h4M670 380h4M682 380h4M91 381h10M164 381h11M182 381h4M210 381h4M222 381h4M234 381h4M262 381h4M274 381h4M286 381h4M298 381h4M310 381h4M330 381h4M342 381h4M378 381h4M398 381h4M410 381h4M438 381h4M450 381h4M462 381h4M474 381h4M486 381h4M506 381h4M526 381h4M546 381h4M558 381h4M570 381h4M582 381h4M594 381h8M610 381h4M622 381h4M634 381h8M650 381h4M670 381h4M682 381h4M91 382h10M164 382h11M186 382h24M226 382h8M266 382h8M290 382h8M314 382h16M346 382h32M402 382h8M442 382h8M466 382h8M490 382h17M530 382h16M562 382h8M586 382h8M602 382h8M626 382h8M642 382h8M674 382h8M91 383h10M164 383h11M186 383h24M226 383h8M266 383h8M290 383h8M314 383h16M346 383h32M402 383h8M442 383h8M466 383h8M490 383h17M530 383h16M562 383h8M586 383h8M602 383h8M626 383h8M642 383h8M674 383h8M91 384h10M164 384h11M186 384h24M226 384h8M266 384h8M290 384h8M314 384h16M346 384h32M402 384h8M442 384h8M466 384h8M490 384h17M530 384h16M562 384h8M586 384h8M602 384h8M626 384h8M642 384h8M674 384h8M91 385h10M164 385h11M186 385h24M226 385h8M266 385h8M290 385h8M314 385h16M346 385h32M402 385h8M442 385h8M466 385h8M490 385h17M530 385h16M562 385h8M586 385h8M602 385h8M626 385h8M642 385h8M674 385h8M91 386h10M164 386h11M91 387h10M164 387h11M91 388h10M164 388h11M91 389h10M164 389h11M91 390h10M164 390h11M91 391h10M164 391h11M91 392h10M164 392h11M91 393h10M164 393h11M91 394h10M164 394h11M79 395h22M164 395h22M79 396h22M164 396h22M79 397h22M164 397h22M79 398h22M164 398h22M79 399h22M164 399h22M79 400h22M164 400h22M79 401h22M164 401h22M79 402h22M164 402h22M79 403h22M164 403h22M79 404h22M164 404h22M79 405h22M164 405h22M91 406h10M164 406h22M74 407h5M91 407h10M164 407h11M181 407h5M187 407h4M74 408h5M91 408h10M164 408h11M181 408h5M187 408h4M74 409h5M91 409h10M164 409h11M181 409h5M187 409h4M74 410h5M91 410h10M164 410h11M181 410h5M187 410h4M74 411h5M91 411h10M164 411h11M181 411h5M187 411h4M91 412h10M164 412h11M63 413h10M91 413h10M164 413h11M192 413h11M63 414h10M91 414h10M164 414h11M192 414h11M63 415h10M91 415h10M164 415h11M192 415h11M63 416h10M91 416h10M164 416h11M192 416h11M63 417h10M91 417h10M164 417h11M192 417h11M63 418h10M91 418h10M164 418h11M192 418h11M63 419h10M91 419h10M164 419h11M192 419h11M63 420h10M91 420h10M164 420h11M192 420h11M63 421h10M91 421h10M164 421h11M192 421h11M63 422h10M91 422h10M164 422h11M192 422h11M91 423h10M164 423h11M51 424h11M91 424h84M203 424h5M51 425h11M91 425h84M203 425h5M51 426h11M91 426h84M203 426h5M51 427h11M91 427h84M203 427h5M51 428h11M91 428h84M203 428h5M51 429h11M91 429h84M203 429h5M51 430h11M91 430h84M203 430h5M51 431h11M91 431h84M203 431h5M51 432h11M91 432h84M203 432h5M51 433h11M91 433h84M203 433h5M51 434h11M203 434h5M46 435h44M175 435h44M46 436h44M175 436h44M46 437h44M175 437h44M46 438h44M175 438h44M46 439h44M175 439h44M74 440h5M187 440h4M74 441h5M187 441h4M74 442h5M187 442h4M74 443h5M187 443h4M74 444h5M187 444h4M74 445h5M187 445h4M74 446h5M187 446h4M74 447h5M187 447h4M74 448h5M187 448h4M74 449h5M187 449h4M74 450h5M187 450h4M63 452h10M192 452h11M63 453h10M192 453h11M63 454h10M192 454h11M63 455h10M192 455h11M63 456h10M192 456h11" />
<path stroke="rgba(0,0,0,0.9294117647058824)" d="M135 107h1M135 108h1M135 109h1M135 110h1M135 111h1M135 112h1M135 113h1M135 114h1M135 115h1M135 116h1M135 117h1M135 118h1M135 119h1M135 120h1M135 121h1M135 122h1M135 123h1M135 124h1M135 125h1M135 126h1M135 127h1M135 128h1M135 129h1M135 130h1M135 131h1M135 132h1M135 133h1M135 134h1M135 135h1M135 136h1M135 137h1M135 138h1M135 139h1M135 140h1M163 164h1M163 165h1M163 166h1M163 167h1M163 168h1M191 407h1M191 408h1M191 409h1M191 410h1M191 411h1M219 435h1M219 436h1M219 437h1M219 438h1M219 439h1M191 441h1M191 442h1M191 443h1M191 444h1M191 445h1M191 446h1M191 447h1M191 448h1M191 449h1M191 450h1" />
<path stroke="rgba(0,0,0,0.5058823529411764)" d="M118 141h1M90 169h1" />
<path stroke="rgba(0,0,0,0.6431372549019608)" d="M119 141h10M136 141h11M91 169h10M164 169h11M208 424h1M208 425h1M208 426h1M208 427h1M208 428h1M208 429h1M208 430h1M208 431h1M208 432h1M208 433h1" />
<path stroke="rgba(0,0,0,0.8196078431372549)" d="M129 141h1M101 169h1" />
<path stroke="rgba(0,0,0,0.9764705882352941)" d="M135 141h1M163 169h1" />
<path stroke="rgba(0,0,0,0.7843137254901961)" d="M118 142h1M118 143h1M118 144h1M118 145h1M118 146h1M118 147h1M118 148h1M118 149h1M118 150h1M118 151h1M90 170h1M90 171h1M90 172h1M90 173h1M90 174h1M90 175h1M90 176h1M90 177h1M90 178h1M90 179h1M90 180h1M90 181h1M90 182h1M90 183h1M90 184h1M90 185h1M90 186h1M90 187h1M90 188h1M90 189h1M90 190h1M90 191h1M90 192h1M90 193h1M90 194h1M90 195h1M90 196h1M90 197h1M90 198h1M90 199h1M90 200h1M90 201h1M90 202h1M90 203h1M90 204h1M90 205h1M90 206h1M90 207h1M90 208h1M90 209h1M90 210h1M90 211h1M90 212h1M90 213h1M90 214h1M90 215h1M90 216h1M90 217h1M90 218h1M90 219h1M90 220h1M90 221h1M90 222h1M90 223h1M90 224h1M90 225h1M90 226h1M90 227h1M90 228h1M90 229h1M90 230h1M90 231h1M90 232h1M90 233h1M90 234h1M90 235h1M90 236h1M90 237h1M90 238h1M90 239h1M90 240h1M90 241h1M90 242h1M90 243h1M90 244h1M90 245h1M90 246h1M90 247h1M90 248h1M90 249h1M90 250h1M90 251h1M90 252h1M90 253h1M90 254h1M90 255h1M90 256h1M90 257h1M90 258h1M90 259h1M90 260h1M90 261h1M90 262h1M90 263h1M90 264h1M90 265h1M90 266h1M90 267h1M90 268h1M90 269h1M90 270h1M90 271h1M90 272h1M90 273h1M90 274h1M90 275h1M90 276h1M90 277h1M90 278h1M90 279h1M90 280h1M90 281h1M90 282h1M90 283h1M90 284h1M90 285h1M90 286h1M90 287h1M90 288h1M90 289h1M90 290h1M90 291h1M90 292h1M90 293h1M90 294h1M90 295h1M90 296h1M90 297h1M90 298h1M90 299h1M90 300h1M90 301h1M90 302h1M90 303h1M90 304h1M90 305h1M90 306h1M90 307h1M90 308h1M90 309h1M90 310h1M90 311h1M90 312h1M90 313h1M90 314h1M90 315h1M90 316h1M90 317h1M90 318h1M90 319h1M90 320h1M90 321h1M90 322h1M90 323h1M90 324h1M90 325h1M90 326h1M90 327h1M90 328h1M90 329h1M90 330h1M90 331h1M90 332h1M90 333h1M90 334h1M90 335h1M90 336h1M90 337h1M90 338h1M90 339h1M90 340h1M90 341h1M90 342h1M90 343h1M90 344h1M90 345h1M90 346h1M90 347h1M90 348h1M90 349h1M90 350h1M90 351h1M90 352h1M90 353h1M90 354h1M90 355h1M90 356h1M90 357h1M90 358h1M90 359h1M90 360h1M90 361h1M90 362h1M90 363h1M90 364h1M90 365h1M90 366h1M90 367h1M90 368h1M90 369h1M90 370h1M90 371h1M90 372h1M90 373h1M90 374h1M90 375h1M90 376h1M90 377h1M90 378h1M90 379h1M90 380h1M90 381h1M90 382h1M90 383h1M90 384h1M90 385h1M90 386h1M90 387h1M90 388h1M90 389h1M90 390h1M90 391h1M90 392h1M90 393h1M63 412h10M192 412h11M62 413h1M62 414h1M62 415h1M62 416h1M62 417h1M62 418h1M62 419h1M62 420h1M62 421h1M62 422h1M62 452h1M62 453h1M62 454h1M62 455h1M62 456h1" />
<path stroke="rgba(0,0,0,0.3568627450980392)" d="M107 152h11M147 152h5" />
<path stroke="#7f7f7f" d="M118 152h29M119 153h28M119 154h28M119 155h28M119 156h28M119 157h28M119 158h28M119 159h28M119 160h28M119 161h28M119 162h28M119 163h28M111 164h42M111 165h42M111 166h42M111 167h42M111 168h42M111 169h42M111 170h42M111 171h42M111 172h42M111 173h42M111 174h42M111 175h42M111 176h42M111 177h42M111 178h42M111 179h42M101 180h6M111 180h19M136 180h17M158 180h6M101 181h6M159 181h4M101 182h6M159 182h4M101 183h6M159 183h4M101 184h6M159 184h4M101 185h6M159 185h4M101 186h6M159 186h4M101 187h6M159 187h4M101 188h6M159 188h4M101 189h6M159 189h4M101 190h6M159 190h4M101 191h6M159 191h4M101 192h62M101 193h62M101 194h62M101 195h62M101 196h62M101 197h62M101 198h62M101 199h62M101 200h62M101 201h62M101 202h62M101 203h62M101 204h62M101 205h62M101 206h62M101 207h62M101 208h62M101 209h62M101 210h62M101 211h62M101 212h62M101 213h62M101 214h62M101 215h62M101 216h62M101 217h62M101 218h62M101 219h62M101 220h62M101 221h62M101 222h62M101 223h62M101 224h62M101 225h62M101 226h62M101 227h62M101 228h62M101 229h62M101 230h62M101 231h62M101 232h62M101 233h62M101 234h62M101 235h62M101 236h62M101 237h62M101 238h62M101 239h62M101 240h62M101 241h62M101 242h62M101 243h62M101 244h62M101 245h62M101 246h62M101 247h62M101 248h62M101 249h62M101 250h62M101 251h62M101 252h62M101 253h62M101 254h62M101 255h62M101 256h62M101 257h62M101 258h62M101 259h62M101 260h62M101 261h62M101 262h62M101 263h62M101 264h62M101 265h62M101 266h62M101 267h62M101 268h62M101 269h62M101 270h62M101 271h62M101 272h62M101 273h62M101 274h62M101 275h62M101 276h62M101 277h62M101 278h62M101 279h62M101 280h62M101 281h62M101 282h62M101 283h62M101 284h62M101 285h62M101 286h62M101 287h62M101 288h62M101 289h62M101 290h62M101 291h62M101 292h62M101 293h62M101 294h62M101 295h62M101 296h62M101 297h62M101 298h62M101 299h62M101 300h62M101 301h62M101 302h62M101 303h62M101 304h62M101 305h62M101 306h62M101 307h62M101 308h62M101 309h62M101 310h62M101 311h62M101 312h62M101 313h62M101 314h62M101 315h62M101 316h62M101 317h62M101 318h62M101 319h62M101 320h62M101 321h62M101 322h62M101 323h62M101 324h62M101 325h62M101 326h62M101 327h62M101 328h62M101 329h62M101 330h62M101 331h62M101 332h62M101 333h62M101 334h62M101 335h62M101 336h62M101 337h62M101 338h62M101 339h62M101 340h62M101 341h62M101 342h62M101 343h62M101 344h62M101 345h62M101 346h62M101 347h62M101 348h62M101 349h62M101 350h62M101 351h62M101 352h62M101 353h62M101 354h62M101 355h62M101 356h62M101 357h62M101 358h62M101 359h62M101 360h62M101 361h62M101 362h62M101 363h62M101 364h62M101 365h62M101 366h62M101 367h62M101 368h62M101 369h62M101 370h62M101 371h62M101 372h62M101 373h62M101 374h62M101 375h62M101 376h62M101 377h62M101 378h62M101 379h62M101 380h62M101 381h62M101 382h62M101 383h62M101 384h62M101 385h62M101 386h62M101 387h62M101 388h62M101 389h62M101 390h62M101 391h62M101 392h62M101 393h62M101 394h62M101 395h62M101 396h62M101 397h62M101 398h62M101 399h62M101 400h62M101 401h62M101 402h62M101 403h62M101 404h62M101 405h62M101 406h62M79 407h11M101 407h62M175 407h5M79 408h11M101 408h62M175 408h5M79 409h11M101 409h62M175 409h5M79 410h11M101 410h62M175 410h5M79 411h11M101 411h62M175 411h5M79 412h11M101 412h62M175 412h5M74 413h16M101 413h62M175 413h16M74 414h16M101 414h62M175 414h16M74 415h16M101 415h62M175 415h16M74 416h16M101 416h62M175 416h16M74 417h16M101 417h62M175 417h16M74 418h16M101 418h62M175 418h16M74 419h16M101 419h62M175 419h16M74 420h16M101 420h62M175 420h16M74 421h16M101 421h62M175 421h16M74 422h16M101 422h62M175 422h16M74 423h16M175 423h16M63 424h27M175 424h28M63 425h27M175 425h28M63 426h27M175 426h28M63 427h27M175 427h28M63 428h27M175 428h28M63 429h27M175 429h28M63 430h27M175 430h28M63 431h27M175 431h28M63 432h27M175 432h28M63 433h27M175 433h28" />
<path stroke="rgba(0,0,0,0.29411764705882354)" d="M152 152h1" />
<path stroke="rgba(0,0,0,0.17647058823529413)" d="M153 152h5" />
<path stroke="rgba(0,0,0,0.011764705882352941)" d="M158 152h1M197 220h23M197 221h23M197 222h11M269 226h8M269 227h8M269 228h8M269 229h8M269 230h8M187 395h5M187 396h5M187 397h5M187 398h5M187 399h5M187 400h5M192 406h5" />
<path stroke="#7e7e7e" d="M118 153h1M118 154h1M118 155h1M118 156h1M118 157h1M118 158h1M118 159h1M118 160h1M118 161h1M118 162h1M130 180h5" />
<path stroke="rgba(0,0,0,0.03529411764705882)" d="M158 153h1M158 154h1M158 155h1M158 156h1M158 157h1M158 158h1M158 159h1M158 160h1M158 161h1M158 162h1M101 163h1M269 232h7M269 233h5M269 234h3M269 235h1" />
<path stroke="rgba(0,0,0,0.07058823529411765)" d="M102 163h5M159 163h4M79 394h11" />
<path stroke="#090909" d="M107 163h11M147 163h3M107 191h11M147 191h4" />
<path stroke="#808080" d="M118 163h1" />
<path stroke="rgba(0,0,0,0.10196078431372549)" d="M158 163h1" />
<path stroke="rgba(0,0,0,0.06666666666666667)" d="M163 163h1" />
<path stroke="#040404" d="M158 164h1M158 165h1M158 166h1M158 167h1M158 168h1M158 173h1M158 174h1M186 407h1M186 408h1M186 409h1M186 410h1M186 411h1" />
<path stroke="#7c7c7c" d="M135 180h1" />
<path stroke="#161616" d="M152 181h1" />
<path stroke="#7a7a7a" d="M158 181h1M158 182h1M158 183h1M158 184h1M158 185h1M158 186h1M158 187h1M158 188h1M158 189h1M158 190h1M180 412h1" />
<path stroke="#767676" d="M163 181h1M163 182h1M163 183h1M163 184h1M163 185h1M163 186h1M163 187h1M163 188h1M163 189h1M163 190h1M163 191h1M163 192h1M163 193h1M163 194h1M163 195h1M163 196h1M163 197h1M163 198h1M163 199h1M163 200h1M163 201h1M163 202h1M163 203h1M163 204h1M163 205h1M163 206h1M163 207h1M163 208h1M163 209h1M163 210h1M163 211h1M163 212h1M163 213h1M163 214h1M163 215h1M163 216h1M163 217h1M163 218h1M163 219h1M163 220h1M163 221h1M163 222h1M163 223h1M163 224h1M163 225h1M163 226h1M163 227h1M163 228h1M163 229h1M163 230h1M163 231h1M163 232h1M163 233h1M163 234h1M163 235h1M163 236h1M163 237h1M163 238h1M163 239h1M163 240h1M163 241h1M163 242h1M163 243h1M163 244h1M163 245h1M163 246h1M163 247h1M163 248h1M163 249h1M163 250h1M163 251h1M163 252h1M163 253h1M163 254h1M163 255h1M163 256h1M163 257h1M163 258h1M163 259h1M163 260h1M163 261h1M163 262h1M163 263h1M163 264h1M163 265h1M163 266h1M163 267h1M163 268h1M163 269h1M163 270h1M163 271h1M163 272h1M163 273h1M163 274h1M163 275h1M163 276h1M163 277h1M163 278h1M163 279h1M163 280h1M163 281h1M163 282h1M163 283h1M163 284h1M163 285h1M163 286h1M163 287h1M163 288h1M163 289h1M163 290h1M163 291h1M163 292h1M163 293h1M163 294h1M163 295h1M163 296h1M163 297h1M163 298h1M163 299h1M163 300h1M163 301h1M163 302h1M163 303h1M163 304h1M163 305h1M163 306h1M163 307h1M163 308h1M163 309h1M163 310h1M163 311h1M163 312h1M163 313h1M163 314h1M163 315h1M163 316h1M163 317h1M163 318h1M163 319h1M163 320h1M163 321h1M163 322h1M163 323h1M163 324h1M163 325h1M163 326h1M163 327h1M163 328h1M163 329h1M163 330h1M163 331h1M163 332h1M163 333h1M163 334h1M163 335h1M163 336h1M163 337h1M163 338h1M163 339h1M163 340h1M163 341h1M163 342h1M163 343h1M163 344h1M163 345h1M163 346h1M163 347h1M163 348h1M163 349h1M163 350h1M163 351h1M163 352h1M163 353h1M163 354h1M163 355h1M163 356h1M163 357h1M163 358h1M163 359h1M163 360h1M163 361h1M163 362h1M163 363h1M163 364h1M163 365h1M163 366h1M163 367h1M163 368h1M163 369h1M163 370h1M163 371h1M163 372h1M163 373h1M163 374h1M163 375h1M163 376h1M163 377h1M163 378h1M163 379h1M163 380h1M163 381h1M163 382h1M163 383h1M163 384h1M163 385h1M163 386h1M163 387h1M163 388h1M163 389h1M163 390h1M163 391h1M163 392h1M163 393h1M163 394h1M163 395h1M163 396h1M163 397h1M163 398h1M163 399h1M163 400h1M163 401h1M163 402h1M163 403h1M163 404h1M163 405h1M163 406h1M163 407h1M163 408h1M163 409h1M163 410h1M163 411h1M163 412h1M163 413h1M191 413h1M163 414h1M191 414h1M163 415h1M191 415h1M163 416h1M191 416h1M163 417h1M191 417h1M163 418h1M191 418h1M163 419h1M191 419h1M163 420h1M191 420h1M163 421h1M191 421h1M163 422h1M191 422h1" />
<path stroke="#0b0b0b" d="M118 191h11M136 191h11" />
<path stroke="#0d0d0d" d="M129 191h1" />
<path stroke="#0e0e0e" d="M130 191h6" />
<path stroke="#434343" d="M156 191h2" />
<path stroke="#7b7b7b" d="M158 191h1M191 423h1" />
<path stroke="rgba(0,0,0,0.00392156862745098)" d="M192 214h28M192 215h28M192 216h28M192 217h28M192 218h28M192 219h28M181 220h5M232 220h76M181 221h5M232 221h75M181 222h5M261 222h42M181 223h5M264 223h33M269 224h24M269 225h23M175 226h5M175 227h5M175 228h5M175 229h5M175 230h5M175 231h5M187 401h5M187 402h5M187 403h5M187 404h5M187 405h5M192 407h11M192 408h11M252 408h5M192 409h11M252 409h8M192 410h11M251 410h20M192 411h11M251 411h20M282 412h23M344 412h24M451 412h33M583 412h23M282 413h22M344 413h28M452 413h44M583 413h21M282 414h22M344 414h28M452 414h56M583 414h19M282 415h22M344 415h28M452 415h56M566 415h36M282 416h22M344 416h28M452 416h56M564 416h38M282 417h22M344 417h28M452 417h56M564 417h38" />
<path stroke="rgba(0,0,0,0.00784313725490196)" d="M186 220h11M220 220h12M186 221h11M220 221h12M186 222h11M186 223h11M175 232h5M203 409h23M301 409h11M203 410h23M271 410h49M608 410h1M203 411h23M271 411h68M453 411h19M604 411h4" />
<path stroke="rgba(0,0,0,0.01568627450980392)" d="M277 226h13M277 227h12M277 228h11M277 229h9M277 230h6M269 231h7" />
<path stroke="rgba(0,0,0,0.0196078431372549)" d="M276 231h3" />
<path stroke="#d50000" d="M194 294h16M226 294h24M274 294h16M306 294h24M194 295h16M226 295h24M274 295h16M306 295h24M194 296h16M226 296h24M274 296h16M306 296h24M194 297h16M226 297h24M274 297h16M306 297h24M194 298h16M226 298h24M274 298h16M306 298h24M194 299h16M226 299h24M274 299h16M306 299h24M194 300h16M226 300h24M274 300h16M306 300h24M194 301h16M226 301h24M274 301h16M306 301h24M186 302h8M210 302h8M226 302h8M250 302h8M266 302h8M290 302h8M306 302h8M330 302h8M186 303h8M210 303h8M226 303h8M250 303h8M266 303h8M290 303h8M306 303h8M330 303h8M186 304h8M210 304h8M226 304h8M250 304h8M266 304h8M290 304h8M306 304h8M330 304h8M186 305h8M210 305h8M226 305h8M250 305h8M266 305h8M290 305h8M306 305h8M330 305h8M186 306h8M210 306h8M226 306h8M250 306h8M266 306h8M290 306h8M306 306h8M330 306h8M186 307h8M210 307h8M226 307h8M250 307h8M266 307h8M290 307h8M306 307h8M330 307h8M186 308h8M210 308h8M226 308h8M250 308h8M266 308h8M290 308h8M306 308h8M330 308h8M186 309h8M210 309h8M226 309h8M250 309h8M266 309h8M290 309h8M306 309h8M330 309h8M186 310h8M226 310h24M266 310h32M306 310h24M186 311h8M226 311h24M266 311h32M306 311h24M186 312h8M226 312h24M266 312h32M306 312h24M186 313h8M226 313h24M266 313h32M306 313h24M186 314h8M226 314h24M266 314h32M306 314h24M186 315h8M226 315h24M266 315h32M306 315h24M186 316h8M226 316h24M266 316h32M306 316h24M186 317h8M226 317h24M266 317h32M306 317h24M186 318h8M210 318h8M226 318h8M242 318h8M266 318h8M290 318h8M306 318h8M330 318h8M186 319h8M210 319h8M226 319h8M242 319h8M266 319h8M290 319h8M306 319h8M330 319h8M186 320h8M210 320h8M226 320h8M242 320h8M266 320h8M290 320h8M306 320h8M330 320h8M186 321h8M210 321h8M226 321h8M242 321h8M266 321h8M290 321h8M306 321h8M330 321h8M186 322h8M210 322h8M226 322h8M242 322h8M266 322h8M290 322h8M306 322h8M330 322h8M186 323h8M210 323h8M226 323h8M242 323h8M266 323h8M290 323h8M306 323h8M330 323h8M186 324h8M210 324h8M226 324h8M242 324h8M266 324h8M290 324h8M306 324h8M330 324h8M186 325h8M210 325h8M226 325h8M242 325h8M266 325h8M290 325h8M306 325h8M330 325h8M194 326h16M226 326h8M250 326h8M266 326h8M290 326h8M306 326h24M194 327h16M226 327h8M250 327h8M266 327h8M290 327h8M306 327h24M194 328h16M226 328h8M250 328h8M266 328h8M290 328h8M306 328h24M194 329h16M226 329h8M250 329h8M266 329h8M290 329h8M306 329h24M194 330h16M226 330h8M250 330h8M266 330h8M290 330h8M306 330h24M194 331h16M226 331h8M250 331h8M266 331h8M290 331h8M306 331h24M194 332h16M226 332h8M250 332h8M266 332h8M290 332h8M306 332h24M194 333h16M226 333h8M250 333h8M266 333h8M290 333h8M306 333h24M194 342h24M226 342h24M274 342h16M314 342h16M346 342h32M402 342h24M442 342h24M490 342h16M530 342h16M562 342h24M610 342h16M642 342h8M674 342h8M194 343h24M226 343h24M274 343h16M314 343h16M346 343h32M402 343h24M442 343h24M490 343h16M530 343h16M562 343h24M610 343h16M642 343h8M674 343h8M194 344h24M226 344h24M274 344h16M314 344h16M346 344h32M402 344h24M442 344h24M490 344h16M530 344h16M562 344h24M610 344h16M642 344h8M674 344h8M194 345h24M226 345h24M274 345h16M314 345h16M346 345h32M402 345h24M442 345h24M490 345h16M530 345h16M562 345h24M610 345h16M642 345h8M674 345h8M194 346h24M226 346h24M274 346h16M314 346h16M346 346h32M402 346h24M442 346h24M490 346h16M530 346h16M562 346h24M610 346h16M642 346h8M674 346h8M194 347h24M226 347h24M274 347h16M314 347h16M346 347h32M402 347h24M442 347h24M490 347h16M530 347h16M562 347h24M610 347h16M642 347h8M674 347h8M194 348h24M226 348h24M274 348h16M314 348h16M346 348h32M402 348h24M442 348h24M490 348h16M530 348h16M562 348h24M610 348h16M642 348h8M674 348h8M194 349h24M226 349h24M274 349h16M314 349h16M346 349h32M402 349h24M442 349h24M490 349h16M530 349h16M562 349h24M610 349h16M642 349h8M674 349h8M186 350h8M226 350h8M250 350h8M266 350h8M290 350h8M306 350h8M330 350h8M346 350h8M402 350h8M426 350h8M442 350h8M466 350h8M482 350h8M506 350h8M522 350h8M562 350h8M586 350h8M602 350h8M626 350h8M642 350h16M666 350h16M186 351h8M226 351h8M250 351h8M266 351h8M290 351h8M306 351h8M330 351h8M346 351h8M402 351h8M426 351h8M442 351h8M466 351h8M482 351h8M506 351h8M522 351h8M562 351h8M586 351h8M602 351h8M626 351h8M642 351h16M666 351h16M186 352h8M226 352h8M250 352h8M266 352h8M290 352h8M306 352h8M330 352h8M346 352h8M402 352h8M426 352h8M442 352h8M466 352h8M482 352h8M506 352h8M522 352h8M562 352h8M586 352h8M602 352h8M626 352h8M642 352h16M666 352h16M186 353h8M226 353h8M250 353h8M266 353h8M290 353h8M306 353h8M330 353h8M346 353h8M402 353h8M426 353h8M442 353h8M466 353h8M482 353h8M506 353h8M522 353h8M562 353h8M586 353h8M602 353h8M626 353h8M642 353h16M666 353h16M186 354h8M226 354h8M250 354h8M266 354h8M290 354h8M306 354h8M330 354h8M346 354h8M402 354h8M426 354h8M442 354h8M466 354h8M482 354h8M506 354h8M522 354h8M562 354h8M586 354h8M602 354h8M626 354h8M642 354h16M666 354h16M186 355h8M226 355h8M250 355h8M266 355h8M290 355h8M306 355h8M330 355h8M346 355h8M402 355h8M426 355h8M442 355h8M466 355h8M482 355h8M506 355h8M522 355h8M562 355h8M586 355h8M602 355h8M626 355h8M642 355h16M666 355h16M186 356h8M226 356h8M250 356h8M266 356h8M290 356h8M306 356h8M330 356h8M346 356h8M402 356h8M426 356h8M442 356h8M466 356h8M482 356h8M506 356h8M522 356h8M562 356h8M586 356h8M602 356h8M626 356h8M642 356h16M666 356h16M186 357h8M226 357h8M250 357h8M266 357h8M290 357h8M306 357h8M330 357h8M346 357h8M402 357h8M426 357h8M442 357h8M466 357h8M482 357h8M506 357h8M522 357h8M562 357h8M586 357h8M602 357h8M626 357h8M642 357h16M666 357h16M194 358h16M226 358h24M266 358h32M306 358h8M346 358h24M402 358h24M442 358h24M482 358h8M506 358h8M522 358h8M538 358h16M562 358h24M602 358h32M642 358h8M658 358h8M674 358h8M194 359h16M226 359h24M266 359h32M306 359h8M346 359h24M402 359h24M442 359h24M482 359h8M506 359h8M522 359h8M538 359h16M562 359h24M602 359h32M642 359h8M658 359h8M674 359h8M194 360h16M226 360h24M266 360h32M306 360h8M346 360h24M402 360h24M442 360h24M482 360h8M506 360h8M522 360h8M538 360h16M562 360h24M602 360h32M642 360h8M658 360h8M674 360h8M194 361h16M226 361h24M266 361h32M306 361h8M346 361h24M402 361h24M442 361h24M482 361h8M506 361h8M522 361h8M538 361h16M562 361h24M602 361h32M642 361h8M658 361h8M674 361h8M194 362h16M226 362h24M266 362h32M306 362h8M346 362h24M402 362h24M442 362h24M482 362h8M506 362h8M522 362h8M538 362h16M562 362h24M602 362h32M642 362h8M658 362h8M674 362h8M194 363h16M226 363h24M266 363h32M306 363h8M346 363h24M402 363h24M442 363h24M482 363h8M506 363h8M522 363h8M538 363h16M562 363h24M602 363h32M642 363h8M658 363h8M674 363h8M194 364h16M226 364h24M266 364h32M306 364h8M346 364h24M402 364h24M442 364h24M482 364h8M506 364h8M522 364h8M538 364h16M562 364h24M602 364h32M642 364h8M658 364h8M674 364h8M194 365h16M226 365h24M266 365h32M306 365h8M346 365h24M402 365h24M442 365h24M482 365h8M506 365h8M522 365h8M538 365h16M562 365h24M602 365h32M642 365h8M658 365h8M674 365h8M210 366h8M226 366h8M266 366h8M290 366h8M306 366h8M330 366h8M346 366h8M402 366h8M442 366h8M458 366h8M482 366h8M506 366h8M522 366h8M546 366h8M562 366h8M578 366h8M602 366h8M626 366h8M642 366h8M674 366h8M210 367h8M226 367h8M266 367h8M290 367h8M306 367h8M330 367h8M346 367h8M402 367h8M442 367h8M458 367h8M482 367h8M506 367h8M522 367h8M546 367h8M562 367h8M578 367h8M602 367h8M626 367h8M642 367h8M674 367h8M210 368h8M226 368h8M266 368h8M290 368h8M306 368h8M330 368h8M346 368h8M402 368h8M442 368h8M458 368h8M482 368h8M506 368h8M522 368h8M546 368h8M562 368h8M578 368h8M602 368h8M626 368h8M642 368h8M674 368h8M210 369h8M226 369h8M266 369h8M290 369h8M306 369h8M330 369h8M346 369h8M402 369h8M442 369h8M458 369h8M482 369h8M506 369h8M522 369h8M546 369h8M562 369h8M578 369h8M602 369h8M626 369h8M642 369h8M674 369h8M210 370h8M226 370h8M266 370h8M290 370h8M306 370h8M330 370h8M346 370h8M402 370h8M442 370h8M458 370h8M482 370h8M506 370h8M522 370h8M546 370h8M562 370h8M578 370h8M602 370h8M626 370h8M642 370h8M674 370h8M210 371h8M226 371h8M266 371h8M290 371h8M306 371h8M330 371h8M346 371h8M402 371h8M442 371h8M458 371h8M482 371h8M506 371h8M522 371h8M546 371h8M562 371h8M578 371h8M602 371h8M626 371h8M642 371h8M674 371h8M210 372h8M226 372h8M266 372h8M290 372h8M306 372h8M330 372h8M346 372h8M402 372h8M442 372h8M458 372h8M482 372h8M506 372h8M522 372h8M546 372h8M562 372h8M578 372h8M602 372h8M626 372h8M642 372h8M674 372h8M210 373h8M226 373h8M266 373h8M290 373h8M306 373h8M330 373h8M346 373h8M402 373h8M442 373h8M458 373h8M482 373h8M506 373h8M522 373h8M546 373h8M562 373h8M578 373h8M602 373h8M626 373h8M642 373h8M674 373h8M186 374h24M226 374h8M266 374h8M290 374h8M314 374h16M346 374h32M402 374h8M442 374h8M466 374h8M490 374h16M530 374h16M562 374h8M586 374h8M602 374h8M626 374h8M642 374h8M674 374h8M186 375h24M226 375h8M266 375h8M290 375h8M314 375h16M346 375h32M402 375h8M442 375h8M466 375h8M490 375h16M530 375h16M562 375h8M586 375h8M602 375h8M626 375h8M642 375h8M674 375h8M186 376h24M226 376h8M266 376h8M290 376h8M314 376h16M346 376h32M402 376h8M442 376h8M466 376h8M490 376h16M530 376h16M562 376h8M586 376h8M602 376h8M626 376h8M642 376h8M674 376h8M186 377h24M226 377h8M266 377h8M290 377h8M314 377h16M346 377h32M402 377h8M442 377h8M466 377h8M490 377h16M530 377h16M562 377h8M586 377h8M602 377h8M626 377h8M642 377h8M674 377h8M186 378h24M226 378h8M266 378h8M290 378h8M314 378h16M346 378h32M402 378h8M442 378h8M466 378h8M490 378h16M530 378h16M562 378h8M586 378h8M602 378h8M626 378h8M642 378h8M674 378h8M186 379h24M226 379h8M266 379h8M290 379h8M314 379h16M346 379h32M402 379h8M442 379h8M466 379h8M490 379h16M530 379h16M562 379h8M586 379h8M602 379h8M626 379h8M642 379h8M674 379h8M186 380h24M226 380h8M266 380h8M290 380h8M314 380h16M346 380h32M402 380h8M442 380h8M466 380h8M490 380h16M530 380h16M562 380h8M586 380h8M602 380h8M626 380h8M642 380h8M674 380h8M186 381h24M226 381h8M266 381h8M290 381h8M314 381h16M346 381h32M402 381h8M442 381h8M466 381h8M490 381h16M530 381h16M562 381h8M586 381h8M602 381h8M626 381h8M642 381h8M674 381h8" />
<path stroke="rgba(0,0,0,0.8)" d="M90 394h1" />
<path stroke="rgba(0,0,0,0.047058823529411764)" d="M186 395h1M186 396h1M186 397h1M186 398h1M186 399h1M186 400h1" />
<path stroke="rgba(0,0,0,0.0392156862745098)" d="M186 401h1M186 402h1M186 403h1M186 404h1M186 405h1" />
<path stroke="rgba(0,0,0,0.10980392156862745)" d="M73 406h1M45 434h1" />
<path stroke="rgba(0,0,0,0.21568627450980393)" d="M74 406h5M46 434h5M209 434h10M46 440h27M192 440h27" />
<path stroke="#1b1b1b" d="M79 406h11M90 407h1M90 408h1M90 409h1M90 410h1M90 411h1M90 412h1M90 413h1M90 414h1M90 415h1M90 416h1M90 417h1M90 418h1M90 419h1M90 420h1M90 421h1M90 422h1M90 423h1M90 424h1M90 425h1M90 426h1M90 427h1M90 428h1M90 429h1M90 430h1M90 431h1M90 432h1M90 433h1" />
<path stroke="#060606" d="M90 406h1" />
<path stroke="rgba(4,4,4,0.24705882352941178)" d="M186 406h1" />
<path stroke="rgba(0,0,0,0.2196078431372549)" d="M187 406h4" />
<path stroke="rgba(0,0,0,0.20392156862745098)" d="M191 406h1" />
<path stroke="#686868" d="M180 407h1M180 408h1M180 409h1M180 410h1M180 411h1" />
<path stroke="rgba(0,0,0,0.615686274509804)" d="M62 412h1" />
<path stroke="rgba(56,56,56,0.8901960784313725)" d="M73 412h1M62 423h1" />
<path stroke="#646464" d="M74 412h5M187 412h4M62 424h1M62 425h1M62 426h1M62 427h1M62 428h1M62 429h1M62 430h1M62 431h1M62 432h1M62 433h1M63 434h27M175 434h28" />
<path stroke="#717171" d="M181 412h5" />
<path stroke="#656565" d="M186 412h1" />
<path stroke="rgba(94,94,94,0.984313725490196)" d="M191 412h1" />
<path stroke="#404040" d="M73 413h1M73 414h1M73 415h1M73 416h1M73 417h1M73 418h1M73 419h1M73 420h1M73 421h1M73 422h1M63 423h10M102 423h16M147 423h16M192 423h11" />
<path stroke="#5f5f5f" d="M73 423h1" />
<path stroke="#202020" d="M101 423h1" />
<path stroke="#4d4d4d" d="M118 423h1" />
<path stroke="#505050" d="M119 423h10M136 423h11" />
<path stroke="#595959" d="M129 423h1" />
<path stroke="#616161" d="M130 423h5" />
<path stroke="#606060" d="M135 423h1" />
<path stroke="#3b3b3b" d="M163 423h1" />
<path stroke="rgba(0,0,0,0.3215686274509804)" d="M208 423h1" />
<path stroke="#4e4e4e" d="M62 434h1" />
<path stroke="#36161b" d="M90 434h1" />
<path stroke="#2a0108" d="M91 434h84" />
<path stroke="rgba(0,0,0,0.7215686274509804)" d="M208 434h1" />
<path stroke="rgba(0,0,0,0.2)" d="M219 434h1M219 440h1" />
<path stroke="#9a031c" d="M90 435h1M90 436h1M90 437h1M90 438h1M90 439h1" />
<path stroke="#c40424" d="M91 435h84M91 436h84M91 437h84M91 438h84M91 439h84M91 440h16M130 440h5M159 440h16M91 441h16M130 441h5M159 441h16M91 442h16M130 442h5M159 442h16M91 443h16M130 443h5M159 443h16M91 444h16M130 444h5M159 444h16M91 445h16M130 445h5M159 445h16M91 446h16M130 446h5M159 446h16M91 447h16M130 447h5M159 447h16M91 448h16M130 448h5M159 448h16M91 449h16M130 449h5M159 449h16M91 450h16M130 450h5M159 450h16M102 451h5M130 451h5M159 451h4M102 452h16M130 452h5M147 452h16M102 453h16M130 453h5M147 453h16M102 454h16M130 454h5M147 454h16M102 455h16M130 455h5M147 455h16M102 456h16M130 456h5M147 456h16M119 463h10M136 463h11M119 464h10M136 464h11M119 465h10M136 465h11M119 466h10M136 466h11M119 467h10M136 467h11" />
<path stroke="rgba(0,0,0,0.10588235294117647)" d="M45 440h1" />
<path stroke="rgba(0,0,0,0.6078431372549019)" d="M73 440h1" />
<path stroke="#c8641f" d="M79 440h11M175 440h5" />
<path stroke="#c51823" d="M90 440h1" />
<path stroke="#f26526" d="M107 440h22M136 440h16M118 452h1M118 453h1M118 454h1M118 455h1M118 456h1M119 468h10M136 468h11" />
<path stroke="#db3425" d="M129 440h1M153 440h5M119 462h10M136 462h11" />
<path stroke="#c70b24" d="M135 440h1" />
<path stroke="#ea5326" d="M152 440h1" />
<path stroke="#c60724" d="M158 440h1" />
<path stroke="#a55219" d="M180 440h1" />
<path stroke="#64310f" d="M181 440h5" />
<path stroke="#070301" d="M186 440h1" />
<path stroke="rgba(0,0,0,0.9450980392156862)" d="M191 440h1" />
<path stroke="#ff7f27" d="M79 441h11M107 441h22M136 441h16M175 441h5M79 442h11M107 442h22M136 442h16M175 442h5M79 443h11M107 443h22M136 443h16M175 443h5M79 444h11M107 444h22M136 444h16M175 444h5M79 445h11M107 445h22M136 445h16M175 445h5M79 446h11M107 446h22M136 446h16M175 446h5M79 447h11M107 447h22M136 447h16M175 447h5M79 448h11M107 448h22M136 448h16M175 448h5M79 449h11M107 449h22M136 449h16M175 449h5M79 450h11M107 450h22M136 450h16M175 450h5M119 451h10M136 451h11M91 452h10M119 452h10M136 452h11M164 452h11M91 453h10M119 453h10M136 453h11M164 453h11M91 454h10M119 454h10M136 454h11M164 454h11M91 455h10M119 455h10M136 455h11M164 455h11M91 456h10M119 456h10M136 456h11M164 456h11M107 463h11M130 463h5M147 463h5M107 464h11M130 464h5M147 464h5M107 465h11M130 465h5M147 465h5M107 466h11M130 466h5M147 466h5M107 467h11M130 467h5M147 467h5M130 468h5M119 469h28M119 470h28M119 471h28M119 472h28M119 473h28M119 474h28M119 475h28M119 476h28M119 477h28M119 478h28M130 479h5M130 480h5M130 481h5M130 482h5M130 483h5M130 484h5" />
<path stroke="#d11e25" d="M90 441h1M90 442h1M90 443h1M90 444h1M90 445h1M90 446h1M90 447h1M90 448h1M90 449h1M90 450h1M118 463h1M118 464h1M118 465h1M118 466h1M118 467h1" />
<path stroke="#e14125" d="M129 441h1M153 441h5M129 442h1M153 442h5M129 443h1M153 443h5M129 444h1M153 444h5M129 445h1M153 445h5M129 446h1M153 446h5M129 447h1M153 447h5M129 448h1M153 448h5M129 449h1M153 449h5M129 450h1M153 450h5M91 451h10M107 451h11M129 451h1M147 451h5M164 451h11M101 452h1M129 452h1M101 453h1M129 453h1M101 454h1M129 454h1M101 455h1M129 455h1M101 456h1M129 456h1M107 457h45M107 458h45M107 459h45M107 460h45M107 461h45M129 462h1M129 463h1M129 464h1M129 465h1M129 466h1M129 467h1" />
<path stroke="#c80d24" d="M135 441h1M135 442h1M135 443h1M135 444h1M135 445h1M135 446h1M135 447h1M135 448h1M135 449h1M135 450h1M135 451h1M135 452h1M163 452h1M135 453h1M163 453h1M135 454h1M163 454h1M135 455h1M163 455h1M135 456h1M163 456h1" />
<path stroke="#f46926" d="M152 441h1M152 442h1M152 443h1M152 444h1M152 445h1M152 446h1M152 447h1M152 448h1M152 449h1M152 450h1" />
<path stroke="#c60824" d="M158 441h1M158 442h1M158 443h1M158 444h1M158 445h1M158 446h1M158 447h1M158 448h1M158 449h1M158 450h1M163 451h1" />
<path stroke="#d26820" d="M180 441h1M180 442h1M180 443h1M180 444h1M180 445h1M180 446h1M180 447h1M180 448h1M180 449h1M180 450h1" />
<path stroke="#803f13" d="M181 441h5M181 442h5M181 443h5M181 444h5M181 445h5M181 446h5M181 447h5M181 448h5M181 449h5M181 450h5" />
<path stroke="#090401" d="M186 441h1M186 442h1M186 443h1M186 444h1M186 445h1M186 446h1M186 447h1M186 448h1M186 449h1M186 450h1" />
<path stroke="rgba(0,0,0,0.396078431372549)" d="M62 451h1" />
<path stroke="rgba(85,80,0,0.7490196078431373)" d="M73 451h1" />
<path stroke="#7f7900" d="M74 451h5M187 451h4M73 452h1M73 453h1M73 454h1M73 455h1M73 456h1" />
<path stroke="#ffa41a" d="M79 451h11M175 451h5" />
<path stroke="#e85723" d="M90 451h1" />
<path stroke="#d32325" d="M101 451h1" />
<path stroke="#f97227" d="M118 451h1" />
<path stroke="#dc3725" d="M152 451h1" />
<path stroke="#d22224" d="M153 451h5" />
<path stroke="#c50624" d="M158 451h1" />
<path stroke="#e99c16" d="M180 451h1" />
<path stroke="#bf8e0d" d="M181 451h5" />
<path stroke="#847a01" d="M186 451h1" />
<path stroke="rgba(123,116,0,0.9647058823529412)" d="M191 451h1" />
<path stroke="#fff200" d="M74 452h5M187 452h4M74 453h5M187 453h4M74 454h5M187 454h4M74 455h5M187 455h4M74 456h5M187 456h4M74 457h5M187 457h4M74 458h5M187 458h4M74 459h5M187 459h4M74 460h5M187 460h4M74 461h5M187 461h4M74 462h5M187 462h4M74 463h5M91 463h16M159 463h16M187 463h4M74 464h5M91 464h16M159 464h16M187 464h4M74 465h5M91 465h16M159 465h16M187 465h4M74 466h5M91 466h16M159 466h16M187 466h4M74 467h5M91 467h16M159 467h16M187 467h4M102 468h5M159 468h4M79 469h11M102 469h16M147 469h16M175 469h5M79 470h11M102 470h16M147 470h16M175 470h5M79 471h11M102 471h16M147 471h16M175 471h5M79 472h11M102 472h16M147 472h16M175 472h5M79 473h11M102 473h16M147 473h16M175 473h5M79 474h11M102 474h16M147 474h16M175 474h5M79 475h11M102 475h16M147 475h16M175 475h5M79 476h11M102 476h16M147 476h16M175 476h5M79 477h11M102 477h16M147 477h16M175 477h5M79 478h11M102 478h16M147 478h16M175 478h5M91 480h10M119 480h10M136 480h11M164 480h11M91 481h10M119 481h10M136 481h11M164 481h11M91 482h10M119 482h10M136 482h11M164 482h11M91 483h10M119 483h10M136 483h11M164 483h11M91 484h10M119 484h10M136 484h11M164 484h11M102 492h5M130 492h5M159 492h4M102 493h5M130 493h5M159 493h4M102 494h5M130 494h5M159 494h4M102 495h5M130 495h5M159 495h4M102 496h5M130 496h5M159 496h4M107 497h22M136 497h16M107 498h22M136 498h16M107 499h22M136 499h16M107 500h22M136 500h16M107 501h22M136 501h16M107 502h22M136 502h16M107 503h22M136 503h16M107 504h22M136 504h16M107 505h22M136 505h16M107 506h22M136 506h16M107 507h22M136 507h16M119 508h10M136 508h11M119 509h10M136 509h11M119 510h10M136 510h11M119 511h10M136 511h11M119 512h10M136 512h11M130 514h5M130 515h5M130 516h5M130 517h5M130 518h5M130 519h5M130 520h5M130 521h5M130 522h5M130 523h5M130 524h5" />
<path stroke="#ffc90e" d="M79 452h11M175 452h5M79 453h11M175 453h5M79 454h11M175 454h5M79 455h11M175 455h5M79 456h11M175 456h5M79 457h11M175 457h5M79 458h11M175 458h5M79 459h11M175 459h5M79 460h11M175 460h5M79 461h11M175 461h5M79 462h11M175 462h5M79 463h11M175 463h5M79 464h11M175 464h5M79 465h11M175 465h5M79 466h11M175 466h5M79 467h11M175 467h5M91 469h10M164 469h11M91 470h10M164 470h11M91 471h10M164 471h11M91 472h10M164 472h11M91 473h10M164 473h11M91 474h10M164 474h11M91 475h10M164 475h11M91 476h10M164 476h11M91 477h10M164 477h11M91 478h10M164 478h11M102 480h16M147 480h16M102 481h16M147 481h16M102 482h16M147 482h16M102 483h16M147 483h16M102 484h16M147 484h16M107 485h11M147 485h6M107 486h11M147 486h5M107 487h11M147 487h5M107 488h11M147 488h5M107 489h11M147 489h5M107 490h11M147 490h5M107 491h11M147 491h5M107 492h22M136 492h16M107 493h22M136 493h16M107 494h22M136 494h16M107 495h22M136 495h16M107 496h22M136 496h16M130 497h5M130 498h5M130 499h5M130 500h5M130 501h5M130 502h5M130 503h5M130 504h5M130 505h5M130 506h5M130 507h5M130 508h5M130 509h5M130 510h5M130 511h5M130 512h5" />
<path stroke="#ff8f22" d="M90 452h1M90 453h1M90 454h1M90 455h1M90 456h1" />
<path stroke="#ffd00b" d="M180 452h1M180 453h1M180 454h1M180 455h1M180 456h1M180 457h1M180 458h1M180 459h1M180 460h1M180 461h1M180 462h1M180 463h1M180 464h1M180 465h1M180 466h1M180 467h1M119 491h10M136 491h11M152 492h1M152 493h1M152 494h1M152 495h1M152 496h1" />
<path stroke="#ffdd07" d="M181 452h5M181 453h5M181 454h5M181 455h5M181 456h5M181 457h5M181 458h5M181 459h5M181 460h5M181 461h5M181 462h5M181 463h5M181 464h5M181 465h5M181 466h5M181 467h5M101 469h1M101 470h1M101 471h1M101 472h1M101 473h1M101 474h1M101 475h1M101 476h1M101 477h1M101 478h1M91 479h27M147 479h28M101 480h1M101 481h1M101 482h1M101 483h1M101 484h1M102 486h5M119 486h10M136 486h11M159 486h4M102 487h5M119 487h10M136 487h11M159 487h4M102 488h5M119 488h10M136 488h11M159 488h4M102 489h5M119 489h10M136 489h11M159 489h4M102 490h5M119 490h10M136 490h11M159 490h4M130 491h5M129 492h1M153 492h5M129 493h1M153 493h5M129 494h1M153 494h5M129 495h1M153 495h5M129 496h1M153 496h5M129 497h1M129 498h1M129 499h1M129 500h1M129 501h1M129 502h1M129 503h1M129 504h1M129 505h1M129 506h1M129 507h1M129 508h1M129 509h1M129 510h1M129 511h1M129 512h1" />
<path stroke="#fff000" d="M186 452h1M186 453h1M186 454h1M186 455h1M186 456h1M186 457h1M186 458h1M186 459h1M186 460h1M186 461h1M186 462h1M186 463h1M186 464h1M186 465h1M186 466h1M186 467h1M119 485h10M136 485h11M158 492h1M158 493h1M158 494h1M158 495h1M158 496h1" />
<path stroke="#ede100" d="M191 452h1M191 453h1M191 454h1M191 455h1M191 456h1" />
<path stroke="rgba(0,0,0,0.39215686274509803)" d="M62 457h1M62 458h1M62 459h1M62 460h1M62 461h1M63 462h10M192 462h11" />
<path stroke="rgba(170,162,0,0.7490196078431373)" d="M73 457h1M73 458h1M73 459h1M73 460h1M73 461h1" />
<path stroke="#ffbc12" d="M90 457h1M90 458h1M90 459h1M90 460h1M90 461h1" />
<path stroke="#ffb813" d="M91 457h10M164 457h11M91 458h10M164 458h11M91 459h10M164 459h11M91 460h10M164 460h11M91 461h10M164 461h11M153 463h5M153 464h5M153 465h5M153 466h5M153 467h5M119 479h10M136 479h11M129 480h1M129 481h1M129 482h1M129 483h1M129 484h1M130 486h5M130 487h5M130 488h5M130 489h5M130 490h5" />
<path stroke="#f09912" d="M101 457h1M101 458h1M101 459h1M101 460h1M101 461h1" />
<path stroke="#e17b12" d="M102 457h5M159 457h4M102 458h5M159 458h4M102 459h5M159 459h4M102 460h5M159 460h4M102 461h5M159 461h4" />
<path stroke="#e14b21" d="M152 457h1M152 458h1M152 459h1M152 460h1M152 461h1" />
<path stroke="#e15e1b" d="M153 457h5M153 458h5M153 459h5M153 460h5M153 461h5" />
<path stroke="#e17913" d="M158 457h1M158 458h1M158 459h1M158 460h1M158 461h1" />
<path stroke="#e37f12" d="M163 457h1M163 458h1M163 459h1M163 460h1M163 461h1" />
<path stroke="rgba(246,233,0,0.9647058823529412)" d="M191 457h1M191 458h1M191 459h1M191 460h1M191 461h1" />
<path stroke="rgba(0,0,0,0.3058823529411765)" d="M62 462h1" />
<path stroke="rgba(182,173,0,0.6980392156862745)" d="M73 462h1" />
<path stroke="#ffc50f" d="M90 462h1" />
<path stroke="#ffc40f" d="M91 462h10M164 462h11" />
<path stroke="#f3ad0f" d="M101 462h1" />
<path stroke="#e7950e" d="M102 462h5M159 462h4" />
<path stroke="#e74e25" d="M107 462h11M130 462h5M147 462h5" />
<path stroke="#de3a25" d="M118 462h1" />
<path stroke="#e64c25" d="M135 462h1" />
<path stroke="#e75b21" d="M152 462h1" />
<path stroke="#e77119" d="M153 462h5" />
<path stroke="#e7920f" d="M158 462h1" />
<path stroke="#e9980e" d="M163 462h1" />
<path stroke="rgba(248,235,0,0.9568627450980393)" d="M191 462h1" />
<path stroke="rgba(255,243,0,0.4980392156862745)" d="M73 463h1M73 464h1M73 465h1M73 466h1M73 467h1M181 469h5M181 470h5M181 471h5M181 472h5M181 473h5M181 474h5M181 475h5M181 476h5M181 477h5M181 478h5M79 479h11M175 479h5M91 486h5M91 487h5M91 488h5M91 489h5M91 490h5M101 492h1M101 493h1M101 494h1M101 495h1M101 496h1M129 514h1M129 515h1M129 516h1M129 517h1M129 518h1M129 519h1M129 520h1M129 521h1M129 522h1M129 523h1M129 524h1" />
<path stroke="#ffe903" d="M90 463h1M90 464h1M90 465h1M90 466h1M90 467h1M79 468h11M175 468h5M118 480h1M118 481h1M118 482h1M118 483h1M118 484h1M158 491h1" />
<path stroke="#fb7627" d="M135 463h1M135 464h1M135 465h1M135 466h1M135 467h1" />
<path stroke="#ff9320" d="M152 463h1M152 464h1M152 465h1M152 466h1M152 467h1" />
<path stroke="#ffee01" d="M158 463h1M158 464h1M158 465h1M158 466h1M158 467h1" />
<path stroke="rgba(255,242,0,0.9294117647058824)" d="M191 463h1M191 464h1M191 465h1M191 466h1M191 467h1M163 492h1M163 493h1M163 494h1M163 495h1M163 496h1M119 513h10M136 513h11M135 514h1M135 515h1M135 516h1M135 517h1M135 518h1M135 519h1M135 520h1M135 521h1M135 522h1M135 523h1M135 524h1" />
<path stroke="rgba(255,246,0,0.10588235294117647)" d="M73 468h1" />
<path stroke="rgba(255,241,0,0.21568627450980393)" d="M74 468h5M187 468h4" />
<path stroke="#ffd709" d="M90 468h1M129 491h1" />
<path stroke="#ffd20b" d="M91 468h10M164 468h11M90 469h1M90 470h1M90 471h1M90 472h1M90 473h1M90 474h1M90 475h1M90 476h1M90 477h1M90 478h1" />
<path stroke="#ffe205" d="M101 468h1" />
<path stroke="#ffd908" d="M107 468h11M147 468h5M118 486h1M118 487h1M118 488h1M118 489h1M118 490h1M153 491h5" />
<path stroke="#f57e20" d="M118 468h1" />
<path stroke="#f97127" d="M129 468h1" />
<path stroke="#fe7d27" d="M135 468h1" />
<path stroke="#ffde07" d="M152 468h1" />
<path stroke="#ffe604" d="M153 468h5" />
<path stroke="#fff100" d="M158 468h1" />
<path stroke="#fff001" d="M163 468h1" />
<path stroke="rgba(255,234,2,0.8588235294117647)" d="M180 468h1" />
<path stroke="rgba(255,235,2,0.6039215686274509)" d="M181 468h5" />
<path stroke="rgba(255,239,0,0.24313725490196078)" d="M186 468h1" />
<path stroke="rgba(255,240,0,0.2)" d="M191 468h1" />
<path stroke="#ff981f" d="M118 469h1M118 470h1M118 471h1M118 472h1M118 473h1M118 474h1M118 475h1M118 476h1M118 477h1M118 478h1" />
<path stroke="#ffef01" d="M163 469h1M163 470h1M163 471h1M163 472h1M163 473h1M163 474h1M163 475h1M163 476h1M163 477h1M163 478h1M135 492h1M135 493h1M135 494h1M135 495h1M135 496h1" />
<path stroke="rgba(255,243,0,0.8196078431372549)" d="M180 469h1M180 470h1M180 471h1M180 472h1M180 473h1M180 474h1M180 475h1M180 476h1M180 477h1M180 478h1" />
<path stroke="rgba(255,227,0,0.03529411764705882)" d="M186 469h1M186 470h1M186 471h1M186 472h1M186 473h1M186 474h1M186 475h1M186 476h1M186 477h1M186 478h1" />
<path stroke="rgba(255,224,6,0.8941176470588236)" d="M90 479h1" />
<path stroke="#ffc111" d="M118 479h1" />
<path stroke="#ff9c1d" d="M129 479h1" />
<path stroke="#ff8326" d="M135 479h1M130 485h5" />
<path stroke="rgba(255,243,0,0.4117647058823529)" d="M180 479h1" />
<path stroke="rgba(255,239,0,0.25098039215686274)" d="M181 479h5" />
<path stroke="rgba(255,255,0,0.01568627450980392)" d="M186 479h1" />
<path stroke="rgba(255,242,0,0.7843137254901961)" d="M90 480h1M90 481h1M90 482h1M90 483h1M90 484h1M118 509h1M118 510h1M118 511h1M118 512h1" />
<path stroke="#ff8724" d="M135 480h1M135 481h1M135 482h1M135 483h1M135 484h1" />
<path stroke="#ffcc0d" d="M163 480h1M163 481h1M163 482h1M163 483h1M163 484h1M135 497h1M135 498h1M135 499h1M135 500h1M135 501h1M135 502h1M135 503h1M135 504h1M135 505h1M135 506h1M135 507h1M135 508h1M135 509h1M135 510h1M135 511h1M135 512h1M130 513h5" />
<path stroke="rgba(255,242,0,0.7568627450980392)" d="M90 485h1" />
<path stroke="rgba(255,242,0,0.9647058823529412)" d="M91 485h5" />
<path stroke="rgba(254,242,1,0.9725490196078431)" d="M96 485h5M164 485h11" />
<path stroke="rgba(255,221,7,0.984313725490196)" d="M101 485h1" />
<path stroke="#ffca0e" d="M102 485h5M153 485h10" />
<path stroke="#ffe803" d="M118 485h1" />
<path stroke="#ffba13" d="M129 485h1" />
<path stroke="#ff8b23" d="M135 485h1" />
<path stroke="#ffcd0d" d="M163 485h1M152 486h1M152 487h1M152 488h1M152 489h1M152 490h1" />
<path stroke="rgba(255,242,0,0.39215686274509803)" d="M90 486h1M90 487h1M90 488h1M90 489h1M90 490h1" />
<path stroke="rgba(250,238,27,0.592156862745098)" d="M96 486h5M164 486h11M96 487h5M164 487h11M96 488h5M164 488h11M96 489h5M164 489h11M96 490h5M164 490h11M153 497h5M153 498h5M153 499h5M153 500h5M153 501h5M153 502h5M153 503h5M153 504h5M153 505h5M153 506h5M153 507h5" />
<path stroke="rgba(252,227,14,0.796078431372549)" d="M101 486h1M101 487h1M101 488h1M101 489h1M101 490h1" />
<path stroke="#ffca0d" d="M129 486h1M129 487h1M129 488h1M129 489h1M129 490h1" />
<path stroke="#ffbb12" d="M135 486h1M135 487h1M135 488h1M135 489h1M135 490h1" />
<path stroke="#ffd30a" d="M153 486h5M153 487h5M153 488h5M153 489h5M153 490h5" />
<path stroke="#ffdc07" d="M158 486h1M158 487h1M158 488h1M158 489h1M158 490h1M135 491h1" />
<path stroke="rgba(254,221,8,0.9725490196078431)" d="M163 486h1M163 487h1M163 488h1M163 489h1M163 490h1" />
<path stroke="rgba(255,248,0,0.13725490196078433)" d="M90 491h1" />
<path stroke="rgba(255,244,0,0.17647058823529413)" d="M91 491h5" />
<path stroke="rgba(250,236,28,0.21176470588235294)" d="M96 491h5M164 491h11" />
<path stroke="rgba(253,235,7,0.6078431372549019)" d="M101 491h1" />
<path stroke="#ffeb02" d="M102 491h5M159 491h4" />
<path stroke="#ffcf0c" d="M118 491h1M152 491h1" />
<path stroke="rgba(254,234,3,0.9450980392156862)" d="M163 491h1" />
<path stroke="rgba(254,241,7,0.8549019607843137)" d="M152 497h1M152 498h1M152 499h1M152 500h1M152 501h1M152 502h1M152 503h1M152 504h1M152 505h1M152 506h1M152 507h1" />
<path stroke="rgba(232,232,23,0.043137254901960784)" d="M158 497h1M158 498h1M158 499h1M158 500h1M158 501h1M158 502h1M158 503h1M158 504h1M158 505h1M158 506h1M158 507h1M153 508h5" />
<path stroke="rgba(255,241,0,0.07058823529411765)" d="M107 508h11M147 508h5" />
<path stroke="rgba(255,242,0,0.8)" d="M118 508h1" />
<path stroke="rgba(255,255,0,0.058823529411764705)" d="M152 508h1" />
<path stroke="rgba(255,0,0,0.00392156862745098)" d="M158 508h1" />
<path stroke="rgba(255,243,0,0.7294117647058823)" d="M118 513h1" />
<path stroke="rgba(255,222,6,0.9647058823529412)" d="M129 513h1" />
<path stroke="rgba(255,207,12,0.996078431372549)" d="M135 513h1" />
</svg>