<svg xmlns="http://www.w3.org/2000/svg" viewBox="0 -0.5 200 500" shape-rendering="crispEdges">
<metadata>Made with Pixels to Svg https://codepen.io/shshaw/pen/XbxvNj</metadata>
<path stroke="#1565c0" d="M0 0h9M10 0h45M56 0h46M103 0h45M149 0h41M191 0h9M0 1h9M10 1h45M56 1h46M103 1h45M149 1h41M191 1h9M0 2h9M10 2h45M56 2h46M103 2h45M149 2h41M191 2h9M0 3h9M10 3h45M56 3h46M103 3h45M149 3h41M191 3h9M0 4h9M10 4h45M56 4h46M103 4h45M149 4h41M191 4h9M0 5h9M10 5h45M56 5h46M103 5h45M149 5h41M191 5h9M0 6h9M10 6h45M56 6h46M103 6h45M149 6h41M191 6h9M0 7h9M10 7h45M56 7h46M103 7h45M149 7h41M191 7h9M0 8h9M10 8h45M56 8h46M103 8h45M149 8h41M191 8h9M0 9h9M10 9h45M56 9h46M103 9h45M149 9h41M191 9h9M0 10h9M10 10h45M56 10h46M103 10h45M149 10h41M191 10h9M0 11h9M10 11h45M56 11h46M103 11h45M149 11h41M191 11h9M0 12h9M10 12h45M56 12h46M103 12h45M149 12h41M191 12h9M0 13h9M10 13h45M56 13h46M103 13h45M149 13h41M191 13h9M0 14h9M10 14h45M56 14h46M103 14h45M149 14h41M191 14h9M0 15h9M10 15h45M56 15h46M103 15h45M149 15h41M191 15h9M0 16h9M10 16h45M56 16h46M103 16h45M149 16h41M191 16h9M0 17h9M10 17h45M56 17h46M103 17h45M149 17h41M191 17h9M0 18h9M10 18h45M56 18h46M103 18h45M149 18h41M191 18h9M0 20h9M10 20h45M56 20h46M103 20h45M149 20h41M191 20h9M0 21h9M10 21h45M56 21h46M103 21h45M149 21h41M191 21h9M0 22h9M10 22h11M25 22h8M37 22h4M53 22h2M56 22h9M73 22h8M93 22h9M103 22h2M113 22h8M133 22h8M157 22h8M177 22h13M191 22h9M0 23h9M10 23h11M25 23h8M37 23h4M53 23h2M56 23h9M73 23h8M93 23h9M103 23h2M113 23h8M133 23h8M157 23h8M177 23h13M191 23h9M0 24h9M10 24h11M25 24h8M37 24h4M53 24h2M56 24h9M73 24h8M93 24h9M103 24h2M113 24h8M133 24h8M157 24h8M177 24h13M191 24h9M0 25h9M10 25h11M25 25h8M37 25h4M53 25h2M56 25h9M73 25h8M93 25h9M103 25h2M113 25h8M133 25h8M157 25h8M177 25h13M191 25h9M0 26h9M10 26h11M25 26h8M37 26h4M45 26h8M57 26h4M65 26h16M85 26h8M97 26h4M105 26h8M117 26h4M125 26h8M137 26h4M145 26h3M149 26h12M165 26h25M191 26h9M0 27h9M10 27h11M25 27h8M37 27h4M45 27h8M57 27h4M65 27h16M85 27h8M97 27h4M105 27h8M117 27h4M125 27h8M137 27h4M145 27h3M149 27h12M165 27h25M191 27h9M0 28h9M10 28h11M25 28h8M37 28h4M45 28h8M57 28h4M65 28h16M85 28h8M97 28h4M105 28h8M117 28h4M125 28h8M137 28h4M145 28h3M149 28h12M165 28h25M191 28h9M0 29h9M10 29h11M25 29h8M37 29h4M45 29h8M57 29h4M65 29h16M85 29h8M97 29h4M105 29h8M117 29h4M125 29h8M137 29h4M145 29h3M149 29h12M165 29h25M191 29h9M0 30h9M10 30h11M25 30h8M37 30h4M53 30h2M56 30h5M65 30h4M77 30h4M93 30h8M117 30h4M125 30h8M137 30h4M153 30h12M173 30h17M191 30h9M0 31h9M10 31h11M25 31h8M37 31h4M53 31h2M56 31h5M65 31h4M77 31h4M93 31h8M117 31h4M125 31h8M137 31h4M153 31h12M173 31h17M191 31h9M0 32h9M10 32h11M25 32h8M37 32h4M53 32h2M56 32h5M65 32h4M77 32h4M93 32h8M117 32h4M125 32h8M137 32h4M153 32h12M173 32h17M191 32h9M0 33h9M10 33h11M25 33h8M37 33h4M53 33h2M56 33h5M65 33h4M77 33h4M93 33h8M117 33h4M125 33h8M137 33h4M153 33h12M173 33h17M191 33h9M0 34h9M10 34h11M25 34h8M37 34h4M45 34h10M56 34h5M65 34h8M77 34h4M85 34h4M93 34h8M105 34h8M117 34h4M125 34h8M137 34h4M145 34h3M149 34h24M177 34h13M191 34h9M0 35h9M10 35h11M25 35h8M37 35h4M45 35h10M56 35h5M65 35h8M77 35h4M85 35h4M93 35h8M105 35h8M117 35h4M125 35h8M137 35h4M145 35h3M149 35h24M177 35h13M191 35h9M0 36h9M10 36h11M25 36h8M37 36h4M45 36h10M56 36h5M65 36h8M77 36h4M85 36h4M93 36h8M105 36h8M117 36h4M125 36h8M137 36h4M145 36h3M149 36h24M177 36h13M191 36h9M0 37h9M10 37h11M25 37h8M37 37h4M45 37h10M56 37h5M65 37h8M77 37h4M85 37h4M93 37h8M105 37h8M117 37h4M125 37h8M137 37h4M145 37h3M149 37h24M177 37h13M191 37h9M0 38h9M10 38h15M33 38h8M45 38h10M56 38h9M73 38h8M85 38h8M97 38h4M105 38h8M117 38h4M133 38h8M157 38h4M173 38h17M191 38h9M0 39h9M10 39h15M33 39h8M45 39h10M56 39h9M73 39h8M85 39h8M97 39h4M105 39h8M117 39h4M133 39h8M157 39h4M173 39h17M191 39h9M0 40h9M10 40h15M33 40h8M45 40h10M56 40h9M73 40h8M85 40h8M97 40h4M105 40h8M117 40h4M133 40h8M157 40h4M173 40h17M191 40h9M0 41h9M10 41h15M33 41h8M45 41h10M56 41h9M73 41h8M85 41h8M97 41h4M105 41h8M117 41h4M133 41h8M157 41h4M173 41h17M191 41h9M0 42h9M10 42h45M56 42h46M103 42h45M149 42h41M191 42h9M0 43h9M10 43h45M56 43h46M103 43h45M149 43h41M191 43h9M0 44h9M10 44h45M56 44h46M103 44h45M149 44h41M191 44h9M0 45h9M10 45h45M56 45h46M103 45h45M149 45h41M191 45h9M0 46h9M10 46h45M56 46h46M103 46h45M149 46h41M191 46h9M0 47h9M10 47h45M56 47h46M103 47h45M149 47h41M191 47h9M0 48h9M10 48h45M56 48h46M103 48h45M149 48h41M191 48h9M0 49h9M10 49h45M56 49h46M103 49h45M149 49h41M191 49h9M0 50h9M10 50h45M56 50h46M103 50h45M149 50h41M191 50h9M0 51h9M10 51h45M56 51h46M103 51h45M149 51h41M191 51h9M0 52h9M10 52h45M56 52h46M103 52h45M149 52h41M191 52h9M0 53h9M10 53h45M56 53h46M103 53h45M149 53h41M191 53h9M0 54h9M10 54h45M56 54h46M103 54h45M149 54h41M191 54h9M0 55h9M10 55h45M56 55h46M103 55h45M149 55h41M191 55h9M0 56h9M10 56h45M56 56h46M103 56h45M149 56h41M191 56h9M0 57h9M10 57h45M56 57h46M103 57h45M149 57h41M191 57h9M0 58h9M10 58h45M56 58h46M103 58h45M149 58h41M191 58h9M0 59h9M10 59h45M56 59h46M103 59h45M149 59h41M191 59h9M0 60h9M10 60h45M56 60h46M103 60h45M149 60h41M191 60h9M0 61h9M10 61h45M56 61h46M103 61h45M149 61h41M191 61h9M0 62h9M10 62h45M56 62h46M103 62h45M149 62h41M191 62h9M0 63h9M10 63h45M56 63h46M103 63h45M149 63h41M191 63h9M0 64h9M10 64h45M56 64h46M103 64h45M149 64h41M191 64h9M0 65h9M10 65h45M56 65h46M103 65h45M149 65h41M191 65h9M0 66h9M10 66h45M56 66h46M103 66h45M149 66h41M191 66h9M0 67h9M10 67h45M56 67h46M103 67h45M149 67h41M191 67h9M0 68h9M10 68h45M56 68h46M103 68h45M149 68h41M191 68h9M0 69h9M10 69h45M56 69h46M103 69h45M149 69h41M191 69h9M0 70h9M10 70h45M56 70h46M103 70h45M149 70h41M191 70h9M0 71h9M10 71h45M56 71h46M103 71h45M149 71h41M191 71h9M0 72h9M10 72h45M56 72h46M103 72h45M149 72h41M191 72h9M0 73h9M10 73h45M56 73h46M103 73h45M149 73h41M191 73h9M0 74h9M10 74h45M56 74h46M103 74h45M149 74h41M191 74h9M0 75h9M10 75h45M56 75h46M103 75h45M149 75h41M191 75h9M0 76h9M10 76h45M56 76h46M103 76h45M149 76h41M191 76h9M0 77h9M10 77h45M56 77h46M103 77h45M149 77h41M191 77h9M0 79h9M10 79h45M56 79h46M103 79h45M149 79h41M191 79h9M0 80h9M10 80h45M56 80h46M103 80h45M149 80h41M191 80h9M0 81h9M10 81h45M56 81h46M103 81h45M149 81h41M191 81h9M0 82h9M10 82h45M56 82h46M103 82h45M149 82h41M191 82h9M0 83h9M10 83h45M56 83h46M103 83h45M149 83h41M191 83h9M0 84h9M10 84h45M56 84h46M103 84h45M149 84h41M191 84h9M0 85h9M10 85h45M56 85h46M103 85h45M149 85h41M191 85h9M0 86h9M10 86h45M56 86h46M103 86h45M149 86h41M191 86h9M0 87h9M10 87h45M56 87h46M103 87h45M149 87h41M191 87h9M0 88h9M10 88h45M56 88h46M103 88h45M149 88h41M191 88h9M0 89h9M10 89h45M56 89h46M103 89h45M149 89h41M191 89h9M0 90h9M10 90h45M56 90h46M103 90h45M149 90h41M191 90h9M0 91h9M10 91h45M56 91h46M103 91h45M149 91h41M191 91h9M0 92h9M10 92h45M56 92h46M103 92h45M149 92h41M191 92h9M0 93h9M10 93h45M56 93h46M103 93h45M149 93h41M191 93h9M0 94h9M10 94h45M56 94h46M103 94h45M149 94h41M191 94h9M0 95h9M10 95h45M56 95h46M103 95h45M149 95h41M191 95h9M0 96h9M10 96h45M56 96h46M103 96h45M149 96h41M191 96h9M0 97h9M10 97h45M56 97h46M103 97h45M149 97h41M191 97h9M0 98h9M10 98h45M56 98h46M103 98h45M149 98h41M191 98h9M0 99h9M10 99h45M56 99h46M103 99h45M149 99h41M191 99h9M0 100h9M10 100h45M56 100h46M103 100h45M149 100h41M191 100h9M0 101h9M10 101h45M56 101h46M103 101h45M149 101h41M191 101h9M0 102h9M10 102h45M56 102h46M103 102h45M149 102h41M191 102h9M0 103h9M10 103h45M56 103h46M103 103h45M149 103h41M191 103h9M0 104h9M10 104h45M56 104h46M103 104h45M149 104h41M191 104h9M0 105h9M10 105h45M56 105h46M103 105h45M149 105h41M191 105h9M0 106h9M10 106h45M56 106h46M103 106h45M149 106h41M191 106h9M0 107h9M10 107h45M56 107h46M103 107h45M149 107h41M191 107h9M0 108h9M10 108h45M56 108h46M103 108h45M149 108h41M191 108h9M0 109h9M10 109h45M56 109h46M103 109h45M149 109h41M191 109h9M0 110h9M10 110h45M56 110h46M103 110h45M149 110h41M191 110h9M0 111h9M10 111h45M56 111h46M103 111h45M149 111h41M191 111h9M0 112h9M10 112h45M56 112h46M103 112h45M149 112h41M191 112h9M0 113h9M10 113h45M56 113h46M103 113h45M149 113h41M191 113h9M0 114h9M10 114h45M56 114h46M103 114h45M149 114h41M191 114h9M0 115h9M10 115h45M56 115h46M103 115h45M149 115h41M191 115h9M0 116h9M10 116h45M56 116h46M103 116h45M149 116h41M191 116h9M0 117h9M10 117h45M56 117h46M103 117h45M149 117h41M191 117h9M0 118h9M10 118h45M56 118h46M103 118h45M149 118h41M191 118h9M0 119h9M10 119h45M56 119h46M103 119h45M149 119h41M191 119h9M0 120h9M10 120h45M56 120h46M103 120h45M149 120h41M191 120h9M0 121h9M10 121h45M56 121h46M103 121h45M149 121h41M191 121h9M0 122h9M10 122h45M56 122h46M103 122h45M149 122h41M191 122h9M0 123h9M10 123h45M56 123h46M103 123h45M149 123h41M191 123h9M0 124h9M10 124h45M56 124h46M103 124h45M149 124h41M191 124h9M0 125h9M10 125h45M56 125h46M103 125h45M149 125h41M191 125h9M0 126h9M10 126h45M56 126h46M103 126h45M149 126h41M191 126h9M0 127h9M10 127h45M56 127h46M103 127h45M149 127h41M191 127h9M0 128h9M10 128h45M56 128h46M103 128h45M149 128h41M191 128h9M0 129h9M10 129h45M56 129h46M103 129h45M149 129h41M191 129h9M0 130h9M10 130h45M56 130h46M103 130h45M149 130h41M191 130h9M0 131h9M10 131h45M56 131h46M103 131h45M149 131h41M191 131h9M0 132h9M10 132h45M56 132h46M103 132h45M149 132h41M191 132h9M0 133h9M10 133h45M56 133h46M103 133h45M149 133h41M191 133h9M0 134h9M10 134h45M56 134h46M103 134h45M149 134h41M191 134h9M0 135h9M10 135h45M56 135h46M103 135h45M149 135h41M191 135h9M0 136h9M10 136h45M56 136h46M103 136h45M149 136h41M191 136h9M0 137h9M10 137h45M56 137h46M103 137h45M149 137h41M191 137h9M0 138h9M10 138h45M56 138h46M103 138h45M149 138h41M191 138h9M0 139h9M10 139h45M56 139h46M103 139h45M149 139h41M191 139h9M0 140h9M10 140h45M56 140h46M103 140h45M149 140h41M191 140h9M0 141h9M10 141h45M56 141h46M103 141h45M149 141h41M191 141h9M0 142h9M10 142h45M56 142h46M103 142h45M149 142h41M191 142h9M0 143h9M10 143h45M56 143h46M103 143h45M149 143h41M191 143h9M0 144h9M10 144h45M56 144h46M103 144h45M149 144h41M191 144h9M0 145h9M10 145h45M56 145h46M103 145h45M149 145h41M191 145h9M0 146h9M10 146h45M56 146h46M103 146h45M149 146h41M191 146h9M0 147h9M10 147h45M56 147h46M103 147h45M149 147h41M191 147h9M0 149h9M10 149h45M56 149h46M103 149h45M149 149h41M191 149h9M0 150h9M10 150h45M56 150h46M103 150h45M149 150h41M191 150h9M0 151h9M10 151h45M56 151h46M103 151h45M149 151h41M191 151h9M0 152h9M10 152h45M56 152h46M103 152h45M149 152h41M191 152h9M0 153h9M10 153h45M56 153h46M103 153h45M149 153h41M191 153h9M0 154h9M10 154h45M56 154h46M103 154h45M149 154h41M191 154h9M0 155h9M10 155h45M56 155h46M103 155h45M149 155h41M191 155h9M0 156h9M10 156h45M56 156h46M103 156h45M149 156h41M191 156h9M0 157h9M10 157h45M56 157h46M103 157h45M149 157h41M191 157h9M0 158h9M10 158h45M56 158h46M103 158h45M149 158h41M191 158h9M0 159h9M10 159h45M56 159h46M103 159h45M149 159h41M191 159h9M0 160h9M10 160h45M56 160h46M103 160h45M149 160h41M191 160h9M0 161h9M10 161h45M56 161h46M103 161h45M149 161h41M191 161h9M0 162h9M10 162h45M56 162h46M103 162h45M149 162h41M191 162h9M0 163h9M10 163h45M56 163h46M103 163h45M149 163h41M191 163h9M0 164h9M10 164h45M56 164h46M103 164h45M149 164h41M191 164h9M0 165h9M10 165h45M56 165h46M103 165h45M149 165h41M191 165h9M0 166h9M10 166h45M56 166h46M103 166h45M149 166h41M191 166h9M0 167h9M10 167h45M56 167h46M103 167h45M149 167h41M191 167h9M0 168h9M10 168h45M56 168h46M103 168h45M149 168h41M191 168h9M0 169h9M10 169h45M56 169h46M103 169h45M149 169h41M191 169h9M0 170h9M10 170h45M56 170h46M103 170h45M149 170h41M191 170h9M0 171h9M10 171h45M56 171h46M103 171h45M149 171h41M191 171h9M0 172h9M10 172h45M56 172h46M103 172h45M149 172h41M191 172h9M0 173h9M10 173h45M56 173h46M103 173h45M149 173h41M191 173h9M0 174h9M10 174h45M56 174h46M103 174h45M149 174h41M191 174h9M0 175h9M10 175h45M56 175h46M103 175h45M149 175h41M191 175h9M0 176h9M10 176h45M56 176h46M103 176h45M149 176h41M191 176h9M0 177h9M10 177h45M56 177h46M103 177h45M149 177h41M191 177h9M0 178h9M10 178h45M56 178h46M103 178h45M149 178h41M191 178h9M0 179h9M10 179h45M56 179h46M103 179h45M149 179h41M191 179h9M0 180h9M10 180h45M56 180h46M103 180h45M149 180h41M191 180h9M0 181h9M10 181h45M56 181h46M103 181h45M149 181h41M191 181h9M0 182h9M10 182h45M56 182h46M103 182h45M149 182h41M191 182h9M0 183h9M10 183h45M56 183h46M103 183h45M149 183h41M191 183h9M0 184h9M10 184h45M56 184h46M103 184h45M149 184h41M191 184h9M0 185h9M10 185h45M56 185h46M103 185h45M149 185h41M191 185h9M0 186h9M10 186h45M56 186h46M103 186h45M149 186h41M191 186h9M0 187h9M10 187h45M56 187h46M103 187h45M149 187h41M191 187h9M0 188h9M10 188h45M56 188h46M103 188h45M149 188h41M191 188h9M0 189h9M10 189h45M56 189h46M103 189h45M149 189h41M191 189h9M0 190h9M10 190h45M56 190h46M103 190h45M149 190h41M191 190h9M0 191h9M10 191h45M56 191h46M103 191h45M149 191h41M191 191h9M0 192h9M10 192h45M56 192h46M103 192h45M149 192h41M191 192h9M0 193h9M10 193h45M56 193h46M103 193h45M149 193h41M191 193h9M0 194h9M10 194h45M56 194h46M103 194h45M149 194h41M191 194h9M0 195h9M10 195h45M56 195h46M103 195h45M149 195h41M191 195h9M0 196h9M10 196h45M56 196h46M103 196h45M149 196h41M191 196h9M0 197h9M10 197h45M56 197h46M103 197h45M149 197h41M191 197h9M0 198h9M10 198h45M56 198h46M103 198h45M149 198h41M191 198h9M0 199h9M10 199h45M56 199h46M103 199h45M149 199h41M191 199h9M0 200h9M10 200h45M56 200h46M103 200h45M149 200h41M191 200h9M0 201h9M10 201h45M56 201h46M103 201h45M149 201h41M191 201h9M0 202h9M10 202h45M56 202h46M103 202h45M149 202h41M191 202h9M0 203h9M10 203h45M56 203h46M103 203h45M149 203h41M191 203h9M0 204h9M10 204h45M56 204h46M103 204h45M149 204h41M191 204h9M0 205h9M10 205h45M56 205h46M103 205h45M149 205h41M191 205h9M0 206h9M10 206h45M56 206h46M103 206h45M149 206h41M191 206h9M0 207h9M10 207h45M56 207h46M103 207h45M149 207h41M191 207h9M0 208h9M10 208h45M56 208h46M103 208h45M149 208h41M191 208h9M0 209h9M10 209h45M56 209h46M103 209h45M149 209h41M191 209h9M0 210h9M10 210h45M56 210h46M103 210h45M149 210h41M191 210h9M0 211h9M10 211h45M56 211h46M103 211h45M149 211h41M191 211h9M0 212h9M10 212h45M56 212h46M103 212h45M149 212h41M191 212h9M0 213h9M10 213h45M56 213h46M103 213h45M149 213h41M191 213h9M0 214h9M10 214h45M56 214h46M103 214h45M149 214h41M191 214h9M0 216h9M10 216h45M56 216h46M103 216h45M149 216h41M191 216h9M0 217h9M10 217h45M56 217h46M103 217h45M149 217h41M191 217h9M0 218h9M10 218h45M56 218h46M103 218h45M149 218h41M191 218h9M0 219h9M10 219h45M56 219h46M103 219h45M149 219h41M191 219h9M0 220h9M10 220h45M56 220h46M103 220h45M149 220h41M191 220h9M0 221h9M10 221h45M56 221h46M103 221h45M149 221h41M191 221h9M0 222h9M10 222h45M56 222h46M103 222h45M149 222h41M191 222h9M0 223h9M10 223h45M56 223h46M103 223h45M149 223h41M191 223h9M0 224h9M10 224h45M56 224h46M103 224h45M149 224h41M191 224h9M0 225h9M10 225h45M56 225h46M103 225h45M149 225h41M191 225h9M0 226h9M10 226h45M56 226h46M103 226h45M149 226h41M191 226h9M0 227h9M10 227h45M56 227h46M103 227h45M149 227h41M191 227h9M0 228h9M10 228h45M56 228h46M103 228h45M149 228h41M191 228h9M0 229h9M10 229h45M56 229h46M103 229h45M149 229h41M191 229h9M0 230h9M10 230h45M56 230h46M103 230h45M149 230h41M191 230h9M0 231h9M10 231h45M56 231h46M103 231h45M149 231h41M191 231h9M0 232h9M10 232h45M56 232h46M103 232h45M149 232h41M191 232h9M0 233h9M10 233h45M56 233h46M103 233h45M149 233h41M191 233h9M0 234h9M10 234h45M56 234h46M103 234h45M149 234h41M191 234h9M0 235h9M10 235h45M56 235h46M103 235h45M149 235h41M191 235h9M0 236h9M10 236h45M56 236h46M103 236h45M149 236h41M191 236h9M0 237h9M10 237h45M56 237h46M103 237h45M149 237h41M191 237h9M0 238h9M10 238h45M56 238h46M103 238h45M149 238h41M191 238h9M0 239h9M10 239h45M56 239h46M103 239h45M149 239h41M191 239h9M0 240h9M10 240h45M56 240h46M103 240h45M149 240h41M191 240h9M0 241h9M10 241h45M56 241h46M103 241h45M149 241h41M191 241h9M0 242h9M10 242h45M56 242h46M103 242h45M149 242h41M191 242h9M0 243h9M10 243h45M56 243h46M103 243h45M149 243h41M191 243h9M0 244h9M10 244h45M56 244h46M103 244h45M149 244h41M191 244h9M0 245h9M10 245h45M56 245h46M103 245h45M149 245h41M191 245h9M0 246h9M10 246h45M56 246h46M103 246h45M149 246h41M191 246h9M0 247h9M10 247h45M56 247h46M103 247h45M149 247h41M191 247h9M0 248h9M10 248h45M56 248h46M103 248h45M149 248h41M191 248h9M0 249h9M10 249h45M56 249h46M103 249h45M149 249h41M191 249h9M0 250h9M10 250h45M56 250h46M103 250h45M149 250h41M191 250h9M0 251h9M10 251h45M56 251h46M103 251h45M149 251h41M191 251h9M0 252h9M10 252h45M56 252h46M103 252h45M149 252h41M191 252h9M0 253h9M10 253h45M56 253h46M103 253h45M149 253h41M191 253h9M0 254h9M10 254h45M56 254h46M103 254h45M149 254h41M191 254h9M0 255h9M10 255h45M56 255h46M103 255h45M149 255h41M191 255h9M0 256h9M10 256h45M56 256h46M103 256h45M149 256h41M191 256h9M0 257h9M10 257h45M56 257h46M103 257h45M149 257h41M191 257h9M0 258h9M10 258h45M56 258h46M103 258h45M149 258h41M191 258h9M0 259h9M10 259h45M56 259h46M103 259h45M149 259h41M191 259h9M0 260h9M10 260h45M56 260h46M103 260h45M149 260h41M191 260h9M0 261h9M10 261h45M56 261h46M103 261h45M149 261h41M191 261h9M0 262h9M10 262h45M56 262h46M103 262h45M149 262h41M191 262h9M0 263h9M10 263h45M56 263h46M103 263h45M149 263h41M191 263h9M0 264h9M10 264h45M56 264h46M103 264h45M149 264h41M191 264h9M0 265h9M10 265h45M56 265h46M103 265h45M149 265h41M191 265h9M0 266h9M10 266h45M56 266h46M103 266h45M149 266h41M191 266h9M0 267h9M10 267h45M56 267h46M103 267h45M149 267h41M191 267h9M0 268h9M10 268h45M56 268h46M103 268h45M149 268h41M191 268h9M0 269h9M10 269h45M56 269h46M103 269h45M149 269h41M191 269h9M0 270h9M10 270h45M56 270h46M103 270h45M149 270h41M191 270h9M0 271h9M10 271h45M56 271h46M103 271h45M149 271h41M191 271h9M0 272h9M10 272h45M56 272h46M103 272h45M149 272h41M191 272h9M0 273h9M10 273h45M56 273h46M103 273h45M149 273h41M191 273h9M0 274h9M10 274h45M56 274h46M103 274h45M149 274h41M191 274h9M0 275h9M10 275h45M56 275h46M103 275h45M149 275h41M191 275h9M0 276h9M10 276h45M56 276h46M103 276h45M149 276h41M191 276h9M0 277h9M10 277h45M56 277h46M103 277h45M149 277h41M191 277h9M0 278h9M10 278h45M56 278h46M103 278h45M149 278h41M191 278h9M0 279h9M10 279h45M56 279h46M103 279h45M149 279h41M191 279h9M0 280h9M10 280h45M56 280h46M103 280h45M149 280h41M191 280h9M0 281h9M10 281h45M56 281h46M103 281h45M149 281h41M191 281h9M0 282h9M10 282h45M56 282h46M103 282h45M149 282h41M191 282h9M0 283h9M10 283h45M56 283h46M103 283h45M149 283h41M191 283h9M0 284h9M10 284h45M56 284h46M103 284h45M149 284h41M191 284h9M0 285h9M10 285h45M56 285h46M103 285h45M149 285h41M191 285h9M0 286h9M10 286h45M56 286h46M103 286h45M149 286h41M191 286h9M0 288h9M10 288h45M56 288h46M103 288h45M149 288h41M191 288h9M0 289h9M10 289h45M56 289h46M103 289h45M149 289h41M191 289h9M0 290h9M10 290h45M56 290h46M103 290h45M149 290h41M191 290h9M0 291h9M10 291h45M56 291h46M103 291h45M149 291h41M191 291h9M0 292h9M10 292h45M56 292h46M103 292h45M149 292h41M191 292h9M0 293h9M10 293h45M56 293h46M103 293h45M149 293h41M191 293h9M0 294h9M10 294h45M56 294h46M103 294h45M149 294h41M191 294h9M0 295h9M10 295h45M56 295h46M103 295h45M149 295h41M191 295h9M0 296h9M10 296h45M56 296h46M103 296h45M149 296h41M191 296h9M0 297h9M10 297h45M56 297h46M103 297h45M149 297h41M191 297h9M0 298h9M10 298h45M56 298h46M103 298h45M149 298h41M191 298h9M0 299h9M10 299h45M56 299h46M103 299h45M149 299h41M191 299h9M0 300h9M10 300h45M56 300h46M103 300h45M149 300h41M191 300h9M0 301h9M10 301h45M56 301h46M103 301h45M149 301h41M191 301h9M0 302h9M10 302h45M56 302h46M103 302h45M149 302h41M191 302h9M0 303h9M10 303h45M56 303h46M103 303h45M149 303h41M191 303h9M0 304h9M10 304h45M56 304h46M103 304h45M149 304h41M191 304h9M0 305h9M10 305h45M56 305h46M103 305h45M149 305h41M191 305h9M0 306h9M10 306h45M56 306h46M103 306h45M149 306h41M191 306h9M0 307h9M10 307h45M56 307h46M103 307h45M149 307h41M191 307h9M0 308h9M10 308h45M56 308h46M103 308h45M149 308h41M191 308h9M0 309h9M10 309h45M56 309h46M103 309h45M149 309h41M191 309h9M0 310h9M10 310h45M56 310h46M103 310h45M149 310h41M191 310h9M0 311h9M10 311h45M56 311h46M103 311h45M149 311h41M191 311h9M0 312h9M10 312h45M56 312h46M103 312h45M149 312h41M191 312h9M0 313h9M10 313h45M56 313h46M103 313h45M149 313h41M191 313h9M0 314h9M10 314h45M56 314h46M103 314h45M149 314h41M191 314h9M0 315h9M10 315h45M56 315h46M103 315h45M149 315h41M191 315h9M0 316h9M10 316h45M56 316h46M103 316h45M149 316h41M191 316h9M0 317h9M10 317h45M56 317h46M103 317h45M149 317h41M191 317h9M0 318h9M10 318h45M56 318h46M103 318h45M149 318h41M191 318h9M0 319h9M10 319h45M56 319h46M103 319h45M149 319h41M191 319h9M0 320h9M10 320h45M56 320h46M103 320h45M149 320h41M191 320h9M0 321h9M10 321h45M56 321h46M103 321h45M149 321h41M191 321h9M0 322h9M10 322h45M56 322h46M103 322h45M149 322h41M191 322h9M0 323h9M10 323h45M56 323h46M103 323h45M149 323h41M191 323h9M0 324h9M10 324h45M56 324h46M103 324h45M149 324h41M191 324h9M0 325h9M10 325h45M56 325h46M103 325h45M149 325h41M191 325h9M0 326h9M10 326h45M56 326h46M103 326h45M149 326h41M191 326h9M0 327h9M10 327h45M56 327h46M103 327h45M149 327h41M191 327h9M0 328h9M10 328h45M56 328h46M103 328h45M149 328h41M191 328h9M0 329h9M10 329h45M56 329h46M103 329h45M149 329h41M191 329h9M0 330h9M10 330h45M56 330h46M103 330h45M149 330h41M191 330h9M0 331h9M10 331h45M56 331h46M103 331h45M149 331h41M191 331h9M0 332h9M10 332h45M56 332h46M103 332h45M149 332h41M191 332h9M0 333h9M10 333h45M56 333h46M103 333h45M149 333h41M191 333h9M0 334h9M10 334h45M56 334h46M103 334h45M149 334h41M191 334h9M0 335h9M10 335h45M56 335h46M103 335h45M149 335h41M191 335h9M0 336h9M10 336h45M56 336h46M103 336h45M149 336h41M191 336h9M0 337h9M10 337h45M56 337h46M103 337h45M149 337h41M191 337h9M0 338h9M10 338h45M56 338h46M103 338h45M149 338h41M191 338h9M0 339h9M10 339h45M56 339h46M103 339h45M149 339h41M191 339h9M0 340h9M10 340h45M56 340h46M103 340h45M149 340h41M191 340h9M0 341h9M10 341h45M56 341h46M103 341h45M149 341h41M191 341h9M0 342h9M10 342h45M56 342h46M103 342h45M149 342h41M191 342h9M0 343h9M10 343h45M56 343h46M103 343h45M149 343h41M191 343h9M0 344h9M10 344h45M56 344h46M103 344h45M149 344h41M191 344h9M0 345h9M10 345h45M56 345h46M103 345h45M149 345h41M191 345h9M0 346h9M10 346h45M56 346h46M103 346h45M149 346h41M191 346h9M0 347h9M10 347h45M56 347h46M103 347h45M149 347h41M191 347h9M0 348h9M10 348h45M56 348h46M103 348h45M149 348h41M191 348h9M0 349h9M10 349h45M56 349h46M103 349h45M149 349h41M191 349h9M0 350h9M10 350h45M56 350h46M103 350h45M149 350h41M191 350h9M0 351h9M10 351h45M56 351h46M103 351h45M149 351h41M191 351h9M0 352h9M10 352h45M56 352h46M103 352h45M149 352h41M191 352h9M0 353h9M10 353h45M56 353h46M103 353h45M149 353h41M191 353h9M0 354h9M10 354h45M56 354h46M103 354h45M149 354h41M191 354h9M0 355h9M10 355h45M56 355h46M103 355h45M149 355h41M191 355h9M0 356h9M10 356h45M56 356h46M103 356h45M149 356h41M191 356h9M0 358h9M10 358h45M56 358h46M103 358h45M149 358h41M191 358h9M0 359h9M10 359h45M56 359h46M103 359h45M149 359h41M191 359h9M0 360h9M10 360h45M56 360h46M103 360h45M149 360h41M191 360h9M0 361h9M10 361h45M56 361h46M103 361h45M149 361h41M191 361h9M0 362h9M10 362h45M56 362h46M103 362h45M149 362h41M191 362h9M0 363h9M10 363h45M56 363h46M103 363h45M149 363h41M191 363h9M0 364h9M10 364h45M56 364h46M103 364h45M149 364h41M191 364h9M0 365h9M10 365h45M56 365h46M103 365h45M149 365h41M191 365h9M0 366h9M10 366h45M56 366h46M103 366h45M149 366h41M191 366h9M0 367h9M10 367h45M56 367h46M103 367h45M149 367h41M191 367h9M0 368h9M10 368h45M56 368h46M103 368h45M149 368h41M191 368h9M0 369h9M10 369h45M56 369h46M103 369h45M149 369h41M191 369h9M0 370h9M10 370h45M56 370h46M103 370h45M149 370h41M191 370h9M0 371h9M10 371h45M56 371h46M103 371h45M149 371h41M191 371h9M0 372h9M10 372h45M56 372h46M103 372h45M149 372h41M191 372h9M0 373h9M10 373h45M56 373h46M103 373h45M149 373h41M191 373h9M0 374h9M10 374h45M56 374h46M103 374h45M149 374h41M191 374h9M0 375h9M10 375h45M56 375h46M103 375h45M149 375h41M191 375h9M0 376h9M10 376h45M56 376h46M103 376h45M149 376h41M191 376h9M0 377h9M10 377h45M56 377h46M103 377h45M149 377h41M191 377h9M0 378h9M10 378h45M56 378h46M103 378h45M149 378h41M191 378h9M0 379h9M10 379h45M56 379h46M103 379h45M149 379h41M191 379h9M0 380h9M10 380h45M56 380h46M103 380h45M149 380h41M191 380h9M0 381h9M10 381h45M56 381h46M103 381h45M149 381h41M191 381h9M0 382h9M10 382h45M56 382h46M103 382h45M149 382h41M191 382h9M0 383h9M10 383h45M56 383h46M103 383h45M149 383h41M191 383h9M0 384h9M10 384h45M56 384h46M103 384h45M149 384h41M191 384h9M0 385h9M10 385h45M56 385h46M103 385h45M149 385h41M191 385h9M0 386h9M10 386h45M56 386h46M103 386h45M149 386h41M191 386h9M0 387h9M10 387h45M56 387h46M103 387h45M149 387h41M191 387h9M0 388h9M10 388h45M56 388h46M103 388h45M149 388h41M191 388h9M0 389h9M10 389h45M56 389h46M103 389h45M149 389h41M191 389h9M0 390h9M10 390h45M56 390h46M103 390h45M149 390h41M191 390h9M0 391h9M10 391h45M56 391h46M103 391h45M149 391h41M191 391h9M0 392h9M10 392h45M56 392h46M103 392h45M149 392h41M191 392h9M0 393h9M10 393h45M56 393h46M103 393h45M149 393h41M191 393h9M0 394h9M10 394h45M56 394h46M103 394h45M149 394h41M191 394h9M0 395h9M10 395h45M56 395h46M103 395h45M149 395h41M191 395h9M0 396h9M10 396h45M56 396h46M103 396h45M149 396h41M191 396h9M0 397h9M10 397h45M56 397h46M103 397h45M149 397h41M191 397h9M0 398h9M10 398h45M56 398h46M103 398h45M149 398h41M191 398h9M0 399h9M10 399h45M56 399h46M103 399h45M149 399h41M191 399h9M0 400h9M10 400h45M56 400h46M103 400h45M149 400h41M191 400h9M0 401h9M10 401h45M56 401h46M103 401h45M149 401h41M191 401h9M0 402h9M10 402h45M56 402h46M103 402h45M149 402h41M191 402h9M0 403h9M10 403h45M56 403h46M103 403h45M149 403h41M191 403h9M0 404h9M10 404h45M56 404h46M103 404h45M149 404h41M191 404h9M0 405h9M10 405h45M56 405h46M103 405h45M149 405h41M191 405h9M0 406h9M10 406h45M56 406h46M103 406h45M149 406h41M191 406h9M0 407h9M10 407h45M56 407h46M103 407h45M149 407h41M191 407h9M0 408h9M10 408h45M56 408h46M103 408h45M149 408h41M191 408h9M0 409h9M10 409h45M56 409h46M103 409h45M149 409h41M191 409h9M0 410h9M10 410h45M56 410h46M103 410h45M149 410h41M191 410h9M0 411h9M10 411h45M56 411h46M103 411h45M149 411h41M191 411h9M0 412h9M10 412h45M56 412h46M103 412h45M149 412h41M191 412h9M0 413h9M10 413h45M56 413h46M103 413h45M149 413h41M191 413h9M0 414h9M10 414h45M56 414h46M103 414h45M149 414h41M191 414h9M0 415h9M10 415h45M56 415h46M103 415h45M149 415h41M191 415h9M0 416h9M10 416h45M56 416h46M103 416h45M149 416h41M191 416h9M0 417h9M10 417h45M56 417h46M103 417h45M149 417h41M191 417h9M0 418h9M10 418h45M56 418h46M103 418h45M149 418h41M191 418h9M0 419h9M10 419h45M56 419h46M103 419h45M149 419h41M191 419h9M0 420h9M10 420h45M56 420h46M103 420h45M149 420h41M191 420h9M0 421h9M10 421h45M56 421h46M103 421h45M149 421h41M191 421h9M0 422h9M10 422h45M56 422h46M103 422h45M149 422h41M191 422h9M0 423h9M10 423h45M56 423h46M103 423h45M149 423h41M191 423h9M0 424h9M10 424h45M56 424h46M103 424h45M149 424h41M191 424h9M0 425h9M10 425h45M56 425h46M103 425h45M149 425h41M191 425h9M0 427h9M10 427h45M56 427h46M103 427h45M149 427h41M191 427h9M0 428h9M10 428h45M56 428h46M103 428h45M149 428h41M191 428h9M0 429h9M10 429h45M56 429h46M103 429h45M149 429h41M191 429h9M0 430h9M10 430h45M56 430h46M103 430h45M149 430h41M191 430h9M0 431h9M10 431h45M56 431h46M103 431h45M149 431h41M191 431h9M0 432h9M10 432h45M56 432h46M103 432h45M149 432h41M191 432h9M0 433h9M10 433h45M56 433h46M103 433h45M149 433h41M191 433h9M0 434h9M10 434h45M56 434h46M103 434h45M149 434h41M191 434h9M0 435h9M10 435h45M56 435h46M103 435h45M149 435h41M191 435h9M0 436h9M10 436h45M56 436h46M103 436h45M149 436h41M191 436h9M0 437h9M10 437h45M56 437h46M103 437h45M149 437h41M191 437h9M0 438h9M10 438h45M56 438h46M103 438h45M149 438h41M191 438h9M0 439h9M10 439h45M56 439h46M103 439h45M149 439h41M191 439h9M0 440h9M10 440h45M56 440h46M103 440h45M149 440h41M191 440h9M0 441h9M10 441h45M56 441h46M103 441h45M149 441h41M191 441h9M0 442h9M10 442h45M56 442h46M103 442h45M149 442h41M191 442h9M0 443h9M10 443h45M56 443h46M103 443h45M149 443h41M191 443h9M0 444h9M10 444h45M56 444h46M103 444h45M149 444h41M191 444h9M0 445h9M10 445h45M56 445h46M103 445h45M149 445h41M191 445h9M0 446h9M10 446h45M56 446h46M103 446h45M149 446h41M191 446h9M0 447h9M10 447h45M56 447h46M103 447h45M149 447h41M191 447h9M0 448h9M10 448h45M56 448h46M103 448h45M149 448h41M191 448h9M0 449h9M10 449h45M56 449h46M103 449h45M149 449h41M191 449h9M0 450h9M10 450h45M56 450h46M103 450h45M149 450h41M191 450h9M0 451h9M10 451h45M56 451h46M103 451h45M149 451h41M191 451h9M0 452h9M10 452h45M56 452h46M103 452h45M149 452h41M191 452h9M0 453h9M10 453h45M56 453h46M103 453h45M149 453h41M191 453h9M0 454h9M10 454h45M56 454h46M103 454h45M149 454h41M191 454h9M0 455h9M10 455h45M56 455h46M103 455h45M149 455h41M191 455h9M0 456h9M10 456h45M56 456h46M103 456h45M149 456h41M191 456h9M0 457h9M10 457h45M56 457h46M103 457h45M149 457h41M191 457h9M0 458h9M10 458h45M56 458h46M103 458h45M149 458h41M191 458h9M0 459h9M10 459h45M56 459h46M103 459h45M149 459h41M191 459h9M0 460h9M10 460h45M56 460h46M103 460h45M149 460h41M191 460h9M0 461h9M10 461h45M56 461h46M103 461h45M149 461h41M191 461h9M0 462h9M10 462h45M56 462h46M103 462h45M149 462h41M191 462h9M0 463h9M10 463h45M56 463h46M103 463h45M149 463h41M191 463h9M0 464h9M10 464h45M56 464h46M103 464h45M149 464h41M191 464h9M0 465h9M10 465h45M56 465h46M103 465h45M149 465h41M191 465h9M0 466h9M10 466h45M56 466h46M103 466h45M149 466h41M191 466h9M0 467h9M10 467h45M56 467h46M103 467h45M149 467h41M191 467h9M0 468h9M10 468h45M56 468h46M103 468h45M149 468h41M191 468h9M0 469h9M10 469h45M56 469h46M103 469h45M149 469h41M191 469h9M0 470h9M10 470h45M56 470h46M103 470h45M149 470h41M191 470h9M0 471h9M10 471h45M56 471h46M103 471h45M149 471h41M191 471h9M0 472h9M10 472h45M56 472h46M103 472h45M149 472h41M191 472h9M0 473h9M10 473h45M56 473h46M103 473h45M149 473h41M191 473h9M0 474h9M10 474h45M56 474h46M103 474h45M149 474h41M191 474h9M0 475h9M10 475h45M56 475h46M103 475h45M149 475h41M191 475h9M0 476h9M10 476h45M56 476h46M103 476h45M149 476h41M191 476h9M0 477h9M10 477h45M56 477h46M103 477h45M149 477h41M191 477h9M0 478h9M10 478h45M56 478h46M103 478h45M149 478h41M191 478h9M0 479h9M10 479h45M56 479h46M103 479h45M149 479h41M191 479h9M0 480h9M10 480h45M56 480h46M103 480h45M149 480h41M191 480h9M0 481h9M10 481h45M56 481h46M103 481h45M149 481h41M191 481h9M0 482h9M10 482h45M56 482h46M103 482h45M149 482h41M191 482h9M0 483h9M10 483h45M56 483h46M103 483h45M149 483h41M191 483h9M0 484h9M10 484h45M56 484h46M103 484h45M149 484h41M191 484h9M0 485h9M10 485h45M56 485h46M103 485h45M149 485h41M191 485h9M0 486h9M10 486h45M56 486h46M103 486h45M149 486h41M191 486h9M0 487h9M10 487h45M56 487h46M103 487h45M149 487h41M191 487h9M0 488h9M10 488h45M56 488h46M103 488h45M149 488h41M191 488h9M0 490h9M10 490h45M56 490h46M103 490h45M149 490h41M191 490h9M0 491h9M10 491h45M56 491h46M103 491h45M149 491h41M191 491h9M0 492h9M10 492h45M56 492h46M103 492h45M149 492h41M191 492h9M0 493h9M10 493h45M56 493h46M103 493h45M149 493h41M191 493h9M0 494h9M10 494h45M56 494h46M103 494h45M149 494h41M191 494h9M0 495h9M10 495h45M56 495h46M103 495h45M149 495h41M191 495h9M0 496h9M10 496h45M56 496h46M103 496h45M149 496h41M191 496h9M0 497h9M10 497h45M56 497h46M103 497h45M149 497h41M191 497h9M0 498h9M10 498h45M56 498h46M103 498h45M149 498h41M191 498h9M0 499h9M10 499h45M56 499h46M103 499h45M149 499h41M191 499h9" />
<path stroke="#4d8acf" d="M9 0h1M55 0h1M102 0h1M148 0h1M190 0h1M9 1h1M55 1h1M102 1h1M148 1h1M190 1h1M9 2h1M55 2h1M102 2h1M148 2h1M190 2h1M9 3h1M55 3h1M102 3h1M148 3h1M190 3h1M9 4h1M55 4h1M102 4h1M148 4h1M190 4h1M9 5h1M55 5h1M102 5h1M148 5h1M190 5h1M9 6h1M55 6h1M102 6h1M148 6h1M190 6h1M9 7h1M55 7h1M102 7h1M148 7h1M190 7h1M9 8h1M55 8h1M102 8h1M148 8h1M190 8h1M9 9h1M55 9h1M102 9h1M148 9h1M190 9h1M9 10h1M55 10h1M102 10h1M148 10h1M190 10h1M9 11h1M55 11h1M102 11h1M148 11h1M190 11h1M9 12h1M55 12h1M102 12h1M148 12h1M190 12h1M9 13h1M55 13h1M102 13h1M148 13h1M190 13h1M9 14h1M55 14h1M102 14h1M148 14h1M190 14h1M9 15h1M55 15h1M102 15h1M148 15h1M190 15h1M9 16h1M55 16h1M102 16h1M148 16h1M190 16h1M9 17h1M55 17h1M102 17h1M148 17h1M190 17h1M9 18h1M55 18h1M102 18h1M148 18h1M190 18h1M0 19h200M9 20h1M55 20h1M102 20h1M148 20h1M190 20h1M9 21h1M55 21h1M102 21h1M148 21h1M190 21h1M9 22h1M55 22h1M102 22h1M190 22h1M9 23h1M55 23h1M102 23h1M190 23h1M9 24h1M55 24h1M102 24h1M190 24h1M9 25h1M55 25h1M102 25h1M190 25h1M9 26h1M148 26h1M190 26h1M9 27h1M148 27h1M190 27h1M9 28h1M148 28h1M190 28h1M9 29h1M148 29h1M190 29h1M9 30h1M55 30h1M190 30h1M9 31h1M55 31h1M190 31h1M9 32h1M55 32h1M190 32h1M9 33h1M55 33h1M190 33h1M9 34h1M55 34h1M148 34h1M190 34h1M9 35h1M55 35h1M148 35h1M190 35h1M9 36h1M55 36h1M148 36h1M190 36h1M9 37h1M55 37h1M148 37h1M190 37h1M9 38h1M55 38h1M190 38h1M9 39h1M55 39h1M190 39h1M9 40h1M55 40h1M190 40h1M9 41h1M55 41h1M190 41h1M9 42h1M55 42h1M102 42h1M148 42h1M190 42h1M9 43h1M55 43h1M102 43h1M148 43h1M190 43h1M9 44h1M55 44h1M102 44h1M148 44h1M190 44h1M9 45h1M55 45h1M102 45h1M148 45h1M190 45h1M9 46h1M55 46h1M102 46h1M148 46h1M190 46h1M9 47h1M55 47h1M102 47h1M148 47h1M190 47h1M9 48h1M55 48h1M102 48h1M148 48h1M190 48h1M9 49h1M55 49h1M102 49h1M148 49h1M190 49h1M9 50h1M55 50h1M102 50h1M148 50h1M190 50h1M9 51h1M55 51h1M102 51h1M148 51h1M190 51h1M9 52h1M55 52h1M102 52h1M148 52h1M190 52h1M9 53h1M55 53h1M102 53h1M148 53h1M190 53h1M9 54h1M55 54h1M102 54h1M148 54h1M190 54h1M9 55h1M55 55h1M102 55h1M148 55h1M190 55h1M9 56h1M55 56h1M102 56h1M148 56h1M190 56h1M9 57h1M55 57h1M102 57h1M148 57h1M190 57h1M9 58h1M55 58h1M102 58h1M148 58h1M190 58h1M9 59h1M55 59h1M102 59h1M148 59h1M190 59h1M9 60h1M55 60h1M102 60h1M148 60h1M190 60h1M9 61h1M55 61h1M102 61h1M148 61h1M190 61h1M9 62h1M55 62h1M102 62h1M148 62h1M190 62h1M9 63h1M55 63h1M102 63h1M148 63h1M190 63h1M9 64h1M55 64h1M102 64h1M148 64h1M190 64h1M9 65h1M55 65h1M102 65h1M148 65h1M190 65h1M9 66h1M55 66h1M102 66h1M148 66h1M190 66h1M9 67h1M55 67h1M102 67h1M148 67h1M190 67h1M9 68h1M55 68h1M102 68h1M148 68h1M190 68h1M9 69h1M55 69h1M102 69h1M148 69h1M190 69h1M9 70h1M55 70h1M102 70h1M148 70h1M190 70h1M9 71h1M55 71h1M102 71h1M148 71h1M190 71h1M9 72h1M55 72h1M102 72h1M148 72h1M190 72h1M9 73h1M55 73h1M102 73h1M148 73h1M190 73h1M9 74h1M55 74h1M102 74h1M148 74h1M190 74h1M9 75h1M55 75h1M102 75h1M148 75h1M190 75h1M9 76h1M55 76h1M102 76h1M148 76h1M190 76h1M9 77h1M55 77h1M102 77h1M148 77h1M190 77h1M0 78h200M9 79h1M55 79h1M102 79h1M148 79h1M190 79h1M9 80h1M55 80h1M102 80h1M148 80h1M190 80h1M9 81h1M55 81h1M102 81h1M148 81h1M190 81h1M9 82h1M55 82h1M102 82h1M148 82h1M190 82h1M9 83h1M55 83h1M102 83h1M148 83h1M190 83h1M9 84h1M55 84h1M102 84h1M148 84h1M190 84h1M9 85h1M55 85h1M102 85h1M148 85h1M190 85h1M9 86h1M55 86h1M102 86h1M148 86h1M190 86h1M9 87h1M55 87h1M102 87h1M148 87h1M190 87h1M9 88h1M55 88h1M102 88h1M148 88h1M190 88h1M9 89h1M55 89h1M102 89h1M148 89h1M190 89h1M9 90h1M55 90h1M102 90h1M148 90h1M190 90h1M9 91h1M55 91h1M102 91h1M148 91h1M190 91h1M9 92h1M55 92h1M102 92h1M148 92h1M190 92h1M9 93h1M55 93h1M102 93h1M148 93h1M190 93h1M9 94h1M55 94h1M102 94h1M148 94h1M190 94h1M9 95h1M55 95h1M102 95h1M148 95h1M190 95h1M9 96h1M55 96h1M102 96h1M148 96h1M190 96h1M9 97h1M55 97h1M102 97h1M148 97h1M190 97h1M9 98h1M55 98h1M102 98h1M148 98h1M190 98h1M9 99h1M55 99h1M102 99h1M148 99h1M190 99h1M9 100h1M55 100h1M102 100h1M148 100h1M190 100h1M9 101h1M55 101h1M102 101h1M148 101h1M190 101h1M9 102h1M55 102h1M102 102h1M148 102h1M190 102h1M9 103h1M55 103h1M102 103h1M148 103h1M190 103h1M9 104h1M55 104h1M102 104h1M148 104h1M190 104h1M9 105h1M55 105h1M102 105h1M148 105h1M190 105h1M9 106h1M55 106h1M102 106h1M148 106h1M190 106h1M9 107h1M55 107h1M102 107h1M148 107h1M190 107h1M9 108h1M55 108h1M102 108h1M148 108h1M190 108h1M9 109h1M55 109h1M102 109h1M148 109h1M190 109h1M9 110h1M55 110h1M102 110h1M148 110h1M190 110h1M9 111h1M55 111h1M102 111h1M148 111h1M190 111h1M9 112h1M55 112h1M102 112h1M148 112h1M190 112h1M9 113h1M55 113h1M102 113h1M148 113h1M190 113h1M9 114h1M55 114h1M102 114h1M148 114h1M190 114h1M9 115h1M55 115h1M102 115h1M148 115h1M190 115h1M9 116h1M55 116h1M102 116h1M148 116h1M190 116h1M9 117h1M55 117h1M102 117h1M148 117h1M190 117h1M9 118h1M55 118h1M102 118h1M148 118h1M190 118h1M9 119h1M55 119h1M102 119h1M148 119h1M190 119h1M9 120h1M55 120h1M102 120h1M148 120h1M190 120h1M9 121h1M55 121h1M102 121h1M148 121h1M190 121h1M9 122h1M55 122h1M102 122h1M148 122h1M190 122h1M9 123h1M55 123h1M102 123h1M148 123h1M190 123h1M9 124h1M55 124h1M102 124h1M148 124h1M190 124h1M9 125h1M55 125h1M102 125h1M148 125h1M190 125h1M9 126h1M55 126h1M102 126h1M148 126h1M190 126h1M9 127h1M55 127h1M102 127h1M148 127h1M190 127h1M9 128h1M55 128h1M102 128h1M148 128h1M190 128h1M9 129h1M55 129h1M102 129h1M148 129h1M190 129h1M9 130h1M55 130h1M102 130h1M148 130h1M190 130h1M9 131h1M55 131h1M102 131h1M148 131h1M190 131h1M9 132h1M55 132h1M102 132h1M148 132h1M190 132h1M9 133h1M55 133h1M102 133h1M148 133h1M190 133h1M9 134h1M55 134h1M102 134h1M148 134h1M190 134h1M9 135h1M55 135h1M102 135h1M148 135h1M190 135h1M9 136h1M55 136h1M102 136h1M148 136h1M190 136h1M9 137h1M55 137h1M102 137h1M148 137h1M190 137h1M9 138h1M55 138h1M102 138h1M148 138h1M190 138h1M9 139h1M55 139h1M102 139h1M148 139h1M190 139h1M9 140h1M55 140h1M102 140h1M148 140h1M190 140h1M9 141h1M55 141h1M102 141h1M148 141h1M190 141h1M9 142h1M55 142h1M102 142h1M148 142h1M190 142h1M9 143h1M55 143h1M102 143h1M148 143h1M190 143h1M9 144h1M55 144h1M102 144h1M148 144h1M190 144h1M9 145h1M55 145h1M102 145h1M148 145h1M190 145h1M9 146h1M55 146h1M102 146h1M148 146h1M190 146h1M9 147h1M55 147h1M102 147h1M148 147h1M190 147h1M0 148h200M9 149h1M55 149h1M102 149h1M148 149h1M190 149h1M9 150h1M55 150h1M102 150h1M148 150h1M190 150h1M9 151h1M55 151h1M102 151h1M148 151h1M190 151h1M9 152h1M55 152h1M102 152h1M148 152h1M190 152h1M9 153h1M55 153h1M102 153h1M148 153h1M190 153h1M9 154h1M55 154h1M102 154h1M148 154h1M190 154h1M9 155h1M55 155h1M102 155h1M148 155h1M190 155h1M9 156h1M55 156h1M102 156h1M148 156h1M190 156h1M9 157h1M55 157h1M102 157h1M148 157h1M190 157h1M9 158h1M55 158h1M102 158h1M148 158h1M190 158h1M9 159h1M55 159h1M102 159h1M148 159h1M190 159h1M9 160h1M55 160h1M102 160h1M148 160h1M190 160h1M9 161h1M55 161h1M102 161h1M148 161h1M190 161h1M9 162h1M55 162h1M102 162h1M148 162h1M190 162h1M9 163h1M55 163h1M102 163h1M148 163h1M190 163h1M9 164h1M55 164h1M102 164h1M148 164h1M190 164h1M9 165h1M55 165h1M102 165h1M148 165h1M190 165h1M9 166h1M55 166h1M102 166h1M148 166h1M190 166h1M9 167h1M55 167h1M102 167h1M148 167h1M190 167h1M9 168h1M55 168h1M102 168h1M148 168h1M190 168h1M9 169h1M55 169h1M102 169h1M148 169h1M190 169h1M9 170h1M55 170h1M102 170h1M148 170h1M190 170h1M9 171h1M55 171h1M102 171h1M148 171h1M190 171h1M9 172h1M55 172h1M102 172h1M148 172h1M190 172h1M9 173h1M55 173h1M102 173h1M148 173h1M190 173h1M9 174h1M55 174h1M102 174h1M148 174h1M190 174h1M9 175h1M55 175h1M102 175h1M148 175h1M190 175h1M9 176h1M55 176h1M102 176h1M148 176h1M190 176h1M9 177h1M55 177h1M102 177h1M148 177h1M190 177h1M9 178h1M55 178h1M102 178h1M148 178h1M190 178h1M9 179h1M55 179h1M102 179h1M148 179h1M190 179h1M9 180h1M55 180h1M102 180h1M148 180h1M190 180h1M9 181h1M55 181h1M102 181h1M148 181h1M190 181h1M9 182h1M55 182h1M102 182h1M148 182h1M190 182h1M9 183h1M55 183h1M102 183h1M148 183h1M190 183h1M9 184h1M55 184h1M102 184h1M148 184h1M190 184h1M9 185h1M55 185h1M102 185h1M148 185h1M190 185h1M9 186h1M55 186h1M102 186h1M148 186h1M190 186h1M9 187h1M55 187h1M102 187h1M148 187h1M190 187h1M9 188h1M55 188h1M102 188h1M148 188h1M190 188h1M9 189h1M55 189h1M102 189h1M148 189h1M190 189h1M9 190h1M55 190h1M102 190h1M148 190h1M190 190h1M9 191h1M55 191h1M102 191h1M148 191h1M190 191h1M9 192h1M55 192h1M102 192h1M148 192h1M190 192h1M9 193h1M55 193h1M102 193h1M148 193h1M190 193h1M9 194h1M55 194h1M102 194h1M148 194h1M190 194h1M9 195h1M55 195h1M102 195h1M148 195h1M190 195h1M9 196h1M55 196h1M102 196h1M148 196h1M190 196h1M9 197h1M55 197h1M102 197h1M148 197h1M190 197h1M9 198h1M55 198h1M102 198h1M148 198h1M190 198h1M9 199h1M55 199h1M102 199h1M148 199h1M190 199h1M9 200h1M55 200h1M102 200h1M148 200h1M190 200h1M9 201h1M55 201h1M102 201h1M148 201h1M190 201h1M9 202h1M55 202h1M102 202h1M148 202h1M190 202h1M9 203h1M55 203h1M102 203h1M148 203h1M190 203h1M9 204h1M55 204h1M102 204h1M148 204h1M190 204h1M9 205h1M55 205h1M102 205h1M148 205h1M190 205h1M9 206h1M55 206h1M102 206h1M148 206h1M190 206h1M9 207h1M55 207h1M102 207h1M148 207h1M190 207h1M9 208h1M55 208h1M102 208h1M148 208h1M190 208h1M9 209h1M55 209h1M102 209h1M148 209h1M190 209h1M9 210h1M55 210h1M102 210h1M148 210h1M190 210h1M9 211h1M55 211h1M102 211h1M148 211h1M190 211h1M9 212h1M55 212h1M102 212h1M148 212h1M190 212h1M9 213h1M55 213h1M102 213h1M148 213h1M190 213h1M9 214h1M55 214h1M102 214h1M148 214h1M190 214h1M0 215h200M9 216h1M55 216h1M102 216h1M148 216h1M190 216h1M9 217h1M55 217h1M102 217h1M148 217h1M190 217h1M9 218h1M55 218h1M102 218h1M148 218h1M190 218h1M9 219h1M55 219h1M102 219h1M148 219h1M190 219h1M9 220h1M55 220h1M102 220h1M148 220h1M190 220h1M9 221h1M55 221h1M102 221h1M148 221h1M190 221h1M9 222h1M55 222h1M102 222h1M148 222h1M190 222h1M9 223h1M55 223h1M102 223h1M148 223h1M190 223h1M9 224h1M55 224h1M102 224h1M148 224h1M190 224h1M9 225h1M55 225h1M102 225h1M148 225h1M190 225h1M9 226h1M55 226h1M102 226h1M148 226h1M190 226h1M9 227h1M55 227h1M102 227h1M148 227h1M190 227h1M9 228h1M55 228h1M102 228h1M148 228h1M190 228h1M9 229h1M55 229h1M102 229h1M148 229h1M190 229h1M9 230h1M55 230h1M102 230h1M148 230h1M190 230h1M9 231h1M55 231h1M102 231h1M148 231h1M190 231h1M9 232h1M55 232h1M102 232h1M148 232h1M190 232h1M9 233h1M55 233h1M102 233h1M148 233h1M190 233h1M9 234h1M55 234h1M102 234h1M148 234h1M190 234h1M9 235h1M55 235h1M102 235h1M148 235h1M190 235h1M9 236h1M55 236h1M102 236h1M148 236h1M190 236h1M9 237h1M55 237h1M102 237h1M148 237h1M190 237h1M9 238h1M55 238h1M102 238h1M148 238h1M190 238h1M9 239h1M55 239h1M102 239h1M148 239h1M190 239h1M9 240h1M55 240h1M102 240h1M148 240h1M190 240h1M9 241h1M55 241h1M102 241h1M148 241h1M190 241h1M9 242h1M55 242h1M102 242h1M148 242h1M190 242h1M9 243h1M55 243h1M102 243h1M148 243h1M190 243h1M9 244h1M55 244h1M102 244h1M148 244h1M190 244h1M9 245h1M55 245h1M102 245h1M148 245h1M190 245h1M9 246h1M55 246h1M102 246h1M148 246h1M190 246h1M9 247h1M55 247h1M102 247h1M148 247h1M190 247h1M9 248h1M55 248h1M102 248h1M148 248h1M190 248h1M9 249h1M55 249h1M102 249h1M148 249h1M190 249h1M9 250h1M55 250h1M102 250h1M148 250h1M190 250h1M9 251h1M55 251h1M102 251h1M148 251h1M190 251h1M9 252h1M55 252h1M102 252h1M148 252h1M190 252h1M9 253h1M55 253h1M102 253h1M148 253h1M190 253h1M9 254h1M55 254h1M102 254h1M148 254h1M190 254h1M9 255h1M55 255h1M102 255h1M148 255h1M190 255h1M9 256h1M55 256h1M102 256h1M148 256h1M190 256h1M9 257h1M55 257h1M102 257h1M148 257h1M190 257h1M9 258h1M55 258h1M102 258h1M148 258h1M190 258h1M9 259h1M55 259h1M102 259h1M148 259h1M190 259h1M9 260h1M55 260h1M102 260h1M148 260h1M190 260h1M9 261h1M55 261h1M102 261h1M148 261h1M190 261h1M9 262h1M55 262h1M102 262h1M148 262h1M190 262h1M9 263h1M55 263h1M102 263h1M148 263h1M190 263h1M9 264h1M55 264h1M102 264h1M148 264h1M190 264h1M9 265h1M55 265h1M102 265h1M148 265h1M190 265h1M9 266h1M55 266h1M102 266h1M148 266h1M190 266h1M9 267h1M55 267h1M102 267h1M148 267h1M190 267h1M9 268h1M55 268h1M102 268h1M148 268h1M190 268h1M9 269h1M55 269h1M102 269h1M148 269h1M190 269h1M9 270h1M55 270h1M102 270h1M148 270h1M190 270h1M9 271h1M55 271h1M102 271h1M148 271h1M190 271h1M9 272h1M55 272h1M102 272h1M148 272h1M190 272h1M9 273h1M55 273h1M102 273h1M148 273h1M190 273h1M9 274h1M55 274h1M102 274h1M148 274h1M190 274h1M9 275h1M55 275h1M102 275h1M148 275h1M190 275h1M9 276h1M55 276h1M102 276h1M148 276h1M190 276h1M9 277h1M55 277h1M102 277h1M148 277h1M190 277h1M9 278h1M55 278h1M102 278h1M148 278h1M190 278h1M9 279h1M55 279h1M102 279h1M148 279h1M190 279h1M9 280h1M55 280h1M102 280h1M148 280h1M190 280h1M9 281h1M55 281h1M102 281h1M148 281h1M190 281h1M9 282h1M55 282h1M102 282h1M148 282h1M190 282h1M9 283h1M55 283h1M102 283h1M148 283h1M190 283h1M9 284h1M55 284h1M102 284h1M148 284h1M190 284h1M9 285h1M55 285h1M102 285h1M148 285h1M190 285h1M9 286h1M55 286h1M102 286h1M148 286h1M190 286h1M0 287h200M9 288h1M55 288h1M102 288h1M148 288h1M190 288h1M9 289h1M55 289h1M102 289h1M148 289h1M190 289h1M9 290h1M55 290h1M102 290h1M148 290h1M190 290h1M9 291h1M55 291h1M102 291h1M148 291h1M190 291h1M9 292h1M55 292h1M102 292h1M148 292h1M190 292h1M9 293h1M55 293h1M102 293h1M148 293h1M190 293h1M9 294h1M55 294h1M102 294h1M148 294h1M190 294h1M9 295h1M55 295h1M102 295h1M148 295h1M190 295h1M9 296h1M55 296h1M102 296h1M148 296h1M190 296h1M9 297h1M55 297h1M102 297h1M148 297h1M190 297h1M9 298h1M55 298h1M102 298h1M148 298h1M190 298h1M9 299h1M55 299h1M102 299h1M148 299h1M190 299h1M9 300h1M55 300h1M102 300h1M148 300h1M190 300h1M9 301h1M55 301h1M102 301h1M148 301h1M190 301h1M9 302h1M55 302h1M102 302h1M148 302h1M190 302h1M9 303h1M55 303h1M102 303h1M148 303h1M190 303h1M9 304h1M55 304h1M102 304h1M148 304h1M190 304h1M9 305h1M55 305h1M102 305h1M148 305h1M190 305h1M9 306h1M55 306h1M102 306h1M148 306h1M190 306h1M9 307h1M55 307h1M102 307h1M148 307h1M190 307h1M9 308h1M55 308h1M102 308h1M148 308h1M190 308h1M9 309h1M55 309h1M102 309h1M148 309h1M190 309h1M9 310h1M55 310h1M102 310h1M148 310h1M190 310h1M9 311h1M55 311h1M102 311h1M148 311h1M190 311h1M9 312h1M55 312h1M102 312h1M148 312h1M190 312h1M9 313h1M55 313h1M102 313h1M148 313h1M190 313h1M9 314h1M55 314h1M102 314h1M148 314h1M190 314h1M9 315h1M55 315h1M102 315h1M148 315h1M190 315h1M9 316h1M55 316h1M102 316h1M148 316h1M190 316h1M9 317h1M55 317h1M102 317h1M148 317h1M190 317h1M9 318h1M55 318h1M102 318h1M148 318h1M190 318h1M9 319h1M55 319h1M102 319h1M148 319h1M190 319h1M9 320h1M55 320h1M102 320h1M148 320h1M190 320h1M9 321h1M55 321h1M102 321h1M148 321h1M190 321h1M9 322h1M55 322h1M102 322h1M148 322h1M190 322h1M9 323h1M55 323h1M102 323h1M148 323h1M190 323h1M9 324h1M55 324h1M102 324h1M148 324h1M190 324h1M9 325h1M55 325h1M102 325h1M148 325h1M190 325h1M9 326h1M55 326h1M102 326h1M148 326h1M190 326h1M9 327h1M55 327h1M102 327h1M148 327h1M190 327h1M9 328h1M55 328h1M102 328h1M148 328h1M190 328h1M9 329h1M55 329h1M102 329h1M148 329h1M190 329h1M9 330h1M55 330h1M102 330h1M148 330h1M190 330h1M9 331h1M55 331h1M102 331h1M148 331h1M190 331h1M9 332h1M55 332h1M102 332h1M148 332h1M190 332h1M9 333h1M55 333h1M102 333h1M148 333h1M190 333h1M9 334h1M55 334h1M102 334h1M148 334h1M190 334h1M9 335h1M55 335h1M102 335h1M148 335h1M190 335h1M9 336h1M55 336h1M102 336h1M148 336h1M190 336h1M9 337h1M55 337h1M102 337h1M148 337h1M190 337h1M9 338h1M55 338h1M102 338h1M148 338h1M190 338h1M9 339h1M55 339h1M102 339h1M148 339h1M190 339h1M9 340h1M55 340h1M102 340h1M148 340h1M190 340h1M9 341h1M55 341h1M102 341h1M148 341h1M190 341h1M9 342h1M55 342h1M102 342h1M148 342h1M190 342h1M9 343h1M55 343h1M102 343h1M148 343h1M190 343h1M9 344h1M55 344h1M102 344h1M148 344h1M190 344h1M9 345h1M55 345h1M102 345h1M148 345h1M190 345h1M9 346h1M55 346h1M102 346h1M148 346h1M190 346h1M9 347h1M55 347h1M102 347h1M148 347h1M190 347h1M9 348h1M55 348h1M102 348h1M148 348h1M190 348h1M9 349h1M55 349h1M102 349h1M148 349h1M190 349h1M9 350h1M55 350h1M102 350h1M148 350h1M190 350h1M9 351h1M55 351h1M102 351h1M148 351h1M190 351h1M9 352h1M55 352h1M102 352h1M148 352h1M190 352h1M9 353h1M55 353h1M102 353h1M148 353h1M190 353h1M9 354h1M55 354h1M102 354h1M148 354h1M190 354h1M9 355h1M55 355h1M102 355h1M148 355h1M190 355h1M9 356h1M55 356h1M102 356h1M148 356h1M190 356h1M0 357h200M9 358h1M55 358h1M102 358h1M148 358h1M190 358h1M9 359h1M55 359h1M102 359h1M148 359h1M190 359h1M9 360h1M55 360h1M102 360h1M148 360h1M190 360h1M9 361h1M55 361h1M102 361h1M148 361h1M190 361h1M9 362h1M55 362h1M102 362h1M148 362h1M190 362h1M9 363h1M55 363h1M102 363h1M148 363h1M190 363h1M9 364h1M55 364h1M102 364h1M148 364h1M190 364h1M9 365h1M55 365h1M102 365h1M148 365h1M190 365h1M9 366h1M55 366h1M102 366h1M148 366h1M190 366h1M9 367h1M55 367h1M102 367h1M148 367h1M190 367h1M9 368h1M55 368h1M102 368h1M148 368h1M190 368h1M9 369h1M55 369h1M102 369h1M148 369h1M190 369h1M9 370h1M55 370h1M102 370h1M148 370h1M190 370h1M9 371h1M55 371h1M102 371h1M148 371h1M190 371h1M9 372h1M55 372h1M102 372h1M148 372h1M190 372h1M9 373h1M55 373h1M102 373h1M148 373h1M190 373h1M9 374h1M55 374h1M102 374h1M148 374h1M190 374h1M9 375h1M55 375h1M102 375h1M148 375h1M190 375h1M9 376h1M55 376h1M102 376h1M148 376h1M190 376h1M9 377h1M55 377h1M102 377h1M148 377h1M190 377h1M9 378h1M55 378h1M102 378h1M148 378h1M190 378h1M9 379h1M55 379h1M102 379h1M148 379h1M190 379h1M9 380h1M55 380h1M102 380h1M148 380h1M190 380h1M9 381h1M55 381h1M102 381h1M148 381h1M190 381h1M9 382h1M55 382h1M102 382h1M148 382h1M190 382h1M9 383h1M55 383h1M102 383h1M148 383h1M190 383h1M9 384h1M55 384h1M102 384h1M148 384h1M190 384h1M9 385h1M55 385h1M102 385h1M148 385h1M190 385h1M9 386h1M55 386h1M102 386h1M148 386h1M190 386h1M9 387h1M55 387h1M102 387h1M148 387h1M190 387h1M9 388h1M55 388h1M102 388h1M148 388h1M190 388h1M9 389h1M55 389h1M102 389h1M148 389h1M190 389h1M9 390h1M55 390h1M102 390h1M148 390h1M190 390h1M9 391h1M55 391h1M102 391h1M148 391h1M190 391h1M9 392h1M55 392h1M102 392h1M148 392h1M190 392h1M9 393h1M55 393h1M102 393h1M148 393h1M190 393h1M9 394h1M55 394h1M102 394h1M148 394h1M190 394h1M9 395h1M55 395h1M102 395h1M148 395h1M190 395h1M9 396h1M55 396h1M102 396h1M148 396h1M190 396h1M9 397h1M55 397h1M102 397h1M148 397h1M190 397h1M9 398h1M55 398h1M102 398h1M148 398h1M190 398h1M9 399h1M55 399h1M102 399h1M148 399h1M190 399h1M9 400h1M55 400h1M102 400h1M148 400h1M190 400h1M9 401h1M55 401h1M102 401h1M148 401h1M190 401h1M9 402h1M55 402h1M102 402h1M148 402h1M190 402h1M9 403h1M55 403h1M102 403h1M148 403h1M190 403h1M9 404h1M55 404h1M102 404h1M148 404h1M190 404h1M9 405h1M55 405h1M102 405h1M148 405h1M190 405h1M9 406h1M55 406h1M102 406h1M148 406h1M190 406h1M9 407h1M55 407h1M102 407h1M148 407h1M190 407h1M9 408h1M55 408h1M102 408h1M148 408h1M190 408h1M9 409h1M55 409h1M102 409h1M148 409h1M190 409h1M9 410h1M55 410h1M102 410h1M148 410h1M190 410h1M9 411h1M55 411h1M102 411h1M148 411h1M190 411h1M9 412h1M55 412h1M102 412h1M148 412h1M190 412h1M9 413h1M55 413h1M102 413h1M148 413h1M190 413h1M9 414h1M55 414h1M102 414h1M148 414h1M190 414h1M9 415h1M55 415h1M102 415h1M148 415h1M190 415h1M9 416h1M55 416h1M102 416h1M148 416h1M190 416h1M9 417h1M55 417h1M102 417h1M148 417h1M190 417h1M9 418h1M55 418h1M102 418h1M148 418h1M190 418h1M9 419h1M55 419h1M102 419h1M148 419h1M190 419h1M9 420h1M55 420h1M102 420h1M148 420h1M190 420h1M9 421h1M55 421h1M102 421h1M148 421h1M190 421h1M9 422h1M55 422h1M102 422h1M148 422h1M190 422h1M9 423h1M55 423h1M102 423h1M148 423h1M190 423h1M9 424h1M55 424h1M102 424h1M148 424h1M190 424h1M9 425h1M55 425h1M102 425h1M148 425h1M190 425h1M0 426h200M9 427h1M55 427h1M102 427h1M148 427h1M190 427h1M9 428h1M55 428h1M102 428h1M148 428h1M190 428h1M9 429h1M55 429h1M102 429h1M148 429h1M190 429h1M9 430h1M55 430h1M102 430h1M148 430h1M190 430h1M9 431h1M55 431h1M102 431h1M148 431h1M190 431h1M9 432h1M55 432h1M102 432h1M148 432h1M190 432h1M9 433h1M55 433h1M102 433h1M148 433h1M190 433h1M9 434h1M55 434h1M102 434h1M148 434h1M190 434h1M9 435h1M55 435h1M102 435h1M148 435h1M190 435h1M9 436h1M55 436h1M102 436h1M148 436h1M190 436h1M9 437h1M55 437h1M102 437h1M148 437h1M190 437h1M9 438h1M55 438h1M102 438h1M148 438h1M190 438h1M9 439h1M55 439h1M102 439h1M148 439h1M190 439h1M9 440h1M55 440h1M102 440h1M148 440h1M190 440h1M9 441h1M55 441h1M102 441h1M148 441h1M190 441h1M9 442h1M55 442h1M102 442h1M148 442h1M190 442h1M9 443h1M55 443h1M102 443h1M148 443h1M190 443h1M9 444h1M55 444h1M102 444h1M148 444h1M190 444h1M9 445h1M55 445h1M102 445h1M148 445h1M190 445h1M9 446h1M55 446h1M102 446h1M148 446h1M190 446h1M9 447h1M55 447h1M102 447h1M148 447h1M190 447h1M9 448h1M55 448h1M102 448h1M148 448h1M190 448h1M9 449h1M55 449h1M102 449h1M148 449h1M190 449h1M9 450h1M55 450h1M102 450h1M148 450h1M190 450h1M9 451h1M55 451h1M102 451h1M148 451h1M190 451h1M9 452h1M55 452h1M102 452h1M148 452h1M190 452h1M9 453h1M55 453h1M102 453h1M148 453h1M190 453h1M9 454h1M55 454h1M102 454h1M148 454h1M190 454h1M9 455h1M55 455h1M102 455h1M148 455h1M190 455h1M9 456h1M55 456h1M102 456h1M148 456h1M190 456h1M9 457h1M55 457h1M102 457h1M148 457h1M190 457h1M9 458h1M55 458h1M102 458h1M148 458h1M190 458h1M9 459h1M55 459h1M102 459h1M148 459h1M190 459h1M9 460h1M55 460h1M102 460h1M148 460h1M190 460h1M9 461h1M55 461h1M102 461h1M148 461h1M190 461h1M9 462h1M55 462h1M102 462h1M148 462h1M190 462h1M9 463h1M55 463h1M102 463h1M148 463h1M190 463h1M9 464h1M55 464h1M102 464h1M148 464h1M190 464h1M9 465h1M55 465h1M102 465h1M148 465h1M190 465h1M9 466h1M55 466h1M102 466h1M148 466h1M190 466h1M9 467h1M55 467h1M102 467h1M148 467h1M190 467h1M9 468h1M55 468h1M102 468h1M148 468h1M190 468h1M9 469h1M55 469h1M102 469h1M148 469h1M190 469h1M9 470h1M55 470h1M102 470h1M148 470h1M190 470h1M9 471h1M55 471h1M102 471h1M148 471h1M190 471h1M9 472h1M55 472h1M102 472h1M148 472h1M190 472h1M9 473h1M55 473h1M102 473h1M148 473h1M190 473h1M9 474h1M55 474h1M102 474h1M148 474h1M190 474h1M9 475h1M55 475h1M102 475h1M148 475h1M190 475h1M9 476h1M55 476h1M102 476h1M148 476h1M190 476h1M9 477h1M55 477h1M102 477h1M148 477h1M190 477h1M9 478h1M55 478h1M102 478h1M148 478h1M190 478h1M9 479h1M55 479h1M102 479h1M148 479h1M190 479h1M9 480h1M55 480h1M102 480h1M148 480h1M190 480h1M9 481h1M55 481h1M102 481h1M148 481h1M190 481h1M9 482h1M55 482h1M102 482h1M148 482h1M190 482h1M9 483h1M55 483h1M102 483h1M148 483h1M190 483h1M9 484h1M55 484h1M102 484h1M148 484h1M190 484h1M9 485h1M55 485h1M102 485h1M148 485h1M190 485h1M9 486h1M55 486h1M102 486h1M148 486h1M190 486h1M9 487h1M55 487h1M102 487h1M148 487h1M190 487h1M9 488h1M55 488h1M102 488h1M148 488h1M190 488h1M0 489h200M9 490h1M55 490h1M102 490h1M148 490h1M190 490h1M9 491h1M55 491h1M102 491h1M148 491h1M190 491h1M9 492h1M55 492h1M102 492h1M148 492h1M190 492h1M9 493h1M55 493h1M102 493h1M148 493h1M190 493h1M9 494h1M55 494h1M102 494h1M148 494h1M190 494h1M9 495h1M55 495h1M102 495h1M148 495h1M190 495h1M9 496h1M55 496h1M102 496h1M148 496h1M190 496h1M9 497h1M55 497h1M102 497h1M148 497h1M190 497h1M9 498h1M55 498h1M102 498h1M148 498h1M190 498h1M9 499h1M55 499h1M102 499h1M148 499h1M190 499h1" />
<path stroke="#ffffff" d="M21 22h4M33 22h4M41 22h12M65 22h8M81 22h12M105 22h8M121 22h12M141 22h16M165 22h12M21 23h4M33 23h4M41 23h12M65 23h8M81 23h12M105 23h8M121 23h12M141 23h16M165 23h12M21 24h4M33 24h4M41 24h12M65 24h8M81 24h12M105 24h8M121 24h12M141 24h16M165 24h12M21 25h4M33 25h4M41 25h12M65 25h8M81 25h12M105 25h8M121 25h12M141 25h16M165 25h12M21 26h4M33 26h4M41 26h4M53 26h4M61 26h4M81 26h4M93 26h4M101 26h4M113 26h4M121 26h4M133 26h4M141 26h4M161 26h4M21 27h4M33 27h4M41 27h4M53 27h4M61 27h4M81 27h4M93 27h4M101 27h4M113 27h4M121 27h4M133 27h4M141 27h4M161 27h4M21 28h4M33 28h4M41 28h4M53 28h4M61 28h4M81 28h4M93 28h4M101 28h4M113 28h4M121 28h4M133 28h4M141 28h4M161 28h4M21 29h4M33 29h4M41 29h4M53 29h4M61 29h4M81 29h4M93 29h4M101 29h4M113 29h4M121 29h4M133 29h4M141 29h4M161 29h4M21 30h4M33 30h4M41 30h12M61 30h4M69 30h8M81 30h12M101 30h16M121 30h4M133 30h4M141 30h12M165 30h8M21 31h4M33 31h4M41 31h12M61 31h4M69 31h8M81 31h12M101 31h16M121 31h4M133 31h4M141 31h12M165 31h8M21 32h4M33 32h4M41 32h12M61 32h4M69 32h8M81 32h12M101 32h16M121 32h4M133 32h4M141 32h12M165 32h8M21 33h4M33 33h4M41 33h12M61 33h4M69 33h8M81 33h12M101 33h16M121 33h4M133 33h4M141 33h12M165 33h8M21 34h4M33 34h4M41 34h4M61 34h4M73 34h4M81 34h4M89 34h4M101 34h4M113 34h4M121 34h4M133 34h4M141 34h4M173 34h4M21 35h4M33 35h4M41 35h4M61 35h4M73 35h4M81 35h4M89 35h4M101 35h4M113 35h4M121 35h4M133 35h4M141 35h4M173 35h4M21 36h4M33 36h4M41 36h4M61 36h4M73 36h4M81 36h4M89 36h4M101 36h4M113 36h4M121 36h4M133 36h4M141 36h4M173 36h4M21 37h4M33 37h4M41 37h4M61 37h4M73 37h4M81 37h4M89 37h4M101 37h4M113 37h4M121 37h4M133 37h4M141 37h4M173 37h4M25 38h8M41 38h4M65 38h8M81 38h4M93 38h4M101 38h4M113 38h4M121 38h12M141 38h16M161 38h12M25 39h8M41 39h4M65 39h8M81 39h4M93 39h4M101 39h4M113 39h4M121 39h12M141 39h16M161 39h12M25 40h8M41 40h4M65 40h8M81 40h4M93 40h4M101 40h4M113 40h4M121 40h12M141 40h16M161 40h12M25 41h8M41 41h4M65 41h8M81 41h4M93 41h4M101 41h4M113 41h4M121 41h12M141 41h16M161 41h12" />
</svg>